<?xml version="1.0" encoding="utf-8"?>
<!-- Generator: Adobe Illustrator 16.0.0, SVG Export Plug-In . SVG Version: 6.00 Build 0)  -->
<!DOCTYPE svg PUBLIC "-//W3C//DTD SVG 1.1//EN" "http://www.w3.org/Graphics/SVG/1.1/DTD/svg11.dtd">
<svg version="1.1" id="Layer_1" xmlns="http://www.w3.org/2000/svg" xmlns:xlink="http://www.w3.org/1999/xlink" x="0px" y="0px"
	 width="300px" height="300px" viewBox="0 0 300 300" enable-background="new 0 0 300 300" xml:space="preserve">
<g>
	<rect x="24" y="160" fill="#4D4D4D" width="252" height="48"/>
	<polygon fill="#808080" points="276,160 242,112 58,112 24,160 	"/>
	<path fill="#727272" d="M242,112l34,48H24C24,160,219.333,140,242,112z"/>
	
		<ellipse transform="matrix(0.9994 0.0334 -0.0334 0.9994 4.6145 -5.0936)" opacity="0.7" fill="#353535" cx="154.992" cy="135.779" rx="76.996" ry="18.499"/>
	<g id="button">
		<path fill="#A8000D" d="M78,132v-23.593v-0.147c0,9.433,31.517,17.152,71,17.152c39.484,0,71-7.374,71-16.806l0,0l0,0v23.081
			c0,9.432-31.379,16.979-70.863,16.979c-39.483,0-71.137-7.422-71.137-16.854"/>
		<path opacity="0.1" fill="#282828" d="M102.241,144.141c73.533,7.146,113.352-30.011,113.352-30.011
			c3.306-1.287,4.201-2.487,4.407-3.934c0.125-0.87,0,21.039,0,21.039c0,9.684-30.879,17.432-70.363,17.432
			c-18.588,0-35.289-1.748-47.892-4.592"/>
		<ellipse fill="#D30010" cx="149" cy="109.203" rx="71" ry="17.078"/>
		<path fill="#D30010" d="M168,124.606"/>
		<path fill="#890017" d="M220,111.355"/>
	</g>
	<path fill="none" stroke="#000000" stroke-miterlimit="10" d="M275.5,180.625"/>
	<path fill="none" stroke="#000000" stroke-miterlimit="10" d="M275.5,159.625"/>
</g>
</svg>
