<?xml version="1.0" encoding="utf-8"?>
<!-- Generator: Adobe Illustrator 16.0.0, SVG Export Plug-In . SVG Version: 6.00 Build 0)  -->
<!DOCTYPE svg PUBLIC "-//W3C//DTD SVG 1.1//EN" "http://www.w3.org/Graphics/SVG/1.1/DTD/svg11.dtd">
<svg version="1.1" id="Layer_1" xmlns="http://www.w3.org/2000/svg" xmlns:xlink="http://www.w3.org/1999/xlink" x="0px" y="0px"
	 width="300px" height="300px" viewBox="0 0 300 300" enable-background="new 0 0 300 300" xml:space="preserve">
<g>
	<g>
		<g>
			<path fill="#7DCAF9" d="M221.638,152.222c0.029,0.581-0.015,1.13-0.125,1.636c-0.462,2.261-2.149,3.846-4.196,3.947
				c-0.074,0.008-0.147,0.008-0.22,0.008c-2.217,0-4.146-1.745-4.571-4.352c-0.044-0.24-0.073-0.498-0.089-0.756
				c-0.293-5.604,3.963-12.442,3.963-12.442S221.453,146.61,221.638,152.222z"/>
			<path fill="#66A4C4" d="M217.316,157.805c-0.074,0.008-0.147,0.008-0.22,0.008c-2.423,0-4.506-2.091-4.66-5.107
				c-0.035-0.711,0-1.443,0.089-2.177c0.425,2.605,2.354,4.35,4.571,4.35c0.072,0,0.146,0,0.22-0.007
				c2.047-0.104,3.734-1.688,4.196-3.948c0.065,0.433,0.11,0.866,0.125,1.298C221.8,155.325,219.832,157.674,217.316,157.805z"/>
		</g>
		
			<ellipse transform="matrix(0.9965 0.0838 -0.0838 0.9965 13.5043 -17.4827)" fill="#B6E4FC" cx="214.945" cy="152.074" rx="1.398" ry="2.534"/>
		<path fill="#7DCAF9" d="M198.201,210.069c0.03,0.637-0.015,1.243-0.13,1.8c-0.479,2.487-2.226,4.23-4.346,4.345
			c-0.075,0.007-0.15,0.007-0.227,0.007c-2.294,0-4.291-1.922-4.733-4.786c-0.045-0.269-0.074-0.55-0.09-0.833
			c-0.304-6.167,4.103-13.693,4.103-13.693S198.013,203.893,198.201,210.069z"/>
		<path fill="#7DCAF9" d="M220.192,191.791c0.022,0.708-0.012,1.382-0.097,2.001c-0.362,2.77-1.683,4.708-3.281,4.834
			c-0.058,0.01-0.115,0.01-0.173,0.01c-1.732,0-3.24-2.14-3.573-5.326c-0.034-0.298-0.057-0.612-0.068-0.927
			c-0.229-6.862,3.099-15.234,3.099-15.234S220.05,184.919,220.192,191.791z"/>
		<path fill="#7DCAF9" d="M114.805,227.359c0.021,0.709-0.012,1.382-0.098,2.001c-0.362,2.77-1.681,4.708-3.28,4.834
			c-0.058,0.009-0.116,0.009-0.173,0.009c-1.732,0-3.241-2.139-3.574-5.325c-0.033-0.298-0.057-0.612-0.068-0.928
			c-0.229-6.861,3.098-15.233,3.098-15.233S114.662,220.487,114.805,227.359z"/>
		<path fill="#7DCAF9" d="M142.997,238.886c0.015,0.502-0.007,0.979-0.069,1.417c-0.255,1.959-1.189,3.33-2.321,3.421
			c-0.041,0.004-0.082,0.004-0.122,0.004c-1.226,0-2.294-1.513-2.529-3.768c-0.024-0.21-0.04-0.432-0.049-0.656
			c-0.161-4.854,2.193-10.779,2.193-10.779S142.896,234.023,142.997,238.886z"/>
		<path fill="#7DCAF9" d="M103.477,130.864c0.015,0.501-0.008,0.978-0.069,1.417c-0.256,1.959-1.19,3.331-2.322,3.42
			c-0.041,0.006-0.081,0.006-0.122,0.006c-1.226,0-2.293-1.513-2.528-3.768c-0.024-0.21-0.04-0.433-0.048-0.656
			c-0.163-4.855,2.192-10.78,2.192-10.78S103.375,126.001,103.477,130.864z"/>
		<path fill="#7DCAF9" d="M237.295,147.98c-0.092,0.769-0.258,1.484-0.491,2.132c-1.006,2.89-3.255,4.667-5.592,4.427
			c-0.087-0.004-0.169-0.018-0.252-0.031c-2.507-0.406-4.317-3.062-4.242-6.569c0.001-0.327,0.023-0.669,0.062-1.011
			c0.867-7.436,7.146-15.659,7.146-15.659S238.289,140.555,237.295,147.98z"/>
		<g>
			<path fill="#7DCAF9" d="M255.888,173.348c0.035,0.709-0.019,1.384-0.154,2.004c-0.565,2.767-2.631,4.706-5.137,4.832
				c-0.092,0.008-0.182,0.008-0.271,0.008c-2.712,0-5.075-2.138-5.596-5.326c-0.054-0.296-0.089-0.609-0.107-0.926
				c-0.358-6.861,4.851-15.234,4.851-15.234S255.662,166.475,255.888,173.348z"/>
			<path fill="#66A4C4" d="M250.597,180.184c-0.092,0.008-0.182,0.008-0.271,0.008c-2.965,0-5.516-2.558-5.703-6.252
				c-0.046-0.87,0-1.768,0.107-2.666c0.521,3.188,2.884,5.325,5.596,5.325c0.089,0,0.179,0,0.271-0.009
				c2.506-0.125,4.571-2.064,5.137-4.832c0.082,0.531,0.136,1.061,0.154,1.59C256.086,177.146,253.677,180.022,250.597,180.184z"/>
			
				<ellipse transform="matrix(0.9965 0.0836 -0.0836 0.9965 15.3416 -20.0983)" fill="#B6E4FC" cx="247.693" cy="173.167" rx="1.712" ry="3.104"/>
		</g>
		<g>
			<path fill="#7DCAF9" d="M239.248,196.16c0.119,0.699,0.145,1.374,0.082,2.006c-0.239,2.813-2.064,4.982-4.538,5.398
				c-0.089,0.021-0.179,0.03-0.267,0.042c-2.695,0.315-5.291-1.531-6.181-4.639c-0.088-0.288-0.161-0.596-0.214-0.906
				c-1.159-6.774,3.04-15.696,3.04-15.696S238.223,189.36,239.248,196.16z"/>
			<path fill="#66A4C4" d="M234.792,203.564c-0.089,0.021-0.179,0.03-0.267,0.042c-2.944,0.345-5.777-1.899-6.395-5.545
				c-0.147-0.86-0.207-1.758-0.207-2.662c0.893,3.107,3.487,4.954,6.181,4.639c0.089-0.011,0.179-0.022,0.268-0.041
				c2.475-0.417,4.3-2.587,4.537-5.399c0.143,0.516,0.258,1.037,0.339,1.563C239.887,199.909,237.833,203.045,234.792,203.564z"/>
			
				<ellipse transform="matrix(0.9994 -0.0334 0.0334 0.9994 -6.4452 7.8238)" fill="#B6E4FC" cx="231.088" cy="196.935" rx="1.711" ry="3.105"/>
		</g>
		<g>
			<path fill="#7DCAF9" d="M183.766,188.349c0.02,0.669-0.009,1.306-0.079,1.891c-0.298,2.614-1.384,4.447-2.701,4.566
				c-0.048,0.008-0.096,0.008-0.144,0.008c-1.426,0-2.669-2.02-2.943-5.032c-0.028-0.28-0.046-0.576-0.056-0.875
				c-0.19-6.482,2.552-14.393,2.552-14.393S183.647,181.855,183.766,188.349z"/>
			<path fill="#66A4C4" d="M180.985,194.806c-0.048,0.008-0.096,0.008-0.144,0.008c-1.56,0-2.901-2.418-2.999-5.907
				c-0.023-0.822,0-1.671,0.056-2.519c0.274,3.012,1.518,5.032,2.943,5.032c0.048,0,0.096,0,0.144-0.009
				c1.317-0.119,2.403-1.951,2.701-4.565c0.043,0.5,0.07,1.001,0.079,1.503C183.871,191.938,182.605,194.653,180.985,194.806z"/>
		</g>
		<g>
			<path fill="#7DCAF9" d="M191.67,238.407c0.02,0.669-0.008,1.306-0.08,1.891c-0.296,2.614-1.384,4.448-2.7,4.568
				c-0.048,0.008-0.096,0.008-0.144,0.008c-1.427,0-2.669-2.021-2.943-5.034c-0.028-0.28-0.046-0.576-0.056-0.874
				c-0.189-6.484,2.552-14.393,2.552-14.393S191.553,231.913,191.67,238.407z"/>
			<path fill="#66A4C4" d="M188.89,244.866c-0.048,0.008-0.096,0.008-0.144,0.008c-1.56,0-2.9-2.42-2.999-5.908
				c-0.024-0.821,0-1.672,0.056-2.519c0.274,3.012,1.517,5.031,2.943,5.031c0.048,0,0.096,0,0.144-0.008
				c1.316-0.12,2.404-1.952,2.7-4.565c0.044,0.5,0.072,1.001,0.08,1.502C191.774,241.996,190.509,244.712,188.89,244.866z"/>
		</g>
		<g>
			<path fill="#7DCAF9" d="M237.777,171.223c0.02,0.67-0.009,1.307-0.08,1.893c-0.297,2.613-1.384,4.446-2.701,4.565
				c-0.047,0.009-0.095,0.009-0.143,0.009c-1.427,0-2.669-2.02-2.943-5.033c-0.028-0.279-0.047-0.576-0.058-0.873
				c-0.188-6.484,2.553-14.395,2.553-14.395S237.659,164.729,237.777,171.223z"/>
			<path fill="#66A4C4" d="M234.996,177.681c-0.047,0.009-0.095,0.009-0.143,0.009c-1.56,0-2.901-2.42-3.001-5.906
				c-0.022-0.824,0-1.674,0.058-2.521c0.274,3.012,1.517,5.031,2.943,5.031c0.048,0,0.096,0,0.143-0.009
				c1.317-0.119,2.404-1.951,2.701-4.565c0.042,0.501,0.071,1.002,0.08,1.503C237.882,174.813,236.615,177.527,234.996,177.681z"/>
		</g>
		<g>
			<path fill="#7DCAF9" d="M205.352,175.385c-1.003-12.076-9.121-22.067-9.121-22.067s-5.579,11.856-4.407,23.909l0,0
				c0.649,6.672,4.181,11.061,7.88,10.556C203.406,187.278,205.999,182.057,205.352,175.385"/>
			<path fill="#66A4C4" d="M199.705,187.782c-0.193,0.029-0.388,0.036-0.575,0.036c-3.487,0-6.687-4.267-7.307-10.591
				c-0.15-1.569-0.193-3.192-0.15-4.822c0.02,0.883,0.07,1.748,0.15,2.601c0.62,6.325,3.819,10.591,7.307,10.591
				c0.188,0,0.382-0.007,0.575-0.036c3.093-0.423,5.414-4.141,5.716-9.252C205.751,182.531,203.229,187.302,199.705,187.782z"/>
			<path fill="#B6E4FC" d="M197.112,173.254c-0.566-3.98-2.531-10.76-2.531-10.76s-2.047,8.424-1.439,12.396l0,0
				c0.342,2.197,1.389,3.606,2.361,3.396C196.476,178.076,197.452,175.451,197.112,173.254"/>
			<path fill="#B6E4FC" d="M205.06,178.548c0.056,1.793-0.625,3.277-1.521,3.315c-0.892,0.038-1.663-1.384-1.719-3.177
				c-0.054-1.791,0.628-3.276,1.521-3.315C204.234,175.332,205.005,176.756,205.06,178.548z"/>
			<g>
				<path fill="none" d="M195.326,164.982"/>
			</g>
			<g>
				<path fill="none" d="M197.482,182.76"/>
			</g>
		</g>
		<g>
			<path fill="#7DCAF9" d="M209.474,237.378c1.161-15.326,10.555-28.003,10.555-28.003s6.456,15.042,5.101,30.338l0,0
				c-0.752,8.467-4.839,14.035-9.119,13.396C211.727,252.47,208.726,245.843,209.474,237.378"/>
			<path fill="#66A4C4" d="M216.009,253.109c0.224,0.037,0.449,0.048,0.666,0.048c4.035,0,7.737-5.415,8.454-13.441
				c0.176-1.993,0.226-4.052,0.176-6.12c-0.023,1.118-0.081,2.219-0.176,3.3c-0.717,8.028-4.419,13.44-8.454,13.44
				c-0.217,0-0.442-0.01-0.666-0.047c-3.58-0.536-6.267-5.254-6.615-11.74C209.011,246.445,211.93,252.498,216.009,253.109z"/>
			<path fill="#B6E4FC" d="M219.009,234.672c0.655-5.047,2.929-13.652,2.929-13.652s2.369,10.691,1.665,15.729l0,0
				c-0.392,2.79-1.604,4.578-2.73,4.31C219.747,240.794,218.616,237.462,219.009,234.672"/>
			<path fill="#B6E4FC" d="M210.325,240.467c-0.387,2.822,0.273,5.335,1.474,5.611c1.2,0.277,2.484-1.789,2.87-4.613
				c0.384-2.823-0.274-5.336-1.474-5.61C211.995,235.577,210.708,237.645,210.325,240.467z"/>
			<g>
				<path fill="none" d="M221.075,224.178"/>
			</g>
			<g>
				<path fill="none" d="M218.579,246.735"/>
			</g>
		</g>
		<g>
			<path fill="#7DCAF9" d="M123.832,144.317c-0.029,0.581,0.014,1.13,0.125,1.636c0.462,2.26,2.149,3.846,4.196,3.947
				c0.075,0.008,0.147,0.008,0.22,0.008c2.217,0,4.146-1.746,4.571-4.35c0.043-0.243,0.072-0.5,0.089-0.756
				c0.293-5.605-3.962-12.443-3.962-12.443S124.016,138.706,123.832,144.317z"/>
			<path fill="#66A4C4" d="M128.153,149.901c0.075,0.008,0.147,0.008,0.22,0.008c2.423,0,4.505-2.091,4.66-5.106
				c0.036-0.711,0-1.445-0.089-2.179c-0.425,2.604-2.354,4.35-4.571,4.35c-0.073,0-0.145,0-0.22-0.007
				c-2.047-0.103-3.734-1.688-4.196-3.946c-0.066,0.432-0.111,0.865-0.125,1.297C123.67,147.421,125.637,149.769,128.153,149.901z"
				/>
		</g>
		
			<ellipse transform="matrix(-0.9965 0.0837 -0.0837 -0.9965 272.6564 276.9122)" fill="#B6E4FC" cx="130.525" cy="144.17" rx="1.397" ry="2.534"/>
		<path fill="#7DCAF9" d="M147.267,198.213c-0.029,0.637,0.017,1.243,0.13,1.8c0.479,2.487,2.226,4.231,4.346,4.345
			c0.076,0.008,0.15,0.008,0.227,0.008c2.296,0,4.292-1.922,4.734-4.788c0.045-0.268,0.075-0.549,0.09-0.831
			c0.304-6.168-4.102-13.694-4.102-13.694S147.457,192.037,147.267,198.213z"/>
		<path fill="#7DCAF9" d="M125.276,179.936c-0.021,0.708,0.012,1.383,0.098,2.002c0.362,2.768,1.681,4.706,3.28,4.832
			c0.059,0.01,0.116,0.01,0.172,0.01c1.733,0,3.241-2.139,3.574-5.327c0.033-0.297,0.057-0.61,0.068-0.926
			c0.229-6.861-3.097-15.233-3.097-15.233S125.419,173.063,125.276,179.936z"/>
		<path fill="#7DCAF9" d="M172.725,151.933c0.092,0.768,0.259,1.484,0.491,2.132c1.006,2.891,3.256,4.667,5.593,4.426
			c0.086-0.004,0.169-0.016,0.251-0.031c2.507-0.406,4.316-3.061,4.243-6.568c-0.002-0.327-0.024-0.67-0.062-1.012
			c-0.868-7.436-7.146-15.658-7.146-15.658S171.731,144.507,172.725,151.933z"/>
		<g>
			<path fill="#7DCAF9" d="M89.583,161.492c-0.036,0.709,0.018,1.383,0.153,2.003c0.566,2.767,2.632,4.706,5.138,4.832
				c0.09,0.009,0.18,0.009,0.269,0.009c2.713,0,5.076-2.138,5.597-5.326c0.053-0.297,0.089-0.611,0.107-0.926
				c0.359-6.863-4.85-15.235-4.85-15.235S89.808,154.619,89.583,161.492z"/>
			<path fill="#66A4C4" d="M94.874,168.327c0.09,0.009,0.18,0.009,0.269,0.009c2.965,0,5.516-2.559,5.704-6.252
				c0.045-0.871,0-1.77-0.107-2.668c-0.521,3.189-2.884,5.326-5.597,5.326c-0.089,0-0.179,0-0.269-0.008
				c-2.506-0.126-4.572-2.065-5.138-4.832c-0.081,0.53-0.135,1.06-0.153,1.59C89.384,165.291,91.792,168.166,94.874,168.327z"/>
			
				<ellipse transform="matrix(-0.9965 0.0833 -0.0833 -0.9965 208.6545 313.9125)" fill="#B6E4FC" cx="97.776" cy="161.311" rx="1.711" ry="3.105"/>
		</g>
		<g>
			<path fill="#7DCAF9" d="M106.222,184.304c-0.12,0.699-0.144,1.375-0.083,2.007c0.24,2.813,2.065,4.981,4.539,5.398
				c0.089,0.021,0.179,0.03,0.267,0.041c2.695,0.316,5.292-1.531,6.18-4.639c0.089-0.287,0.161-0.595,0.215-0.906
				c1.157-6.773-3.04-15.695-3.04-15.695S107.247,177.505,106.222,184.304z"/>
			<path fill="#66A4C4" d="M110.678,191.709c0.089,0.021,0.179,0.03,0.267,0.041c2.944,0.346,5.777-1.899,6.395-5.545
				c0.146-0.859,0.206-1.756,0.206-2.661c-0.891,3.106-3.486,4.954-6.18,4.637c-0.088-0.01-0.179-0.021-0.268-0.041
				c-2.474-0.416-4.299-2.584-4.537-5.397c-0.143,0.516-0.258,1.036-0.338,1.562C105.582,188.053,107.637,191.189,110.678,191.709z"
				/>
			<path fill="#B6E4FC" d="M112.67,185.022c-0.058,1.714,0.661,3.127,1.608,3.158c0.941,0.032,1.753-1.331,1.813-3.044
				c0.055-1.714-0.663-3.129-1.607-3.16C113.54,181.944,112.729,183.31,112.67,185.022z"/>
		</g>
		<g>
			<path fill="#7DCAF9" d="M161.703,176.492c-0.02,0.67,0.01,1.307,0.08,1.893c0.297,2.614,1.384,4.446,2.702,4.565
				c0.047,0.008,0.094,0.008,0.142,0.008c1.428,0,2.67-2.021,2.943-5.033c0.029-0.279,0.047-0.576,0.058-0.872
				c0.188-6.484-2.553-14.395-2.553-14.395S161.822,169.999,161.703,176.492z"/>
			<path fill="#66A4C4" d="M164.485,182.95c0.047,0.008,0.094,0.008,0.142,0.008c1.56,0,2.901-2.419,3.001-5.905
				c0.022-0.824,0-1.674-0.058-2.521c-0.273,3.012-1.516,5.031-2.943,5.031c-0.048,0-0.095,0-0.142-0.008
				c-1.318-0.119-2.405-1.951-2.702-4.565c-0.042,0.501-0.07,1.002-0.08,1.503C161.6,180.081,162.865,182.797,164.485,182.95z"/>
		</g>
		<g>
			<path fill="#7DCAF9" d="M153.8,226.552c-0.02,0.669,0.009,1.306,0.079,1.891c0.298,2.614,1.384,4.447,2.702,4.566
				c0.047,0.009,0.096,0.009,0.143,0.009c1.427,0,2.67-2.021,2.943-5.033c0.028-0.281,0.046-0.576,0.057-0.874
				c0.189-6.485-2.553-14.394-2.553-14.394S153.918,220.057,153.8,226.552z"/>
			<path fill="#66A4C4" d="M156.581,233.009c0.047,0.009,0.096,0.009,0.143,0.009c1.559,0,2.9-2.419,3-5.907
				c0.022-0.823,0-1.672-0.057-2.52c-0.273,3.012-1.517,5.031-2.943,5.031c-0.047,0-0.096,0-0.143-0.008
				c-1.318-0.119-2.404-1.952-2.702-4.566c-0.042,0.502-0.07,1.002-0.079,1.504C153.694,230.141,154.961,232.856,156.581,233.009z"
				/>
		</g>
		<g>
			<path fill="#7DCAF9" d="M252.6,150.146c-0.019,0.668,0.01,1.306,0.08,1.892c0.297,2.613,1.384,4.447,2.702,4.566
				c0.048,0.008,0.096,0.008,0.143,0.008c1.427,0,2.67-2.02,2.943-5.033c0.028-0.28,0.046-0.576,0.057-0.875
				c0.188-6.484-2.553-14.393-2.553-14.393S252.719,143.651,252.6,150.146z"/>
			<path fill="#66A4C4" d="M255.382,156.604c0.048,0.008,0.096,0.008,0.143,0.008c1.559,0,2.9-2.419,3-5.908
				c0.022-0.822,0-1.671-0.057-2.519c-0.273,3.012-1.517,5.031-2.943,5.031c-0.047,0-0.095,0-0.143-0.008
				c-1.318-0.119-2.405-1.951-2.702-4.565c-0.042,0.5-0.07,1-0.08,1.503C252.496,153.734,253.762,156.451,255.382,156.604z"/>
		</g>
		<g>
			<path fill="#7DCAF9" d="M107.692,159.367c-0.019,0.669,0.009,1.306,0.08,1.892c0.297,2.614,1.384,4.446,2.701,4.565
				c0.048,0.009,0.095,0.009,0.143,0.009c1.427,0,2.669-2.021,2.943-5.033c0.028-0.278,0.046-0.576,0.057-0.873
				c0.189-6.484-2.552-14.395-2.552-14.395S107.811,152.873,107.692,159.367z"/>
			<path fill="#66A4C4" d="M110.473,165.824c0.048,0.009,0.095,0.009,0.143,0.009c1.559,0,2.901-2.419,3-5.906
				c0.023-0.824,0-1.673-0.057-2.521c-0.274,3.012-1.517,5.031-2.943,5.031c-0.048,0-0.095,0-0.143-0.008
				c-1.317-0.119-2.404-1.951-2.701-4.566c-0.043,0.502-0.071,1.002-0.08,1.504C107.588,162.955,108.854,165.672,110.473,165.824z"
				/>
		</g>
		<g>
			<path fill="#7DCAF9" d="M142.739,160.408c0.861-10.369,7.83-18.947,7.83-18.947s4.791,10.179,3.786,20.527l0,0
				c-0.559,5.729-3.59,9.496-6.767,9.064C144.409,170.619,142.183,166.135,142.739,160.408"/>
			<path fill="#66A4C4" d="M147.588,171.052c0.165,0.026,0.331,0.032,0.493,0.032c2.994,0,5.741-3.664,6.274-9.094
				c0.128-1.349,0.166-2.741,0.128-4.141c-0.017,0.757-0.059,1.5-0.128,2.232c-0.533,5.431-3.28,9.094-6.274,9.094
				c-0.162,0-0.328-0.006-0.493-0.032c-2.655-0.362-4.65-3.554-4.908-7.942C142.396,166.543,144.561,170.639,147.588,171.052z"/>
			<path fill="#B6E4FC" d="M149.813,158.578c0.485-3.416,2.172-9.238,2.172-9.238s1.758,7.232,1.236,10.643l0,0
				c-0.293,1.889-1.191,3.097-2.027,2.916C150.36,162.719,149.521,160.465,149.813,158.578"/>
			<path fill="#B6E4FC" d="M142.989,163.123c-0.048,1.541,0.537,2.814,1.306,2.848c0.767,0.033,1.429-1.188,1.476-2.729
				c0.045-1.538-0.538-2.814-1.306-2.847C143.698,160.362,143.036,161.585,142.989,163.123z"/>
			<g>
				<path fill="none" d="M151.347,151.478"/>
			</g>
			<g>
				<path fill="none" d="M149.495,166.74"/>
			</g>
		</g>
		<g>
			<path fill="#7DCAF9" d="M131.062,209.912c-0.798-6.783-7.269-12.394-7.269-12.394s-4.447,6.657-3.513,13.427l0,0
				c0.517,3.748,3.332,6.213,6.281,5.929C129.511,216.592,131.578,213.658,131.062,209.912"/>
			<path fill="#66A4C4" d="M126.562,216.874c-0.154,0.018-0.311,0.021-0.458,0.021c-2.779,0-5.33-2.396-5.823-5.948
				c-0.121-0.883-0.156-1.794-0.121-2.707c0.015,0.493,0.055,0.98,0.121,1.459c0.493,3.553,3.043,5.948,5.823,5.948
				c0.148,0,0.304-0.005,0.458-0.021c2.464-0.237,4.315-2.325,4.555-5.195C131.38,213.924,129.371,216.604,126.562,216.874z"/>
			<path fill="#B6E4FC" d="M124.495,208.714c-0.451-2.233-2.016-6.042-2.016-6.042s-1.632,4.732-1.147,6.961l0,0
				c0.27,1.235,1.104,2.026,1.881,1.908C123.988,211.424,124.766,209.95,124.495,208.714"/>
			<path fill="#B6E4FC" d="M130.476,211.279c0.267,1.249-0.188,2.361-1.016,2.483c-0.825,0.123-1.71-0.791-1.977-2.043
				c-0.264-1.248,0.19-2.361,1.017-2.481C129.325,209.115,130.212,210.03,130.476,211.279z"/>
			<g>
				<path fill="none" d="M123.072,204.07"/>
			</g>
			<g>
				<path fill="none" d="M124.791,214.053"/>
			</g>
		</g>
	</g>
	<path fill="#FFD400" d="M207.744,70.032c0,20.391-16.531,36.921-36.92,36.921c-20.394,0-36.923-16.53-36.923-36.921
		c0-20.392,16.529-36.922,36.923-36.922C191.213,33.11,207.744,49.641,207.744,70.032z"/>
	<path id="cloudRight_2_" fill="#B3B3B3" d="M186.856,122.153c1.282-0.376,2.32,0.351,3.527,0.103
		c0.746,0.033,1.561,0.055,2.424,0.07c9.518,0.146,25.16-1.174,19.7-10.646c-4.169-7.462-14.728-6.025-21.396-4.879
		c4.317-2.462,6.877-5.333,7.217-8.662c0.065-0.666,0.048-1.349-0.068-2.049c-0.791-9.246-9.707-12.157-16.306-10.373
		c-0.581,0.174-1.159,0.339-1.721,0.451c-1.124,0.223-2.191,0.243-3.149-0.249c-0.576-0.295-1.109-0.775-1.595-1.5
		c-2.074-8.693-6.737-15.703-13.877-15.078c-1.43,0.128-2.958,0.559-4.595,1.365c-1.359,0.012-3.19,0.012-4.106-1.252
		c-2.291-5.054-6.865-6.317-11.902-7.16c-2.288-0.42-3.661,3.789-6.408,3.37c-4.575-0.423-5.495-5.474-7.081-8.651
		c-0.724-1.182-1.619-1.88-2.551-2.579c-0.536-0.323-1.103-0.512-1.721-0.623c-0.609-0.037-1.226-0.077-1.853-0.103
		c-3.58-0.802-6.497,1.78-9.448,4.316c-0.421,0.364-0.842,0.726-1.267,1.079c-5.732-2.105-11.285-3.272-17.058-0.482
		c-0.406,0.034-0.82,0.067-1.232,0.131c-0.415,0.07-0.83,0.172-1.231,0.348c-0.449,0.232-0.863,0.527-1.234,0.872
		c-0.375,0.345-0.704,0.746-0.978,1.195c-0.119,0.503-0.476,0.971-0.656,1.44c-0.178,3.268,0.718,6.771-1.073,9.577
		c-2.327,3.504-5.731,5.606-7.342,10.047c-0.18,0.465-0.449,1.049-0.797,1.587c-0.351,0.538-0.784,1.026-1.289,1.303
		c-0.349,0.353-0.708,0.698-1.055,1.062c-0.696,0.729-1.332,1.55-1.865,2.55c-0.2,0.483-0.324,0.984-0.363,1.501
		c-0.039,0.521,0.01,1.058,0.161,1.619c0.08,0.364,0.192,0.729,0.328,1.089c0.136,0.356,0.296,0.708,0.471,1.054
		c0.213,0.345,0.854,0.17,1.491,0c-0.852,1.548-3.195,1.377-4.649,1.992c-0.548,0.144-1.1,0.29-1.629,0.5
		c-0.563,0.167-1.115,0.388-1.656,0.698c-0.487,0.271-0.971,0.572-1.443,0.899c-0.705,0.493-1.383,1.047-2.019,1.647
		c-0.638,0.6-1.231,1.245-1.764,1.923c-3.591,4.109-4.005,11.388-0.064,15.511c1.936,1.938,4.33,1.619,6.667,1.512
		c0.586-0.029,1.168-0.04,1.73,0.015c6.529,4.541,13.579,4.297,20.708,2.847c0.81,0.017,1.615,0.032,2.422,0.045
		c0.78,0.016,1.555,0.023,2.331,0.038c0.777,0.011,1.556,0.021,2.331,0.032c7.973,1.336,15.437,1.336,23.283,0.108
		c0.776-0.003,1.55-0.005,2.326-0.008c0.725-0.002,1.453-0.005,2.178-0.007c0.729-0.003,1.455-0.008,2.179-0.012
		c1.021-0.202,2.061,0.04,2.888,0.526c4.5,2.717,8.793,1.867,13.152,0.7c0.624-0.168,1.248-0.341,1.874-0.504
		c0.937-0.44,1.974-0.44,2.806-0.196c5.26,1.487,10.046,0.929,15.108-0.154c0.723-0.157,1.451-0.324,2.188-0.494
		c2.607,0.404,5.099,2.103,7.585,3.316c3.734,1.454,6.841-1.456,10.436-2.578C186.509,122.21,186.856,122.153,186.856,122.153z"/>
	<path id="cloudRight" fill="#E6E6E6" d="M139.467,135.563c-1.56-0.433-2.82,0.404-4.29,0.117c-0.905,0.04-1.895,0.064-2.943,0.083
		c-11.571,0.168-30.584-1.354-23.949-12.266c5.067-8.598,17.902-6.942,26.01-5.622c-5.247-2.837-8.361-6.145-8.773-9.98
		c-0.081-0.768-0.06-1.555,0.082-2.361c0.962-10.654,11.8-14.007,19.82-11.952c0.708,0.201,1.41,0.391,2.092,0.52
		c1.365,0.257,2.664,0.279,3.828-0.287c0.7-0.341,1.35-0.894,1.94-1.729c2.52-10.017,8.188-18.094,16.866-17.374
		c1.738,0.147,3.598,0.645,5.587,1.573c1.652,0.013,3.879,0.013,4.99-1.443c2.783-5.823,8.344-7.278,14.468-8.25
		c2.783-0.485,4.45,4.366,7.79,3.883c5.562-0.488,6.676-6.308,8.605-9.969c0.882-1.361,1.969-2.166,3.103-2.971
		c0.647-0.372,1.339-0.59,2.092-0.719c0.739-0.042,1.491-0.087,2.251-0.118c4.352-0.924,7.898,2.051,11.483,4.975
		c0.514,0.419,1.024,0.837,1.542,1.243c6.967-2.426,13.718-3.771,20.735-0.556c0.493,0.039,0.996,0.078,1.498,0.152
		c0.502,0.081,1.008,0.198,1.495,0.4c0.547,0.268,1.052,0.607,1.501,1.005c0.455,0.396,0.855,0.859,1.187,1.377
		c0.146,0.578,0.581,1.117,0.799,1.658c0.216,3.766-0.872,7.803,1.305,11.036c2.83,4.037,6.967,6.46,8.926,11.576
		c0.218,0.536,0.545,1.209,0.969,1.829c0.426,0.621,0.952,1.182,1.567,1.501c0.423,0.406,0.858,0.804,1.282,1.223
		c0.847,0.839,1.616,1.786,2.266,2.938c0.244,0.557,0.396,1.133,0.442,1.729c0.046,0.6-0.013,1.218-0.197,1.865
		c-0.096,0.42-0.231,0.84-0.397,1.256c-0.164,0.41-0.36,0.816-0.573,1.214c-0.257,0.398-1.039,0.196-1.813,0
		c1.037,1.784,3.885,1.586,5.653,2.295c0.668,0.166,1.339,0.334,1.979,0.577c0.685,0.193,1.355,0.447,2.012,0.804
		c0.594,0.312,1.182,0.658,1.757,1.036c0.854,0.568,1.681,1.207,2.453,1.897c0.776,0.691,1.495,1.434,2.143,2.216
		c4.364,4.734,4.868,13.122,0.078,17.872c-2.353,2.233-5.263,1.865-8.104,1.742c-0.712-0.032-1.42-0.046-2.104,0.019
		c-7.934,5.23-16.505,4.949-25.17,3.28c-0.984,0.019-1.964,0.036-2.943,0.053c-0.95,0.016-1.893,0.026-2.837,0.042
		c-0.943,0.013-1.889,0.025-2.833,0.038c-9.689,1.537-18.762,1.537-28.3,0.123c-0.944-0.002-1.885-0.004-2.828-0.008
		c-0.879-0.004-1.765-0.005-2.646-0.01c-0.886-0.003-1.77-0.008-2.647-0.013c-1.24-0.233-2.505,0.047-3.511,0.606
		c-5.472,3.131-10.691,2.152-15.989,0.806c-0.759-0.193-1.515-0.392-2.275-0.579c-1.14-0.507-2.4-0.507-3.411-0.227
		c-6.394,1.713-12.212,1.071-18.363-0.178c-0.878-0.18-1.764-0.372-2.659-0.567c-3.171,0.465-6.196,2.421-9.22,3.821
		c-4.539,1.674-8.316-1.678-12.685-2.972C139.888,135.629,139.467,135.563,139.467,135.563z"/>
	<g>
		<g>
			<path fill="#C69C6D" d="M90.24,233.473c1.775,20.058-4.012,37.823-14.754,38.774l-33.062,2.924
				C31.683,276.122,21.155,259.8,19.38,239.74L7.733,108.078c-1.774-20.059,5.841-36.663,16.583-37.613l33.062-2.925
				c10.743-0.95,19.442,14.211,21.216,34.27L90.24,233.473z"/>
			<path opacity="0.2" fill="#3D3D3D" d="M78.599,101.882l11.647,131.663c1.774,20.057-3.931,37.744-14.671,38.694l-33.066,2.924
				c-3.741,0.332-7.431-1.552-10.702-4.784c29.964-19.387,37.964-166.141,39.352-193.79C75.376,82.75,77.695,91.658,78.599,101.882z
				"/>
		</g>
		<g>
			<path fill="#FFFFFF" d="M61.747,240.268c0.222,2.513-2.888,4.843-5.502,5.074l0,0c-2.613,0.231-6.085-1.518-6.308-4.03
				L36.79,92.699c-0.222-2.513,2.89-4.841,5.503-5.072l0,0c2.614-0.231,6.085,1.515,6.308,4.026L61.747,240.268z"/>
			<path fill="#FFFFFF" d="M69.072,241.775c0.594,6.719-4.914,12.689-12.3,13.343c-7.391,0.654-13.862-4.259-14.457-10.976
				s4.914-12.691,12.305-13.345C62.006,230.145,68.478,235.059,69.072,241.775z"/>
			<path id="thermoMercury" fill="#C1272D" d="M58.964,238.724c0.098,1.104-2.037,2.194-3.104,2.287l0,0
				c-1.064,0.096-3.359-0.604-3.458-1.707l-5.766-65.18c-0.097-1.101,2.04-2.189,3.104-2.284l0,0
				c1.066-0.095,3.36,0.604,3.457,1.703L58.964,238.724z"/>
			
				<ellipse transform="matrix(0.9961 -0.0881 0.0881 0.9961 -21.2015 5.8232)" fill="#C1272D" cx="55.381" cy="243.144" rx="10.483" ry="9.24"/>
		</g>
	</g>
</g>
</svg>
