<?xml version="1.0" encoding="utf-8"?>
<!-- Generator: Adobe Illustrator 16.0.0, SVG Export Plug-In . SVG Version: 6.00 Build 0)  -->
<!DOCTYPE svg PUBLIC "-//W3C//DTD SVG 1.1//EN" "http://www.w3.org/Graphics/SVG/1.1/DTD/svg11.dtd">
<svg version="1.1" id="Layer_1" xmlns="http://www.w3.org/2000/svg" xmlns:xlink="http://www.w3.org/1999/xlink" x="0px" y="0px"
	 width="800px" height="300px" viewBox="0 0 800 300" enable-background="new 0 0 800 300" xml:space="preserve">
<linearGradient id="SVGID_1_" gradientUnits="userSpaceOnUse" x1="582.6543" y1="232.7754" x2="582.6543" y2="103.9561">
	<stop  offset="0" style="stop-color:#00D1FF"/>
	<stop  offset="1" style="stop-color:#01FEA6"/>
</linearGradient>
<path fill="none" stroke="url(#SVGID_1_)" stroke-width="23" stroke-linecap="round" stroke-linejoin="round" stroke-miterlimit="10" d="
	M629.505,190.204c-5.252,13.907-16.151,24.989-30.725,29.256c-25.853,7.557-53.518-9.172-61.765-37.393
	c-8.26-28.22,6.006-57.229,31.857-64.787c25.851-7.582,53.519,9.16,61.765,37.381l-93.622,27.406"/>
<linearGradient id="SVGID_2_" gradientUnits="userSpaceOnUse" x1="454.792" y1="232.7529" x2="454.792" y2="103.9746">
	<stop  offset="0" style="stop-color:#00D1FF"/>
	<stop  offset="1" style="stop-color:#01FEA6"/>
</linearGradient>
<path fill="none" stroke="url(#SVGID_2_)" stroke-width="23" stroke-linecap="round" stroke-linejoin="round" stroke-miterlimit="10" d="
	M501.83,189.895c-5.165,13.944-15.973,25.09-30.513,29.454c-25.804,7.741-53.581-8.814-62.024-36.962
	c-8.445-28.17,5.621-57.265,31.425-65.006c25.803-7.744,53.573,8.802,62.025,36.973l-0.006-0.014l-93.444,28.047"/>
<linearGradient id="SVGID_3_" gradientUnits="userSpaceOnUse" x1="717.2832" y1="270.4355" x2="717.2832" y2="103.624">
	<stop  offset="0" style="stop-color:#00D1FF"/>
	<stop  offset="1" style="stop-color:#01FEA6"/>
</linearGradient>
<path fill="none" stroke="url(#SVGID_3_)" stroke-width="23" stroke-linecap="round" stroke-linejoin="round" stroke-miterlimit="10" d="
	M766.129,168.37c0,29.392-21.871,53.234-48.845,53.234c-26.976,0-48.847-23.843-48.847-53.234c0-29.403,21.871-53.247,48.847-53.247
	C744.258,115.124,766.129,138.967,766.129,168.37z M668.438,121.3v137.636V121.3z"/>
<linearGradient id="SVGID_4_" gradientUnits="userSpaceOnUse" x1="116.6777" y1="245.0791" x2="116.6777" y2="32.5185">
	<stop  offset="0" style="stop-color:#00D1FF"/>
	<stop  offset="1" style="stop-color:#01FEA6"/>
</linearGradient>
<path fill="url(#SVGID_4_)" d="M209.503,122.622c0.161,25.2-9.614,48.835-27.509,66.553l-0.057,0.056l-27.92,27.913
	c-3.85,3.858-5.973,8.976-5.973,14.425v1.888c0,7.289-5.925,13.223-13.222,13.223H98.531c-7.297,0-13.229-5.934-13.229-13.223v-1.88
	c0-5.449-2.115-10.574-5.965-14.424l-28.599-28.599C33.391,171.021,23.85,147.83,23.85,123.219c0-25.047,9.815-48.52,27.654-66.109
	C69.327,39.53,92.969,30.03,118,30.393C168.143,31.095,209.188,72.472,209.503,122.622z M174.592,181.731
	c15.894-15.73,24.563-36.694,24.417-59.044c-0.274-44.484-36.687-81.179-81.155-81.801c-0.396-0.008-0.791-0.008-1.186-0.008
	c-21.787,0-42.273,8.395-57.803,23.708c-15.813,15.595-24.522,36.42-24.522,58.634c0,21.827,8.459,42.402,23.829,57.932
	l28.582,28.583c5.836,5.835,9.041,13.593,9.041,21.842v1.88c0,1.502,1.227,2.729,2.736,2.729h36.292
	c1.509,0,2.729-1.228,2.729-2.729v-1.888c0-8.25,3.22-16.007,9.048-21.843L174.592,181.731z M141.78,117.366
	c2.204,5.319,1.227,13.867-5.335,22.076c-6.869-8.451-7.992-17.08-5.812-22.351c0.67-1.623,2.276-4.343,5.464-4.343
	C139.504,112.749,141.207,115.977,141.78,117.366z M97.255,112.749c-3.406,0-5.109,3.229-5.683,4.617
	c-2.204,5.319-1.227,13.867,5.335,22.076c6.869-8.451,7.992-17.08,5.812-22.351C102.05,115.469,100.452,112.749,97.255,112.749z
	 M117.855,40.886c-0.396-0.008-0.791-0.008-1.186-0.008c-21.787,0-42.273,8.395-57.803,23.708
	c-15.813,15.595-24.522,36.42-24.522,58.634c0,21.827,8.459,42.402,23.829,57.932l28.582,28.583
	c5.836,5.835,9.041,13.593,9.041,21.842v1.88c0,1.502,1.227,2.729,2.736,2.729h36.292c1.509,0,2.729-1.228,2.729-2.729v-1.888
	c0-8.25,3.22-16.007,9.048-21.843l27.993-27.994c15.894-15.73,24.563-36.694,24.417-59.044
	C198.735,78.203,162.323,41.508,117.855,40.886z M136.469,150.944c-7.652,6.49-14.247,7.435-19.792,7.435s-12.14-0.944-19.792-7.435
	c-10.857,8.983-22.617,8.476-32.707-1.614c-1.575-1.574-1.575-4.133,0-5.706c1.582-1.574,4.133-1.574,5.714,0
	c3.471,3.47,7.063,5.335,10.679,5.544c3.423,0.194,6.991-1.137,10.599-3.979c-9.743-11.632-10.042-23.699-7.055-30.915
	c2.494-6.006,7.402-9.598,13.141-9.598c5.675,0,10.502,3.487,12.923,9.323c2.97,7.168,2.534,19.308-7.555,31.213
	c6.271,5.102,11.042,5.094,14.053,5.094c3.011,0,7.781,0.008,14.054-5.094c-10.09-11.905-10.526-24.045-7.556-31.213
	c2.422-5.836,7.249-9.323,12.923-9.323c5.74,0,10.655,3.592,13.141,9.598c2.987,7.216,2.688,19.283-7.055,30.915
	c3.609,2.842,7.16,4.181,10.6,3.979c3.616-0.209,7.208-2.074,10.687-5.544c1.574-1.574,4.125-1.574,5.707,0
	c1.574,1.573,1.574,4.132,0,5.706C159.086,159.42,147.325,159.928,136.469,150.944z"/>
<path fill="none" d="M115.496,199.127c1.574,1.572,1.574,4.131,0,5.705c-10.09,10.09-21.851,10.598-32.708,1.615
	c-7.652,6.49-14.247,7.434-19.792,7.434s-12.14-0.943-19.792-7.434c-10.857,8.982-22.617,8.475-32.707-1.615
	c-1.575-1.574-1.575-4.133,0-5.705c1.582-1.574,4.133-1.574,5.714,0c3.471,3.469,7.063,5.334,10.679,5.543
	c3.423,0.195,6.991-1.137,10.599-3.979c-9.743-11.631-10.042-23.698-7.055-30.914c2.494-6.006,7.402-9.599,13.141-9.599
	c5.675,0,10.502,3.487,12.923,9.323c2.97,7.168,2.534,19.309-7.555,31.213c6.271,5.102,11.042,5.094,14.053,5.094
	c3.011,0,7.781,0.008,14.054-5.094c-10.09-11.904-10.526-24.045-7.556-31.213c2.422-5.836,7.249-9.323,12.923-9.323
	c5.74,0,10.655,3.593,13.141,9.599c2.987,7.216,2.688,19.283-7.055,30.914c3.609,2.842,7.16,4.182,10.6,3.979
	c3.616-0.209,7.208-2.074,10.687-5.543C111.363,197.553,113.914,197.553,115.496,199.127z M82.765,194.944
	c6.562-8.209,7.539-16.757,5.335-22.076c-0.573-1.389-2.276-4.617-5.683-4.617c-3.188,0-4.794,2.72-5.464,4.343
	C74.773,177.865,75.896,186.493,82.765,194.944z M96.908,146.442c6.869-8.451,7.992-17.08,5.812-22.351
	c-0.67-1.623-2.268-4.343-5.465-4.343c-3.406,0-5.109,3.229-5.683,4.617C89.369,129.685,90.346,138.233,96.908,146.442z"/>
<linearGradient id="SVGID_5_" gradientUnits="userSpaceOnUse" x1="324" y1="225.5" x2="324" y2="65.5005">
	<stop  offset="0" style="stop-color:#00D1FF"/>
	<stop  offset="1" style="stop-color:#01FEA6"/>
</linearGradient>
<path fill="none" stroke="url(#SVGID_5_)" stroke-width="23" stroke-linecap="round" stroke-linejoin="round" stroke-miterlimit="10" d="
	M279.5,77v137l1.103-46.715c0-29.403,19.523-53.234,43.952-53.234c24.441,0,43.945,23.831,43.945,53.234V214"/>
</svg>
