<?xml version="1.0" encoding="utf-8"?>
<!-- Generator: Adobe Illustrator 16.0.0, SVG Export Plug-In . SVG Version: 6.00 Build 0)  -->
<!DOCTYPE svg PUBLIC "-//W3C//DTD SVG 1.1//EN" "http://www.w3.org/Graphics/SVG/1.1/DTD/svg11.dtd">
<svg version="1.1" id="Layer_1" xmlns="http://www.w3.org/2000/svg" xmlns:xlink="http://www.w3.org/1999/xlink" x="0px" y="0px"
	 width="300px" height="300px" viewBox="0 0 300 300" enable-background="new 0 0 300 300" xml:space="preserve">
<g>
	<g>
		<g>
			<path id="cactusPotBody" fill="#A55447" d="M215.95,180.119l-12.624,107.307c-57.258,17.441-108.339,0-108.339,0L82.354,180.119
				l133.596-0.241"/>
			<path id="cactusPotLip" fill="#843A2F" d="M218.287,198.041l0.017-27.667C147.747,182.597,80,170.713,80,170.594v0.105v24.658
				l1.226,0.82C81.226,196.178,143.692,213.922,218.287,198.041"/>
			<path fill="#A04340" d="M210.655,222.867l-7.501,64.569c-40.08,12.214-77.107,7.314-95.7,3.295
				C172.586,278.808,200.338,242.078,210.655,222.867z"/>
		</g>
		<path fill="#492305" d="M217.793,170.374c0,4.686-30.826,9.624-69.159,9.624c-38.335,0-69.657-4.938-69.657-9.624
			c0-4.691,31.076-8.488,69.408-8.488C186.72,161.886,217.793,165.683,217.793,170.374z"/>
	</g>
	<g>
		<g id="leafCenter_1_">
			<path id="leafBodyCenter_1_" fill="#00AA04" d="M198.649,57.093c-2.682-28.776,30.47-50.687,88.334-46.84l0.151,0.166
				C263.62,51.694,229.827,72.749,198.649,57.093"/>
		</g>
		<g>
			<path fill="#006837" d="M181.476,166.497c0,0,0.056-2.667,0.152-7.333c0.063-2.339,0.138-5.18,0.224-8.438
				c0.085-3.261,0.241-6.935,0.391-10.945c0.187-4.011,0.387-8.354,0.684-12.949c0.287-4.594,0.653-9.438,1.133-14.445
				c0.215-2.503,0.544-5.045,0.815-7.619c0.337-2.57,0.656-5.173,1.065-7.788c0.78-5.233,1.82-10.524,3.088-15.764
				c1.299-5.234,2.956-10.398,5.034-15.307c2.08-4.905,4.641-9.536,7.677-13.617c3.025-4.088,6.517-7.598,10.147-10.483
				c3.648-2.875,7.427-5.109,10.996-6.958c0.901-0.446,1.783-0.883,2.646-1.31c0.881-0.386,1.74-0.763,2.579-1.131
				c1.665-0.763,3.305-1.334,4.82-1.93c3.059-1.122,5.755-2.008,7.997-2.663c2.229-0.7,4.009-1.145,5.214-1.478
				c1.207-0.327,1.851-0.5,1.851-0.5s-0.637,0.197-1.832,0.565c-1.192,0.375-2.954,0.882-5.153,1.659
				c-2.214,0.731-4.871,1.71-7.874,2.933c-1.487,0.646-3.096,1.27-4.72,2.085c-0.818,0.393-1.657,0.797-2.516,1.209
				c-0.838,0.452-1.695,0.915-2.57,1.388c-3.461,1.949-7.096,4.278-10.556,7.207c-3.443,2.94-6.702,6.46-9.486,10.513
				c-2.795,4.046-5.109,8.603-6.958,13.428c-1.847,4.829-3.283,9.905-4.373,15.065c-1.059,5.168-1.896,10.387-2.483,15.563
				c-0.312,2.584-0.536,5.164-0.778,7.705c-0.18,2.552-0.415,5.064-0.541,7.549c-0.3,4.963-0.493,9.77-0.618,14.332
				c-0.135,4.562-0.182,8.881-0.226,12.866c-0.009,3.988-0.035,7.645-0.006,10.883c0.027,3.241,0.052,6.066,0.072,8.393
				c0.067,4.667,0.105,7.333,0.105,7.333L181.476,166.497z"/>
		</g>
		<g id="leafRight">
			<path id="leafBodyRight" fill="#00AA04" d="M155.659,67.736c-32.769,13.953-56.654-13.341-81.48-54.454l0,0
				c67.441,6.321,85.133,10.567,82.067,54.293"/>
		</g>
		<g>
			<path fill="#024F28" d="M176.703,166.57c0,0,0.009-0.677,0.023-1.947c0.005-1.26,0.06-3.157,0.041-5.48
				c-0.058-2.309-0.027-5.091-0.212-8.342c-0.112-3.244-0.377-6.896-0.716-10.878c-0.213-1.986-0.388-4.063-0.654-6.201
				c-0.296-2.133-0.531-4.354-0.902-6.615c-0.377-2.259-0.696-4.597-1.179-6.954c-0.226-1.183-0.453-2.378-0.684-3.585
				c-0.263-1.2-0.528-2.412-0.797-3.633c-1.063-4.892-2.42-9.886-3.957-14.915c-1.551-5.026-3.394-10.043-5.411-14.994
				c-2.095-4.914-4.378-9.754-6.92-14.365c-2.577-4.586-5.342-8.976-8.307-13.024c-3.004-4.013-6.152-7.713-9.396-10.982
				c-3.297-3.203-6.594-6.072-9.898-8.373c-0.795-0.622-1.648-1.115-2.454-1.645c-0.817-0.508-1.589-1.056-2.393-1.5
				c-0.805-0.443-1.589-0.874-2.352-1.293c-0.382-0.209-0.759-0.415-1.13-0.618c-0.384-0.177-0.762-0.351-1.134-0.523
				c-1.49-0.684-2.872-1.365-4.22-1.82c-1.334-0.488-2.543-1-3.69-1.289c-1.136-0.33-2.15-0.624-3.032-0.88
				c-0.9-0.188-1.666-0.348-2.286-0.477c-1.244-0.26-1.907-0.398-1.907-0.398s0.669,0.104,1.925,0.299
				c0.629,0.098,1.404,0.218,2.316,0.359c0.899,0.211,1.932,0.454,3.089,0.725c1.171,0.231,2.411,0.682,3.784,1.105
				c1.387,0.39,2.815,1.003,4.36,1.618c0.386,0.155,0.779,0.312,1.177,0.471c0.387,0.186,0.779,0.374,1.177,0.565
				c0.796,0.386,1.615,0.782,2.456,1.189c0.84,0.41,1.651,0.922,2.51,1.397c0.846,0.496,1.745,0.956,2.585,1.545
				c3.49,2.171,7.005,4.92,10.552,8.026c3.491,3.169,6.914,6.79,10.208,10.748c3.253,3.991,6.325,8.344,9.214,12.917
				c2.854,4.595,5.456,9.439,7.87,14.379c2.337,4.973,4.498,10.034,6.36,15.117c1.85,5.085,3.512,10.155,4.869,15.13
				c0.341,1.244,0.68,2.478,1.015,3.7c0.301,1.23,0.6,2.449,0.896,3.655c0.623,2.407,1.078,4.792,1.587,7.104
				c0.503,2.313,0.866,4.586,1.285,6.775c0.39,2.193,0.683,4.325,1.009,6.367c0.564,4.093,1.033,7.858,1.324,11.206
				c0.362,3.332,0.491,6.31,0.674,8.736c0.143,2.414,0.183,4.243,0.245,5.523c0.051,1.269,0.078,1.946,0.078,1.946L176.703,166.57z"
				/>
		</g>
		<g id="leafCenter">
			<path id="leafBodyCenter_2_" fill="#00AA04" d="M192.31,73.516c35.936-5.151,41.593,25.695,48.45,65.173l-0.102,0.09
				c-34.922-16.526-59.198-23.342-48.791-65.205"/>
		</g>
		<g>
			<path fill="#006837" d="M192.381,73.384c0,0,0.969,0.466,2.584,1.417c0.801,0.485,1.78,1.07,2.857,1.808
				c0.54,0.369,1.114,0.761,1.72,1.174c0.589,0.437,1.209,0.895,1.855,1.374c1.315,0.934,2.62,2.091,4.067,3.244
				c0.685,0.62,1.389,1.256,2.108,1.907c0.726,0.646,1.45,1.324,2.146,2.053c0.711,0.718,1.433,1.448,2.164,2.186
				c0.716,0.753,1.395,1.558,2.104,2.347c1.449,1.556,2.752,3.277,4.088,4.975c0.333,0.426,0.679,0.843,1,1.276L220,98.472
				c0.618,0.883,1.234,1.763,1.846,2.636c1.22,1.75,2.224,3.598,3.252,5.352c0.517,0.876,0.912,1.796,1.313,2.688
				c0.4,0.892,0.788,1.767,1.146,2.626c0.791,1.686,1.263,3.393,1.77,4.933c0.253,0.77,0.476,1.515,0.688,2.221
				c0.223,0.703,0.417,1.374,0.526,2.027c0.27,1.292,0.491,2.417,0.657,3.345c0.338,1.855,0.477,2.919,0.477,2.919l-0.291,0.076
				c0,0-0.478-0.977-1.218-2.692c-0.373-0.856-0.807-1.899-1.289-3.095c-0.431-1.213-1.167-2.489-1.79-3.938
				c-0.327-0.718-0.667-1.466-1.02-2.241c-0.313-0.79-0.737-1.562-1.155-2.362c-0.871-1.582-1.62-3.33-2.576-5.045
				c-0.469-0.862-0.952-1.735-1.417-2.634c-0.487-0.886-0.901-1.831-1.462-2.699c-0.534-0.885-1.072-1.777-1.612-2.673l-0.817-1.345
				c-0.287-0.44-0.598-0.864-0.896-1.297c-1.212-1.718-2.394-3.466-3.727-5.057c-0.652-0.806-1.274-1.629-1.936-2.402
				c-0.677-0.76-1.346-1.511-2.004-2.25c-0.646-0.752-1.319-1.454-1.998-2.124c-0.668-0.681-1.322-1.347-1.959-1.996
				c-1.34-1.223-2.552-2.454-3.782-3.458c-0.605-0.515-1.186-1.009-1.737-1.479c-0.569-0.448-1.11-0.873-1.618-1.272
				c-1.017-0.798-1.941-1.444-2.693-1.99c-1.522-1.066-2.439-1.6-2.439-1.6L192.381,73.384z"/>
		</g>
	</g>
	<g>
		<polyline fill="#BC953F" points="87.245,168.993 91.261,174.63 102.661,173.591 105.089,167.371 		"/>
		<polyline fill="#BC953F" points="128.885,165.206 132.901,170.84 144.303,169.799 146.729,163.583 		"/>
		<path fill="#303030" d="M137.521,63.519l3.79,41.639l-17.843,1.625l-1.285-14.099c-0.837-9.22-6.875-16.228-13.42-15.632
			c-6.542,0.598-11.213,8.58-10.374,17.799l1.283,14.098l-17.844,1.625l-3.79-41.64c-0.298-3.269,2.134-6.189,5.407-6.49
			l47.586-4.333C134.301,57.814,137.223,60.249,137.521,63.519z"/>
		
			<rect x="125.765" y="98.83" transform="matrix(0.9959 -0.0906 0.0906 0.9959 -11.377 12.7532)" fill="#F9C900" width="18.021" height="65.704"/>
		
			<rect x="83.9" y="102.632" transform="matrix(0.9959 -0.0906 0.0906 0.9959 -11.8864 8.9804)" fill="#F9C900" width="18.247" height="65.701"/>
	</g>
	<g>
		<path fill="#472408" d="M200.171,166.413c0,1.847-2.117,3.34-4.718,3.34c-2.604,0-4.723-1.493-4.723-3.34
			c0-1.837,2.118-3.333,4.723-3.333C198.054,163.08,200.171,164.576,200.171,166.413z"/>
		<path fill="#5B2F12" d="M200.171,166.413c0,1.847-2.117,3.34-4.718,3.34c-2.604,0-4.723-1.493-4.723-3.34
			c0-1.837,2.118-3.333,4.723-3.333C198.054,163.08,200.171,164.576,200.171,166.413z"/>
		<path fill="#472408" d="M213.305,166.413c0,1.847-2.118,3.34-4.719,3.34c-2.602,0-4.724-1.493-4.724-3.34
			c0-1.837,2.122-3.333,4.724-3.333C211.187,163.08,213.305,164.576,213.305,166.413z"/>
		<path fill="#3D1600" d="M206.738,166.413c0,1.847-2.119,3.34-4.723,3.34c-2.6,0-4.718-1.493-4.718-3.34
			c0-1.837,2.118-3.333,4.718-3.333C204.619,163.08,206.738,164.576,206.738,166.413z"/>
		<path fill="#3D1600" d="M213.305,166.413c0,1.847-2.118,3.34-4.719,3.34c-2.602,0-4.724-1.493-4.724-3.34
			c0-1.837,2.122-3.333,4.724-3.333C211.187,163.08,213.305,164.576,213.305,166.413z"/>
		<path fill="#2D1302" d="M213.918,169.881c0.54,2.567-2.409,5.442-6.581,6.405c-4.178,0.981-8-0.309-8.552-2.87
			c-0.538-2.572,2.396-5.442,6.569-6.404C209.544,166.022,213.375,167.315,213.918,169.881z"/>
		<path fill="#3D1900" d="M193.604,166.413c0,1.847-2.114,3.34-4.722,3.34c-2.601,0-4.718-1.493-4.718-3.34
			c0-1.837,2.117-3.333,4.718-3.333C191.49,163.08,193.604,164.576,193.604,166.413z"/>
		<path fill="#472408" d="M200.312,167.243c-1.104,2.369-4.488,3.022-7.56,1.458c-3.086-1.562-4.688-4.748-3.6-7.118
			c1.107-2.362,4.485-3.012,7.557-1.449C199.798,161.698,201.408,164.886,200.312,167.243z"/>
		<path fill="#543727" d="M198.263,174.589c-1.158,2.617-4.836,3.402-8.218,1.762c-3.387-1.64-5.201-5.093-4.044-7.694
			c1.153-2.617,4.836-3.412,8.213-1.773C197.613,168.528,199.427,171.977,198.263,174.589z"/>
		<path fill="#2D1302" d="M193.688,168.179c-1.06,2.38-5.073,2.789-8.947,0.908c-3.88-1.884-6.175-5.342-5.125-7.726
			c1.061-2.385,5.063-2.8,8.934-0.915C192.452,162.323,194.746,165.793,193.688,168.179z"/>
		<path fill="#381D01" d="M211.252,162.135c0,2.365-3.132,4.278-6.976,4.278c-3.855,0-6.979-1.913-6.979-4.278
			c0-2.359,3.123-4.277,6.979-4.277C208.12,157.857,211.252,159.775,211.252,162.135z"/>
	</g>
	<g>
		<path fill="#472408" d="M100.381,170.616c0.091-1.028,1.396-1.751,2.92-1.623c1.52,0.129,2.683,1.075,2.593,2.103
			c-0.087,1.026-1.394,1.749-2.914,1.62C101.458,172.581,100.293,171.644,100.381,170.616z"/>
		<path fill="#5B2F12" d="M100.381,170.616c0.091-1.028,1.396-1.751,2.92-1.623c1.52,0.129,2.683,1.075,2.593,2.103
			c-0.087,1.026-1.394,1.749-2.914,1.62C101.458,172.581,100.293,171.644,100.381,170.616z"/>
		<path fill="#472408" d="M92.714,169.952c0.09-1.027,1.396-1.751,2.915-1.622c1.521,0.127,2.688,1.073,2.598,2.101
			c-0.089,1.026-1.402,1.749-2.921,1.621C93.787,171.917,92.627,170.979,92.714,169.952z"/>
		<path fill="#3D1600" d="M96.544,170.275c0.092-1.02,1.402-1.747,2.921-1.612c1.519,0.132,2.683,1.07,2.594,2.094
			c-0.089,1.027-1.395,1.756-2.917,1.622C97.623,172.25,96.458,171.306,96.544,170.275z"/>
		<path fill="#3D1600" d="M92.714,169.952c0.09-1.027,1.396-1.751,2.915-1.622c1.521,0.127,2.688,1.073,2.598,2.101
			c-0.089,1.026-1.402,1.749-2.921,1.621C93.787,171.917,92.627,170.979,92.714,169.952z"/>
		<path fill="#2D1302" d="M92.521,167.987c-0.189-1.46,1.674-2.913,4.149-3.239c2.495-0.337,4.663,0.582,4.857,2.035
			c0.192,1.46-1.663,2.912-4.143,3.237C94.893,170.358,92.714,169.451,92.521,167.987z"/>
		<path fill="#3D1900" d="M104.217,170.948c0.09-1.026,1.396-1.755,2.916-1.622c1.523,0.134,2.686,1.074,2.596,2.096
			c-0.088,1.026-1.394,1.755-2.916,1.62C105.292,172.914,104.128,171.969,104.217,170.948z"/>
		<path fill="#442F20" d="M100.34,170.144c0.759-1.266,2.767-1.451,4.486-0.428c1.725,1.029,2.508,2.883,1.757,4.15
			c-0.76,1.259-2.766,1.452-4.481,0.426C100.373,173.266,99.585,171.408,100.34,170.144z"/>
		<path fill="#2D1302" d="M101.891,166.156c0.803-1.4,2.992-1.647,4.885-0.568c1.9,1.085,2.79,3.104,1.99,4.496
			c-0.801,1.396-2.985,1.659-4.882,0.567C101.976,169.566,101.087,167.555,101.891,166.156z"/>
		<path fill="#2D1302" d="M104.255,169.963c0.732-1.277,3.094-1.3,5.263-0.059c2.179,1.247,3.352,3.291,2.625,4.572
			c-0.737,1.272-3.09,1.302-5.263,0.055C104.695,173.287,103.519,171.235,104.255,169.963z"/>
		<path fill="#381D01" d="M93.705,172.437c0.114-1.311,2.033-2.229,4.279-2.032c2.254,0.2,3.98,1.427,3.866,2.746
			c-0.113,1.316-2.026,2.226-4.277,2.026C95.327,174.98,93.591,173.753,93.705,172.437z"/>
	</g>
	<g>
		<path fill="#472408" d="M92.853,169.184c-0.437,0.935-1.911,1.167-3.299,0.526c-1.385-0.641-2.154-1.928-1.718-2.863
			c0.433-0.935,1.907-1.166,3.292-0.525C92.513,166.969,93.286,168.248,92.853,169.184z"/>
		<path fill="#5B2F12" d="M92.853,169.184c-0.437,0.935-1.911,1.167-3.299,0.526c-1.385-0.641-2.154-1.928-1.718-2.863
			c0.433-0.935,1.907-1.166,3.292-0.525C92.513,166.969,93.286,168.248,92.853,169.184z"/>
		<path fill="#472408" d="M99.831,172.429c-0.436,0.935-1.91,1.168-3.293,0.527c-1.386-0.64-2.159-1.928-1.724-2.862
			c0.435-0.935,1.916-1.165,3.299-0.524C99.495,170.215,100.264,171.493,99.831,172.429z"/>
		<path fill="#3D1600" d="M96.342,170.814c-0.435,0.927-1.915,1.163-3.296,0.518c-1.382-0.645-2.155-1.925-1.722-2.854
			c0.436-0.936,1.911-1.174,3.296-0.526C96.003,168.591,96.776,169.876,96.342,170.814z"/>
		<path fill="#3D1600" d="M99.831,172.429c-0.436,0.935-1.91,1.168-3.293,0.527c-1.386-0.64-2.159-1.928-1.724-2.862
			c0.435-0.935,1.916-1.165,3.299-0.524C99.495,170.215,100.264,171.493,99.831,172.429z"/>
		<path fill="#2D1302" d="M99.34,174.341c-0.321,1.437-2.569,2.165-5.007,1.625c-2.46-0.536-4.183-2.141-3.868-3.573
			c0.319-1.438,2.558-2.168,5-1.626C97.922,171.301,99.66,172.898,99.34,174.341z"/>
		<path fill="#3D1900" d="M89.362,167.56c-0.436,0.935-1.913,1.171-3.295,0.527c-1.386-0.646-2.156-1.928-1.723-2.856
			c0.434-0.935,1.909-1.174,3.294-0.526C89.023,165.345,89.793,166.631,89.362,167.56z"/>
		<path fill="#442F20" d="M92.729,169.641c-1.146,0.93-3.097,0.418-4.362-1.131c-1.269-1.558-1.371-3.567-0.232-4.502
			c1.145-0.923,3.096-0.419,4.357,1.132C93.767,166.696,93.872,168.71,92.729,169.641z"/>
		<path fill="#2D1302" d="M89.909,172.858c-1.233,1.041-3.375,0.525-4.785-1.137c-1.415-1.668-1.561-3.871-0.333-4.905
			c1.23-1.038,3.372-0.539,4.782,1.136C90.996,169.624,91.143,171.817,89.909,172.858z"/>
		<path fill="#2D1302" d="M88.989,168.472c-1.125,0.95-3.352,0.164-4.966-1.743c-1.621-1.917-2.024-4.24-0.902-5.194
			c1.127-0.943,3.349-0.167,4.964,1.748C89.711,165.198,90.116,167.528,88.989,168.472z"/>
		<path fill="#381D01" d="M99.75,169.755c-0.556,1.192-2.673,1.398-4.717,0.446c-2.05-0.959-3.252-2.701-2.694-3.901
			c0.556-1.199,2.665-1.4,4.712-0.442C99.095,166.81,100.306,168.556,99.75,169.755z"/>
	</g>
	<g>
		<path fill="#472408" d="M118.3,170.616c0.09-1.028,1.398-1.751,2.92-1.623c1.521,0.129,2.682,1.075,2.593,2.103
			c-0.087,1.026-1.394,1.749-2.913,1.62C119.377,172.581,118.212,171.644,118.3,170.616z"/>
		<path fill="#5B2F12" d="M118.3,170.616c0.09-1.028,1.398-1.751,2.92-1.623c1.521,0.129,2.682,1.075,2.593,2.103
			c-0.087,1.026-1.394,1.749-2.913,1.62C119.377,172.581,118.212,171.644,118.3,170.616z"/>
		<path fill="#472408" d="M110.632,169.952c0.092-1.027,1.398-1.751,2.917-1.622c1.521,0.127,2.687,1.073,2.595,2.101
			c-0.087,1.026-1.398,1.749-2.918,1.621C111.705,171.917,110.545,170.979,110.632,169.952z"/>
		<path fill="#3D1600" d="M114.465,170.275c0.09-1.02,1.401-1.747,2.92-1.612c1.52,0.132,2.684,1.07,2.594,2.094
			c-0.089,1.027-1.396,1.756-2.919,1.622C115.541,172.25,114.377,171.306,114.465,170.275z"/>
		<path fill="#3D1600" d="M110.632,169.952c0.092-1.027,1.398-1.751,2.917-1.622c1.521,0.127,2.687,1.073,2.595,2.101
			c-0.087,1.026-1.398,1.749-2.918,1.621C111.705,171.917,110.545,170.979,110.632,169.952z"/>
		<path fill="#2D1302" d="M110.441,167.987c-0.191-1.46,1.675-2.913,4.15-3.239c2.491-0.337,4.66,0.582,4.856,2.035
			c0.193,1.46-1.664,2.912-4.141,3.237C112.812,170.358,110.632,169.451,110.441,167.987z"/>
		<path fill="#3D1900" d="M122.135,170.948c0.092-1.026,1.398-1.755,2.917-1.622c1.523,0.134,2.687,1.074,2.597,2.096
			c-0.088,1.026-1.396,1.755-2.919,1.62C123.211,172.914,122.047,171.969,122.135,170.948z"/>
		<path fill="#442F20" d="M118.258,170.144c0.76-1.266,2.768-1.451,4.487-0.428c1.724,1.029,2.508,2.883,1.755,4.15
			c-0.758,1.259-2.763,1.452-4.479,0.426C118.292,173.266,117.503,171.408,118.258,170.144z"/>
		<path fill="#2D1302" d="M119.812,166.156c0.802-1.4,2.989-1.647,4.882-0.568c1.902,1.085,2.792,3.104,1.992,4.496
			c-0.803,1.396-2.985,1.659-4.882,0.567C119.897,169.566,119.007,167.555,119.812,166.156z"/>
		<path fill="#2D1302" d="M122.174,169.963c0.731-1.277,3.094-1.3,5.265-0.059c2.177,1.247,3.35,3.291,2.621,4.572
			c-0.734,1.272-3.088,1.302-5.262,0.055C122.613,173.287,121.439,171.235,122.174,169.963z"/>
		<path fill="#381D01" d="M111.625,172.437c0.112-1.311,2.034-2.229,4.278-2.032c2.254,0.2,3.981,1.427,3.868,2.746
			c-0.114,1.316-2.029,2.226-4.279,2.026C113.247,174.98,111.509,173.753,111.625,172.437z"/>
	</g>
	<g>
		<path fill="#472408" d="M172.057,164.645c0.093-1.026,1.4-1.754,2.923-1.622c1.52,0.131,2.684,1.073,2.593,2.098
			c-0.089,1.025-1.396,1.751-2.914,1.622C173.137,166.609,171.971,165.666,172.057,164.645z"/>
		<path fill="#5B2F12" d="M172.057,164.645c0.093-1.026,1.4-1.754,2.923-1.622c1.52,0.131,2.684,1.073,2.593,2.098
			c-0.089,1.025-1.396,1.751-2.914,1.622C173.137,166.609,171.971,165.666,172.057,164.645z"/>
		<path fill="#472408" d="M164.392,163.979c0.091-1.026,1.396-1.753,2.914-1.621c1.521,0.13,2.687,1.074,2.597,2.097
			c-0.088,1.026-1.399,1.753-2.918,1.621C165.465,165.944,164.304,165.002,164.392,163.979z"/>
		<path fill="#3D1600" d="M168.222,164.308c0.092-1.023,1.402-1.749,2.919-1.62c1.521,0.133,2.688,1.076,2.597,2.1
			c-0.088,1.027-1.396,1.752-2.919,1.62C169.298,166.276,168.136,165.335,168.222,164.308z"/>
		<path fill="#3D1600" d="M164.392,163.979c0.091-1.026,1.396-1.753,2.914-1.621c1.521,0.13,2.687,1.074,2.597,2.097
			c-0.088,1.026-1.399,1.753-2.918,1.621C165.465,165.944,164.304,165.002,164.392,163.979z"/>
		<path fill="#2D1302" d="M164.199,162.012c-0.189-1.459,1.674-2.91,4.151-3.236c2.489-0.338,4.659,0.58,4.854,2.035
			c0.193,1.459-1.663,2.91-4.142,3.241C166.569,164.388,164.392,163.475,164.199,162.012z"/>
		<path fill="#3D1900" d="M175.896,164.976c0.091-1.026,1.397-1.752,2.915-1.622c1.522,0.132,2.686,1.074,2.594,2.097
			c-0.084,1.027-1.393,1.753-2.914,1.62C176.972,166.942,175.807,166.001,175.896,164.976z"/>
		<path fill="#442F20" d="M172.016,164.171c0.759-1.262,2.771-1.453,4.488-0.426c1.722,1.028,2.509,2.881,1.754,4.147
			c-0.757,1.26-2.763,1.45-4.477,0.425C172.05,167.29,171.262,165.434,172.016,164.171z"/>
		<path fill="#2D1302" d="M173.572,160.184c0.799-1.402,2.988-1.65,4.88-0.568c1.901,1.083,2.79,3.099,1.99,4.498
			c-0.8,1.396-2.984,1.658-4.881,0.567C173.656,163.594,172.762,161.58,173.572,160.184z"/>
		<path fill="#2D1302" d="M175.931,163.986c0.733-1.274,3.096-1.299,5.268-0.051c2.177,1.244,3.349,3.286,2.62,4.569
			c-0.736,1.271-3.09,1.301-5.261,0.052C176.375,167.315,175.199,165.266,175.931,163.986z"/>
		<path fill="#381D01" d="M165.383,166.467c0.113-1.316,2.033-2.229,4.277-2.031c2.253,0.193,3.984,1.422,3.87,2.738
			c-0.112,1.319-2.031,2.229-4.279,2.029C167.005,169.006,165.269,167.781,165.383,166.467z"/>
	</g>
	<g>
		<path fill="#472408" d="M174.285,172.18c-0.99-0.274-1.478-1.693-1.068-3.161c0.404-1.472,1.537-2.451,2.53-2.177
			c0.993,0.275,1.471,1.687,1.07,3.155C176.414,171.48,175.276,172.448,174.285,172.18z"/>
		<path fill="#5B2F12" d="M174.285,172.18c-0.99-0.274-1.478-1.693-1.068-3.161c0.404-1.472,1.537-2.451,2.53-2.177
			c0.993,0.275,1.471,1.687,1.07,3.155C176.414,171.48,175.276,172.448,174.285,172.18z"/>
		<path fill="#472408" d="M172.25,179.601c-0.995-0.27-1.472-1.686-1.068-3.156c0.399-1.479,1.538-2.451,2.528-2.177
			c0.995,0.269,1.474,1.691,1.07,3.162C174.379,178.898,173.241,179.874,172.25,179.601z"/>
		<path fill="#3D1600" d="M173.265,175.89c-0.993-0.269-1.47-1.691-1.066-3.163c0.402-1.469,1.539-2.442,2.529-2.168
			c0.997,0.269,1.474,1.686,1.07,3.16C175.396,175.19,174.263,176.164,173.265,175.89z"/>
		<path fill="#3D1600" d="M172.25,179.601c-0.995-0.27-1.472-1.686-1.068-3.156c0.399-1.479,1.538-2.451,2.528-2.177
			c0.995,0.269,1.474,1.691,1.07,3.162C174.379,178.898,173.241,179.874,172.25,179.601z"/>
		<path fill="#2D1302" d="M170.28,179.438c-1.466-0.071-2.559-2.17-2.436-4.661c0.116-2.516,1.411-4.488,2.876-4.418
			c1.468,0.077,2.567,2.167,2.444,4.662C173.043,177.533,171.754,179.513,170.28,179.438z"/>
		<path fill="#3D1900" d="M175.302,168.47c-0.992-0.281-1.473-1.691-1.069-3.162c0.401-1.477,1.541-2.449,2.531-2.178
			c0.991,0.271,1.472,1.688,1.071,3.162C177.431,167.764,176.295,168.736,175.302,168.47z"/>
		<path fill="#442F20" d="M173.812,172.133c-1.106-0.968-0.933-2.98,0.392-4.485c1.319-1.51,3.287-1.948,4.396-0.985
			c1.101,0.979,0.93,2.985-0.39,4.489C176.89,172.67,174.921,173.107,173.812,172.133z"/>
		<path fill="#2D1302" d="M170.173,169.892c-1.238-1.036-1.09-3.235,0.315-4.903c1.408-1.679,3.556-2.189,4.784-1.151
			c1.229,1.04,1.092,3.233-0.318,4.899C173.542,170.417,171.398,170.933,170.173,169.892z"/>
		<path fill="#2D1302" d="M174.338,168.248c-1.126-0.945-0.721-3.272,0.896-5.182c1.618-1.921,3.837-2.707,4.962-1.76
			c1.125,0.952,0.728,3.273-0.893,5.187C177.692,168.415,175.465,169.203,174.338,168.248z"/>
		<path fill="#381D01" d="M174.876,179.076c-1.27-0.352-1.827-2.405-1.227-4.574c0.598-2.182,2.113-3.662,3.388-3.313
			c1.278,0.348,1.828,2.396,1.231,4.572C177.672,177.937,176.151,179.425,174.876,179.076z"/>
	</g>
	<g>
		<path fill="#472408" d="M130.226,164.206c0.476-0.913,1.96-1.087,3.313-0.385c1.36,0.704,2.074,2.013,1.603,2.921
			c-0.474,0.924-1.958,1.099-3.312,0.397C130.471,166.438,129.751,165.12,130.226,164.206z"/>
		<path fill="#5B2F12" d="M130.226,164.206c0.476-0.913,1.96-1.087,3.313-0.385c1.36,0.704,2.074,2.013,1.603,2.921
			c-0.474,0.924-1.958,1.099-3.312,0.397C130.471,166.438,129.751,165.12,130.226,164.206z"/>
		<path fill="#472408" d="M123.39,160.671c0.475-0.913,1.958-1.09,3.313-0.385c1.358,0.699,2.074,2.013,1.601,2.926
			c-0.472,0.915-1.963,1.088-3.316,0.388C123.634,162.9,122.921,161.587,123.39,160.671z"/>
		<path fill="#3D1600" d="M126.809,162.438c0.476-0.912,1.959-1.087,3.313-0.384c1.353,0.698,2.074,2.014,1.6,2.925
			c-0.471,0.916-1.956,1.091-3.314,0.389C127.053,164.67,126.337,163.354,126.809,162.438z"/>
		<path fill="#3D1600" d="M123.39,160.671c0.475-0.913,1.958-1.09,3.313-0.385c1.358,0.699,2.074,2.013,1.601,2.926
			c-0.472,0.915-1.963,1.088-3.316,0.388C123.634,162.9,122.921,161.587,123.39,160.671z"/>
		<path fill="#2D1302" d="M123.958,158.781c0.379-1.417,2.657-2.053,5.073-1.412c2.435,0.638,4.09,2.313,3.711,3.73
			c-0.373,1.421-2.644,2.061-5.059,1.42C125.247,161.881,123.582,160.21,123.958,158.781z"/>
		<path fill="#3D1900" d="M133.645,165.974c0.479-0.916,1.96-1.085,3.313-0.388c1.362,0.703,2.075,2.015,1.605,2.931
			c-0.468,0.91-1.961,1.084-3.321,0.386C133.89,168.201,133.174,166.889,133.645,165.974z"/>
		<path fill="#442F20" d="M130.369,163.755c1.178-0.879,3.115-0.29,4.304,1.315c1.206,1.603,1.226,3.622,0.048,4.5
			c-1.185,0.876-3.11,0.292-4.303-1.311C129.205,166.649,129.191,164.635,130.369,163.755z"/>
		<path fill="#2D1302" d="M133.318,160.659c1.274-0.994,3.398-0.391,4.732,1.332c1.344,1.729,1.403,3.934,0.132,4.921
			c-1.272,0.985-3.395,0.391-4.727-1.335C132.104,163.849,132.045,161.644,133.318,160.659z"/>
		<path fill="#2D1302" d="M134.056,165.074c1.164-0.9,3.359-0.019,4.891,1.961c1.537,1.977,1.844,4.316,0.685,5.215
			c-1.166,0.904-3.353,0.035-4.885-1.949C133.202,168.325,132.891,165.979,134.056,165.074z"/>
		<path fill="#381D01" d="M123.363,163.352c0.601-1.174,2.724-1.289,4.726-0.247c2.009,1.035,3.137,2.828,2.537,4.001
			c-0.613,1.178-2.729,1.289-4.734,0.256C123.892,166.32,122.751,164.525,123.363,163.352z"/>
	</g>
	<g>
		<path fill="#472408" d="M142.192,170.616c0.091-1.028,1.396-1.751,2.921-1.623c1.521,0.129,2.685,1.075,2.593,2.103
			c-0.087,1.026-1.395,1.749-2.914,1.62C143.268,172.581,142.104,171.644,142.192,170.616z"/>
		<path fill="#5B2F12" d="M142.192,170.616c0.091-1.028,1.396-1.751,2.921-1.623c1.521,0.129,2.685,1.075,2.593,2.103
			c-0.087,1.026-1.395,1.749-2.914,1.62C143.268,172.581,142.104,171.644,142.192,170.616z"/>
		<path fill="#472408" d="M134.525,169.952c0.091-1.027,1.398-1.751,2.916-1.622c1.521,0.127,2.687,1.073,2.596,2.101
			c-0.088,1.026-1.4,1.749-2.919,1.621C135.599,171.917,134.439,170.979,134.525,169.952z"/>
		<path fill="#3D1600" d="M138.358,170.275c0.09-1.02,1.4-1.747,2.918-1.612c1.52,0.132,2.682,1.07,2.593,2.094
			c-0.088,1.027-1.394,1.756-2.916,1.622C139.433,172.25,138.269,171.306,138.358,170.275z"/>
		<path fill="#3D1600" d="M134.525,169.952c0.091-1.027,1.398-1.751,2.916-1.622c1.521,0.127,2.687,1.073,2.596,2.101
			c-0.088,1.026-1.4,1.749-2.919,1.621C135.599,171.917,134.439,170.979,134.525,169.952z"/>
		<path fill="#2D1302" d="M134.333,167.987c-0.189-1.46,1.675-2.913,4.149-3.239c2.493-0.337,4.66,0.582,4.856,2.035
			c0.192,1.46-1.663,2.912-4.141,3.237C136.704,170.358,134.525,169.451,134.333,167.987z"/>
		<path fill="#3D1900" d="M146.03,170.948c0.089-1.026,1.396-1.755,2.916-1.622c1.521,0.134,2.684,1.074,2.595,2.096
			c-0.089,1.026-1.393,1.755-2.917,1.62C147.104,172.914,145.942,171.969,146.03,170.948z"/>
		<path fill="#442F20" d="M142.15,170.144c0.759-1.266,2.771-1.451,4.489-0.428c1.722,1.029,2.507,2.883,1.754,4.15
			c-0.756,1.259-2.764,1.452-4.48,0.426C142.183,173.266,141.396,171.408,142.15,170.144z"/>
		<path fill="#2D1302" d="M143.704,166.156c0.804-1.4,2.991-1.647,4.883-0.568c1.901,1.085,2.791,3.104,1.993,4.496
			c-0.803,1.396-2.985,1.659-4.883,0.567C143.787,169.566,142.898,167.555,143.704,166.156z"/>
		<path fill="#2D1302" d="M146.067,169.963c0.732-1.277,3.094-1.3,5.263-0.059c2.18,1.247,3.352,3.291,2.621,4.572
			c-0.734,1.272-3.086,1.302-5.26,0.055C146.507,173.287,145.332,171.235,146.067,169.963z"/>
		<path fill="#381D01" d="M135.518,172.437c0.113-1.311,2.031-2.229,4.276-2.032c2.254,0.2,3.981,1.427,3.868,2.746
			c-0.114,1.316-2.027,2.226-4.278,2.026C137.139,174.98,135.404,173.753,135.518,172.437z"/>
	</g>
	<g>
		<path fill="#472408" d="M158.271,170.486c-0.543,0.884-2.036,0.948-3.338,0.143c-1.295-0.805-1.912-2.172-1.372-3.041
			c0.539-0.879,2.033-0.938,3.331-0.14C158.191,168.248,158.807,169.612,158.271,170.486z"/>
		<path fill="#5B2F12" d="M158.271,170.486c-0.543,0.884-2.036,0.948-3.338,0.143c-1.295-0.805-1.912-2.172-1.372-3.041
			c0.539-0.879,2.033-0.938,3.331-0.14C158.191,168.248,158.807,169.612,158.271,170.486z"/>
		<path fill="#472408" d="M164.821,174.536c-0.543,0.875-2.038,0.933-3.334,0.132c-1.299-0.795-1.917-2.162-1.374-3.037
			c0.541-0.874,2.038-0.932,3.335-0.138C164.748,172.298,165.361,173.662,164.821,174.536z"/>
		<path fill="#3D1600" d="M161.545,172.518c-0.539,0.877-2.034,0.933-3.337,0.127c-1.296-0.796-1.911-2.163-1.372-3.032
			c0.539-0.881,2.036-0.945,3.339-0.142C161.472,170.275,162.089,171.644,161.545,172.518z"/>
		<path fill="#3D1600" d="M164.821,174.536c-0.543,0.875-2.038,0.933-3.334,0.132c-1.299-0.795-1.917-2.162-1.374-3.037
			c0.541-0.874,2.038-0.932,3.335-0.138C164.748,172.298,165.361,173.662,164.821,174.536z"/>
		<path fill="#2D1302" d="M164.107,176.38c-0.485,1.388-2.804,1.843-5.16,1.021c-2.383-0.825-3.904-2.613-3.424-4.003
			c0.484-1.388,2.793-1.849,5.159-1.032C163.059,173.188,164.593,174.987,164.107,176.38z"/>
		<path fill="#3D1900" d="M154.996,168.47c-0.541,0.873-2.039,0.934-3.336,0.14c-1.3-0.806-1.917-2.171-1.374-3.045
			c0.539-0.877,2.033-0.938,3.333-0.136C154.916,166.23,155.533,167.595,154.996,168.47z"/>
		<path fill="#442F20" d="M158.093,170.933c-1.243,0.787-3.122,0.053-4.196-1.635c-1.076-1.692-0.941-3.706,0.297-4.498
			c1.246-0.784,3.123-0.052,4.193,1.638C159.472,168.133,159.34,170.144,158.093,170.933z"/>
		<path fill="#2D1302" d="M154.914,173.796c-1.346,0.891-3.412,0.128-4.612-1.687c-1.211-1.834-1.1-4.023,0.241-4.91
			c1.345-0.894,3.413-0.142,4.617,1.679C156.371,170.711,156.262,172.909,154.914,173.796z"/>
		<path fill="#2D1302" d="M154.516,169.332c-1.225,0.812-3.346-0.234-4.725-2.32c-1.385-2.088-1.511-4.444-0.286-5.257
			c1.228-0.809,3.344,0.225,4.723,2.316C155.621,166.166,155.748,168.528,154.516,169.332z"/>
		<path fill="#381D01" d="M165.053,171.865c-0.689,1.126-2.816,1.077-4.731-0.105c-1.932-1.19-2.921-3.067-2.227-4.188
			c0.695-1.124,2.815-1.078,4.735,0.111C164.749,168.865,165.747,170.745,165.053,171.865z"/>
	</g>
</g>
</svg>
