<?xml version="1.0" encoding="utf-8"?>
<!-- Generator: Adobe Illustrator 16.0.0, SVG Export Plug-In . SVG Version: 6.00 Build 0)  -->
<!DOCTYPE svg PUBLIC "-//W3C//DTD SVG 1.1//EN" "http://www.w3.org/Graphics/SVG/1.1/DTD/svg11.dtd">
<svg version="1.1" id="Layer_1" xmlns="http://www.w3.org/2000/svg" xmlns:xlink="http://www.w3.org/1999/xlink" x="0px" y="0px"
	 width="300px" height="300px" viewBox="0 0 300 300" enable-background="new 0 0 300 300" xml:space="preserve">
<g>
	<path fill="#CCCCCC" d="M125.223,237.5c0,5.738-4.923,10.5-10.995,10.5H24.976c-6.072,0-10.995-4.762-10.995-10.5l0,0
		c0-5.738,4.922-10.5,10.995-10.5h89.252C120.3,227,125.223,231.762,125.223,237.5L125.223,237.5z"/>
	<g>
		<g>
			<path fill="#333333" d="M122,216.872c0,11.357-5.032,21.128-12.979,21.128H32.769C24.822,238,18,228.229,18,216.872V68.795
				C18,57.437,24.822,49,32.769,49h76.252C116.968,49,122,57.437,122,68.795V216.872z"/>
			<path fill="#4D4D4D" d="M118,215.242c0,11.083-5.178,20.758-12.435,20.758H35.928C28.671,236,21,226.325,21,215.242V70.754
				C21,59.671,28.671,51,35.928,51h69.637C112.822,51,118,59.671,118,70.754V215.242z"/>
		</g>
		<g>
			<path fill="#1A1A1A" d="M110.207,171.488c0,22.512-18.252,40.762-40.761,40.762c-22.517,0-40.767-18.25-40.767-40.762
				c0-22.513,18.25-40.761,40.767-40.761C91.955,130.728,110.207,148.976,110.207,171.488z"/>
			<path fill="#999999" d="M105.729,171.641c0,20.039-16.246,36.285-36.285,36.285c-20.043,0-36.29-16.246-36.29-36.285
				c0-20.043,16.247-36.287,36.29-36.287C89.483,135.354,105.729,151.598,105.729,171.641z"/>
			<g>
				<circle fill="#333333" cx="69.442" cy="171.357" r="22.821"/>
				<g>
					<g>
						<path fill="#1A1A1A" d="M83.185,171.356c0,7.59-6.153,13.742-13.741,13.742c-7.591,0-13.742-6.152-13.742-13.742
							c0-7.586,6.151-13.737,13.742-13.737C77.031,157.619,83.185,163.771,83.185,171.356z"/>
						<path d="M80.608,171.399c0,6.143-4.982,11.121-11.125,11.121c-6.145,0-11.124-4.979-11.124-11.121
							c0-6.146,4.979-11.126,11.124-11.126C75.626,160.273,80.608,165.254,80.608,171.399z"/>
					</g>
					<g>
						<path fill="#CCCCCC" d="M70.792,163.189c0,0,0.188-0.078,0.531-0.124c0.344-0.056,0.854-0.039,1.438,0.125
							c0.301,0.065,0.598,0.207,0.92,0.35c0.306,0.165,0.631,0.352,0.923,0.591c0.318,0.22,0.591,0.494,0.874,0.775
							c0.286,0.28,0.513,0.602,0.776,0.908c0.237,0.321,0.473,0.642,0.706,0.958c0.24,0.315,0.413,0.652,0.581,0.983
							c0.32,0.67,0.41,1.357,0.493,1.938c0.1,1.179-0.132,2.007-0.132,2.007l-0.193,0.051c0,0-0.638-0.6-1.192-1.55
							c-0.154-0.231-0.316-0.48-0.458-0.752c-0.145-0.272-0.279-0.562-0.423-0.854c-0.242-0.61-0.417-1.296-0.729-1.921
							c-0.173-0.293-0.321-0.618-0.515-0.89c-0.196-0.271-0.368-0.563-0.585-0.794c-0.196-0.26-0.427-0.454-0.64-0.661
							c-0.226-0.178-0.442-0.366-0.67-0.479c-0.443-0.268-0.872-0.383-1.175-0.433c-0.308-0.051-0.483-0.034-0.483-0.034
							L70.792,163.189z"/>
					</g>
				</g>
			</g>
		</g>
		<g>
			<path fill="#1A1A1A" d="M101.055,89.658c0,17.579-14.252,31.832-31.831,31.832c-17.584,0-31.834-14.253-31.834-31.832
				c0-17.582,14.25-31.832,31.834-31.832C86.802,57.826,101.055,72.076,101.055,89.658z"/>
			<circle fill="#999999" cx="69.221" cy="89.776" r="28.338"/>
			<g>
				<circle fill="#333333" cx="69.222" cy="89.556" r="17.822"/>
				<g>
					<g>
						<circle fill="#1A1A1A" cx="69.223" cy="89.554" r="10.731"/>
						<circle cx="69.255" cy="89.587" r="8.687"/>
					</g>
					<g>
						<path fill="#CCCCCC" d="M70.271,83.155c0,0,0.148-0.068,0.419-0.115c0.273-0.054,0.68-0.052,1.152,0.064
							c0.243,0.046,0.484,0.151,0.746,0.259c0.249,0.124,0.513,0.269,0.752,0.454c0.26,0.17,0.483,0.382,0.714,0.604
							c0.233,0.219,0.419,0.47,0.635,0.711c0.376,0.502,0.825,0.984,1.065,1.518c0.254,0.533,0.304,1.083,0.342,1.551
							c0.028,0.945-0.248,1.617-0.248,1.617l-0.193,0.051c0,0-0.594-0.443-1.076-1.16c-0.284-0.339-0.512-0.771-0.731-1.218
							c-0.183-0.469-0.28-1.011-0.508-1.498c-0.125-0.227-0.231-0.481-0.374-0.692c-0.143-0.21-0.267-0.441-0.426-0.622
							c-0.143-0.205-0.313-0.358-0.468-0.524c-0.166-0.143-0.326-0.295-0.496-0.389c-0.33-0.22-0.656-0.321-0.889-0.371
							c-0.237-0.05-0.373-0.044-0.373-0.044L70.271,83.155z"/>
					</g>
				</g>
			</g>
		</g>
		<g>
			
				<line fill="none" stroke="#E6E6E6" stroke-width="0.75" stroke-linecap="round" stroke-linejoin="round" stroke-miterlimit="10" x1="74.666" y1="225.432" x2="70.091" y2="226.771"/>
			
				<path fill="none" stroke="#E6E6E6" stroke-width="0.75" stroke-linecap="round" stroke-linejoin="round" stroke-miterlimit="10" d="
				M74.611,227.169c-0.257,0.679-0.79,1.221-1.502,1.429c-1.264,0.37-2.615-0.448-3.018-1.827c-0.404-1.38,0.293-2.797,1.557-3.167
				c1.264-0.37,2.615,0.448,3.018,1.828"/>
			
				<line fill="none" stroke="#E6E6E6" stroke-width="0.75" stroke-linecap="round" stroke-linejoin="round" stroke-miterlimit="10" x1="68.416" y1="225.416" x2="63.85" y2="226.786"/>
			
				<path fill="none" stroke="#E6E6E6" stroke-width="0.75" stroke-linecap="round" stroke-linejoin="round" stroke-miterlimit="10" d="
				M68.372,227.153c-0.252,0.682-0.781,1.226-1.491,1.439c-1.261,0.378-2.619-0.431-3.031-1.807
				c-0.413-1.376,0.274-2.799,1.536-3.178c1.261-0.377,2.617,0.432,3.031,1.808"/>
			
				<ellipse fill="none" stroke="#E6E6E6" stroke-width="0.75" stroke-linecap="round" stroke-linejoin="round" stroke-miterlimit="10" cx="78.901" cy="226.102" rx="2.387" ry="2.601"/>
			
				<line fill="none" stroke="#E6E6E6" stroke-width="0.75" stroke-linecap="round" stroke-linejoin="round" stroke-miterlimit="10" x1="76.514" y1="223.801" x2="76.514" y2="230.527"/>
			
				<path fill="none" stroke="#E6E6E6" stroke-width="0.75" stroke-linecap="round" stroke-linejoin="round" stroke-miterlimit="10" d="
				M57.596,226.049c0-1.438,0.969-2.603,2.163-2.603c1.194,0,2.162,1.165,2.162,2.603v2.299"/>
			
				<line fill="none" stroke="#E6E6E6" stroke-width="0.75" stroke-linecap="round" stroke-linejoin="round" stroke-miterlimit="10" x1="57.596" y1="228.348" x2="57.596" y2="221.622"/>
		</g>
	</g>
	<g>
		<path fill="#CCCCCC" d="M286.019,226c0,4.05-5.698,7-12.726,7H169.985c-7.028,0-12.726-2.95-12.726-7l0,0
			c0-4.049,5.697-7,12.726-7h103.308C280.32,219,286.019,221.951,286.019,226L286.019,226z"/>
		<g>
			<path fill="#333333" d="M168.778,219.051L163.863,237h-15.695c-1.198,0-2.168-0.527-2.168-1.09v-16.233
				c0-0.563,0.97-0.677,2.168-0.677h19.511C168.179,219,168.533,218.918,168.778,219.051z"/>
			<polyline fill="#1A1A1A" points="252.861,236.54 257,232.37 257,216.217 250.439,217.44 			"/>
			<path fill="#1A1A1A" d="M257.245,204.051L262.159,222h15.696c1.197,0,2.145-0.196,2.145-0.759v-16.234
				c0-0.563-0.947-1.007-2.145-1.007h-19.511C257.844,204,257.489,203.918,257.245,204.051z"/>
			<path fill="#333333" d="M230.352,219.051L235.266,237h15.696c1.197,0,3.038-0.527,3.038-1.09v-16.233
				c0-0.563-1.841-0.677-3.038-0.677H231.45C230.95,219,230.596,218.918,230.352,219.051z"/>
			<g>
				<g>
					<g>
						<path fill="#666666" d="M282,112.237v88.834c0,2.786-1.453,5.098-3.924,5.342l-24.41,12.176
							c0.867-0.979,1.334-2.445,1.334-4.071v-88.834c0-2.959-1.666-4.684-4.417-4.684h-1.479l29.497-13.428
							C280.729,107.963,282,109.645,282,112.237z"/>
					</g>
					<polygon fill="#333333" points="278.442,107.506 250.327,120.867 250.303,120.879 171.664,121.012 146.543,121.405 
						146.543,121.405 172.324,109.669 177.775,107.285 					"/>
					<path fill="#4D4D4D" d="M255,125.684v88.834c0,1.626-0.547,3.15-1.414,4.129c-0.695,0.807-1.78,1.354-3.003,1.354H149.072
						c-2.75,0-5.072-2.537-5.072-5.482v-88.834c0-2.029,1.07-3.467,2.769-4.212c0.794-0.354,1.437-0.472,2.303-0.472h101.511
						C253.334,121,255,122.724,255,125.684z"/>
				</g>
				<path fill="#1A1A1A" d="M241.078,170.189c0,22.469-18.218,40.684-40.684,40.684c-22.476,0-40.69-18.215-40.69-40.684
					c0-22.471,18.215-40.685,40.69-40.685C222.86,129.505,241.078,147.719,241.078,170.189z"/>
				<path fill="#999999" d="M236.609,170.341c0,20.001-16.216,36.216-36.216,36.216c-20.007,0-36.222-16.215-36.222-36.216
					c0-20.004,16.215-36.218,36.222-36.218C220.394,134.123,236.609,150.336,236.609,170.341z"/>
				<path fill="#333333" d="M232.967,170.605c0,17.688-14.339,32.027-32.025,32.027c-17.692,0-32.032-14.339-32.032-32.027
					c0-17.686,14.34-32.026,32.032-32.026C218.628,138.58,232.967,152.92,232.967,170.605z"/>
				<path fill="#1A1A1A" d="M216.552,170.872c0,8.701-7.054,15.753-15.752,15.753c-8.701,0-15.754-7.052-15.754-15.753
					c0-8.696,7.053-15.749,15.754-15.749C209.498,155.123,216.552,162.176,216.552,170.872z"/>
				<path d="M213.599,170.92c0,7.042-5.711,12.749-12.754,12.749c-7.044,0-12.751-5.707-12.751-12.749
					c0-7.045,5.707-12.754,12.751-12.754C207.888,158.166,213.599,163.875,213.599,170.92z"/>
			</g>
		</g>
	</g>
</g>
</svg>
