  0
SECTION
  2
HEADER
  9
$ACADVER
  1
AC1012
  9
$DWGCODEPAGE
  3
undefined
  9
$INSBASE
 10
0.0
 20
0.0
 30
0.0
  9
$EXTMIN
 10
1.000000000000000E+20
 20
1.000000000000000E+20
 30
1.000000000000000E+20
  9
$EXTMAX
 10
-1.000000000000000E+20
 20
-1.000000000000000E+20
 30
-1.000000000000000E+20
  9
$LIMMIN
 10
0.0
 20
0.0
  9
$LIMMAX
 10
12.0
 20
9.0
  9
$ORTHOMODE
 70
     0
  9
$REGENMODE
 70
     1
  9
$FILLMODE
 70
     1
  9
$QTEXTMODE
 70
     0
  9
$MIRRTEXT
 70
     1
  9
$DRAGMODE
 70
     2
  9
$LTSCALE
 40
1.0
  9
$OSMODE
 70
    37
  9
$ATTMODE
 70
     1
  9
$TEXTSIZE
 40
0.2
  9
$TRACEWID
 40
0.05
  9
$TEXTSTYLE
  7
STANDARD
  9
$CLAYER
  8
0
  9
$CELTYPE
  6
BYLAYER
  9
$CECOLOR
 62
   256
  9
$CELTSCALE
 40
1.0
  9
$DELOBJ
 70
     1
  9
$DISPSILH
 70
     0
  9
$DIMSCALE
 40
1.0
  9
$DIMASZ
 40
0.18
  9
$DIMEXO
 40
0.0625
  9
$DIMDLI
 40
0.38
  9
$DIMRND
 40
0.0
  9
$DIMDLE
 40
0.0
  9
$DIMEXE
 40
0.18
  9
$DIMTP
 40
0.0
  9
$DIMTM
 40
0.0
  9
$DIMTXT
 40
0.18
  9
$DIMCEN
 40
0.09
  9
$DIMTSZ
 40
0.0
  9
$DIMTOL
 70
     0
  9
$DIMLIM
 70
     0
  9
$DIMTIH
 70
     1
  9
$DIMTOH
 70
     1
  9
$DIMSE1
 70
     0
  9
$DIMSE2
 70
     0
  9
$DIMTAD
 70
     0
  9
$DIMZIN
 70
     0
  9
$DIMBLK
  1

  9
$DIMASO
 70
     1
  9
$DIMSHO
 70
     1
  9
$DIMPOST
  1

  9
$DIMAPOST
  1

  9
$DIMALT
 70
     0
  9
$DIMALTD
 70
     2
  9
$DIMALTF
 40
25.4
  9
$DIMLFAC
 40
1.0
  9
$DIMTOFL
 70
     0
  9
$DIMTVP
 40
0.0
  9
$DIMTIX
 70
     0
  9
$DIMSOXD
 70
     0
  9
$DIMSAH
 70
     0
  9
$DIMBLK1
  1

  9
$DIMBLK2
  1

  9
$DIMSTYLE
  2
STANDARD
  9
$DIMCLRD
 70
     0
  9
$DIMCLRE
 70
     0
  9
$DIMCLRT
 70
     0
  9
$DIMTFAC
 40
1.0
  9
$DIMGAP
 40
0.09
  9
$DIMJUST
 70
     0
  9
$DIMSD1
 70
     0
  9
$DIMSD2
 70
     0
  9
$DIMTOLJ
 70
     1
  9
$DIMTZIN
 70
     0
  9
$DIMALTZ
 70
     0
  9
$DIMALTTZ
 70
     0
  9
$DIMFIT
 70
     3
  9
$DIMUPT
 70
     0
  9
$DIMUNIT
 70
     2
  9
$DIMDEC
 70
     4
  9
$DIMTDEC
 70
     4
  9
$DIMALTU
 70
     2
  9
$DIMALTTD
 70
     2
  9
$DIMTXSTY
  7
STANDARD
  9
$DIMAUNIT
 70
     0
  9
$LUNITS
 70
     2
  9
$LUPREC
 70
     4
  9
$SKETCHINC
 40
0.1
  9
$FILLETRAD
 40
0.5
  9
$AUNITS
 70
     0
  9
$AUPREC
 70
     0
  9
$MENU
  1
.
  9
$ELEVATION
 40
0.0
  9
$PELEVATION
 40
0.0
  9
$THICKNESS
 40
0.0
  9
$LIMCHECK
 70
     0
  9
$CHAMFERA
 40
0.5
  9
$CHAMFERB
 40
0.5
  9
$CHAMFERC
 40
1.0
  9
$CHAMFERD
 40
0.0
  9
$SKPOLY
 70
     0
  9
$TDCREATE
 40
2457806.666076377
  9
$TDUPDATE
 40
2457806.666076377
  9
$TDINDWG
 40
0.0000000116
  9
$TDUSRTIMER
 40
0.0000000116
  9
$USRTIMER
 70
     1
  9
$ANGBASE
 50
0.0
  9
$ANGDIR
 70
     0
  9
$PDMODE
 70
     0
  9
$PDSIZE
 40
0.0
  9
$PLINEWID
 40
0.0
  9
$COORDS
 70
     1
  9
$SPLFRAME
 70
     0
  9
$SPLINETYPE
 70
     6
  9
$SPLINESEGS
 70
     8
  9
$ATTDIA
 70
     0
  9
$ATTREQ
 70
     1
  9
$HANDLING
 70
     1
  9
$HANDSEED
  5
E5
  9
$SURFTAB1
 70
     6
  9
$SURFTAB2
 70
     6
  9
$SURFTYPE
 70
     6
  9
$SURFU
 70
     6
  9
$SURFV
 70
     6
  9
$UCSNAME
  2

  9
$UCSORG
 10
0.0
 20
0.0
 30
0.0
  9
$UCSXDIR
 10
1.0
 20
0.0
 30
0.0
  9
$UCSYDIR
 10
0.0
 20
1.0
 30
0.0
  9
$PUCSNAME
  2

  9
$PUCSORG
 10
0.0
 20
0.0
 30
0.0
  9
$PUCSXDIR
 10
1.0
 20
0.0
 30
0.0
  9
$PUCSYDIR
 10
0.0
 20
1.0
 30
0.0
  9
$USERI1
 70
     0
  9
$USERI2
 70
     0
  9
$USERI3
 70
     0
  9
$USERI4
 70
     0
  9
$USERI5
 70
     0
  9
$USERR1
 40
0.0
  9
$USERR2
 40
0.0
  9
$USERR3
 40
0.0
  9
$USERR4
 40
0.0
  9
$USERR5
 40
0.0
  9
$WORLDVIEW
 70
     1
  9
$SHADEDGE
 70
     3
  9
$SHADEDIF
 70
    70
  9
$TILEMODE
 70
     1
  9
$MAXACTVP
 70
    64
  9
$PINSBASE
 10
0.0
 20
0.0
 30
0.0
  9
$PLIMCHECK
 70
     0
  9
$PEXTMIN
 10
1.000000000000000E+20
 20
1.000000000000000E+20
 30
1.000000000000000E+20
  9
$PEXTMAX
 10
-1.000000000000000E+20
 20
-1.000000000000000E+20
 30
-1.000000000000000E+20
  9
$PLIMMIN
 10
0.0
 20
0.0
  9
$PLIMMAX
 10
12.0
 20
9.0
  9
$UNITMODE
 70
     0
  9
$VISRETAIN
 70
     1
  9
$PLINEGEN
 70
     0
  9
$PSLTSCALE
 70
     1
  9
$TREEDEPTH
 70
  3020
  9
$PICKSTYLE
 70
     1
  9
$CMLSTYLE
  2
STANDARD
  9
$CMLJUST
 70
     0
  9
$CMLSCALE
 40
1.0
  9
$SAVEIMAGES
 70
     1
  0
ENDSEC
  0
SECTION
  2
CLASSES
  0
CLASS
  1
ACDBDICTIONARYWDFLT
  2
AcDbDictionaryWithDefault
  3
ObjectDBX Classes
 90
    32768
280
     0
281
     0
  0
CLASS
  1
VISUALSTYLE
  2
AcDbVisualStyle
  3
ObjectDBX Classes
 90
     4095
280
     0
281
     0
  0
CLASS
  1
MATERIAL
  2
AcDbMaterial
  3
ObjectDBX Classes
 90
     1153
280
     0
281
     0
  0
CLASS
  1
SUN
  2
AcDbSun
  3
SCENEOE
 90
     1024
280
     0
281
     0
  0
CLASS
  1
DICTIONARYVAR
  2
AcDbDictionaryVar
  3
ObjectDBX Classes
 90
        0
280
     0
281
     0
  0
CLASS
  1
XRECORD
  2
AcDbXrecord
  3
AutoCAD 2000
 90
    32768
280
     0
281
     0
  0
CLASS
  1
LWPOLYLINE
  2
AcDbPolyline
  3
AutoCAD 2000
 90
    32768
280
     0
281
     1
  0
CLASS
  1
HATCH
  2
AcDbHatch
  3
AutoCAD 2000
 90
    32768
280
     0
281
     1
  0
CLASS
  1
ACDBPLACEHOLDER
  2
AcDbPlaceHolder
  3
ObjectDBX Classes
 90
        0
280
     0
281
     0
  0
CLASS
  1
LAYOUT
  2
AcDbLayout
  3
ObjectDBX Classes
 90
        0
280
     0
281
     0
  0
ENDSEC
  0
SECTION
  2
TABLES
  0
TABLE
  2
VPORT
  5
8
330
0
100
AcDbSymbolTable
 70
     1
  0
VPORT
  5
29
330
8
100
AcDbSymbolTableRecord
100
AcDbViewportTableRecord
  2
*ACTIVE
 70
     0
 10
0.0
 20
0.0
 11
1.0
 21
1.0
 12
0.0
 22
0.0
 13
0.0
 23
0.0
 14
0.5
 24
0.5
 15
0.5
 25
0.5
 16
0.0
 26
0.0
 36
1.0
 17
22.67638888321981
 27
-22.75983483487269
 37
0.0
 40
57.84999998686213
 41
0.783923941232259
 42
50.0
 43
0.0
 44
0.0
 50
0.0
 51
0.0
 71
     0
 72
   100
 73
     1
 74
     3
 75
     0
 76
     0
 77
     0
 78
     0
  0
ENDTAB
  0
TABLE
  2
LTYPE
  5
5
330
0
100
AcDbSymbolTable
 70
     1
  0
LTYPE
  5
14
330
5
100
AcDbSymbolTableRecord
100
AcDbLinetypeTableRecord
  2
BYBLOCK
 70
     0
  3

 72
    65
 73
     0
 40
0.0
  0
LTYPE
  5
15
330
5
100
AcDbSymbolTableRecord
100
AcDbLinetypeTableRecord
  2
BYLAYER
 70
     0
  3

 72
    65
 73
     0
 40
0.0
  0
LTYPE
  5
16
330
5
100
AcDbSymbolTableRecord
100
AcDbLinetypeTableRecord
  2
CONTINUOUS
 70
     0
  3
Solid line
 72
    65
 73
     0
 40
0.0
  0
ENDTAB
  0
TABLE
  2
LAYER
  5
2
330
0
100
AcDbSymbolTable
 70
     2
  0
LAYER
  5
10
330
2
100
AcDbSymbolTableRecord
100
AcDbLayerTableRecord
  2
0
 70
     0
 62
     7
  6
CONTINUOUS
  0
LAYER
  5
40
330
2
100
AcDbSymbolTableRecord
100
AcDbLayerTableRecord
  2
LAYER_1
 70
     0
 62
     7
  6
CONTINUOUS
  0
ENDTAB
  0
TABLE
  2
STYLE
  5
3
330
0
100
AcDbSymbolTable
 70
     1
  0
STYLE
  5
11
330
3
100
AcDbSymbolTableRecord
100
AcDbTextStyleTableRecord
  2
STANDARD
 70
     0
 40
0.0
 41
1.0
 50
0.0
 71
     0
 42
0.2
  3
txt
  4

  0
ENDTAB
  0
TABLE
  2
VIEW
  5
6
330
0
100
AcDbSymbolTable
 70
     0
  0
ENDTAB
  0
TABLE
  2
UCS
  5
7
330
0
100
AcDbSymbolTable
 70
     0
  0
ENDTAB
  0
TABLE
  2
APPID
  5
9
330
0
100
AcDbSymbolTable
 70
     1
  0
APPID
  5
12
330
9
100
AcDbSymbolTableRecord
100
AcDbRegAppTableRecord
  2
ACAD
 70
     0
  0
ENDTAB
  0
TABLE
  2
DIMSTYLE
  5
A
330
0
100
AcDbSymbolTable
 70
     1
  0
DIMSTYLE
105
27
330
A
100
AcDbSymbolTableRecord
100
AcDbDimStyleTableRecord
  2
STANDARD
 70
     0
  3

  4

  5

  6

  7

 40
1.0
 41
0.18
 42
0.0625
 43
0.38
 44
0.18
 45
0.0
 46
0.0
 47
0.0
 48
0.0
140
0.18
141
0.09
142
0.0
143
25.4
144
1.0
145
0.0
146
1.0
147
0.09
 71
     0
 72
     0
 73
     1
 74
     1
 75
     0
 76
     0
 77
     0
 78
     0
170
     0
171
     2
172
     0
173
     0
174
     0
175
     0
176
     0
177
     0
178
     0
270
     2
271
     4
272
     4
273
     2
274
     2
340
11
275
     0
280
     0
281
     0
282
     0
283
     1
284
     0
285
     0
286
     0
287
     3
288
     0
  0
ENDTAB
  0
TABLE
  2
BLOCK_RECORD
  5
1
330
0
100
AcDbSymbolTable
 70
    13
  0
BLOCK_RECORD
  5
1F
330
1
100
AcDbSymbolTableRecord
100
AcDbBlockTableRecord
  2
*MODEL_SPACE
  0
BLOCK_RECORD
  5
1B
330
1
100
AcDbSymbolTableRecord
100
AcDbBlockTableRecord
  2
*PAPER_SPACE
  0
BLOCK_RECORD
  5
62
330
1
100
AcDbSymbolTableRecord
100
AcDbBlockTableRecord
  2
BLOCK_2
  0
BLOCK_RECORD
  5
6C
330
1
100
AcDbSymbolTableRecord
100
AcDbBlockTableRecord
  2
BLOCK_3
  0
BLOCK_RECORD
  5
76
330
1
100
AcDbSymbolTableRecord
100
AcDbBlockTableRecord
  2
BLOCK_4
  0
BLOCK_RECORD
  5
80
330
1
100
AcDbSymbolTableRecord
100
AcDbBlockTableRecord
  2
BLOCK_5
  0
BLOCK_RECORD
  5
8A
330
1
100
AcDbSymbolTableRecord
100
AcDbBlockTableRecord
  2
BLOCK_6
  0
BLOCK_RECORD
  5
94
330
1
100
AcDbSymbolTableRecord
100
AcDbBlockTableRecord
  2
BLOCK_7
  0
BLOCK_RECORD
  5
9E
330
1
100
AcDbSymbolTableRecord
100
AcDbBlockTableRecord
  2
BLOCK_8
  0
BLOCK_RECORD
  5
A8
330
1
100
AcDbSymbolTableRecord
100
AcDbBlockTableRecord
  2
BLOCK_9
  0
BLOCK_RECORD
  5
B2
330
1
100
AcDbSymbolTableRecord
100
AcDbBlockTableRecord
  2
BLOCK_10
  0
BLOCK_RECORD
  5
BC
330
1
100
AcDbSymbolTableRecord
100
AcDbBlockTableRecord
  2
BLOCK_11
  0
BLOCK_RECORD
  5
C6
330
1
100
AcDbSymbolTableRecord
100
AcDbBlockTableRecord
  2
BLOCK_12
  0
BLOCK_RECORD
  5
D0
330
1
100
AcDbSymbolTableRecord
100
AcDbBlockTableRecord
  2
BLOCK_13
  0
ENDTAB
  0
ENDSEC
  0
SECTION
  2
BLOCKS
  0
BLOCK
  5
20
330
1F
100
AcDbEntity
  8
0
100
AcDbBlockBegin
  2
*MODEL_SPACE
 70
     0
 10
0.0
 20
0.0
 30
0.0
  3
*MODEL_SPACE
  1

  0
ENDBLK
  5
21
330
1F
100
AcDbEntity
  8
0
100
AcDbBlockEnd
  0
BLOCK
  5
1C
330
1B
100
AcDbEntity
 67
     1
  8
0
100
AcDbBlockBegin
  2
*PAPER_SPACE
 70
     0
 10
0.0
 20
0.0
 30
0.0
  3
*PAPER_SPACE
  1

  0
ENDBLK
  5
1D
330
1B
100
AcDbEntity
 67
     1
  8
0
100
AcDbBlockEnd
  0
BLOCK
  5
64
330
62
100
AcDbEntity
  8
0
100
AcDbBlockBegin
  2
BLOCK_2
 70
     0
 10
0.0
 20
0.0
 30
0.0
  3
BLOCK_2
  1

  0
POLYLINE
  5
66
330
62
100
AcDbEntity
  8
LAYER_1
 62
     7
100
AcDb2dPolyline
 66
     1
 10
0.0
 20
0.0
 30
0.0
  0
VERTEX
  5
67
330
66
100
AcDbEntity
  8
LAYER_1
 62
     7
100
AcDbVertex
100
AcDb2dVertex
 10
19.18229174597987
 20
-38.23934871989166
 30
0.0
  0
VERTEX
  5
68
330
66
100
AcDbEntity
  8
LAYER_1
 62
     7
100
AcDbVertex
100
AcDb2dVertex
 10
19.18229174597987
 20
-40.48934871932913
 30
0.0
  0
VERTEX
  5
69
330
66
100
AcDbEntity
  8
LAYER_1
 62
     7
100
AcDbVertex
100
AcDb2dVertex
 10
19.18229174597987
 20
-42.7393487187666
 30
0.0
  0
SEQEND
  5
6A
330
66
100
AcDbEntity
  8
LAYER_1
 62
     7
  0
SPLINE
  5
6B
330
62
100
AcDbEntity
  8
LAYER_1
 62
     7
100
AcDbSpline
210
0.0
220
0.0
230
1.0
 70
    11
 71
     3
 72
    29
 73
    25
 74
     0
 42
0.0000000001
 43
0.0000000001
 12
1.0
 22
0.0
 32
0.0
 13
1.0
 23
0.0
 33
0.0
 40
0.0
 40
0.0
 40
0.0
 40
0.0
 40
1.0
 40
1.0
 40
1.0
 40
2.0
 40
2.0
 40
2.0
 40
3.0
 40
3.0
 40
3.0
 40
4.0
 40
4.0
 40
4.0
 40
5.0
 40
5.0
 40
5.0
 40
6.0
 40
6.0
 40
6.0
 40
7.0
 40
7.0
 40
7.0
 40
8.0
 40
8.0
 40
8.0
 40
8.0
 10
19.56229157382609
 20
-42.37934880998552
 30
0.0
 10
19.56229157382609
 20
-42.48428291242083
 30
0.0
 10
19.51975862506782
 20
-42.5792829123974
 30
0.0
 10
19.4509921507004
 20
-42.64804938676449
 30
0.0
 10
19.38222567633299
 20
-42.71681586113223
 30
0.0
 10
19.28722567635706
 20
-42.7593488098905
 30
0.0
 10
19.18229157392111
 20
-42.7593488098905
 30
0.0
 10
19.07735747148515
 20
-42.7593488098905
 30
0.0
 10
18.98235747150923
 20
-42.71681586113223
 30
0.0
 10
18.91359099714181
 20
-42.64804938676449
 30
0.0
 10
18.8448245227744
 20
-42.5792829123974
 30
0.0
 10
18.80229157401613
 20
-42.48428291242083
 30
0.0
 10
18.80229157401613
 20
-42.37934880998552
 30
0.0
 10
18.80229157401613
 20
-42.27441470755021
 30
0.0
 10
18.8448245227744
 20
-42.17941470757364
 30
0.0
 10
18.91359099714181
 20
-42.11064823320655
 30
0.0
 10
18.98235747150923
 20
-42.04188175883881
 30
0.0
 10
19.07735747148515
 20
-41.99934881008054
 30
0.0
 10
19.18229157392111
 20
-41.99934881008054
 30
0.0
 10
19.28722567635706
 20
-41.99934881008054
 30
0.0
 10
19.38222567633299
 20
-42.04188175883881
 30
0.0
 10
19.4509921507004
 20
-42.11064823320655
 30
0.0
 10
19.51975862506782
 20
-42.17941470757364
 30
0.0
 10
19.56229157382609
 20
-42.27441470755021
 30
0.0
 10
19.56229157382609
 20
-42.37934880998552
 30
0.0
  0
ENDBLK
  5
65
330
62
100
AcDbEntity
  8
0
100
AcDbBlockEnd
  0
BLOCK
  5
6E
330
6C
100
AcDbEntity
  8
0
100
AcDbBlockBegin
  2
BLOCK_3
 70
     0
 10
0.0
 20
0.0
 30
0.0
  3
BLOCK_3
  1

  0
POLYLINE
  5
70
330
6C
100
AcDbEntity
  8
LAYER_1
 62
     7
100
AcDb2dPolyline
 66
     1
 10
0.0
 20
0.0
 30
0.0
  0
VERTEX
  5
71
330
70
100
AcDbEntity
  8
LAYER_1
 62
     7
100
AcDbVertex
100
AcDb2dVertex
 10
21.76415530760044
 20
-38.22934867459153
 30
0.0
  0
VERTEX
  5
72
330
70
100
AcDbEntity
  8
LAYER_1
 62
     7
100
AcDbVertex
100
AcDb2dVertex
 10
21.76415530760044
 20
-40.479348674029
 30
0.0
  0
VERTEX
  5
73
330
70
100
AcDbEntity
  8
LAYER_1
 62
     7
100
AcDbVertex
100
AcDb2dVertex
 10
21.76415530760044
 20
-42.72934867346647
 30
0.0
  0
SEQEND
  5
74
330
70
100
AcDbEntity
  8
LAYER_1
 62
     7
  0
SPLINE
  5
75
330
6C
100
AcDbEntity
  8
LAYER_1
 62
     7
100
AcDbSpline
210
0.0
220
0.0
230
1.0
 70
    11
 71
     3
 72
    29
 73
    25
 74
     0
 42
0.0000000001
 43
0.0000000001
 12
1.0
 22
0.0
 32
0.0
 13
1.0
 23
0.0
 33
0.0
 40
0.0
 40
0.0
 40
0.0
 40
0.0
 40
1.0
 40
1.0
 40
1.0
 40
2.0
 40
2.0
 40
2.0
 40
3.0
 40
3.0
 40
3.0
 40
4.0
 40
4.0
 40
4.0
 40
5.0
 40
5.0
 40
5.0
 40
6.0
 40
6.0
 40
6.0
 40
7.0
 40
7.0
 40
7.0
 40
8.0
 40
8.0
 40
8.0
 40
8.0
 10
22.14415513544665
 20
-42.36934876468538
 30
0.0
 10
22.14415513544665
 20
-42.4742828671207
 30
0.0
 10
22.10162218668838
 20
-42.56928286709726
 30
0.0
 10
22.03285571232097
 20
-42.63804934146436
 30
0.0
 10
21.96408923795356
 20
-42.70681581583209
 30
0.0
 10
21.86908923797763
 20
-42.74934876459037
 30
0.0
 10
21.76415513554167
 20
-42.74934876459037
 30
0.0
 10
21.65922103310572
 20
-42.74934876459037
 30
0.0
 10
21.56422103312979
 20
-42.70681581583209
 30
0.0
 10
21.49545455876238
 20
-42.63804934146436
 30
0.0
 10
21.42668808439496
 20
-42.56928286709726
 30
0.0
 10
21.3841551356367
 20
-42.4742828671207
 30
0.0
 10
21.3841551356367
 20
-42.36934876468538
 30
0.0
 10
21.3841551356367
 20
-42.26441466225007
 30
0.0
 10
21.42668808439496
 20
-42.1694146622735
 30
0.0
 10
21.49545455876238
 20
-42.10064818790641
 30
0.0
 10
21.56422103312979
 20
-42.03188171353867
 30
0.0
 10
21.65922103310572
 20
-41.98934876478041
 30
0.0
 10
21.76415513554167
 20
-41.98934876478041
 30
0.0
 10
21.86908923797763
 20
-41.98934876478041
 30
0.0
 10
21.96408923795356
 20
-42.03188171353867
 30
0.0
 10
22.03285571232097
 20
-42.10064818790641
 30
0.0
 10
22.10162218668838
 20
-42.1694146622735
 30
0.0
 10
22.14415513544665
 20
-42.26441466225007
 30
0.0
 10
22.14415513544665
 20
-42.36934876468538
 30
0.0
  0
ENDBLK
  5
6F
330
6C
100
AcDbEntity
  8
0
100
AcDbBlockEnd
  0
BLOCK
  5
78
330
76
100
AcDbEntity
  8
0
100
AcDbBlockBegin
  2
BLOCK_4
 70
     0
 10
0.0
 20
0.0
 30
0.0
  3
BLOCK_4
  1

  0
POLYLINE
  5
7A
330
76
100
AcDbEntity
  8
LAYER_1
 62
     7
100
AcDb2dPolyline
 66
     1
 10
0.0
 20
0.0
 30
0.0
  0
VERTEX
  5
7B
330
7A
100
AcDbEntity
  8
LAYER_1
 62
     7
100
AcDbVertex
100
AcDb2dVertex
 10
24.27552091137323
 20
-38.22934867432971
 30
0.0
  0
VERTEX
  5
7C
330
7A
100
AcDbEntity
  8
LAYER_1
 62
     7
100
AcDbVertex
100
AcDb2dVertex
 10
24.27552091137323
 20
-40.47934867376718
 30
0.0
  0
VERTEX
  5
7D
330
7A
100
AcDbEntity
  8
LAYER_1
 62
     7
100
AcDbVertex
100
AcDb2dVertex
 10
24.27552091137323
 20
-42.72934867320465
 30
0.0
  0
SEQEND
  5
7E
330
7A
100
AcDbEntity
  8
LAYER_1
 62
     7
  0
SPLINE
  5
7F
330
76
100
AcDbEntity
  8
LAYER_1
 62
     7
100
AcDbSpline
210
0.0
220
0.0
230
1.0
 70
    11
 71
     3
 72
    29
 73
    25
 74
     0
 42
0.0000000001
 43
0.0000000001
 12
1.0
 22
0.0
 32
0.0
 13
1.0
 23
0.0
 33
0.0
 40
0.0
 40
0.0
 40
0.0
 40
0.0
 40
1.0
 40
1.0
 40
1.0
 40
2.0
 40
2.0
 40
2.0
 40
3.0
 40
3.0
 40
3.0
 40
4.0
 40
4.0
 40
4.0
 40
5.0
 40
5.0
 40
5.0
 40
6.0
 40
6.0
 40
6.0
 40
7.0
 40
7.0
 40
7.0
 40
8.0
 40
8.0
 40
8.0
 40
8.0
 10
24.65552073921944
 20
-42.36934876442357
 30
0.0
 10
24.65552073921944
 20
-42.47428286685889
 30
0.0
 10
24.61298779046118
 20
-42.56928286683545
 30
0.0
 10
24.54422131609408
 20
-42.63804934120255
 30
0.0
 10
24.47545484172635
 20
-42.70681581557028
 30
0.0
 10
24.38045484175042
 20
-42.74934876432855
 30
0.0
 10
24.27552073931447
 20
-42.74934876432855
 30
0.0
 10
24.17058663687851
 20
-42.74934876432855
 30
0.0
 10
24.07558663690259
 20
-42.70681581557028
 30
0.0
 10
24.00682016253485
 20
-42.63804934120255
 30
0.0
 10
23.93805368816776
 20
-42.56928286683545
 30
0.0
 10
23.89552073940949
 20
-42.47428286685889
 30
0.0
 10
23.89552073940949
 20
-42.36934876442357
 30
0.0
 10
23.89552073940949
 20
-42.26441466198825
 30
0.0
 10
23.93805368816776
 20
-42.16941466201169
 30
0.0
 10
24.00682016253485
 20
-42.10064818764459
 30
0.0
 10
24.07558663690259
 20
-42.03188171327686
 30
0.0
 10
24.17058663687851
 20
-41.9893487645186
 30
0.0
 10
24.27552073931447
 20
-41.9893487645186
 30
0.0
 10
24.38045484175042
 20
-41.9893487645186
 30
0.0
 10
24.47545484172635
 20
-42.03188171327686
 30
0.0
 10
24.54422131609408
 20
-42.10064818764459
 30
0.0
 10
24.61298779046118
 20
-42.16941466201169
 30
0.0
 10
24.65552073921944
 20
-42.26441466198825
 30
0.0
 10
24.65552073921944
 20
-42.36934876442357
 30
0.0
  0
ENDBLK
  5
79
330
76
100
AcDbEntity
  8
0
100
AcDbBlockEnd
  0
BLOCK
  5
82
330
80
100
AcDbEntity
  8
0
100
AcDbBlockBegin
  2
BLOCK_5
 70
     0
 10
0.0
 20
0.0
 30
0.0
  3
BLOCK_5
  1

  0
POLYLINE
  5
84
330
80
100
AcDbEntity
  8
LAYER_1
 62
     7
100
AcDb2dPolyline
 66
     1
 10
0.0
 20
0.0
 30
0.0
  0
VERTEX
  5
85
330
84
100
AcDbEntity
  8
LAYER_1
 62
     7
100
AcDbVertex
100
AcDb2dVertex
 10
26.85520841072831
 20
-38.22934867432971
 30
0.0
  0
VERTEX
  5
86
330
84
100
AcDbEntity
  8
LAYER_1
 62
     7
100
AcDbVertex
100
AcDb2dVertex
 10
26.85520841072831
 20
-40.47934867376718
 30
0.0
  0
VERTEX
  5
87
330
84
100
AcDbEntity
  8
LAYER_1
 62
     7
100
AcDbVertex
100
AcDb2dVertex
 10
26.85520841072831
 20
-42.72934867320465
 30
0.0
  0
SEQEND
  5
88
330
84
100
AcDbEntity
  8
LAYER_1
 62
     7
  0
SPLINE
  5
89
330
80
100
AcDbEntity
  8
LAYER_1
 62
     7
100
AcDbSpline
210
0.0
220
0.0
230
1.0
 70
    11
 71
     3
 72
    29
 73
    25
 74
     0
 42
0.0000000001
 43
0.0000000001
 12
1.0
 22
0.0
 32
0.0
 13
1.0
 23
0.0
 33
0.0
 40
0.0
 40
0.0
 40
0.0
 40
0.0
 40
1.0
 40
1.0
 40
1.0
 40
2.0
 40
2.0
 40
2.0
 40
3.0
 40
3.0
 40
3.0
 40
4.0
 40
4.0
 40
4.0
 40
5.0
 40
5.0
 40
5.0
 40
6.0
 40
6.0
 40
6.0
 40
7.0
 40
7.0
 40
7.0
 40
8.0
 40
8.0
 40
8.0
 40
8.0
 10
27.23520823857452
 20
-42.36934876442357
 30
0.0
 10
27.23520823857452
 20
-42.47428286685889
 30
0.0
 10
27.19267528981626
 20
-42.56928286683545
 30
0.0
 10
27.12390881544916
 20
-42.63804934120255
 30
0.0
 10
27.05514234108142
 20
-42.70681581557028
 30
0.0
 10
26.9601423411055
 20
-42.74934876432855
 30
0.0
 10
26.85520823866954
 20
-42.74934876432855
 30
0.0
 10
26.75027413623359
 20
-42.74934876432855
 30
0.0
 10
26.65527413625766
 20
-42.70681581557028
 30
0.0
 10
26.58650766188993
 20
-42.63804934120255
 30
0.0
 10
26.51774118752283
 20
-42.56928286683545
 30
0.0
 10
26.47520823876457
 20
-42.47428286685889
 30
0.0
 10
26.47520823876457
 20
-42.36934876442357
 30
0.0
 10
26.47520823876457
 20
-42.26441466198825
 30
0.0
 10
26.51774118752283
 20
-42.16941466201169
 30
0.0
 10
26.58650766188993
 20
-42.10064818764459
 30
0.0
 10
26.65527413625766
 20
-42.03188171327686
 30
0.0
 10
26.75027413623359
 20
-41.9893487645186
 30
0.0
 10
26.85520823866954
 20
-41.9893487645186
 30
0.0
 10
26.9601423411055
 20
-41.9893487645186
 30
0.0
 10
27.05514234108142
 20
-42.03188171327686
 30
0.0
 10
27.12390881544916
 20
-42.10064818764459
 30
0.0
 10
27.19267528981626
 20
-42.16941466201169
 30
0.0
 10
27.23520823857452
 20
-42.26441466198825
 30
0.0
 10
27.23520823857452
 20
-42.36934876442357
 30
0.0
  0
ENDBLK
  5
83
330
80
100
AcDbEntity
  8
0
100
AcDbBlockEnd
  0
BLOCK
  5
8C
330
8A
100
AcDbEntity
  8
0
100
AcDbBlockBegin
  2
BLOCK_6
 70
     0
 10
0.0
 20
0.0
 30
0.0
  3
BLOCK_6
  1

  0
POLYLINE
  5
8E
330
8A
100
AcDbEntity
  8
LAYER_1
 62
     7
100
AcDb2dPolyline
 66
     1
 10
0.0
 20
0.0
 30
0.0
  0
VERTEX
  5
8F
330
8E
100
AcDbEntity
  8
LAYER_1
 62
     7
100
AcDbVertex
100
AcDb2dVertex
 10
26.39436356422578
 20
-36.55198777866787
 30
0.0
  0
VERTEX
  5
90
330
8E
100
AcDbEntity
  8
LAYER_1
 62
     7
100
AcDbVertex
100
AcDb2dVertex
 10
26.39436356402365
 20
-34.3019877792304
 30
0.0
  0
VERTEX
  5
91
330
8E
100
AcDbEntity
  8
LAYER_1
 62
     7
100
AcDbVertex
100
AcDb2dVertex
 10
26.39436356382151
 20
-32.05198777979294
 30
0.0
  0
SEQEND
  5
92
330
8E
100
AcDbEntity
  8
LAYER_1
 62
     7
  0
SPLINE
  5
93
330
8A
100
AcDbEntity
  8
LAYER_1
 62
     7
100
AcDbSpline
210
0.0
220
0.0
230
1.0
 70
    11
 71
     3
 72
    29
 73
    25
 74
     0
 42
0.0000000001
 43
0.0000000001
 12
1.0
 22
0.0
 32
0.0
 13
1.0
 23
0.0
 33
0.0
 40
0.0
 40
0.0
 40
0.0
 40
0.0
 40
1.0
 40
1.0
 40
1.0
 40
2.0
 40
2.0
 40
2.0
 40
3.0
 40
3.0
 40
3.0
 40
4.0
 40
4.0
 40
4.0
 40
5.0
 40
5.0
 40
5.0
 40
6.0
 40
6.0
 40
6.0
 40
7.0
 40
7.0
 40
7.0
 40
8.0
 40
8.0
 40
8.0
 40
8.0
 10
26.01436373600803
 20
-32.41198768860803
 30
0.0
 10
26.0143637359984
 20
-32.30705358617271
 30
0.0
 10
26.05689668474832
 20
-32.2120535861923
 30
0.0
 10
26.125663159109
 20
-32.14328711181879
 30
0.0
 10
26.19442963347032
 20
-32.07452063744527
 30
0.0
 10
26.28942963344304
 20
-32.03198768867867
 30
0.0
 10
26.39436373587899
 20
-32.03198768866904
 30
0.0
 10
26.49929783831495
 20
-32.03198768865941
 30
0.0
 10
26.59429783829472
 20
-32.07452063740934
 30
0.0
 10
26.66306431266823
 20
-32.14328711177066
 30
0.0
 10
26.7318307870411
 20
-32.21205358613198
 30
0.0
 10
26.77436373580835
 20
-32.30705358610469
 30
0.0
 10
26.77436373581798
 20
-32.41198768854001
 30
0.0
 10
26.77436373582696
 20
-32.51692179097532
 30
0.0
 10
26.73183078707704
 20
-32.61192179095574
 30
0.0
 10
26.66306431271636
 20
-32.68068826532925
 30
0.0
 10
26.59429783835504
 20
-32.74945473970276
 30
0.0
 10
26.49929783838297
 20
-32.79198768846937
 30
0.0
 10
26.39436373594701
 20
-32.791987688479
 30
0.0
 10
26.28942963351106
 20
-32.79198768848862
 30
0.0
 10
26.19442963353064
 20
-32.7494547397387
 30
0.0
 10
26.12566315915777
 20
-32.68068826537738
 30
0.0
 10
26.05689668478426
 20
-32.61192179101606
 30
0.0
 10
26.01436373601701
 20
-32.51692179104334
 30
0.0
 10
26.01436373600803
 20
-32.41198768860803
 30
0.0
  0
ENDBLK
  5
8D
330
8A
100
AcDbEntity
  8
0
100
AcDbBlockEnd
  0
BLOCK
  5
96
330
94
100
AcDbEntity
  8
0
100
AcDbBlockBegin
  2
BLOCK_7
 70
     0
 10
0.0
 20
0.0
 30
0.0
  3
BLOCK_7
  1

  0
POLYLINE
  5
98
330
94
100
AcDbEntity
  8
LAYER_1
 62
     7
100
AcDb2dPolyline
 66
     1
 10
0.0
 20
0.0
 30
0.0
  0
VERTEX
  5
99
330
98
100
AcDbEntity
  8
LAYER_1
 62
     7
100
AcDbVertex
100
AcDb2dVertex
 10
23.81250000260586
 20
-36.56198782419966
 30
0.0
  0
VERTEX
  5
9A
330
98
100
AcDbEntity
  8
LAYER_1
 62
     7
100
AcDbVertex
100
AcDb2dVertex
 10
23.81250000240436
 20
-34.31198782476219
 30
0.0
  0
VERTEX
  5
9B
330
98
100
AcDbEntity
  8
LAYER_1
 62
     7
100
AcDbVertex
100
AcDb2dVertex
 10
23.81250000220223
 20
-32.06198782532472
 30
0.0
  0
SEQEND
  5
9C
330
98
100
AcDbEntity
  8
LAYER_1
 62
     7
  0
SPLINE
  5
9D
330
94
100
AcDbEntity
  8
LAYER_1
 62
     7
100
AcDbSpline
210
0.0
220
0.0
230
1.0
 70
    11
 71
     3
 72
    29
 73
    25
 74
     0
 42
0.0000000001
 43
0.0000000001
 12
1.0
 22
0.0
 32
0.0
 13
1.0
 23
0.0
 33
0.0
 40
0.0
 40
0.0
 40
0.0
 40
0.0
 40
1.0
 40
1.0
 40
1.0
 40
2.0
 40
2.0
 40
2.0
 40
3.0
 40
3.0
 40
3.0
 40
4.0
 40
4.0
 40
4.0
 40
5.0
 40
5.0
 40
5.0
 40
6.0
 40
6.0
 40
6.0
 40
7.0
 40
7.0
 40
7.0
 40
8.0
 40
8.0
 40
8.0
 40
8.0
 10
23.4325001743881
 20
-32.42198773414046
 30
0.0
 10
23.43250017437848
 20
-32.31705363170514
 30
0.0
 10
23.4750331231284
 20
-32.22205363172473
 30
0.0
 10
23.54379959748972
 20
-32.15328715735122
 30
0.0
 10
23.61256607185104
 20
-32.0845206829777
 30
0.0
 10
23.70756607182311
 20
-32.04198773421045
 30
0.0
 10
23.81250017425907
 20
-32.04198773420083
 30
0.0
 10
23.91743427669438
 20
-32.04198773419184
 30
0.0
 10
24.0124342766748
 20
-32.08452068294176
 30
0.0
 10
24.08120075104831
 20
-32.15328715730244
 30
0.0
 10
24.14996722542182
 20
-32.22205363166376
 30
0.0
 10
24.19250017418843
 20
-32.31705363163584
 30
0.0
 10
24.19250017419806
 20
-32.4219877340718
 30
0.0
 10
24.19250017420768
 20
-32.52692183650775
 30
0.0
 10
24.14996722545776
 20
-32.62192183648752
 30
0.0
 10
24.08120075109644
 20
-32.69068831086104
 30
0.0
 10
24.01243427673512
 20
-32.75945478523455
 30
0.0
 10
23.91743427676305
 20
-32.8019877340018
 30
0.0
 10
23.81250017432709
 20
-32.80198773401079
 30
0.0
 10
23.70756607189177
 20
-32.80198773402041
 30
0.0
 10
23.61256607191136
 20
-32.75945478527048
 30
0.0
 10
23.54379959753784
 20
-32.69068831090981
 30
0.0
 10
23.47503312316433
 20
-32.62192183654849
 30
0.0
 10
23.43250017439772
 20
-32.52692183657577
 30
0.0
 10
23.4325001743881
 20
-32.42198773414046
 30
0.0
  0
ENDBLK
  5
97
330
94
100
AcDbEntity
  8
0
100
AcDbBlockEnd
  0
BLOCK
  5
A0
330
9E
100
AcDbEntity
  8
0
100
AcDbBlockBegin
  2
BLOCK_8
 70
     0
 10
0.0
 20
0.0
 30
0.0
  3
BLOCK_8
  1

  0
POLYLINE
  5
A2
330
9E
100
AcDbEntity
  8
LAYER_1
 62
     7
100
AcDb2dPolyline
 66
     1
 10
0.0
 20
0.0
 30
0.0
  0
VERTEX
  5
A3
330
A2
100
AcDbEntity
  8
LAYER_1
 62
     7
100
AcDbVertex
100
AcDb2dVertex
 10
21.30113439883339
 20
-36.56198782468736
 30
0.0
  0
VERTEX
  5
A4
330
A2
100
AcDbEntity
  8
LAYER_1
 62
     7
100
AcDbVertex
100
AcDb2dVertex
 10
21.30113439863157
 20
-34.31198782524989
 30
0.0
  0
VERTEX
  5
A5
330
A2
100
AcDbEntity
  8
LAYER_1
 62
     7
100
AcDbVertex
100
AcDb2dVertex
 10
21.30113439842944
 20
-32.06198782581242
 30
0.0
  0
SEQEND
  5
A6
330
A2
100
AcDbEntity
  8
LAYER_1
 62
     7
  0
SPLINE
  5
A7
330
9E
100
AcDbEntity
  8
LAYER_1
 62
     7
100
AcDbSpline
210
0.0
220
0.0
230
1.0
 70
    11
 71
     3
 72
    29
 73
    25
 74
     0
 42
0.0000000001
 43
0.0000000001
 12
1.0
 22
0.0
 32
0.0
 13
1.0
 23
0.0
 33
0.0
 40
0.0
 40
0.0
 40
0.0
 40
0.0
 40
1.0
 40
1.0
 40
1.0
 40
2.0
 40
2.0
 40
2.0
 40
3.0
 40
3.0
 40
3.0
 40
4.0
 40
4.0
 40
4.0
 40
5.0
 40
5.0
 40
5.0
 40
6.0
 40
6.0
 40
6.0
 40
7.0
 40
7.0
 40
7.0
 40
8.0
 40
8.0
 40
8.0
 40
8.0
 10
20.9211345706153
 20
-32.42198773462751
 30
0.0
 10
20.921134570606
 20
-32.31705363219155
 30
0.0
 10
20.9636675193556
 20
-32.22205363221178
 30
0.0
 10
21.03243399371692
 20
-32.15328715783826
 30
0.0
 10
21.10120046807792
 20
-32.08452068346475
 30
0.0
 10
21.19620046805032
 20
-32.0419877346975
 30
0.0
 10
21.30113457048627
 20
-32.04198773468852
 30
0.0
 10
21.40606867292223
 20
-32.04198773467889
 30
0.0
 10
21.50106867290232
 20
-32.08452068342882
 30
0.0
 10
21.56983514727584
 20
-32.15328715779014
 30
0.0
 10
21.63860162164903
 20
-32.22205363215146
 30
0.0
 10
21.68113457041596
 20
-32.31705363212353
 30
0.0
 10
21.68113457042526
 20
-32.42198773455949
 30
0.0
 10
21.68113457043489
 20
-32.52692183699544
 30
0.0
 10
21.63860162168496
 20
-32.62192183697522
 30
0.0
 10
21.56983514732396
 20
-32.69068831134873
 30
0.0
 10
21.50106867296297
 20
-32.7594547857216
 30
0.0
 10
21.40606867299057
 20
-32.80198773448885
 30
0.0
 10
21.30113457055462
 20
-32.80198773449847
 30
0.0
 10
21.19620046811866
 20
-32.80198773450746
 30
0.0
 10
21.10120046813856
 20
-32.75945478575753
 30
0.0
 10
21.03243399376505
 20
-32.69068831139685
 30
0.0
 10
20.96366751939154
 20
-32.62192183703554
 30
0.0
 10
20.92113457062493
 20
-32.52692183706346
 30
0.0
 10
20.9211345706153
 20
-32.42198773462751
 30
0.0
  0
ENDBLK
  5
A1
330
9E
100
AcDbEntity
  8
0
100
AcDbBlockEnd
  0
BLOCK
  5
AA
330
A8
100
AcDbEntity
  8
0
100
AcDbBlockBegin
  2
BLOCK_9
 70
     0
 10
0.0
 20
0.0
 30
0.0
  3
BLOCK_9
  1

  0
POLYLINE
  5
AC
330
A8
100
AcDbEntity
  8
LAYER_1
 62
     7
100
AcDb2dPolyline
 66
     1
 10
0.0
 20
0.0
 30
0.0
  0
VERTEX
  5
AD
330
AC
100
AcDbEntity
  8
LAYER_1
 62
     7
100
AcDbVertex
100
AcDb2dVertex
 10
18.72144689947831
 20
-36.56198782491901
 30
0.0
  0
VERTEX
  5
AE
330
AC
100
AcDbEntity
  8
LAYER_1
 62
     7
100
AcDbVertex
100
AcDb2dVertex
 10
18.72144689927649
 20
-34.31198782548154
 30
0.0
  0
VERTEX
  5
AF
330
AC
100
AcDbEntity
  8
LAYER_1
 62
     7
100
AcDbVertex
100
AcDb2dVertex
 10
18.72144689907436
 20
-32.06198782604407
 30
0.0
  0
SEQEND
  5
B0
330
AC
100
AcDbEntity
  8
LAYER_1
 62
     7
  0
SPLINE
  5
B1
330
A8
100
AcDbEntity
  8
LAYER_1
 62
     7
100
AcDbSpline
210
0.0
220
0.0
230
1.0
 70
    11
 71
     3
 72
    29
 73
    25
 74
     0
 42
0.0000000001
 43
0.0000000001
 12
1.0
 22
0.0
 32
0.0
 13
1.0
 23
0.0
 33
0.0
 40
0.0
 40
0.0
 40
0.0
 40
0.0
 40
1.0
 40
1.0
 40
1.0
 40
2.0
 40
2.0
 40
2.0
 40
3.0
 40
3.0
 40
3.0
 40
4.0
 40
4.0
 40
4.0
 40
5.0
 40
5.0
 40
5.0
 40
6.0
 40
6.0
 40
6.0
 40
7.0
 40
7.0
 40
7.0
 40
8.0
 40
8.0
 40
8.0
 40
8.0
 10
18.34144707126023
 20
-32.42198773485916
 30
0.0
 10
18.34144707125092
 20
-32.31705363242384
 30
0.0
 10
18.38398002000053
 20
-32.22205363244343
 30
0.0
 10
18.45274649436185
 20
-32.15328715806992
 30
0.0
 10
18.52151296872285
 20
-32.0845206836964
 30
0.0
 10
18.61651296869524
 20
-32.0419877349298
 30
0.0
 10
18.72144707113119
 20
-32.04198773492017
 30
0.0
 10
18.82638117356715
 20
-32.04198773491055
 30
0.0
 10
18.92138117354725
 20
-32.08452068366047
 30
0.0
 10
18.99014764792076
 20
-32.15328715802179
 30
0.0
 10
19.05891412229395
 20
-32.22205363238311
 30
0.0
 10
19.10144707106088
 20
-32.31705363235582
 30
0.0
 10
19.10144707107018
 20
-32.42198773479114
 30
0.0
 10
19.10144707107981
 20
-32.52692183722645
 30
0.0
 10
19.05891412232988
 20
-32.62192183720687
 30
0.0
 10
18.99014764796889
 20
-32.69068831158038
 30
0.0
 10
18.92138117360789
 20
-32.75945478595389
 30
0.0
 10
18.82638117363549
 20
-32.80198773472051
 30
0.0
 10
18.72144707119954
 20
-32.80198773473013
 30
0.0
 10
18.61651296876358
 20
-32.80198773473975
 30
0.0
 10
18.52151296878349
 20
-32.75945478598983
 30
0.0
 10
18.45274649440997
 20
-32.69068831162851
 30
0.0
 10
18.38398002003646
 20
-32.62192183726719
 30
0.0
 10
18.34144707126985
 20
-32.52692183729447
 30
0.0
 10
18.34144707126023
 20
-32.42198773485916
 30
0.0
  0
ENDBLK
  5
AB
330
A8
100
AcDbEntity
  8
0
100
AcDbBlockEnd
  0
BLOCK
  5
B4
330
B2
100
AcDbEntity
  8
0
100
AcDbBlockBegin
  2
BLOCK_10
 70
     0
 10
0.0
 20
0.0
 30
0.0
  3
BLOCK_10
  1

  0
POLYLINE
  5
B6
330
B2
100
AcDbEntity
  8
LAYER_1
 62
     7
100
AcDb2dPolyline
 66
     1
 10
0.0
 20
0.0
 30
0.0
  0
VERTEX
  5
B7
330
B6
100
AcDbEntity
  8
LAYER_1
 62
     7
100
AcDbVertex
100
AcDb2dVertex
 10
13.78038194955865
 20
-23.43136283565239
 30
0.0
  0
VERTEX
  5
B8
330
B6
100
AcDbEntity
  8
LAYER_1
 62
     7
100
AcDbVertex
100
AcDb2dVertex
 10
13.78038194935684
 20
-21.18136283621492
 30
0.0
  0
VERTEX
  5
B9
330
B6
100
AcDbEntity
  8
LAYER_1
 62
     7
100
AcDbVertex
100
AcDb2dVertex
 10
13.7803819491547
 20
-18.93136283677745
 30
0.0
  0
SEQEND
  5
BA
330
B6
100
AcDbEntity
  8
LAYER_1
 62
     7
  0
SPLINE
  5
BB
330
B2
100
AcDbEntity
  8
LAYER_1
 62
     7
100
AcDbSpline
210
0.0
220
0.0
230
1.0
 70
    11
 71
     3
 72
    29
 73
    25
 74
     0
 42
0.0000000001
 43
0.0000000001
 12
1.0
 22
0.0
 32
0.0
 13
1.0
 23
0.0
 33
0.0
 40
0.0
 40
0.0
 40
0.0
 40
0.0
 40
1.0
 40
1.0
 40
1.0
 40
2.0
 40
2.0
 40
2.0
 40
3.0
 40
3.0
 40
3.0
 40
4.0
 40
4.0
 40
4.0
 40
5.0
 40
5.0
 40
5.0
 40
6.0
 40
6.0
 40
6.0
 40
7.0
 40
7.0
 40
7.0
 40
8.0
 40
8.0
 40
8.0
 40
8.0
 10
13.40038212134057
 20
-19.29136274559254
 30
0.0
 10
13.40038212133127
 20
-19.1864286431569
 30
0.0
 10
13.44291507008087
 20
-19.09142864317681
 30
0.0
 10
13.51168154444219
 20
-19.0226621688033
 30
0.0
 10
13.58044801880319
 20
-18.95389569442979
 30
0.0
 10
13.67544801877558
 20
-18.91136274566286
 30
0.0
 10
13.78038212121154
 20
-18.91136274565355
 30
0.0
 10
13.8853162236475
 20
-18.91136274564392
 30
0.0
 10
13.98031622362759
 20
-18.95389569439385
 30
0.0
 10
14.0490826980011
 20
-19.02266216875517
 30
0.0
 10
14.1178491723743
 20
-19.09142864311649
 30
0.0
 10
14.16038212114122
 20
-19.18642864308888
 30
0.0
 10
14.16038212115053
 20
-19.29136274552452
 30
0.0
 10
14.16038212116015
 20
-19.39629684796015
 30
0.0
 10
14.11784917241023
 20
-19.49129684794025
 30
0.0
 10
14.04908269804923
 20
-19.56006332231344
 30
0.0
 10
13.98031622368823
 20
-19.62882979668695
 30
0.0
 10
13.88531622371584
 20
-19.67136274545388
 30
0.0
 10
13.78038212127988
 20
-19.67136274546351
 30
0.0
 10
13.67544801884392
 20
-19.67136274547281
 30
0.0
 10
13.58044801886383
 20
-19.62882979672289
 30
0.0
 10
13.51168154449032
 20
-19.56006332236189
 30
0.0
 10
13.44291507011681
 20
-19.49129684800057
 30
0.0
 10
13.4003821213502
 20
-19.39629684802818
 30
0.0
 10
13.40038212134057
 20
-19.29136274559254
 30
0.0
  0
ENDBLK
  5
B5
330
B2
100
AcDbEntity
  8
0
100
AcDbBlockEnd
  0
BLOCK
  5
BE
330
BC
100
AcDbEntity
  8
0
100
AcDbBlockBegin
  2
BLOCK_11
 70
     0
 10
0.0
 20
0.0
 30
0.0
  3
BLOCK_11
  1

  0
POLYLINE
  5
C0
330
BC
100
AcDbEntity
  8
LAYER_1
 62
     7
100
AcDb2dPolyline
 66
     1
 10
0.0
 20
0.0
 30
0.0
  0
VERTEX
  5
C1
330
C0
100
AcDbEntity
  8
LAYER_1
 62
     7
100
AcDbVertex
100
AcDb2dVertex
 10
11.20069445020357
 20
-23.43136283588404
 30
0.0
  0
VERTEX
  5
C2
330
C0
100
AcDbEntity
  8
LAYER_1
 62
     7
100
AcDbVertex
100
AcDb2dVertex
 10
11.20069445000176
 20
-21.18136283644657
 30
0.0
  0
VERTEX
  5
C3
330
C0
100
AcDbEntity
  8
LAYER_1
 62
     7
100
AcDbVertex
100
AcDb2dVertex
 10
11.20069444979962
 20
-18.9313628370091
 30
0.0
  0
SEQEND
  5
C4
330
C0
100
AcDbEntity
  8
LAYER_1
 62
     7
  0
SPLINE
  5
C5
330
BC
100
AcDbEntity
  8
LAYER_1
 62
     7
100
AcDbSpline
210
0.0
220
0.0
230
1.0
 70
    11
 71
     3
 72
    29
 73
    25
 74
     0
 42
0.0000000001
 43
0.0000000001
 12
1.0
 22
0.0
 32
0.0
 13
1.0
 23
0.0
 33
0.0
 40
0.0
 40
0.0
 40
0.0
 40
0.0
 40
1.0
 40
1.0
 40
1.0
 40
2.0
 40
2.0
 40
2.0
 40
3.0
 40
3.0
 40
3.0
 40
4.0
 40
4.0
 40
4.0
 40
5.0
 40
5.0
 40
5.0
 40
6.0
 40
6.0
 40
6.0
 40
7.0
 40
7.0
 40
7.0
 40
8.0
 40
8.0
 40
8.0
 40
8.0
 10
10.8206946219855
 20
-19.29136274582419
 30
0.0
 10
10.82069462197619
 20
-19.18642864338856
 30
0.0
 10
10.86322757072579
 20
-19.09142864340846
 30
0.0
 10
10.93199404508711
 20
-19.02266216903495
 30
0.0
 10
11.00076051944811
 20
-18.95389569466144
 30
0.0
 10
11.09576051942051
 20
-18.91136274589451
 30
0.0
 10
11.20069462185646
 20
-18.9113627458852
 30
0.0
 10
11.30562872429242
 20
-18.91136274587558
 30
0.0
 10
11.40062872427252
 20
-18.9538956946255
 30
0.0
 10
11.46939519864603
 20
-19.02266216898682
 30
0.0
 10
11.53816167301922
 20
-19.09142864334814
 30
0.0
 10
11.58069462178615
 20
-19.18642864332054
 30
0.0
 10
11.58069462179545
 20
-19.29136274575617
 30
0.0
 10
11.58069462180508
 20
-19.39629684819181
 30
0.0
 10
11.53816167305515
 20
-19.4912968481719
 30
0.0
 10
11.46939519869415
 20
-19.56006332254509
 30
0.0
 10
11.40062872433315
 20
-19.62882979691861
 30
0.0
 10
11.30562872436076
 20
-19.67136274568553
 30
0.0
 10
11.2006946219248
 20
-19.67136274569516
 30
0.0
 10
11.09576051948885
 20
-19.67136274570446
 30
0.0
 10
11.00076051950875
 20
-19.62882979695454
 30
0.0
 10
10.93199404513524
 20
-19.56006332259354
 30
0.0
 10
10.86322757076173
 20
-19.49129684823222
 30
0.0
 10
10.82069462199512
 20
-19.39629684825983
 30
0.0
 10
10.8206946219855
 20
-19.29136274582419
 30
0.0
  0
ENDBLK
  5
BF
330
BC
100
AcDbEntity
  8
0
100
AcDbBlockEnd
  0
BLOCK
  5
C8
330
C6
100
AcDbEntity
  8
0
100
AcDbBlockBegin
  2
BLOCK_12
 70
     0
 10
0.0
 20
0.0
 30
0.0
  3
BLOCK_12
  1

  0
POLYLINE
  5
CA
330
C6
100
AcDbEntity
  8
LAYER_1
 62
     7
100
AcDb2dPolyline
 66
     1
 10
0.0
 20
0.0
 30
0.0
  0
VERTEX
  5
CB
330
CA
100
AcDbEntity
  8
LAYER_1
 62
     7
100
AcDbVertex
100
AcDb2dVertex
 10
11.96069474256765
 20
-22.65429080865506
 30
0.0
  0
VERTEX
  5
CC
330
CA
100
AcDbEntity
  8
LAYER_1
 62
     7
100
AcDbVertex
100
AcDb2dVertex
 10
11.96069474297192
 20
-24.90429080809253
 30
0.0
  0
VERTEX
  5
CD
330
CA
100
AcDbEntity
  8
LAYER_1
 62
     7
100
AcDbVertex
100
AcDb2dVertex
 10
11.96069474337587
 20
-27.15429080753
 30
0.0
  0
SEQEND
  5
CE
330
CA
100
AcDbEntity
  8
LAYER_1
 62
     7
  0
SPLINE
  5
CF
330
C6
100
AcDbEntity
  8
LAYER_1
 62
     7
100
AcDbSpline
210
0.0
220
0.0
230
1.0
 70
    11
 71
     3
 72
    29
 73
    25
 74
     0
 42
0.0000000001
 43
0.0000000001
 12
1.0
 22
0.0
 32
0.0
 13
1.0
 23
0.0
 33
0.0
 40
0.0
 40
0.0
 40
0.0
 40
0.0
 40
1.0
 40
1.0
 40
1.0
 40
2.0
 40
2.0
 40
2.0
 40
3.0
 40
3.0
 40
3.0
 40
4.0
 40
4.0
 40
4.0
 40
5.0
 40
5.0
 40
5.0
 40
6.0
 40
6.0
 40
6.0
 40
7.0
 40
7.0
 40
7.0
 40
8.0
 40
8.0
 40
8.0
 40
8.0
 10
12.3406945711576
 20
-26.7942908986809
 30
0.0
 10
12.3406945711762
 20
-26.89922500111685
 30
0.0
 10
12.29816162243526
 20
-26.99422500110047
 30
0.0
 10
12.22939514808004
 20
-27.06299147548041
 30
0.0
 10
12.16062867372514
 20
-27.13175794985969
 30
0.0
 10
12.06562867375659
 20
-27.17429089863528
 30
0.0
 10
11.96069457132064
 20
-27.17429089865389
 30
0.0
 10
11.85576046888468
 20
-27.17429089867314
 30
0.0
 10
11.76076046890073
 20
-27.13175794993156
 30
0.0
 10
11.69199399452113
 20
-27.06299147557666
 30
0.0
 10
11.62322752014184
 20
-26.99422500122176
 30
0.0
 10
11.58069457136625
 20
-26.89922500125289
 30
0.0
 10
11.58069457134764
 20
-26.79429089881694
 30
0.0
 10
11.58069457132871
 20
-26.68935679638098
 30
0.0
 10
11.62322752006997
 20
-26.594356796398
 30
0.0
 10
11.69199399442487
 20
-26.52559032201807
 30
0.0
 10
11.76076046877978
 20
-26.45682384763878
 30
0.0
 10
11.855760468748
 20
-26.41429089886319
 30
0.0
 10
11.96069457118396
 20
-26.41429089884394
 30
0.0
 10
12.06562867361991
 20
-26.41429089882533
 30
0.0
 10
12.16062867360386
 20
-26.45682384756691
 30
0.0
 10
12.22939514798346
 20
-26.52559032192181
 30
0.0
 10
12.29816162236339
 20
-26.59435679627671
 30
0.0
 10
12.34069457113866
 20
-26.68935679624494
 30
0.0
 10
12.3406945711576
 20
-26.7942908986809
 30
0.0
  0
ENDBLK
  5
C9
330
C6
100
AcDbEntity
  8
0
100
AcDbBlockEnd
  0
BLOCK
  5
D2
330
D0
100
AcDbEntity
  8
0
100
AcDbBlockBegin
  2
BLOCK_13
 70
     0
 10
0.0
 20
0.0
 30
0.0
  3
BLOCK_13
  1

  0
POLYLINE
  5
D4
330
D0
100
AcDbEntity
  8
LAYER_1
 62
     7
100
AcDb2dPolyline
 66
     1
 10
0.0
 20
0.0
 30
0.0
  0
VERTEX
  5
D5
330
D4
100
AcDbEntity
  8
LAYER_1
 62
     7
100
AcDbVertex
100
AcDb2dVertex
 10
14.54038224192273
 20
-22.65429080819175
 30
0.0
  0
VERTEX
  5
D6
330
D4
100
AcDbEntity
  8
LAYER_1
 62
     7
100
AcDbVertex
100
AcDb2dVertex
 10
14.540382242327
 20
-24.90429080762922
 30
0.0
  0
VERTEX
  5
D7
330
D4
100
AcDbEntity
  8
LAYER_1
 62
     7
100
AcDbVertex
100
AcDb2dVertex
 10
14.54038224273095
 20
-27.15429080706669
 30
0.0
  0
SEQEND
  5
D8
330
D4
100
AcDbEntity
  8
LAYER_1
 62
     7
  0
SPLINE
  5
D9
330
D0
100
AcDbEntity
  8
LAYER_1
 62
     7
100
AcDbSpline
210
0.0
220
0.0
230
1.0
 70
    11
 71
     3
 72
    29
 73
    25
 74
     0
 42
0.0000000001
 43
0.0000000001
 12
1.0
 22
0.0
 32
0.0
 13
1.0
 23
0.0
 33
0.0
 40
0.0
 40
0.0
 40
0.0
 40
0.0
 40
1.0
 40
1.0
 40
1.0
 40
2.0
 40
2.0
 40
2.0
 40
3.0
 40
3.0
 40
3.0
 40
4.0
 40
4.0
 40
4.0
 40
5.0
 40
5.0
 40
5.0
 40
6.0
 40
6.0
 40
6.0
 40
7.0
 40
7.0
 40
7.0
 40
8.0
 40
8.0
 40
8.0
 40
8.0
 10
14.92038207051267
 20
-26.79429089821759
 30
0.0
 10
14.92038207053128
 20
-26.89922500065354
 30
0.0
 10
14.87784912179034
 20
-26.99422500063717
 30
0.0
 10
14.80908264743512
 20
-27.0629914750171
 30
0.0
 10
14.74031617308022
 20
-27.13175794939638
 30
0.0
 10
14.64531617311167
 20
-27.17429089817198
 30
0.0
 10
14.54038207067572
 20
-27.17429089819059
 30
0.0
 10
14.43544796823976
 20
-27.17429089820984
 30
0.0
 10
14.34044796825581
 20
-27.13175794946826
 30
0.0
 10
14.2716814938762
 20
-27.06299147511335
 30
0.0
 10
14.20291501949692
 20
-26.99422500075845
 30
0.0
 10
14.16038207072133
 20
-26.89922500078958
 30
0.0
 10
14.16038207070272
 20
-26.79429089835363
 30
0.0
 10
14.16038207068379
 20
-26.68935679591767
 30
0.0
 10
14.20291501942505
 20
-26.59435679593469
 30
0.0
 10
14.27168149377963
 20
-26.52559032155476
 30
0.0
 10
14.34044796813453
 20
-26.45682384717547
 30
0.0
 10
14.43544796810308
 20
-26.41429089839988
 30
0.0
 10
14.54038207053903
 20
-26.41429089838063
 30
0.0
 10
14.64531617297499
 20
-26.41429089836202
 30
0.0
 10
14.74031617295926
 20
-26.4568238471036
 30
0.0
 10
14.80908264733886
 20
-26.52559032145851
 30
0.0
 10
14.87784912171847
 20
-26.59435679581341
 30
0.0
 10
14.92038207049374
 20
-26.68935679578163
 30
0.0
 10
14.92038207051267
 20
-26.79429089821759
 30
0.0
  0
ENDBLK
  5
D3
330
D0
100
AcDbEntity
  8
0
100
AcDbBlockEnd
  0
ENDSEC
  0
SECTION
  2
ENTITIES
  0
POLYLINE
  5
41
330
1F
100
AcDbEntity
  8
LAYER_1
 62
     7
100
AcDb2dPolyline
 66
     1
 10
0.0
 20
0.0
 30
0.0
  0
VERTEX
  5
42
330
41
100
AcDbEntity
  8
LAYER_1
 62
     7
100
AcDbVertex
100
AcDb2dVertex
 10
45.17638887759483
 20
-51.50983482768523
 30
0.0
  0
VERTEX
  5
43
330
41
100
AcDbEntity
  8
LAYER_1
 62
     7
100
AcDbVertex
100
AcDb2dVertex
 10
22.67638888321981
 20
-51.50983482768523
 30
0.0
  0
VERTEX
  5
44
330
41
100
AcDbEntity
  8
LAYER_1
 62
     7
100
AcDbVertex
100
AcDb2dVertex
 10
0.1763888888447917
 20
-51.50983482768523
 30
0.0
  0
VERTEX
  5
45
330
41
100
AcDbEntity
  8
LAYER_1
 62
     7
100
AcDbVertex
100
AcDb2dVertex
 10
0.1763888888447917
 20
-22.75983483487269
 30
0.0
  0
VERTEX
  5
46
330
41
100
AcDbEntity
  8
LAYER_1
 62
     7
100
AcDbVertex
100
AcDb2dVertex
 10
0.1763888888447917
 20
5.990165157939851
 30
0.0
  0
VERTEX
  5
47
330
41
100
AcDbEntity
  8
LAYER_1
 62
     7
100
AcDbVertex
100
AcDb2dVertex
 10
22.67638888321981
 20
5.990165157939851
 30
0.0
  0
VERTEX
  5
48
330
41
100
AcDbEntity
  8
LAYER_1
 62
     7
100
AcDbVertex
100
AcDb2dVertex
 10
45.17638887759483
 20
5.990165157939851
 30
0.0
  0
VERTEX
  5
49
330
41
100
AcDbEntity
  8
LAYER_1
 62
     7
100
AcDbVertex
100
AcDb2dVertex
 10
45.17638887759483
 20
-22.75983483487269
 30
0.0
  0
VERTEX
  5
4A
330
41
100
AcDbEntity
  8
LAYER_1
 62
     7
100
AcDbVertex
100
AcDb2dVertex
 10
45.17638887759483
 20
-51.50983482768523
 30
0.0
  0
SEQEND
  5
4B
330
41
100
AcDbEntity
  8
LAYER_1
 62
     7
  0
POLYLINE
  5
4C
330
1F
100
AcDbEntity
  8
LAYER_1
 62
     7
100
AcDb2dPolyline
 66
     1
 10
0.0
 20
0.0
 30
0.0
  0
VERTEX
  5
4D
330
4C
100
AcDbEntity
  8
LAYER_1
 62
     7
100
AcDbVertex
100
AcDb2dVertex
 10
29.84971064068563
 20
-40.35601538602916
 30
0.0
  0
VERTEX
  5
4E
330
4C
100
AcDbEntity
  8
LAYER_1
 62
     7
100
AcDbVertex
100
AcDb2dVertex
 10
22.84971064243561
 20
-40.35601538602916
 30
0.0
  0
VERTEX
  5
4F
330
4C
100
AcDbEntity
  8
LAYER_1
 62
     7
100
AcDbVertex
100
AcDb2dVertex
 10
15.8497106441856
 20
-40.35601538602916
 30
0.0
  0
VERTEX
  5
50
330
4C
100
AcDbEntity
  8
LAYER_1
 62
     7
100
AcDbVertex
100
AcDb2dVertex
 10
15.8497106441856
 20
-37.29860797938568
 30
0.0
  0
VERTEX
  5
51
330
4C
100
AcDbEntity
  8
LAYER_1
 62
     7
100
AcDbVertex
100
AcDb2dVertex
 10
15.8497106441856
 20
-34.24120057274283
 30
0.0
  0
VERTEX
  5
52
330
4C
100
AcDbEntity
  8
LAYER_1
 62
     7
100
AcDbVertex
100
AcDb2dVertex
 10
22.84971064243561
 20
-34.24120057274283
 30
0.0
  0
VERTEX
  5
53
330
4C
100
AcDbEntity
  8
LAYER_1
 62
     7
100
AcDbVertex
100
AcDb2dVertex
 10
29.84971064068563
 20
-34.24120057274283
 30
0.0
  0
VERTEX
  5
54
330
4C
100
AcDbEntity
  8
LAYER_1
 62
     7
100
AcDbVertex
100
AcDb2dVertex
 10
29.84971064068563
 20
-37.29860797938568
 30
0.0
  0
VERTEX
  5
55
330
4C
100
AcDbEntity
  8
LAYER_1
 62
     7
100
AcDbVertex
100
AcDb2dVertex
 10
29.84971064068563
 20
-40.35601538602916
 30
0.0
  0
SEQEND
  5
56
330
4C
100
AcDbEntity
  8
LAYER_1
 62
     7
  0
POLYLINE
  5
57
330
1F
100
AcDbEntity
  8
LAYER_1
 62
     7
100
AcDb2dPolyline
 66
     1
 10
0.0
 20
0.0
 30
0.0
  0
VERTEX
  5
58
330
57
100
AcDbEntity
  8
LAYER_1
 62
     7
100
AcDbVertex
100
AcDb2dVertex
 10
16.33964119961885
 20
-25.64339964896718
 30
0.0
  0
VERTEX
  5
59
330
57
100
AcDbEntity
  8
LAYER_1
 62
     7
100
AcDbVertex
100
AcDb2dVertex
 10
12.83964120049401
 20
-25.64339964896718
 30
0.0
  0
VERTEX
  5
5A
330
57
100
AcDbEntity
  8
LAYER_1
 62
     7
100
AcDbVertex
100
AcDb2dVertex
 10
9.33964120136884
 20
-25.64339964896718
 30
0.0
  0
VERTEX
  5
5B
330
57
100
AcDbEntity
  8
LAYER_1
 62
     7
100
AcDbVertex
100
AcDb2dVertex
 10
9.33964120136884
 20
-23.14339964959243
 30
0.0
  0
VERTEX
  5
5C
330
57
100
AcDbEntity
  8
LAYER_1
 62
     7
100
AcDbVertex
100
AcDb2dVertex
 10
9.33964120136884
 20
-20.64339965021703
 30
0.0
  0
VERTEX
  5
5D
330
57
100
AcDbEntity
  8
LAYER_1
 62
     7
100
AcDbVertex
100
AcDb2dVertex
 10
12.83964120049401
 20
-20.64339965021703
 30
0.0
  0
VERTEX
  5
5E
330
57
100
AcDbEntity
  8
LAYER_1
 62
     7
100
AcDbVertex
100
AcDb2dVertex
 10
16.33964119961885
 20
-20.64339965021703
 30
0.0
  0
VERTEX
  5
5F
330
57
100
AcDbEntity
  8
LAYER_1
 62
     7
100
AcDbVertex
100
AcDb2dVertex
 10
16.33964119961885
 20
-23.14339964959243
 30
0.0
  0
VERTEX
  5
60
330
57
100
AcDbEntity
  8
LAYER_1
 62
     7
100
AcDbVertex
100
AcDb2dVertex
 10
16.33964119961885
 20
-25.64339964896718
 30
0.0
  0
SEQEND
  5
61
330
57
100
AcDbEntity
  8
LAYER_1
 62
     7
  0
INSERT
  5
63
330
1F
100
AcDbEntity
  8
LAYER_1
100
AcDbBlockReference
  2
BLOCK_2
 10
0.0
 20
0.0
 30
0.0
  0
INSERT
  5
6D
330
1F
100
AcDbEntity
  8
LAYER_1
100
AcDbBlockReference
  2
BLOCK_3
 10
0.0
 20
0.0
 30
0.0
  0
INSERT
  5
77
330
1F
100
AcDbEntity
  8
LAYER_1
100
AcDbBlockReference
  2
BLOCK_4
 10
0.0
 20
0.0
 30
0.0
  0
INSERT
  5
81
330
1F
100
AcDbEntity
  8
LAYER_1
100
AcDbBlockReference
  2
BLOCK_5
 10
0.0
 20
0.0
 30
0.0
  0
INSERT
  5
8B
330
1F
100
AcDbEntity
  8
LAYER_1
100
AcDbBlockReference
  2
BLOCK_6
 10
0.0
 20
0.0
 30
0.0
  0
INSERT
  5
95
330
1F
100
AcDbEntity
  8
LAYER_1
100
AcDbBlockReference
  2
BLOCK_7
 10
0.0
 20
0.0
 30
0.0
  0
INSERT
  5
9F
330
1F
100
AcDbEntity
  8
LAYER_1
100
AcDbBlockReference
  2
BLOCK_8
 10
0.0
 20
0.0
 30
0.0
  0
INSERT
  5
A9
330
1F
100
AcDbEntity
  8
LAYER_1
100
AcDbBlockReference
  2
BLOCK_9
 10
0.0
 20
0.0
 30
0.0
  0
INSERT
  5
B3
330
1F
100
AcDbEntity
  8
LAYER_1
100
AcDbBlockReference
  2
BLOCK_10
 10
0.0
 20
0.0
 30
0.0
  0
INSERT
  5
BD
330
1F
100
AcDbEntity
  8
LAYER_1
100
AcDbBlockReference
  2
BLOCK_11
 10
0.0
 20
0.0
 30
0.0
  0
INSERT
  5
C7
330
1F
100
AcDbEntity
  8
LAYER_1
100
AcDbBlockReference
  2
BLOCK_12
 10
0.0
 20
0.0
 30
0.0
  0
INSERT
  5
D1
330
1F
100
AcDbEntity
  8
LAYER_1
100
AcDbBlockReference
  2
BLOCK_13
 10
0.0
 20
0.0
 30
0.0
  0
ENDSEC
  0
SECTION
  2
OBJECTS
  0
DICTIONARY
  5
C
330
0
100
AcDbDictionary
  3
ACAD_GROUP
350
D
  3
ACAD_LAYOUT
350
1A
  3
ACAD_MATERIAL
350
3B
  3
ACAD_MLEADERSTYLE
350
DC
  3
ACAD_MLINESTYLE
350
17
  3
ACAD_PLOTSETTINGS
350
19
  3
ACAD_VISUALSTYLE
350
2A
  3
ACDBVARIABLEDICTIONARY
350
DA
1001
ACAD
1000
TREAT_AS_HARD
1070
     0
  0
DICTIONARY
  5
D
102
{ACAD_REACTORS
330
C
102
}
330
C
100
AcDbDictionary
1001
ACAD
1000
TREAT_AS_HARD
1070
     0
  0
DICTIONARY
  5
1A
102
{ACAD_REACTORS
330
C
102
}
330
C
100
AcDbDictionary
1001
ACAD
1000
TREAT_AS_HARD
1070
     0
  0
DICTIONARY
  5
3B
102
{ACAD_REACTORS
330
C
102
}
330
C
100
AcDbDictionary
  3
BYBLOCK
350
3D
  3
BYLAYER
350
3C
  3
GLOBAL
350
3E
1001
ACAD
1000
TREAT_AS_HARD
1070
     0
  0
DICTIONARY
  5
DC
102
{ACAD_REACTORS
330
C
102
}
330
C
100
AcDbDictionary
1001
ACAD
1000
TREAT_AS_HARD
1070
     0
  0
DICTIONARY
  5
17
102
{ACAD_REACTORS
330
C
102
}
330
C
100
AcDbDictionary
  3
STANDARD
350
18
1001
ACAD
1000
TREAT_AS_HARD
1070
     0
  0
DICTIONARY
  5
19
102
{ACAD_REACTORS
330
C
102
}
330
C
100
AcDbDictionary
1001
ACAD
1000
TREAT_AS_HARD
1070
     0
  0
DICTIONARY
  5
2A
102
{ACAD_REACTORS
330
C
102
}
330
C
100
AcDbDictionary
  3
2DWIREFRAME
350
2F
  3
3DWIREFRAME
350
30
  3
3D_HIDDEN
350
31
  3
BASIC
350
32
  3
BRIGHTEN
350
36
  3
COLORCHANGE
350
3A
  3
CONCEPTUAL
350
34
  3
DIM
350
35
  3
FACEPATTERN
350
39
  3
FLAT
350
2B
  3
FLATWITHEDGES
350
2C
  3
GOURAUD
350
2D
  3
GOURAUDWITHEDGES
350
2E
  3
LINEPATTERN
350
38
  3
REALISTIC
350
33
  3
THICKEN
350
37
1001
ACAD
1000
TREAT_AS_HARD
1070
     0
  0
DICTIONARY
  5
DA
102
{ACAD_REACTORS
330
C
102
}
330
C
100
AcDbDictionary
  3
DIMASSOC
350
DD
  3
HIDETEXT
350
DE
1001
ACAD
1000
TREAT_AS_HARD
1070
     0
  0
MATERIAL
  5
3D
102
{ACAD_REACTORS
330
3B
102
}
102
{ACAD_XDICTIONARY
360
E1
102
}
330
3B
100
AcDbMaterial
  1
ByBlock
  0
MATERIAL
  5
3C
102
{ACAD_REACTORS
330
3B
102
}
102
{ACAD_XDICTIONARY
360
DF
102
}
330
3B
100
AcDbMaterial
  1
ByLayer
  0
MATERIAL
  5
3E
102
{ACAD_REACTORS
330
3B
102
}
102
{ACAD_XDICTIONARY
360
E3
102
}
330
3B
100
AcDbMaterial
  1
Global
  0
MLINESTYLE
  5
18
102
{ACAD_REACTORS
330
17
102
}
330
17
100
AcDbMlineStyle
  2
Standard
 70
     0
  3

 62
   256
 51
90.0
 52
90.0
 71
     2
 49
0.5
 62
   256
  6
BYLAYER
 49
-0.5
 62
   256
  6
BYLAYER
  0
ACAD_PROXY_OBJECT
  5
2F
102
{ACAD_REACTORS
330
2A
102
}
330
2A
100
AcDbZombieObject
 90
      499
 91
      501
 93
      436
310
42CC9915DA5C99599C985B595049028333333333333E3BF0000000000000FB0107901411070040501600405405064090741402480A0340
1001
ACAD
1000
AcDbSavedByObjectVersion
1070
     0
  0
ACAD_PROXY_OBJECT
  5
30
102
{ACAD_REACTORS
330
2A
102
}
330
2A
100
AcDbZombieObject
 90
      499
 91
      501
 93
      436
310
42CCD915DA5C99599C985B595059028333333333333E3BF0000000000000FB0107901411070040501600405405064090741402480A0340
1001
ACAD
1000
AcDbSavedByObjectVersion
1070
     0
  0
ACAD_PROXY_OBJECT
  5
31
102
{ACAD_REACTORS
330
2A
102
}
330
2A
100
AcDbZombieObject
 90
      499
 91
      501
 93
      500
310
424CD108121A5919195B90640502408333333333333E3BF0000000000000FB01079024090700405020000000000001110200405405064090740C02480A0340
1001
ACAD
1000
AcDbSavedByObjectVersion
1070
     0
  0
ACAD_PROXY_OBJECT
  5
32
102
{ACAD_REACTORS
330
2A
102
}
330
2A
100
AcDbZombieObject
 90
      499
 91
      501
 93
      388
310
4150985CDA58D07406404333333333333E3BF0000000000000FB0107A41107004050150841D405064090741402480A0350
1001
ACAD
1000
AcDbSavedByObjectVersion
1070
     0
  0
ACAD_PROXY_OBJECT
  5
36
102
{ACAD_REACTORS
330
2A
102
}
330
2A
100
AcDbZombieObject
 90
      499
 91
      501
 93
      428
310
42109C9A59DA1D195B90C409028333333333333E3BF0000000000000FB010790141107004050150841D405064090741402480A029950
1001
ACAD
1000
AcDbSavedByObjectVersion
1070
     0
  0
ACAD_PROXY_OBJECT
  5
3A
102
{ACAD_REACTORS
330
2A
102
}
330
2A
100
AcDbZombieObject
 90
      499
 91
      501
 93
      452
310
42D0DBDB1BDC90DA185B99D95104090240C333333333333E3BF0000000000000FB0108901411070040501508421405064090741402480A0350
1001
ACAD
1000
AcDbSavedByObjectVersion
1070
     0
  0
ACAD_PROXY_OBJECT
  5
34
102
{ACAD_REACTORS
330
2A
102
}
330
2A
100
AcDbZombieObject
 90
      499
 91
      501
 93
      500
310
4290DBDB98D95C1D1D585B10940D028333333333333E3BF0000000000000FB0107902409070040501000000000000111010841D405064090740C02480A0340
1001
ACAD
1000
AcDbSavedByObjectVersion
1070
     0
  0
ACAD_PROXY_OBJECT
  5
35
102
{ACAD_REACTORS
330
2A
102
}
330
2A
100
AcDbZombieObject
 90
      499
 91
      501
 93
      412
310
40D11A5B50B409028333333333333E3BF0000000000000FB010790141107004050150841D405064090741402480A02677FFFFFD0
1001
ACAD
1000
AcDbSavedByObjectVersion
1070
     0
  0
ACAD_PROXY_OBJECT
  5
39
102
{ACAD_REACTORS
330
2A
102
}
330
2A
100
AcDbZombieObject
 90
      499
 91
      501
 93
      444
310
42D19858D95C185D1D195C9B90F409028333333333333E3BF0000000000000FB010790141107004050150841D405064090741402480A0350
1001
ACAD
1000
AcDbSavedByObjectVersion
1070
     0
  0
ACAD_PROXY_OBJECT
  5
2B
102
{ACAD_REACTORS
330
2A
102
}
330
2A
100
AcDbZombieObject
 90
      499
 91
      501
 93
      388
310
41119B185D240901404333333333333E3BF0000000000000F9010740A41107004050150841D405064090741402480A1B50
1001
ACAD
1000
AcDbSavedByObjectVersion
1070
     0
  0
ACAD_PROXY_OBJECT
  5
2C
102
{ACAD_REACTORS
330
2A
102
}
330
2A
100
AcDbZombieObject
 90
      499
 91
      501
 93
      476
310
43519B185D15DA5D1A115919D95CD0140901404333333333333E3BF0000000000000F9010740901411070040501600405405064090741402480A1B50
1001
ACAD
1000
AcDbSavedByObjectVersion
1070
     0
  0
ACAD_PROXY_OBJECT
  5
2D
102
{ACAD_REACTORS
330
2A
102
}
330
2A
100
AcDbZombieObject
 90
      499
 91
      501
 93
      412
310
41D1DBDD5C985D5910240902404333333333333E3BF0000000000000F9010740A411070040501641D405064090741402480A1B50
1001
ACAD
1000
AcDbSavedByObjectVersion
1070
     0
  0
ACAD_PROXY_OBJECT
  5
2E
102
{ACAD_REACTORS
330
2A
102
}
330
2A
100
AcDbZombieObject
 90
      499
 91
      501
 93
      500
310
4411DBDD5C985D5915DA5D1A115919D95CD0340902404333333333333E3BF0000000000000F9010740901411070040501600405405064090741402480A1B50
1001
ACAD
1000
AcDbSavedByObjectVersion
1070
     0
  0
ACAD_PROXY_OBJECT
  5
38
102
{ACAD_REACTORS
330
2A
102
}
330
2A
100
AcDbZombieObject
 90
      499
 91
      501
 93
      444
310
42D31A5B995C185D1D195C9B90E409028333333333333E3BF0000000000000FB010790141107004050750841D405064090741402483A0350
1001
ACAD
1000
AcDbSavedByObjectVersion
1070
     0
  0
ACAD_PROXY_OBJECT
  5
33
102
{ACAD_REACTORS
330
2A
102
}
330
2A
100
AcDbZombieObject
 90
      499
 91
      501
 93
      420
310
425499585B1A5CDD1A58D08409028333333333333E3BF0000000000000FB01079019070040501508421405064090741402480A1B40
1001
ACAD
1000
AcDbSavedByObjectVersion
1070
     0
  0
ACAD_PROXY_OBJECT
  5
37
102
{ACAD_REACTORS
330
2A
102
}
330
2A
100
AcDbZombieObject
 90
      499
 91
      501
 93
      412
310
41D51A1A58DAD95B90D409028333333333333E3BF0000000000000FB010790141107004050150C41D405064090741402480A0350
1001
ACAD
1000
AcDbSavedByObjectVersion
1070
     0
  0
DICTIONARYVAR
  5
DD
102
{ACAD_REACTORS
330
DA
102
}
330
DA
100
DictionaryVariables
280
     0
  1
2
  0
DICTIONARYVAR
  5
DE
102
{ACAD_REACTORS
330
DA
102
}
330
DA
100
DictionaryVariables
280
     0
  1
1
  0
DICTIONARY
  5
E1
330
3D
100
AcDbDictionary
  3
ACAD_XREC_ROUNDTRIP
360
E2
1001
ACAD
1000
TREAT_AS_HARD
1070
     1
  0
DICTIONARY
  5
DF
330
3C
100
AcDbDictionary
  3
ACAD_XREC_ROUNDTRIP
360
E0
1001
ACAD
1000
TREAT_AS_HARD
1070
     1
  0
DICTIONARY
  5
E3
330
3E
100
AcDbDictionary
  3
ACAD_XREC_ROUNDTRIP
360
E4
1001
ACAD
1000
TREAT_AS_HARD
1070
     1
  0
XRECORD
  5
E2
102
{ACAD_REACTORS
330
E1
102
}
330
E1
100
AcDbXrecord
102
MATERIAL
148
0.0
149
0.0
149
0.0
 93
        0
 94
      127
282
     0
 72
     1
 77
     1
171
     1
175
     1
179
     1
273
     0
  0
XRECORD
  5
E0
102
{ACAD_REACTORS
330
DF
102
}
330
DF
100
AcDbXrecord
102
MATERIAL
148
0.0
149
0.0
149
0.0
 93
        0
 94
      127
282
     0
 72
     1
 77
     1
171
     1
175
     1
179
     1
273
     0
  0
XRECORD
  5
E4
102
{ACAD_REACTORS
330
E3
102
}
330
E3
100
AcDbXrecord
102
MATERIAL
148
0.0
149
0.0
149
0.0
 93
        0
 94
      127
282
     0
 72
     1
 77
     1
171
     1
175
     1
179
     1
273
     0
  0
ENDSEC
  0
EOF
