<?xml version="1.0" standalone="yes"?>

<svg version="1.1" viewBox="0.0 0.0 463.5223097112861 653.9160104986877" fill="none" stroke="none" stroke-linecap="square" stroke-miterlimit="10" xmlns="http://www.w3.org/2000/svg" xmlns:xlink="http://www.w3.org/1999/xlink"><clipPath id="p.0"><path d="m0 0l463.5223 0l0 653.916l-463.5223 0l0 -653.916z" clip-rule="nonzero"></path></clipPath><g clip-path="url(#p.0)"><path fill="#000000" fill-opacity="0.0" d="m0 0l463.5223 0l0 653.916l-463.5223 0z" fill-rule="nonzero"></path><path fill="#cccccc" d="m35.732285 41.244095l400.53546 0l0 581.51184l-400.53546 0z" fill-rule="nonzero"></path><path stroke="#666666" stroke-width="24.0" stroke-linejoin="round" stroke-linecap="butt" d="m35.732285 41.244095l400.53546 0l0 581.51184l-400.53546 0z" fill-rule="nonzero"></path><path fill="#434343" d="m135.6693 220.66667l0 0c0 -53.889084 44.919586 -97.57481 100.3307 -97.57481l0 0c26.609344 0 52.128876 10.280174 70.94452 28.579002c18.815674 18.298813 29.3862 43.117355 29.3862 68.995804l0 0c0 53.889084 -44.919586 97.57478 -100.33072 97.57478l0 0c-55.411118 0 -100.3307 -43.6857 -100.3307 -97.57478z" fill-rule="nonzero"></path><path fill="#cccccc" d="m135.6693 95.55118l200.66142 0l0 51.149612l-200.66142 0z" fill-rule="nonzero"></path><path fill="#cccccc" d="m135.6693 291.7454l200.66142 0l0 51.149628l-200.66142 0z" fill-rule="nonzero"></path><path fill="#cccccc" d="m195.08136 173.45145l14.173233 0l0 42.48819l-14.173233 0z" fill-rule="nonzero"></path><path fill="#cccccc" d="m260.65353 173.45145l14.173248 0l0 42.48819l-14.173248 0z" fill-rule="nonzero"></path><path fill="#cccccc" d="m223.41743 265.52002l0 -11.81102l0 0c0 -6.523056 5.6334534 -11.811035 12.582672 -11.811035c6.9492188 0 12.582687 5.287979 12.582687 11.811035l0 11.81102z" fill-rule="nonzero"></path><path fill="#434343" d="m135.6693 452.27298l0 0c0 -53.8891 44.919586 -97.57483 100.3307 -97.57483l0 0c26.609344 0 52.128876 10.280182 70.94452 28.57901c18.815674 18.298828 29.3862 43.11737 29.3862 68.99582l0 0c0 53.88907 -44.919586 97.5748 -100.33072 97.5748l0 0c-55.411118 0 -100.3307 -43.68573 -100.3307 -97.5748z" fill-rule="nonzero"></path><path fill="#cccccc" d="m135.6693 327.15747l200.66142 0l0 51.149628l-200.66142 0z" fill-rule="nonzero"></path><path fill="#cccccc" d="m135.6693 523.3517l200.66142 0l0 51.14966l-200.66142 0z" fill-rule="nonzero"></path><path fill="#cccccc" d="m195.08136 405.05774l14.173233 0l0 42.48819l-14.173233 0z" fill-rule="nonzero"></path><path fill="#cccccc" d="m260.65353 405.05774l14.173248 0l0 42.48819l-14.173248 0z" fill-rule="nonzero"></path><path fill="#cccccc" d="m223.41743 497.1263l0 -11.811005l0 0c0 -6.5230713 5.6334534 -11.811035 12.582672 -11.811035c6.9492188 0 12.582687 5.287964 12.582687 11.811035l0 11.811005z" fill-rule="nonzero"></path></g></svg>

