<?xml version="1.0" encoding="utf-8"?>
<!-- Generator: Adobe Illustrator 16.0.0, SVG Export Plug-In . SVG Version: 6.00 Build 0)  -->
<!DOCTYPE svg PUBLIC "-//W3C//DTD SVG 1.1//EN" "http://www.w3.org/Graphics/SVG/1.1/DTD/svg11.dtd">
<svg version="1.1" id="Layer_1" xmlns="http://www.w3.org/2000/svg" xmlns:xlink="http://www.w3.org/1999/xlink" x="0px" y="0px"
	 width="1500px" height="800px" viewBox="0 0 1500 800" enable-background="new 0 0 1500 800" xml:space="preserve">
<g id="static">
	<path id="floor" fill="none" stroke="#000000" stroke-width="2" stroke-miterlimit="10" d="M1,570c0,0,127.007,0,307.107,0
		c2.537,0,5.084,0,7.642,0c32.251,0,64.251,0,96.173,0c2.776,0,5.559,0,8.35,0C864.049,570,1501,570,1501,570"/>
	<g id="nightstand">
		<path id="standSurface" fill="none" stroke="#000000" stroke-width="2" stroke-miterlimit="10" d="M1398.926,451h-116.229
			c-4.971,0-9.697,3.942-9.697,9.629v35.178c0,5.687,4.727,10.193,9.697,10.193h116.229c4.969,0,8.074-4.507,8.074-10.193v-35.178
			C1407,454.942,1403.895,451,1398.926,451z M1398,490.515c0,3.772-3.334,7.485-7.649,7.485H1289.39c-4.316,0-8.39-3.713-8.39-7.485
			v-23.331c0-3.773,4.073-7.184,8.39-7.184h100.961c4.315,0,7.649,3.41,7.649,7.184V490.515z"/>
		<polyline id="standLegLeft" fill="none" stroke="#000000" stroke-width="2" stroke-miterlimit="10" points="1306.032,505.5 
			1288.604,570 1279.458,570 1279.153,570 1288.604,506 1307,506 		"/>
		<polyline id="standLegRight" fill="none" stroke="#000000" stroke-width="2" stroke-miterlimit="10" points="1374.205,505.5 
			1391.869,570 1401.014,570 1401.318,570 1391.869,506 1373,506 		"/>
		<g id="bookLeft">
			
				<rect id="pagesLeft" x="1297" y="483" fill="none" stroke="#000000" stroke-width="2" stroke-miterlimit="10" width="43" height="12"/>
			<path id="coverLeft" fill="none" stroke="#000000" stroke-width="2" stroke-miterlimit="10" d="M1344.5,488.5
				c0,4.48-1.73,8.45-4,9.141c-0.24,0.069-0.49,0.359-0.75,0.359H1289v-3h51v-12h-51v-3h50.75c0.26,0,0.51-0.21,0.75-0.141
				C1342.77,480.55,1344.5,484.02,1344.5,488.5z"/>
			
				<line id="pageLineLeftB" fill="none" stroke="#000000" stroke-width="2" stroke-miterlimit="10" x1="1297" y1="487" x2="1326" y2="487"/>
			
				<line id="pageLineLeftA" fill="none" stroke="#000000" stroke-width="2" stroke-miterlimit="10" x1="1297" y1="491" x2="1326" y2="491"/>
		</g>
		<g id="bookRight">
			
				<rect id="pagesRight" x="1356.656" y="453.634" transform="matrix(-0.3461 0.9382 -0.9382 -0.3461 2282.3296 -635.5425)" fill="none" stroke="#000000" stroke-width="2" stroke-miterlimit="10" width="11.999" height="48.001"/>
			<path id="coverRight" fill="none" stroke="#000000" stroke-width="2" stroke-miterlimit="10" d="M1336.386,467.941
				c1.552-4.203,4.641-7.029,7.24-6.805c0.274,0.026,0.548,0.085,0.817,0.185l52.286,19.294l-1.038,2.814l-53.477-19.732
				l-4.152,11.258l53.475,19.732l-1.039,2.815l-52.285-19.295c-0.271-0.099-0.517-0.232-0.742-0.39
				C1335.349,476.299,1334.836,472.145,1336.386,467.941z"/>
			
				<line id="pageLineRightB" fill="none" stroke="#000000" stroke-width="2" stroke-miterlimit="10" x1="1384.947" y1="487.992" x2="1354.926" y2="476.914"/>
			
				<line id="pageLineRightA" fill="none" stroke="#000000" stroke-width="2" stroke-miterlimit="10" x1="1386.332" y1="484.24" x2="1356.312" y2="473.162"/>
		</g>
	</g>
	<g id="bed">
		<polyline fill="#FFFFFF" stroke="#000000" stroke-width="2" stroke-linejoin="round" stroke-miterlimit="10" points="
			1210.449,495.75 1315,644.363 1315,645 835,645 834.949,644.863 940,496 1210,496 		"/>
		<path fill="#FFFFFF" stroke="#000000" stroke-width="2" stroke-miterlimit="10" d="M835.43,644.449
			c-12.309,35.701-0.592,65.551,0,65.551H835h481l-0.175-1c0.593,0,12.308-29.35,0-65.051L1316,645H835"/>
		<rect x="939" y="406" fill="none" stroke="#000000" stroke-width="2" stroke-miterlimit="10" width="15" height="90"/>
		<rect x="1194" y="406" fill="none" stroke="#000000" stroke-width="2" stroke-miterlimit="10" width="15" height="90"/>
		<rect x="954" y="406" fill="none" stroke="#000000" stroke-width="2" stroke-miterlimit="10" width="240" height="15"/>
		<rect x="954" y="450" fill="none" stroke="#000000" stroke-width="2" stroke-miterlimit="10" width="240" height="13"/>
		
			<line fill="none" stroke="#000000" stroke-width="2" stroke-miterlimit="10" x1="829.942" y1="683.868" x2="811.949" y2="709.363"/>
		<rect x="811" y="710" fill="#FFFFFF" stroke="#000000" stroke-width="2" stroke-miterlimit="10" width="525" height="12"/>
		<rect x="811" y="722" fill="#FFFFFF" stroke="#000000" stroke-width="2" stroke-miterlimit="10" width="17" height="53"/>
		<rect x="1319" y="722" fill="#FFFFFF" stroke="#000000" stroke-width="2" stroke-miterlimit="10" width="17" height="53"/>
		<path fill="#FFFFFF" stroke="#000000" stroke-width="2" stroke-linecap="round" stroke-miterlimit="10" d="M918.582,518.592
			c19.499-7.499,38.998-16.498,59.997-19.498c25.499-4.5,35.998,1.5,59.997,7.5c37.498,7.499,64.496-6,100.494-12
			c15-1.5,37.499-3,52.498,1.5c28.498,7.5,25.498,22.498,34.498,43.498c10.5,23.998,31.498,26.998,53.997,35.998
			c23.999,10.499,31.499,22.499,40.498,44.997c12,25.499,22.499,67.497,13.5,95.996c-6,17.999-16.5,14.999-32.999,20.999
			c-13.499,5.999-4.5,13.499-23.998,11.999c-9-1.5-21-6-29.999-10.5c-43.498-20.999-65.997-50.997-116.994-58.497
			c-19.499-1.5-40.498-1.5-56.997-8.999c-25.499-12-29.998-35.998-49.498-50.998c-44.997-37.498-98.994-28.498-151.492-37.498
			C879.584,559.091,918.582,518.592,918.582,518.592z"/>
		<path fill="#FFFFFF" stroke="#000000" stroke-width="2" stroke-miterlimit="10" d="M1017.76,444.129
			c10.899-2.35,24.314,6.461,34.376,7.637c10.899,1.174,20.122-1.176,29.344-2.938c22.638-3.524,46.114,0,68.752,1.762
			c-2.515,11.161-11.738,21.146-8.384,34.07c3.354,13.51,16.768,21.734,25.152,32.895c-20.123-1.763-37.729-2.937-58.689-2.937
			c-14.254,0-25.992-1.763-41.083,0.587c-11.739,1.764-20.961,4.112-33.538,3.525c-9.222-0.588-18.445-1.762-27.668-2.938
			c-22.637-1.762-14.254-2.937-5.03-14.097c10.062-11.161,14.253-31.133,13.414-44.056c0-5.287-2.516-9.986-0.837-14.686
			C1015.244,442.954,1016.083,443.541,1017.76,444.129"/>
	</g>
</g>
<g id="window_1_">
	<path id="windowSill" fill="none" stroke="#000000" stroke-width="2" stroke-miterlimit="10" d="M528,391.086
		c0,2.412-1.364,4.914-3.521,4.914H49.28c-2.157,0-4.28-2.502-4.28-4.914v-0.672c0-2.412,2.123-3.414,4.28-3.414h475.198
		c2.157,0,3.521,1.002,3.521,3.414V391.086z"/>
	
		<rect id="windowFrame" x="85" y="98" fill="none" stroke="#000000" stroke-width="2" stroke-miterlimit="10" width="403" height="289"/>
</g>
<g id="dresser">
	<path id="dresserFrame" fill="none" stroke="#000000" stroke-width="2" stroke-miterlimit="10" d="M867,401.908V570h-18v-19H615v19
		h-18V401.908c0-3.508,5.361-5.908,11.991-5.908h246C861.621,396,867,398.4,867,401.908z"/>
	<g id="drawers">
		
			<rect id="drawerBottom" x="617" y="483" fill="none" stroke="#000000" stroke-width="2" stroke-miterlimit="10" width="230" height="56"/>
		
			<rect id="drawerTop" x="617" y="412" fill="none" stroke="#000000" stroke-width="2" stroke-miterlimit="10" width="230" height="59"/>
	</g>
	<g id="knobs">
		<circle id="knobTop" fill="none" stroke="#000000" stroke-width="2" stroke-miterlimit="10" cx="732.324" cy="440.72" r="7.94"/>
		
			<circle id="knobBottom" fill="none" stroke="#000000" stroke-width="2" stroke-miterlimit="10" cx="732.324" cy="510.439" r="7.94"/>
	</g>
</g>
<g id="sleep">
	
		<path id="sleepMount" fill="none" stroke="#000000" stroke-width="2" stroke-linecap="round" stroke-linejoin="round" stroke-miterlimit="10" d="
		M1251,371c0,6.627-5.373,12-12,12h-33c-6.627,0-12-5.373-12-12v-25c0-6.627,5.373-12,12-12h33c6.627,0,12,5.373,12,12V371z"/>
	
		<circle id="sleepButton" fill="none" stroke="#000000" stroke-width="2" stroke-linecap="round" stroke-linejoin="round" stroke-miterlimit="10" cx="1222.125" cy="349.25" r="8.75"/>
	<g id="sleepText">
		<path d="M1207.828,373.622c0.238,0.312,0.42,0.587,0.42,0.995c0,0.9-0.684,1.355-1.512,1.355h-2.639
			c-0.455,0-0.852-0.084-1.211-0.384c-0.324-0.264-0.564-0.696-0.564-1.115c0-0.384,0.217-0.72,0.637-0.72
			c0.348,0,0.563,0.288,0.563,0.612c0,0.36,0.191,0.408,0.527,0.408h2.604c0.096,0,0.396,0.036,0.396-0.144
			c0-0.096-0.168-0.276-0.217-0.348l-4.113-5.289c-0.252-0.324-0.396-0.564-0.396-0.984c0-0.479,0.229-0.887,0.637-1.151
			c0.336-0.216,0.611-0.216,0.994-0.216h2.543c0.455,0,0.84,0.096,1.188,0.396c0.313,0.276,0.564,0.72,0.564,1.139
			c0,0.384-0.193,0.696-0.625,0.696c-0.359,0-0.574-0.228-0.574-0.563c0-0.408-0.205-0.468-0.576-0.468h-2.543
			c-0.133,0-0.408-0.036-0.408,0.167c0,0.108,0.133,0.252,0.18,0.324L1207.828,373.622z"/>
		<path d="M1216.287,374.773c0.313,0,0.6,0.168,0.6,0.6s-0.287,0.6-0.6,0.6h-5.324v-8.731c0-0.384,0.168-0.6,0.6-0.6
			s0.6,0.216,0.6,0.6v7.532H1216.287z"/>
		<path d="M1224.928,374.773c0.311,0,0.6,0.168,0.6,0.6s-0.289,0.6-0.6,0.6h-5.326v-9.331h5.326c0.311,0,0.6,0.168,0.6,0.6
			c0,0.432-0.289,0.6-0.6,0.6h-4.127v2.866h1.764c0.313,0,0.6,0.168,0.6,0.6s-0.287,0.6-0.6,0.6h-1.764v2.867H1224.928z"/>
		<path d="M1233.568,374.773c0.311,0,0.6,0.168,0.6,0.6s-0.289,0.6-0.6,0.6h-5.326v-9.331h5.326c0.311,0,0.6,0.168,0.6,0.6
			c0,0.432-0.289,0.6-0.6,0.6h-4.127v2.866h1.764c0.313,0,0.6,0.168,0.6,0.6s-0.287,0.6-0.6,0.6h-1.764v2.867H1233.568z"/>
		<path d="M1238.082,375.373c0,0.384-0.168,0.6-0.6,0.6s-0.6-0.216-0.6-0.6v-8.731h3.98c0.553,0,0.947,0.084,1.379,0.492
			c0.518,0.48,0.564,0.924,0.564,1.571v1.631c0,0.611-0.047,1.043-0.492,1.535c-0.467,0.527-0.959,0.576-1.607,0.576h-2.625V375.373
			z M1238.082,371.247h2.662c0.707,0,0.863-0.18,0.863-0.863v-1.679c0-0.684-0.156-0.863-0.863-0.863h-2.662V371.247z"/>
	</g>
</g>
<g id="nightLight">
	
		<rect id="nightLightMount" x="104" y="458" fill="none" stroke="#000000" stroke-width="2" stroke-miterlimit="10" width="34" height="51"/>
	<g id="prongs">
		<path id="ground" d="M124,500v-1.651c0-1.169-1.754-2.099-2.5-2.099c-0.744,0-2.5,0.963-2.5,2.131V500H124z"/>
		<rect id="prongRight" x="123" y="489" width="2" height="5"/>
		<rect id="prongLeft" x="118" y="489" width="2" height="5"/>
	</g>
	<g id="outlets">
		<path id="outletBottom" fill="none" stroke="#000000" stroke-width="2" stroke-miterlimit="10" d="M126.22,503
			c3.578,0,6.482-4.023,6.482-8.5s-2.904-8.5-6.482-8.5h-9.343c-3.582,0-6.482,4.023-6.482,8.5c0,4.478,2.9,8.5,6.482,8.5H126.22z"
			/>
		<path id="outletTop" fill="none" stroke="#000000" stroke-width="2" stroke-miterlimit="10" d="M126.22,480
			c3.578,0,6.482-4.023,6.482-8.5s-2.904-8.5-6.482-8.5h-9.343c-3.582,0-6.482,4.023-6.482,8.5c0,4.478,2.9,8.5,6.482,8.5H126.22z"
			/>
	</g>
	
		<path id="moonLightBottom" fill="none" stroke="#000000" stroke-width="2" stroke-linecap="round" stroke-linejoin="round" stroke-miterlimit="10" d="
		M128.362,477c0-0.387-4.118-0.701-7.681-0.701c-3.563,0-7.682,0.314-7.682,0.701v-9h16v9"/>
	
		<path id="moonLightTop" fill="#FFFFFF" stroke="#000000" stroke-width="2" stroke-linecap="square" stroke-linejoin="round" stroke-miterlimit="10" d="
		M135.559,463.834c-2.592,4.105-7.178,6.826-12.394,6.826c-8.095,0-14.666-6.56-14.666-14.654c0-8.107,6.57-14.666,14.666-14.666
		c1.674,0,3.295,0.288,4.799,0.811c-4.97,1.163-8.692,5.813-8.692,11.359c0,6.432,4.991,11.646,11.146,11.646
		C132.274,465.156,134.023,464.688,135.559,463.834z"/>
</g>
<g id="outside_1_">
	<rect id="sky" x="97" y="98" fill="none" stroke="#000000" stroke-width="2" stroke-miterlimit="10" width="379" height="289"/>
	<path id="moonCutout" fill="none" d="M204.31,174.084c-7.865,10.351-21.908,14.695-34.621,9.739
		c-15.366-5.991-22.966-23.304-16.975-38.671c4.235-10.86,14.125-17.84,24.986-18.885"/>
	
		<circle id="outsideSun" fill="none" stroke="#000000" stroke-width="2" stroke-miterlimit="10" cx="165.974" cy="164.096" r="39.609"/>
	<g id="clouds">
		<path id="cloudRight" fill="#FFFFFF" stroke="#000000" stroke-width="2" stroke-miterlimit="10" d="M369.476,161.938
			c-0.931-0.214-1.684,0.199-2.563,0.058c-0.542,0.02-1.133,0.032-1.762,0.041c-6.916,0.083-18.284-0.668-14.316-6.054
			c3.029-4.244,10.704-3.427,15.55-2.775c-3.138-1.4-5-3.032-5.246-4.926c-0.048-0.378-0.034-0.767,0.051-1.166
			c0.574-5.258,7.053-6.913,11.85-5.898c0.422,0.099,0.841,0.192,1.249,0.256c0.816,0.127,1.593,0.139,2.29-0.141
			c0.418-0.168,0.807-0.441,1.159-0.854c1.507-4.943,4.896-8.93,10.085-8.574c1.039,0.072,2.15,0.318,3.339,0.776
			c0.988,0.006,2.319,0.006,2.984-0.712c1.663-2.874,4.99-3.592,8.649-4.072c1.664-0.239,2.662,2.155,4.658,1.917
			c3.326-0.241,3.992-3.113,5.146-4.92c0.526-0.672,1.177-1.069,1.853-1.466c0.389-0.184,0.802-0.292,1.251-0.354
			c0.442-0.021,0.892-0.043,1.347-0.058c2.601-0.456,4.721,1.012,6.865,2.455c0.307,0.207,0.613,0.413,0.922,0.614
			c4.166-1.198,8.201-1.861,12.397-0.274c0.293,0.019,0.594,0.038,0.896,0.075c0.3,0.04,0.602,0.098,0.895,0.198
			c0.326,0.132,0.626,0.299,0.897,0.496c0.271,0.196,0.512,0.424,0.709,0.68c0.086,0.286,0.347,0.552,0.477,0.819
			c0.129,1.858-0.521,3.851,0.78,5.447c1.691,1.992,4.165,3.188,5.337,5.713c0.129,0.265,0.325,0.597,0.579,0.903
			c0.255,0.306,0.569,0.583,0.936,0.741c0.253,0.2,0.515,0.396,0.767,0.604c0.506,0.414,0.967,0.881,1.355,1.45
			c0.145,0.275,0.236,0.56,0.264,0.854c0.028,0.296-0.008,0.601-0.118,0.92c-0.058,0.207-0.139,0.415-0.238,0.62
			c-0.098,0.203-0.214,0.403-0.343,0.6c-0.154,0.196-0.62,0.097-1.083,0c0.62,0.88,2.322,0.783,3.379,1.133
			c0.399,0.082,0.798,0.165,1.183,0.285c0.41,0.095,0.811,0.22,1.204,0.396c0.354,0.154,0.706,0.325,1.048,0.511
			c0.512,0.28,1.005,0.596,1.467,0.937c0.464,0.341,0.895,0.708,1.282,1.094c2.608,2.336,2.91,6.476,0.046,8.82
			c-1.406,1.103-3.146,0.92-4.847,0.86c-0.425-0.016-0.848-0.023-1.258,0.009c-4.743,2.581-9.867,2.442-15.047,1.618
			c-0.588,0.009-1.175,0.018-1.761,0.026c-0.565,0.008-1.13,0.013-1.694,0.021c-0.564,0.007-1.129,0.013-1.694,0.019
			c-5.792,0.758-11.217,0.758-16.919,0.061c-0.564-0.001-1.127-0.002-1.689-0.004c-0.528-0.002-1.056-0.003-1.583-0.005
			c-0.529-0.001-1.057-0.004-1.583-0.006c-0.743-0.115-1.497,0.023-2.099,0.299c-3.271,1.545-6.392,1.062-9.559,0.398
			c-0.453-0.095-0.907-0.193-1.36-0.286c-0.683-0.25-1.437-0.25-2.039-0.112c-3.823,0.846-7.301,0.529-10.979-0.088
			c-0.526-0.089-1.054-0.183-1.591-0.28c-1.895,0.229-3.704,1.195-5.512,1.886c-2.713,0.827-4.972-0.828-7.583-1.466
			C369.728,161.97,369.476,161.938,369.476,161.938z"/>
		<path id="cloudCenter" fill="#FFFFFF" stroke="#000000" stroke-width="2" stroke-miterlimit="10" d="M404.092,178.587
			c1.287-0.345,2.33,0.32,3.545,0.091c0.749,0.032,1.567,0.053,2.437,0.067c9.566,0.134,25.292-1.077,19.803-9.752
			c-4.19-6.835-14.806-5.521-21.51-4.47c4.341-2.256,6.916-4.885,7.256-7.936c0.067-0.609,0.047-1.236-0.07-1.875
			c-0.794-8.471-9.756-11.138-16.391-9.502c-0.584,0.159-1.163,0.31-1.727,0.412c-1.13,0.204-2.204,0.221-3.167-0.227
			c-0.578-0.271-1.116-0.71-1.603-1.375c-2.085-7.965-6.773-14.386-13.951-13.812c-1.437,0.116-2.973,0.511-4.618,1.25
			c-1.367,0.011-3.208,0.011-4.128-1.147c-2.3-4.629-6.901-5.787-11.963-6.56c-2.301-0.386-3.682,3.472-6.443,3.087
			c-4.601-0.386-5.522-5.014-7.118-7.925c-0.728-1.083-1.627-1.724-2.563-2.362c-0.538-0.295-1.11-0.47-1.731-0.57
			c-0.612-0.034-1.234-0.071-1.863-0.095c-3.598-0.735-6.53,1.63-9.496,3.954c-0.425,0.334-0.849,0.664-1.276,0.988
			c-5.762-1.929-11.344-2.998-17.147-0.44c-0.406,0.031-0.822,0.061-1.239,0.121c-0.416,0.063-0.833,0.155-1.238,0.317
			c-0.45,0.213-0.866,0.483-1.24,0.798c-0.375,0.317-0.708,0.684-0.981,1.095c-0.12,0.46-0.479,0.889-0.66,1.319
			c-0.179,2.995,0.721,6.206-1.079,8.773c-2.34,3.21-5.762,5.138-7.382,9.204c-0.179,0.428-0.45,0.961-0.801,1.456
			c-0.353,0.492-0.788,0.939-1.295,1.193c-0.351,0.321-0.712,0.637-1.061,0.972c-0.7,0.667-1.338,1.421-1.875,2.336
			c-0.199,0.443-0.326,0.9-0.365,1.375c-0.038,0.477,0.011,0.969,0.163,1.483c0.08,0.333,0.192,0.667,0.329,0.999
			c0.135,0.326,0.296,0.649,0.474,0.964c0.214,0.315,0.857,0.157,1.499,0c-0.857,1.418-3.211,1.262-4.674,1.825
			c-0.552,0.132-1.104,0.266-1.636,0.46c-0.567,0.153-1.122,0.352-1.666,0.636c-0.49,0.249-0.976,0.523-1.45,0.825
			c-0.708,0.452-1.391,0.96-2.029,1.509c-0.642,0.549-1.238,1.141-1.773,1.762c-3.608,3.765-4.025,10.432-0.064,14.209
			c1.945,1.777,4.352,1.482,6.704,1.386c0.588-0.027,1.173-0.038,1.74,0.014c6.561,4.157,13.648,3.935,20.814,2.607
			c0.813,0.013,1.625,0.029,2.436,0.042c0.782,0.013,1.563,0.02,2.344,0.033c0.781,0.01,1.562,0.02,2.343,0.03
			c8.012,1.222,15.517,1.222,23.404,0.099c0.78-0.001,1.559-0.004,2.337-0.006c0.73-0.004,1.46-0.006,2.19-0.008
			c0.731-0.003,1.461-0.007,2.189-0.01c1.027-0.185,2.071,0.037,2.904,0.48c4.524,2.489,8.841,1.712,13.223,0.643
			c0.626-0.155,1.254-0.313,1.882-0.461c0.944-0.404,1.987-0.404,2.82-0.181c5.289,1.362,10.099,0.853,15.187-0.141
			c0.727-0.143,1.458-0.295,2.2-0.451c2.622,0.369,5.123,1.926,7.625,3.038c3.752,1.333,6.877-1.334,10.489-2.362
			C403.744,178.639,404.092,178.587,404.092,178.587z"/>
		<path id="cloudLeft" fill="#FFFFFF" stroke="#000000" stroke-width="2" stroke-miterlimit="10" d="M251.803,166.803
			c-0.931-0.199-1.684,0.185-2.563,0.053c-0.542,0.018-1.133,0.03-1.762,0.038c-6.916,0.078-18.284-0.621-14.316-5.626
			c3.029-3.944,10.704-3.186,15.55-2.579c-3.138-1.301-5-2.818-5.246-4.578c-0.048-0.352-0.034-0.713,0.051-1.083
			c0.574-4.887,7.053-6.426,11.85-5.482c0.422,0.092,0.841,0.179,1.249,0.238c0.816,0.118,1.593,0.129,2.29-0.131
			c0.418-0.156,0.807-0.41,1.159-0.793c1.507-4.595,4.896-8.3,10.085-7.969c1.039,0.067,2.15,0.295,3.339,0.721
			c0.988,0.006,2.319,0.006,2.984-0.662c1.663-2.671,4.99-3.339,8.649-3.785c1.664-0.223,2.662,2.003,4.658,1.781
			c3.326-0.223,3.992-2.893,5.146-4.572c0.526-0.625,1.177-0.994,1.853-1.363c0.389-0.171,0.802-0.271,1.251-0.329
			c0.442-0.02,0.892-0.041,1.347-0.054c2.601-0.424,4.721,0.94,6.865,2.281c0.307,0.192,0.613,0.383,0.922,0.57
			c4.166-1.114,8.201-1.73,12.397-0.255c0.293,0.018,0.594,0.035,0.896,0.069c0.3,0.037,0.602,0.091,0.895,0.184
			c0.326,0.123,0.626,0.278,0.897,0.46c0.271,0.183,0.512,0.395,0.709,0.632c0.086,0.265,0.347,0.513,0.477,0.76
			c0.129,1.728-0.521,3.58,0.78,5.063c1.691,1.852,4.165,2.963,5.337,5.31c0.129,0.247,0.325,0.555,0.579,0.839
			c0.255,0.284,0.569,0.542,0.936,0.688c0.253,0.186,0.515,0.368,0.767,0.562c0.506,0.385,0.967,0.819,1.355,1.347
			c0.145,0.256,0.236,0.52,0.264,0.793c0.028,0.275-0.008,0.559-0.118,0.855c-0.058,0.192-0.139,0.385-0.238,0.576
			c-0.098,0.188-0.214,0.375-0.343,0.558c-0.154,0.182-0.62,0.09-1.083,0c0.62,0.818,2.322,0.728,3.379,1.053
			c0.399,0.076,0.798,0.153,1.183,0.265c0.41,0.088,0.811,0.204,1.204,0.368c0.354,0.143,0.706,0.302,1.048,0.476
			c0.512,0.26,1.005,0.554,1.467,0.87c0.464,0.317,0.895,0.658,1.282,1.017c2.608,2.172,2.91,6.019,0.046,8.198
			c-1.406,1.025-3.146,0.855-4.847,0.799c-0.425-0.015-0.848-0.021-1.258,0.009c-4.743,2.398-9.867,2.27-15.047,1.504
			c-0.588,0.008-1.175,0.017-1.761,0.024c-0.565,0.007-1.13,0.012-1.694,0.02c-0.564,0.005-1.129,0.011-1.694,0.017
			c-5.792,0.705-11.217,0.705-16.919,0.057c-0.564-0.001-1.127-0.002-1.689-0.003c-0.528-0.001-1.056-0.003-1.583-0.005
			c-0.529-0.001-1.057-0.004-1.583-0.006c-0.743-0.106-1.497,0.021-2.099,0.277c-3.271,1.437-6.392,0.988-9.559,0.371
			c-0.453-0.089-0.907-0.18-1.36-0.266c-0.683-0.233-1.437-0.233-2.039-0.104c-3.823,0.786-7.301,0.492-10.979-0.082
			c-0.526-0.083-1.054-0.17-1.591-0.26c-1.895,0.213-3.704,1.111-5.512,1.753c-2.713,0.768-4.972-0.77-7.583-1.363
			C252.055,166.833,251.803,166.803,251.803,166.803z"/>
	</g>
</g>
<g id="pail">
	<g id="pailBody_1_">
		
			<polyline id="pailSpout" fill="none" stroke="#000000" stroke-width="2" stroke-linecap="round" stroke-linejoin="round" stroke-miterlimit="10" points="
			379.974,363.354 362.285,352.932 367.17,347.085 379.974,354.629 		"/>
		
			<path id="pailHandle" fill="none" stroke="#000000" stroke-width="2" stroke-linecap="round" stroke-linejoin="round" stroke-miterlimit="10" d="
			M434.648,350.378c-0.488,0-8.231,1.622-8.231,1.622l-0.238,3.514c0,0,5.396-0.763,5.758-0.745
			c2.784,0.145,4.539,1.511,4.457,3.078l-0.803,15.461c-0.082,1.569-1.969,2.747-4.753,2.601c-0.362-0.019-5.863-2.602-5.863-2.602
			l-0.314,4.644c0,0,9.5,3.44,9.987,3.44c3.753,0,6.352-1.865,6.352-4.167v-22.68C441,352.243,438.402,350.378,434.648,350.378z"/>
		
			<path id="pailNozzle" fill="none" stroke="#000000" stroke-width="2" stroke-linecap="round" stroke-linejoin="round" stroke-miterlimit="10" d="
			M364.374,338.258c3.391,2.427,3.909,7.51,1.158,11.354c-2.751,3.842-7.73,4.99-11.121,2.562L364.374,338.258z"/>
		<path id="pailBody" fill="#FFFFFF" stroke="#000000" stroke-width="2" stroke-miterlimit="10" d="M426,346v21.61
			c0,11.303-6.351,21.39-14.536,21.39h-16.671C386.609,389,380,378.913,380,367.61V346"/>
	</g>
	
		<ellipse id="pailTop" fill="none" stroke="#000000" stroke-width="2" stroke-linecap="round" stroke-linejoin="round" stroke-miterlimit="10" cx="402.974" cy="345.96" rx="23" ry="1.734"/>
</g>
<g id="flowers">
	
		<path id="flowerPotBottom" fill="#FFFFFF" stroke="#000000" stroke-width="2" stroke-linecap="round" stroke-linejoin="round" stroke-miterlimit="10" d="
		M252.647,341.072l-5.438,46.195c-24.646,7.509-46.638,0-46.638,0l-5.438-46.195l57.514-0.103"/>
	
		<path id="flowerPotLip" fill="#FFFFFF" stroke="#000000" stroke-width="2" stroke-linecap="round" stroke-linejoin="round" stroke-miterlimit="10" d="
		M253,348v-12.421l0,0c-29.53,5.778-59,0.005-59-0.051v0.051v11.659l0.565,0.389C194.565,347.627,221.781,355.509,253,348"/>
	
		<path id="flowerPotTop" fill="#FFFFFF" stroke="#000000" stroke-width="2" stroke-linecap="round" stroke-linejoin="round" stroke-miterlimit="10" d="
		M252.824,335.631c-33.979-7.241-58.47-0.046-58.47-0.103C194.354,335.584,223.971,341.409,252.824,335.631z"/>
	<g id="stems">
		<path id="stemCenter" fill="none" stroke="#000000" stroke-width="2" stroke-linecap="round" stroke-miterlimit="10" d="
			M223.362,338.243c0-33.348-4.155-60.332-9.29-60.332"/>
		<path id="stemLeft" fill="none" stroke="#000000" stroke-width="2" stroke-linecap="round" stroke-miterlimit="10" d="
			M220.369,337.471c0-15.096-10.304-27.313-23.038-27.313"/>
		<path id="stemRight" fill="none" stroke="#000000" stroke-width="2" stroke-linecap="round" stroke-miterlimit="10" d="
			M220.981,338.243c0-20.399,9.535-36.905,21.318-36.905"/>
	</g>
	<g id="leaves">
		<g id="leafRight">
			<path fill="#FFFFFF" stroke="#000000" stroke-width="2" stroke-linecap="round" stroke-miterlimit="10" d="M220.494,321.887
				c10.97-2.106,23.341,10.161,29.352,29.442l-0.052,0.052c-19.282-6.01-31.637-18.468-29.53-29.438"/>
			<path fill="none" stroke="#000000" stroke-width="2" stroke-linecap="round" stroke-miterlimit="10" d="M220.494,321.887
				c9.434,7.373,19.064,18.379,29.352,29.442"/>
		</g>
		<g id="leafCenter">
			<path fill="#FFFFFF" stroke="#000000" stroke-width="2" stroke-linecap="round" stroke-miterlimit="10" d="M219.961,323.9
				c10.784,4.935,13.926,23.162,7.25,43.538l-0.078,0.014c-12.972-17.074-15.984-35.455-7.406-43.644"/>
			<path fill="none" stroke="#000000" stroke-width="2" stroke-linecap="round" stroke-miterlimit="10" d="M219.961,323.9
				c3.618,12.186,5.167,27.634,7.25,43.538"/>
		</g>
		<g id="leafLeft">
			<path fill="#FFFFFF" stroke="#000000" stroke-width="2" stroke-linecap="round" stroke-miterlimit="10" d="M220.729,321.743
				c0.924,9.182-10.081,18.456-26.388,21.981l-0.039-0.048c6.367-15.421,17.527-24.667,26.398-22.125"/>
			<path fill="none" stroke="#000000" stroke-width="2" stroke-linecap="round" stroke-miterlimit="10" d="M220.729,321.743
				c-6.761,7.22-16.526,14.331-26.388,21.981"/>
		</g>
	</g>
	<g id="petals">
		<g id="petalsRight">
			<path fill="#FFFFFF" stroke="#000000" stroke-width="2" stroke-linecap="round" stroke-miterlimit="10" d="M258.608,316.63
				c-5.018,1.639-11.372-3.958-15.092-13.451l0.021-0.029c9.281,2.058,15.637,7.752,15.175,13.439"/>
			<path fill="#FFFFFF" stroke="#000000" stroke-width="2" stroke-linecap="round" stroke-miterlimit="10" d="M264.127,310.976
				c-4.534,2.861-11.905-0.979-17.541-9.275l0.015-0.034c9.466-0.341,16.859,3.595,17.618,9.244"/>
			<path fill="#FFFFFF" stroke="#000000" stroke-width="2" stroke-linecap="round" stroke-miterlimit="10" d="M266.053,300.054
				c-3.256,4.472-11.405,3.843-19.438-1.625l0.002-0.038c8.693-4.098,16.895-3.389,19.5,1.564"/>
			<path fill="#FFFFFF" stroke="#000000" stroke-width="2" stroke-linecap="round" stroke-miterlimit="10" d="M263.342,290.152
				c-1.474,5.478-9.243,8.234-18.573,6.459l-0.01-0.035c6.641-7.36,14.486-10.064,18.608-6.542"/>
			<path fill="#FFFFFF" stroke="#000000" stroke-width="2" stroke-linecap="round" stroke-miterlimit="10" d="M257.21,282.067
				c1.284,5.534-4.124,12.209-12.988,15.845l-0.025-0.025c2.291-10.015,7.789-16.687,12.98-15.935"/>
			<path fill="#FFFFFF" stroke="#000000" stroke-width="2" stroke-linecap="round" stroke-miterlimit="10" d="M245.393,278.587
				c4.317,3.233,4.301,12.413-0.152,21.413h-0.034c-4.348-9-4.263-18.22,0.092-21.392"/>
			<path fill="#FFFFFF" stroke="#000000" stroke-width="2" stroke-linecap="round" stroke-miterlimit="10" d="M231.343,283.679
				c5.186-0.795,10.693,5.782,13.057,15.778l-0.026,0.024c-8.889-3.559-14.383-10.235-13.139-15.78"/>
			<path fill="#FFFFFF" stroke="#000000" stroke-width="2" stroke-linecap="round" stroke-miterlimit="10" d="M227.616,291.708
				c4.832-2.206,11.691,2.629,16.308,11.643l-0.02,0.031c-9.426-0.979-16.298-5.913-16.388-11.621"/>
			<path fill="#FFFFFF" stroke="#000000" stroke-width="2" stroke-linecap="round" stroke-miterlimit="10" d="M226.323,305.992
				c2.326-5.115,10.415-6.358,19.321-2.843l0.003,0.038c-7.711,5.988-15.869,7.165-19.367,2.916"/>
			<path fill="#FFFFFF" stroke="#000000" stroke-width="2" stroke-linecap="round" stroke-miterlimit="10" d="M230.062,316.161
				c0.106-5.708,6.941-10.584,16.374-11.534l0.017,0.032c-4.64,8.997-11.562,13.846-16.387,11.623"/>
			<path fill="#FFFFFF" stroke="#000000" stroke-width="2" stroke-linecap="round" stroke-miterlimit="10" d="M240.366,322.842
				c-3.548-4.199-1.713-12.875,4.49-20.676l0.033,0.01c2.366,9.993,0.45,18.715-4.443,20.751"/>
			<path fill="#FFFFFF" stroke="#000000" stroke-width="2" stroke-linecap="round" stroke-miterlimit="10" d="M249.453,324.087
				c-4.728-2.457-5.99-11.253-2.899-21.011l0.034-0.004c5.61,8.314,6.813,17.186,2.968,21.061"/>
		</g>
		<g id="petalsLeft">
			<path fill="#FFFFFF" stroke="#000000" stroke-width="2" stroke-linecap="round" stroke-miterlimit="10" d="M205.896,324.968
				c-3.584,1.639-8.122-3.958-10.779-13.451l0.015-0.029c6.629,2.058,11.168,7.752,10.838,13.439"/>
			<path fill="#FFFFFF" stroke="#000000" stroke-width="2" stroke-linecap="round" stroke-miterlimit="10" d="M209.835,319.314
				c-3.237,2.861-8.5-0.979-12.525-9.275l0.01-0.034c6.761-0.341,12.04,3.595,12.583,9.244"/>
			<path fill="#FFFFFF" stroke="#000000" stroke-width="2" stroke-linecap="round" stroke-miterlimit="10" d="M211.212,308.393
				c-2.326,4.472-8.145,3.843-13.882-1.625l0.002-0.037c6.208-4.099,12.065-3.389,13.926,1.564"/>
			<path fill="#FFFFFF" stroke="#000000" stroke-width="2" stroke-linecap="round" stroke-miterlimit="10" d="M209.275,298.491
				c-1.052,5.478-6.6,8.234-13.264,6.459l-0.007-0.035c4.742-7.359,10.345-10.063,13.29-6.542"/>
			<path fill="#FFFFFF" stroke="#000000" stroke-width="2" stroke-linecap="round" stroke-miterlimit="10" d="M204.897,290.405
				c0.916,5.534-2.946,12.209-9.276,15.845l-0.017-0.025c1.635-10.015,5.562-16.687,9.27-15.936"/>
			<path fill="#FFFFFF" stroke="#000000" stroke-width="2" stroke-linecap="round" stroke-miterlimit="10" d="M196.457,287.257
				c3.083,3.232,3.072,11.743-0.109,21.743h-0.024c-3.105-10-3.044-18.385,0.065-21.557"/>
			<path fill="#FFFFFF" stroke="#000000" stroke-width="2" stroke-linecap="round" stroke-miterlimit="10" d="M186.423,292.017
				c3.703-0.795,7.636,5.782,9.325,15.778l-0.019,0.024c-6.348-3.559-10.272-10.235-9.384-15.78"/>
			<path fill="#FFFFFF" stroke="#000000" stroke-width="2" stroke-linecap="round" stroke-miterlimit="10" d="M183.762,300.046
				c3.45-2.206,8.348,2.629,11.646,11.643l-0.014,0.031c-6.732-0.979-11.64-5.913-11.704-11.621"/>
			<path fill="#FFFFFF" stroke="#000000" stroke-width="2" stroke-linecap="round" stroke-miterlimit="10" d="M182.838,314.331
				c1.661-5.115,7.438-6.358,13.798-2.842l0.002,0.037c-5.507,5.989-11.334,7.165-13.832,2.917"/>
			<path fill="#FFFFFF" stroke="#000000" stroke-width="2" stroke-linecap="round" stroke-miterlimit="10" d="M185.508,324.499
				c0.076-5.707,4.957-10.584,11.693-11.534l0.013,0.032c-3.314,8.996-8.258,13.845-11.703,11.623"/>
			<path fill="#FFFFFF" stroke="#000000" stroke-width="2" stroke-linecap="round" stroke-miterlimit="10" d="M192.867,331.18
				c-2.534-4.199-1.223-12.875,3.207-20.676l0.023,0.01c1.689,9.993,0.321,18.715-3.173,20.751"/>
			<path fill="#FFFFFF" stroke="#000000" stroke-width="2" stroke-linecap="round" stroke-miterlimit="10" d="M199.356,332.426
				c-3.376-2.457-4.278-11.253-2.07-21.012l0.024-0.004c4.007,8.314,4.865,17.186,2.119,21.062"/>
		</g>
		<g id="petalsCenter">
			<path fill="#FFFFFF" stroke="#000000" stroke-width="2" stroke-linecap="round" stroke-miterlimit="10" d="M228.637,291.614
				c-5.728,1.639-12.98-3.957-17.227-13.45l0.024-0.029c10.595,2.058,17.85,7.752,17.322,13.439"/>
			<path fill="#FFFFFF" stroke="#000000" stroke-width="2" stroke-linecap="round" stroke-miterlimit="10" d="M234.937,285.96
				c-5.175,2.861-13.589-0.979-20.022-9.275l0.018-0.034c10.805-0.341,19.244,3.594,20.109,9.243"/>
			<path fill="#FFFFFF" stroke="#000000" stroke-width="2" stroke-linecap="round" stroke-miterlimit="10" d="M237.136,275.039
				c-3.717,4.472-13.019,3.843-22.188-1.625l0.002-0.037c9.923-4.098,19.286-3.389,22.26,1.564"/>
			<path fill="#FFFFFF" stroke="#000000" stroke-width="2" stroke-linecap="round" stroke-miterlimit="10" d="M234.041,265.137
				c-1.683,5.478-10.55,8.234-21.2,6.46l-0.012-0.036c7.581-7.359,16.536-10.063,21.242-6.542"/>
			<path fill="#FFFFFF" stroke="#000000" stroke-width="2" stroke-linecap="round" stroke-miterlimit="10" d="M227.041,257.051
				c1.465,5.535-4.707,12.209-14.825,15.845l-0.029-0.025c2.615-10.015,8.891-16.687,14.817-15.935"/>
			<path fill="#FFFFFF" stroke="#000000" stroke-width="2" stroke-linecap="round" stroke-miterlimit="10" d="M213.552,253.579
				c4.928,3.233,4.909,12.421-0.174,21.421h-0.039c-4.963-9-4.866-18.223,0.106-21.396"/>
			<path fill="#FFFFFF" stroke="#000000" stroke-width="2" stroke-linecap="round" stroke-miterlimit="10" d="M197.515,258.663
				c5.919-0.795,12.206,5.782,14.904,15.778l-0.029,0.024c-10.147-3.559-16.419-10.234-14.999-15.779"/>
			<path fill="#FFFFFF" stroke="#000000" stroke-width="2" stroke-linecap="round" stroke-miterlimit="10" d="M193.26,266.693
				c5.515-2.206,13.345,2.629,18.616,11.642l-0.022,0.031c-10.761-0.979-18.604-5.913-18.707-11.621"/>
			<path fill="#FFFFFF" stroke="#000000" stroke-width="2" stroke-linecap="round" stroke-miterlimit="10" d="M191.785,280.977
				c2.654-5.115,11.888-6.358,22.054-2.842l0.003,0.037c-8.803,5.989-18.114,7.166-22.107,2.917"/>
			<path fill="#FFFFFF" stroke="#000000" stroke-width="2" stroke-linecap="round" stroke-miterlimit="10" d="M196.052,291.145
				c0.122-5.707,7.922-10.584,18.69-11.534l0.019,0.032c-5.296,8.996-13.197,13.846-18.705,11.623"/>
			<path fill="#FFFFFF" stroke="#000000" stroke-width="2" stroke-linecap="round" stroke-miterlimit="10" d="M207.814,297.827
				c-4.05-4.199-1.956-12.875,5.125-20.676l0.038,0.01c2.701,9.993,0.514,18.715-5.072,20.75"/>
			<path fill="#FFFFFF" stroke="#000000" stroke-width="2" stroke-linecap="round" stroke-miterlimit="10" d="M218.187,299.072
				c-5.396-2.457-6.837-11.253-3.31-21.011l0.039-0.004c6.405,8.314,7.778,17.186,3.388,21.062"/>
		</g>
	</g>
	<g id="stamens">
		
			<ellipse id="stamenRight" fill="#FFFFFF" stroke="#000000" stroke-width="2" stroke-linecap="round" stroke-miterlimit="10" cx="245.458" cy="301.239" rx="5.556" ry="6.056"/>
		
			<ellipse id="stamenLeft" fill="#FFFFFF" stroke="#000000" stroke-width="2" stroke-linecap="round" stroke-miterlimit="10" cx="196.504" cy="309.578" rx="3.968" ry="6.055"/>
		
			<ellipse id="stamenCenter" fill="#FFFFFF" stroke="#000000" stroke-width="2" stroke-linecap="round" stroke-miterlimit="10" cx="213.627" cy="276.224" rx="6.342" ry="6.056"/>
	</g>
</g>
<g id="blinds">
	
		<rect id="blindsBottom" x="60" y="94" fill="none" stroke="#000000" stroke-width="2" stroke-miterlimit="10" width="453" height="4"/>
	
		<rect id="blindsMiddle" x="68" y="77" fill="none" stroke="#000000" stroke-width="2" stroke-miterlimit="10" width="438" height="17"/>
	<path id="blindsTop" fill="none" stroke="#000000" stroke-width="2" stroke-miterlimit="10" d="M505.625,77
		c4.418,0,8-6.054,8-14.063S510.043,49,505.625,49h-437c-4.418,0-8,5.929-8,13.938S64.207,77,68.625,77H505.625z"/>
</g>
<g id="cactus">
	
		<path id="cactusPotBody" fill="#FFFFFF" stroke="#000000" stroke-width="2" stroke-linecap="round" stroke-linejoin="round" stroke-miterlimit="10" d="
		M167.128,348.553l-4.713,40.053c-21.371,6.512-40.439,0-40.439,0l-4.715-40.053l49.867-0.09"/>
	
		<path id="cactusPotLip" fill="#FFFFFF" stroke="#000000" stroke-width="2" stroke-linecap="round" stroke-linejoin="round" stroke-miterlimit="10" d="
		M168,355l-0.184-11.004c-26.338,5.011-51.816-0.202-51.816-0.25v0.044v10.109l0.647,0.337C116.647,354.236,140.156,361.51,168,355"
		/>
	
		<path id="cactusPotTop" fill="none" stroke="#000000" stroke-width="2" stroke-linecap="round" stroke-linejoin="round" stroke-miterlimit="10" d="
		M167.474,343.834c-29.914-6.278-51.474-0.04-51.474-0.088C116,343.794,142.073,348.845,167.474,343.834z"/>
	<path id="cactusBody" fill="#FFFFFF" stroke="#000000" stroke-width="2" stroke-miterlimit="10" d="M149.85,344.399
		c0,0,0-4.334,0.199-5.443c0.2-1.109,2.094-3.226,3.49-3.126c1.397,0.103,5.285-2.116,7.378-3.225
		c2.094-1.108,5.483-7.055,7.179-10.079c1.695-3.024-0.997-5.745-0.997-5.745s-2.592-0.403-4.586,0.604
		c-1.995,1.008-4.761,6.731-4.761,6.731s-4.112,6.879-6.805,6.201c-2.692-0.677-1.826-5.735-1.826-5.735S150.017,284,142.24,284
		h0.331c-8.45,0-7.475,25.363-7.475,25.363s0.221,4.386-3.817,4.717c-4.037,0.329-4.486-2.452-4.86-3.662
		c-0.374-1.209-1.72-6.833-1.944-6.91c-0.224-0.075-1.271-4.324-3.589-2.963c-2.318,1.361-1.646,3.318-1.496,4.604
		c0.15,1.285,1.645,8.313,1.645,8.313s2.618,10.506,3.889,11.035c1.271,0.529,2.692,1.51,6.655,1.813
		c3.963,0.302,3.665,2.419,4.038,3.251c0.375,0.831,1.122,7.558,1.196,8.012c0.075,0.453,0.075,6.826,0.075,6.826"/>
	<g id="thorns">
		<g>
			<path d="M134.083,292.191c0,0,1.307-0.32,2.593-0.438c0.321-0.026,0.654-0.163,0.951-0.146c0.295,0.031,0.561,0.162,0.783,0.323
				c0.448,0.298,0.717,0.777,0.717,0.777l-0.021,0.199c0,0-0.361,0.415-0.859,0.616c-0.25,0.113-0.537,0.187-0.833,0.158
				c-0.294-0.043-0.592-0.245-0.901-0.335c-1.236-0.376-2.451-0.954-2.451-0.954L134.083,292.191z"/>
		</g>
		<g>
			<path d="M132.803,335.709c0,0,1.307-0.32,2.594-0.438c0.321-0.026,0.654-0.163,0.951-0.146c0.295,0.032,0.561,0.162,0.783,0.323
				c0.448,0.298,0.717,0.777,0.717,0.777l-0.021,0.199c0,0-0.361,0.414-0.859,0.616c-0.25,0.113-0.537,0.187-0.833,0.158
				c-0.294-0.044-0.592-0.245-0.902-0.335c-1.236-0.375-2.451-0.954-2.451-0.954L132.803,335.709z"/>
		</g>
		<g>
			<path d="M136.643,296.031c0,0,1.307-0.32,2.593-0.438c0.321-0.026,0.654-0.163,0.951-0.146c0.295,0.031,0.561,0.162,0.783,0.323
				c0.448,0.298,0.717,0.777,0.717,0.777l-0.021,0.199c0,0-0.361,0.415-0.859,0.616c-0.25,0.113-0.537,0.187-0.833,0.158
				c-0.294-0.043-0.592-0.245-0.901-0.335c-1.236-0.376-2.451-0.954-2.451-0.954L136.643,296.031z"/>
		</g>
		<g>
			<path d="M160.242,321.646c0,0,1.281,0.413,2.438,0.986c0.287,0.146,0.642,0.205,0.886,0.375c0.235,0.182,0.393,0.432,0.498,0.686
				c0.225,0.489,0.203,1.038,0.204,1.038l-0.122,0.159c0,0-0.524,0.164-1.055,0.074c-0.272-0.035-0.555-0.123-0.792-0.302
				c-0.228-0.191-0.376-0.519-0.592-0.758c-0.856-0.968-1.588-2.098-1.588-2.098L160.242,321.646z"/>
		</g>
		<g>
			<path d="M154.563,324.19c0,0,1.307-0.32,2.594-0.438c0.321-0.026,0.654-0.163,0.951-0.146c0.295,0.032,0.561,0.162,0.783,0.323
				c0.448,0.298,0.717,0.777,0.717,0.777l-0.021,0.199c0,0-0.361,0.414-0.859,0.616c-0.25,0.113-0.537,0.187-0.833,0.158
				c-0.294-0.044-0.592-0.245-0.902-0.335c-1.236-0.375-2.451-0.954-2.451-0.954L154.563,324.19z"/>
		</g>
		<g>
			<path d="M150.44,294.841c0,0-1.345-0.039-2.617-0.267c-0.316-0.061-0.673-0.017-0.955-0.112c-0.276-0.109-0.498-0.306-0.669-0.52
				c-0.352-0.406-0.484-0.939-0.484-0.939l0.072-0.187c0,0,0.458-0.304,0.992-0.365c0.271-0.042,0.567-0.037,0.845,0.069
				c0.272,0.12,0.505,0.394,0.78,0.563c1.091,0.69,2.109,1.571,2.109,1.571L150.44,294.841z"/>
		</g>
		<g>
			<path d="M171.105,322.345c0,0-1.307,0.32-2.593,0.438c-0.321,0.026-0.654,0.163-0.951,0.146
				c-0.295-0.032-0.561-0.162-0.784-0.323c-0.447-0.298-0.717-0.777-0.717-0.777l0.021-0.199c0,0,0.361-0.415,0.859-0.616
				c0.25-0.113,0.537-0.187,0.833-0.158c0.294,0.043,0.592,0.245,0.901,0.335c1.236,0.375,2.451,0.954,2.451,0.954L171.105,322.345z
				"/>
		</g>
		<g>
			<path d="M147.823,300.084c0,0-1.341-0.111-2.599-0.407c-0.313-0.078-0.672-0.053-0.948-0.164
				c-0.271-0.124-0.48-0.332-0.641-0.555c-0.33-0.425-0.433-0.965-0.433-0.965l0.082-0.182c0,0,0.474-0.278,1.011-0.311
				c0.273-0.027,0.568-0.007,0.839,0.114c0.265,0.135,0.484,0.42,0.749,0.604c1.053,0.749,2.022,1.683,2.022,1.683L147.823,300.084z
				"/>
		</g>
		<g>
			<path d="M150.383,343.604c0,0-1.342-0.111-2.599-0.408c-0.313-0.078-0.672-0.054-0.948-0.164
				c-0.271-0.124-0.481-0.332-0.641-0.555c-0.33-0.425-0.433-0.965-0.433-0.964l0.082-0.183c0,0,0.474-0.278,1.011-0.311
				c0.273-0.027,0.568-0.006,0.84,0.115c0.265,0.135,0.484,0.42,0.749,0.604c1.053,0.749,2.022,1.683,2.022,1.683L150.383,343.604z"
				/>
		</g>
		<g>
			<path d="M146.777,315.25c0,0-1.042-0.853-1.908-1.811c-0.214-0.241-0.523-0.425-0.688-0.673c-0.152-0.255-0.208-0.545-0.212-0.82
				c-0.03-0.537,0.191-1.04,0.191-1.04l0.171-0.104c0,0,0.548,0.04,1.009,0.318c0.24,0.132,0.471,0.317,0.626,0.571
				c0.142,0.262,0.16,0.621,0.273,0.922c0.442,1.214,0.709,2.533,0.709,2.533L146.777,315.25z"/>
		</g>
		<g>
			<path d="M144.217,342.13c0,0-1.042-0.853-1.908-1.812c-0.213-0.241-0.522-0.425-0.688-0.673c-0.152-0.255-0.207-0.546-0.212-0.82
				c-0.03-0.537,0.191-1.041,0.191-1.04l0.171-0.104c0,0,0.548,0.04,1.009,0.318c0.241,0.133,0.472,0.317,0.626,0.571
				c0.142,0.261,0.16,0.621,0.273,0.922c0.441,1.214,0.709,2.533,0.708,2.533L144.217,342.13z"/>
		</g>
		<g>
			<path d="M151.896,337.011c0,0-1.042-0.854-1.908-1.812c-0.213-0.241-0.522-0.425-0.687-0.673
				c-0.152-0.255-0.208-0.546-0.212-0.82c-0.03-0.537,0.191-1.04,0.191-1.04l0.171-0.104c0,0,0.548,0.04,1.009,0.318
				c0.24,0.133,0.472,0.317,0.626,0.571c0.142,0.261,0.16,0.621,0.273,0.922c0.441,1.214,0.708,2.533,0.708,2.533L151.896,337.011z"
				/>
		</g>
		<g>
			<path d="M145.497,335.73c0,0-1.042-0.853-1.908-1.812c-0.213-0.241-0.522-0.425-0.688-0.673c-0.152-0.255-0.207-0.546-0.212-0.82
				c-0.03-0.537,0.191-1.04,0.191-1.04l0.171-0.104c0,0,0.548,0.04,1.009,0.318c0.241,0.133,0.472,0.317,0.626,0.571
				c0.142,0.261,0.16,0.621,0.273,0.922c0.441,1.214,0.709,2.533,0.708,2.533L145.497,335.73z"/>
		</g>
		<g>
			<path d="M144.217,324.21c0,0-1.042-0.853-1.908-1.811c-0.213-0.242-0.522-0.425-0.688-0.673c-0.152-0.255-0.207-0.546-0.212-0.82
				c-0.03-0.537,0.191-1.04,0.191-1.04l0.171-0.104c0,0,0.548,0.04,1.009,0.318c0.241,0.132,0.472,0.317,0.626,0.571
				c0.142,0.262,0.16,0.621,0.273,0.922c0.441,1.214,0.709,2.533,0.708,2.533L144.217,324.21z"/>
		</g>
		<g>
			<path d="M167.765,332.673c0,0-1.895-0.604-3.685-1.382c-0.446-0.198-0.949-0.299-1.345-0.521
				c-0.389-0.233-0.701-0.539-0.942-0.843c-0.495-0.587-0.681-1.221-0.681-1.221l0.103-0.172c0,0,0.646-0.138,1.398,0.019
				c0.382,0.067,0.799,0.196,1.189,0.427c0.383,0.244,0.712,0.638,1.098,0.936c1.536,1.205,2.968,2.584,2.968,2.584L167.765,332.673
				z"/>
		</g>
		<g>
			<path d="M117.236,314.988c0,0,1.723-0.992,3.504-1.79c0.447-0.196,0.861-0.499,1.292-0.643c0.435-0.129,0.87-0.154,1.257-0.127
				c0.768,0.03,1.361,0.32,1.361,0.32l0.058,0.191c0,0-0.333,0.57-0.956,1.02c-0.308,0.237-0.684,0.458-1.118,0.59
				c-0.438,0.118-0.951,0.096-1.431,0.18c-1.925,0.322-3.91,0.45-3.91,0.45L117.236,314.988z"/>
		</g>
		<g>
			<path d="M147.823,307.764c0,0-1.341-0.111-2.599-0.408c-0.313-0.078-0.672-0.053-0.948-0.164c-0.27-0.124-0.48-0.332-0.64-0.555
				c-0.33-0.425-0.433-0.965-0.433-0.965l0.082-0.182c0,0,0.474-0.278,1.011-0.311c0.273-0.027,0.568-0.006,0.839,0.115
				c0.265,0.135,0.484,0.42,0.749,0.604c1.053,0.749,2.022,1.683,2.022,1.683L147.823,307.764z"/>
		</g>
		<g>
			<path d="M147.823,329.524c0,0-1.341-0.111-2.599-0.408c-0.313-0.078-0.672-0.054-0.948-0.164c-0.27-0.124-0.48-0.332-0.64-0.555
				c-0.33-0.425-0.433-0.965-0.433-0.965l0.082-0.182c0,0,0.474-0.278,1.011-0.311c0.273-0.027,0.568-0.006,0.839,0.115
				c0.265,0.135,0.484,0.42,0.749,0.604c1.053,0.749,2.022,1.683,2.022,1.683L147.823,329.524z"/>
		</g>
		<g>
			<path d="M140.256,315.559c0,0-0.412-1.282-0.621-2.557c-0.048-0.319-0.208-0.641-0.213-0.938
				c0.011-0.297,0.122-0.571,0.267-0.805c0.266-0.467,0.725-0.77,0.724-0.77l0.2,0.006c0,0,0.439,0.331,0.675,0.814
				c0.13,0.242,0.224,0.522,0.216,0.819c-0.022,0.297-0.202,0.608-0.271,0.923c-0.288,1.26-0.778,2.513-0.778,2.513L140.256,315.559
				z"/>
		</g>
		<g>
			<path d="M132.464,316.725c0,0-1.342-0.111-2.599-0.408c-0.313-0.078-0.672-0.054-0.948-0.164c-0.27-0.124-0.48-0.332-0.641-0.555
				c-0.33-0.425-0.433-0.965-0.433-0.965l0.082-0.182c0,0,0.474-0.278,1.011-0.311c0.273-0.027,0.568-0.006,0.84,0.115
				c0.265,0.135,0.484,0.42,0.749,0.604c1.053,0.749,2.022,1.683,2.022,1.683L132.464,316.725z"/>
		</g>
		<g>
			<path d="M159.343,335.924c0,0-1.342-0.111-2.599-0.408c-0.313-0.078-0.672-0.054-0.948-0.164c-0.27-0.124-0.48-0.332-0.641-0.555
				c-0.33-0.425-0.433-0.965-0.433-0.965l0.082-0.182c0,0,0.474-0.278,1.011-0.311c0.273-0.027,0.568-0.006,0.84,0.115
				c0.265,0.135,0.484,0.42,0.749,0.604c1.053,0.749,2.022,1.683,2.022,1.683L159.343,335.924z"/>
		</g>
		<g>
			<path d="M142.59,294.117c0,0-0.476-1.242-0.748-2.488c-0.064-0.312-0.24-0.621-0.259-0.914c-0.004-0.293,0.093-0.569,0.226-0.806
				c0.242-0.474,0.685-0.795,0.685-0.795l0.2-0.004c0,0,0.455,0.304,0.715,0.768c0.142,0.232,0.25,0.503,0.257,0.796
				c-0.008,0.293-0.172,0.609-0.224,0.923c-0.224,1.255-0.651,2.515-0.651,2.515L142.59,294.117z"/>
		</g>
		<g>
			<path d="M137.803,325.212c0,0-2.173-0.97-4.229-2.107c-0.512-0.287-1.088-0.483-1.544-0.786
				c-0.448-0.315-0.808-0.692-1.087-1.057c-0.574-0.708-0.794-1.411-0.794-1.411l0.114-0.164c0,0,0.736-0.033,1.598,0.264
				c0.438,0.139,0.915,0.348,1.365,0.661c0.44,0.325,0.822,0.799,1.267,1.182c1.771,1.543,3.427,3.253,3.427,3.253L137.803,325.212z
				"/>
		</g>
		<g>
			<path d="M156.593,320.613c0,0-2.25,0.775-4.528,1.35c-0.57,0.14-1.125,0.39-1.665,0.48c-0.542,0.076-1.063,0.046-1.516-0.029
				c-0.903-0.125-1.544-0.488-1.544-0.488l-0.028-0.198c0,0,0.515-0.526,1.348-0.898c0.415-0.198,0.906-0.372,1.448-0.45
				c0.544-0.064,1.146,0.022,1.733-0.002c2.348-0.083,4.725,0.036,4.725,0.036L156.593,320.613z"/>
		</g>
		<g>
			<path d="M130.134,337.854c0,0,2.553,0.927,5.006,2.031c0.612,0.28,1.278,0.461,1.831,0.759c0.545,0.311,1.004,0.688,1.374,1.056
				c0.75,0.713,1.112,1.434,1.112,1.434l-0.099,0.174c0,0-0.804,0.061-1.802-0.216c-0.505-0.128-1.065-0.327-1.612-0.635
				c-0.54-0.321-1.039-0.799-1.592-1.18c-2.208-1.536-4.316-3.249-4.316-3.249L130.134,337.854z"/>
		</g>
		<g>
			<path d="M128.829,330.88c0,0,0.515-1.917,1.208-3.737c0.177-0.453,0.255-0.959,0.457-1.365c0.215-0.398,0.505-0.723,0.798-0.977
				c0.563-0.52,1.188-0.734,1.187-0.734l0.177,0.095c0,0,0.167,0.638,0.046,1.395c-0.05,0.384-0.159,0.805-0.372,1.205
				c-0.226,0.393-0.604,0.738-0.883,1.137c-1.131,1.586-2.442,3.076-2.442,3.076L128.829,330.88z"/>
		</g>
		<g>
			<path d="M139.428,309.389c0,0-0.162-1.32-0.125-2.595c0.013-0.318-0.083-0.661-0.031-0.949c0.067-0.286,0.228-0.529,0.414-0.728
				c0.349-0.401,0.857-0.606,0.856-0.606l0.195,0.045c0,0,0.368,0.405,0.508,0.918c0.082,0.259,0.121,0.549,0.057,0.835
				c-0.078,0.283-0.313,0.55-0.44,0.842c-0.521,1.164-1.239,2.283-1.239,2.283L139.428,309.389z"/>
		</g>
		<g>
			<path d="M139.428,336.269c0,0-0.162-1.32-0.125-2.595c0.013-0.318-0.083-0.66-0.031-0.949c0.067-0.286,0.228-0.529,0.414-0.728
				c0.349-0.401,0.857-0.606,0.857-0.606l0.195,0.045c0,0,0.368,0.405,0.508,0.918c0.082,0.259,0.121,0.549,0.057,0.835
				c-0.078,0.283-0.313,0.55-0.44,0.842c-0.521,1.164-1.239,2.283-1.239,2.283L139.428,336.269z"/>
		</g>
		<g>
			<path d="M138.148,331.149c0,0-0.162-1.32-0.125-2.595c0.013-0.318-0.083-0.66-0.031-0.949c0.066-0.286,0.228-0.529,0.414-0.728
				c0.349-0.401,0.857-0.606,0.856-0.606l0.195,0.045c0,0,0.368,0.405,0.508,0.917c0.082,0.26,0.121,0.549,0.058,0.835
				c-0.079,0.283-0.314,0.55-0.44,0.842c-0.52,1.164-1.239,2.283-1.239,2.283L138.148,331.149z"/>
		</g>
		<g>
			<path d="M135.595,321.372c0,0,0.627-1.173,1.391-2.194c0.194-0.252,0.313-0.588,0.521-0.794c0.219-0.195,0.491-0.302,0.757-0.357
				c0.517-0.127,1.049-0.002,1.049-0.002l0.134,0.148c0,0,0.068,0.543-0.113,1.043c-0.083,0.259-0.217,0.519-0.434,0.716
				c-0.227,0.186-0.573,0.269-0.844,0.435c-1.096,0.652-2.328,1.154-2.328,1.153L135.595,321.372z"/>
		</g>
		<g>
			<path d="M154.794,331.611c0,0,0.628-1.173,1.392-2.194c0.193-0.252,0.312-0.588,0.521-0.794c0.219-0.195,0.491-0.302,0.758-0.356
				c0.517-0.127,1.049-0.002,1.049-0.002l0.134,0.148c0,0,0.068,0.543-0.113,1.043c-0.082,0.259-0.217,0.519-0.434,0.716
				c-0.227,0.186-0.573,0.269-0.845,0.435c-1.096,0.652-2.328,1.154-2.328,1.153L154.794,331.611z"/>
		</g>
		<g>
			<path d="M126.628,322.188c0,0-0.162-1.32-0.125-2.594c0.013-0.318-0.083-0.661-0.031-0.95c0.067-0.285,0.228-0.529,0.414-0.727
				c0.349-0.401,0.857-0.606,0.856-0.606l0.195,0.045c0,0,0.368,0.405,0.508,0.918c0.082,0.259,0.121,0.549,0.057,0.835
				c-0.079,0.283-0.314,0.55-0.44,0.841c-0.521,1.164-1.239,2.283-1.239,2.283L126.628,322.188z"/>
		</g>
		<g>
			<path d="M158.416,318.63c0,0,1.076-0.143,2.091-0.091c0.253,0.017,0.539-0.074,0.763-0.019c0.221,0.069,0.397,0.23,0.534,0.417
				c0.28,0.348,0.384,0.85,0.384,0.85l-0.059,0.191c0,0-0.367,0.357-0.794,0.489c-0.217,0.077-0.454,0.112-0.675,0.046
				c-0.217-0.081-0.403-0.315-0.622-0.443c-0.871-0.526-1.681-1.247-1.681-1.247L158.416,318.63z"/>
		</g>
		<g>
			<path d="M122.111,310.756c0,0-0.476-1.242-0.748-2.488c-0.064-0.312-0.24-0.621-0.259-0.914
				c-0.004-0.293,0.093-0.569,0.227-0.806c0.242-0.474,0.685-0.795,0.685-0.795l0.2-0.004c0,0,0.455,0.304,0.715,0.768
				c0.142,0.232,0.25,0.503,0.257,0.797c-0.008,0.293-0.171,0.609-0.224,0.923c-0.224,1.255-0.652,2.515-0.652,2.515
				L122.111,310.756z"/>
		</g>
		<g>
			<path d="M136.626,301.813c0,0,0.822-1.045,1.752-1.918c0.234-0.215,0.41-0.524,0.651-0.691c0.25-0.154,0.536-0.212,0.808-0.219
				c0.531-0.035,1.034,0.181,1.034,0.181l0.105,0.169c0,0-0.027,0.546-0.292,1.007c-0.126,0.241-0.304,0.473-0.552,0.629
				c-0.256,0.144-0.611,0.165-0.907,0.281c-1.192,0.451-2.493,0.73-2.493,0.73L136.626,301.813z"/>
		</g>
		<g>
			<path d="M116.147,309.492c0,0,0.822-1.045,1.751-1.917c0.235-0.215,0.41-0.525,0.651-0.691c0.25-0.154,0.536-0.211,0.808-0.219
				c0.531-0.035,1.034,0.18,1.034,0.18l0.105,0.17c0,0-0.027,0.546-0.292,1.007c-0.126,0.241-0.304,0.473-0.552,0.629
				c-0.256,0.144-0.611,0.165-0.907,0.281c-1.193,0.451-2.493,0.73-2.493,0.73L116.147,309.492z"/>
		</g>
		<g>
			<path d="M132.401,288.007c0,0,2.064-0.272,4.111-0.341c0.511-0.014,1.032-0.138,1.508-0.11c0.474,0.043,0.908,0.184,1.276,0.355
				c0.737,0.317,1.204,0.809,1.204,0.809l-0.018,0.199c0,0-0.545,0.403-1.327,0.586c-0.392,0.104-0.843,0.167-1.318,0.126
				c-0.473-0.055-0.964-0.269-1.466-0.372c-2.003-0.425-3.988-1.053-3.988-1.054L132.401,288.007z"/>
		</g>
		<g>
			<path d="M117.245,323.087c0,0,1.741-1.142,3.554-2.093c0.455-0.234,0.87-0.573,1.311-0.754c0.446-0.167,0.898-0.229,1.303-0.235
				c0.802-0.035,1.436,0.206,1.436,0.206l0.07,0.187c0,0-0.316,0.6-0.94,1.104c-0.308,0.264-0.688,0.517-1.132,0.687
				c-0.451,0.156-0.986,0.177-1.482,0.302c-1.989,0.487-4.049,0.784-4.049,0.784L117.245,323.087z"/>
		</g>
		<g>
			<path d="M131.121,304.647c0,0,2.064-0.272,4.111-0.341c0.511-0.013,1.032-0.138,1.508-0.11c0.475,0.043,0.909,0.185,1.276,0.355
				c0.737,0.317,1.204,0.809,1.204,0.809l-0.018,0.199c0,0-0.545,0.403-1.327,0.586c-0.392,0.104-0.844,0.167-1.318,0.127
				c-0.474-0.055-0.965-0.269-1.466-0.372c-2.003-0.425-3.988-1.053-3.988-1.054L131.121,304.647z"/>
		</g>
		<g>
			<path d="M129.841,332.806c0,0,2.064-0.272,4.111-0.341c0.511-0.014,1.032-0.138,1.508-0.11c0.474,0.043,0.908,0.185,1.276,0.355
				c0.737,0.317,1.204,0.809,1.204,0.809l-0.018,0.199c0,0-0.545,0.403-1.327,0.586c-0.392,0.104-0.844,0.167-1.318,0.127
				c-0.473-0.055-0.965-0.269-1.466-0.372c-2.003-0.425-3.988-1.053-3.988-1.053L129.841,332.806z"/>
		</g>
		<g>
			<path d="M130.554,309.166c0,0,1.942,0.75,3.771,1.671c0.455,0.233,0.972,0.374,1.376,0.626c0.396,0.265,0.708,0.597,0.95,0.923
				c0.495,0.631,0.669,1.287,0.669,1.287l-0.111,0.166c0,0-0.672,0.092-1.445-0.122c-0.394-0.097-0.82-0.258-1.218-0.521
				c-0.389-0.275-0.718-0.699-1.108-1.029c-1.554-1.333-2.996-2.836-2.996-2.836L130.554,309.166z"/>
		</g>
		<g>
			<path d="M162.813,312.97c0,0,1.339,1.594,2.499,3.283c0.287,0.424,0.672,0.796,0.904,1.212c0.219,0.423,0.333,0.865,0.387,1.267
				c0.129,0.792-0.034,1.451-0.034,1.45l-0.178,0.093c0,0-0.633-0.244-1.208-0.804c-0.298-0.274-0.595-0.621-0.816-1.043
				c-0.208-0.429-0.292-0.958-0.475-1.436c-0.719-1.917-1.257-3.929-1.257-3.929L162.813,312.97z"/>
		</g>
		<g>
			<path d="M150.749,285.898c0,0-2.021,0.503-4.046,0.804c-0.506,0.071-1.01,0.254-1.486,0.28c-0.476,0.011-0.923-0.081-1.308-0.208
				c-0.769-0.231-1.288-0.667-1.288-0.667l-0.005-0.2c0,0,0.497-0.462,1.252-0.732c0.377-0.147,0.819-0.262,1.295-0.275
				c0.477,0.001,0.989,0.159,1.499,0.204c2.039,0.196,4.082,0.596,4.082,0.596L150.749,285.898z"/>
		</g>
		<g>
			<path d="M155.868,339.58c0,0-2.01,0.542-4.03,0.88c-0.505,0.081-1.005,0.273-1.48,0.308c-0.476,0.02-0.925-0.063-1.312-0.183
				c-0.772-0.217-1.3-0.643-1.3-0.643l-0.009-0.2c0,0,0.488-0.471,1.238-0.756c0.375-0.154,0.814-0.277,1.29-0.299
				c0.477-0.008,0.992,0.139,1.502,0.175c2.042,0.157,4.093,0.518,4.093,0.518L155.868,339.58z"/>
		</g>
		<g>
			<path d="M127.324,302.924c0,0-1.209,0.486-2.425,0.77c-0.304,0.067-0.605,0.246-0.891,0.267c-0.286,0.007-0.557-0.088-0.79-0.219
				c-0.465-0.238-0.784-0.678-0.784-0.678l-0.006-0.2c0,0,0.293-0.458,0.744-0.721c0.225-0.145,0.49-0.254,0.776-0.264
				c0.287,0.005,0.597,0.167,0.904,0.216c1.229,0.213,2.465,0.63,2.465,0.63L127.324,302.924z"/>
		</g>
		<g>
			<path d="M153.181,301.533c0,0-1.833,0.987-3.722,1.779c-0.473,0.194-0.916,0.496-1.371,0.639
				c-0.459,0.128-0.915,0.15-1.319,0.121c-0.802-0.034-1.413-0.328-1.413-0.328l-0.055-0.192c0,0,0.367-0.57,1.032-1.019
				c0.33-0.236,0.729-0.456,1.188-0.586c0.462-0.117,0.997-0.091,1.502-0.173c2.023-0.314,4.102-0.432,4.102-0.432L153.181,301.533z
				"/>
		</g>
		<g>
			<path d="M153.71,314.298c0,0-1.631,0.992-3.323,1.79c-0.424,0.196-0.815,0.498-1.225,0.642c-0.415,0.13-0.832,0.155-1.205,0.129
				c-0.739-0.029-1.316-0.317-1.316-0.317l-0.061-0.19c0,0,0.306-0.568,0.893-1.018c0.29-0.236,0.646-0.457,1.059-0.59
				c0.418-0.119,0.912-0.097,1.371-0.182c1.843-0.324,3.747-0.455,3.747-0.455L153.71,314.298z"/>
		</g>
	</g>
</g>
<g id="thermometer">
	
		<rect id="thermoMount" x="452" y="318" fill="#FFFFFF" stroke="#000000" stroke-width="2" stroke-miterlimit="10" width="29" height="71"/>
	<path id="mercury" fill="#FFFFFF" stroke="#000000" stroke-width="2" stroke-miterlimit="10" d="M468,378
		c1.221,0.516,1.831,1.342,1.831,2.751c0,1.879-1.516,3.402-3.394,3.402c-1.879,0-3.426-1.523-3.426-3.402
		c0-1.384,0.99-2.22,1.99-2.751l0,0v-52.173c0-1.286,0.671-2.327,1.5-2.327l0,0c0.829,0,1.5,1.042,1.5,2.327V378z"/>
	<g id="thermoText">
		<path d="M471.98,336.641h5.325c0.312,0,0.6,0.168,0.6,0.6c0,0.432-0.288,0.6-0.6,0.6h-4.125v1.847h2.95c0.312,0,0.6,0.168,0.6,0.6
			c0,0.432-0.288,0.6-0.6,0.6h-2.95v4.486c0,0.384-0.168,0.6-0.6,0.6c-0.432,0-0.6-0.216-0.6-0.6V336.641z"/>
		<path d="M459.456,345.972c-0.899,0-1.415-0.36-1.799-1.139l-1.104-2.231c-0.204-0.408-0.324-0.792-0.324-1.259
			c0-0.528,0.096-0.852,0.335-1.332l1.104-2.219c0.408-0.827,0.923-1.151,1.847-1.151h2.039c0.264,0,0.6,0.144,0.6,0.6
			c0,0.432-0.324,0.6-0.6,0.6h-2.003c-0.516,0-0.6,0.048-0.827,0.503l-1.043,2.087c-0.156,0.324-0.252,0.54-0.252,0.912
			c0,0.336,0.108,0.54,0.252,0.828l1.019,2.075c0.24,0.492,0.36,0.528,0.9,0.528h1.955c0.264,0,0.6,0.144,0.6,0.6
			c0,0.432-0.324,0.6-0.6,0.6H459.456z"/>
	</g>
</g>
<g id="diary">
	
		<polygon id="diaryBottom" fill="#FFFFFF" stroke="#000000" stroke-width="2" stroke-linecap="round" stroke-linejoin="round" stroke-miterlimit="10" points="
		1060.343,617.123 950.632,576.329 887.745,597.001 998.237,641.569 	"/>
	<path id="diaryPages" fill="#FFFFFF" stroke="#000000" stroke-width="2" stroke-linecap="round" stroke-miterlimit="10" d="
		M1054.849,607.951L998.9,629.975l-0.059-0.023l-2.307,8.536l58.344-22.937C1054.879,615.551,1054.51,611.386,1054.849,607.951z"/>
	
		<polygon id="diaryCover" fill="#FFFFFF" stroke="#000000" stroke-width="2" stroke-linecap="round" stroke-linejoin="round" stroke-miterlimit="10" points="
		1065.528,605.941 950.159,563.329 884.028,584.923 1000.222,631.479 	"/>
	<path id="diarySpine" fill="#FFFFFF" stroke="#000000" stroke-width="2" stroke-linecap="round" stroke-miterlimit="10" d="
		M997.131,628.576c2.711,1.08,4.664,3.092,4.399,4.297l-1.44,6.539c-0.268,1.207-2.714,1.461-5.423,0.378l-109.251-43.608
		c-2.71-1.08-4.663-3.091-4.396-4.297l1.435-6.543c0.27-1.206,2.716-1.457,5.425-0.381L997.131,628.576z"/>
	<g>
		<g>
			<g enable-background="new    ">
				<defs>
					<polygon id="SVGID_1_" enable-background="new    " points="909.724,594.297 917.878,561.569 1020.487,587.15 
						1012.333,619.878 					"/>
				</defs>
				<clipPath id="SVGID_2_">
					<use xlink:href="#SVGID_1_"  overflow="visible"/>
				</clipPath>
				<g clip-path="url(#SVGID_2_)">
					<g>
						<g>
							<g>
								<path d="M928.644,594.08l-12.958-5.73l0.172-0.059c0.611-0.225,0.732-0.284,1.871,0c0.041,0.01,0.083,0.021,0.125,0.031
									l4.937,1.256c0.846,0.217,1.426,0.349,2.194,0.689c0.56,0.248,0.823,0.453,1.189,0.737l2.77,2.211
									c0.581,0.456,0.556,0.558-0.034,0.769L928.644,594.08 M918.115,587.441c-1.972-0.491-3.219-0.606-4.292-0.216l-2.324,0.842
									c-0.429,0.156-0.488,0.434,0.322,0.791c0.218,0.096,0.423,0.165,0.616,0.214c0.556,0.139,1.01,0.097,1.351-0.028l0.51-0.187
									l12.958,5.728l-0.663,0.243c-0.366,0.131-0.384,0.39,0.427,0.747c0.236,0.104,0.458,0.18,0.664,0.231
									c0.498,0.124,0.896,0.105,1.148,0.012l2.306-0.841c1.09-0.392,1.194-0.847,0.088-1.729l-2.813-2.262
									c-0.556-0.446-1.162-0.839-2.066-1.235c-1.026-0.456-1.82-0.695-3.016-0.999l-5.168-1.298
									C918.146,587.449,918.132,587.445,918.115,587.441"/>
								<path d="M928.021,582.496c-0.502-0.125-0.902-0.106-1.162-0.016l-5.469,1.993c-0.366,0.131-0.384,0.39,0.427,0.747
									c0.234,0.104,0.455,0.179,0.661,0.23c0.497,0.123,0.898,0.106,1.151,0.012l2.041-0.744l12.958,5.73l-2.04,0.741
									c-0.357,0.134-0.375,0.392,0.426,0.747c0.236,0.104,0.459,0.181,0.665,0.231c0.498,0.124,0.897,0.106,1.157,0.014
									l5.468-1.99c0.366-0.131,0.385-0.39-0.426-0.747c-0.237-0.104-0.46-0.18-0.665-0.231c-0.498-0.124-0.896-0.105-1.148-0.012
									l-2.04,0.742l-12.967-5.729l2.049-0.743c0.357-0.13,0.376-0.392-0.426-0.747
									C928.446,582.621,928.226,582.547,928.021,582.496"/>
								<path d="M944.417,585.274l-4.993-3.079l0.031-0.011l7.144,2.298L944.417,585.274 M935.354,579.897
									c-0.47-0.117-0.916-0.172-1.231-0.058c-0.44,0.163-0.059,0.455,0.439,0.766l12.458,7.697
									c0.139,0.088,0.334,0.16,0.546,0.213c0.447,0.111,0.975,0.137,1.236,0.041c0.429-0.156,0.068-0.497-0.374-0.769
									l-2.159-1.383l2.957-1.074l3.21,1.003c0.156,0.05,0.321,0.098,0.49,0.141c0.517,0.128,1.052,0.198,1.375,0.08
									c0.396-0.139,0.188-0.533-0.447-0.736l-17.863-5.735C935.779,580.015,935.564,579.95,935.354,579.897"/>
								<path d="M947.825,579.486l-3.501-1.548l3.101-1.125c0.329-0.124,0.839-0.249,1.489-0.087c0.16,0.04,0.327,0.097,0.502,0.175
									l1.546,0.681c0.902,0.398,0.331,0.641-0.056,0.782L947.825,579.486 M949.209,575.852c-1.534-0.382-3.033-0.39-3.849-0.095
									l-4.671,1.694l16.326,7.217c0.254,0.111,0.493,0.197,0.718,0.253c0.41,0.103,0.772,0.106,1.095-0.01
									c0.5-0.184,0.293-0.432-0.426-0.751l-8.338-3.684l0.316-0.118l12.666,2.511c0.512,0.103,0.962,0.157,1.238,0.055
									c0.397-0.139,0.287-0.445-0.339-0.722c-0.193-0.086-0.426-0.156-0.668-0.217c-0.293-0.073-0.599-0.131-0.865-0.182
									l-10.349-2.057l1.275-0.466c1.111-0.401,1.123-1.271-0.991-2.204l-1.546-0.684
									C950.286,576.165,949.745,575.985,949.209,575.852"/>
								<path d="M957.953,571.561c-0.41-0.103-0.775-0.105-1.098,0.013c-0.5,0.183-0.284,0.433,0.427,0.747l1.528,0.676l2.237,2.633
									l-6.327-1.149l-1.52-0.674c-0.254-0.111-0.493-0.197-0.718-0.253c-0.41-0.103-0.772-0.106-1.095,0.011
									c-0.501,0.183-0.294,0.431,0.425,0.75l2.281,1.007l8.481,1.546l7.17,3.168c0.255,0.113,0.496,0.2,0.723,0.257
									c0.411,0.103,0.776,0.105,1.098-0.013c0.5-0.18,0.293-0.429-0.426-0.747l-7.176-3.172l-3.007-3.532l-2.28-1.01
									C958.422,571.704,958.181,571.617,957.953,571.561"/>
								<path d="M949.978,596.235c-0.452-0.113-0.896-0.144-1.166-0.046c-0.225,0.08-0.174,0.248-0.12,0.404l1.573,4.11
									l-5.155-2.281c-0.253-0.111-0.492-0.196-0.718-0.253c-0.413-0.103-0.78-0.107-1.104,0.012
									c-0.5,0.18-0.283,0.431,0.426,0.747l15.206,6.719c0.256,0.114,0.496,0.2,0.722,0.257c0.408,0.102,0.77,0.104,1.092-0.014
									c0.5-0.184,0.293-0.432-0.427-0.747l-5.18-2.291l9.683,1.012c0.49,0.039,1.135,0.134,1.422,0.024
									c0.407-0.143,0.128-0.479-0.498-0.756c-0.157-0.07-0.326-0.125-0.5-0.168c-0.269-0.067-0.549-0.106-0.808-0.133
									l-11.354-1.181l-1.809-4.657c-0.077-0.169-0.233-0.363-0.618-0.532C950.435,596.369,950.205,596.292,949.978,596.235"/>
								<path d="M959.919,592.567c-0.497-0.124-0.898-0.105-1.159-0.015l-6.161,2.245l17.438,7.707l6.169-2.24
									c0.358-0.133,0.385-0.39-0.426-0.747c-0.236-0.104-0.459-0.18-0.664-0.23c-0.498-0.125-0.896-0.106-1.148-0.012
									l-4.783,1.735l-5.354-2.369l2.039-0.741c0.358-0.133,0.376-0.392-0.425-0.747c-0.237-0.104-0.46-0.18-0.666-0.231
									c-0.497-0.124-0.896-0.105-1.148-0.012l-2.039,0.742l-5.365-2.369l4.774-1.738c0.366-0.131,0.386-0.393-0.425-0.75
									C960.342,592.692,960.123,592.618,959.919,592.567"/>
								<path d="M969.912,588.93c-0.497-0.124-0.895-0.104-1.147-0.01l-6.169,2.241l17.444,7.712l6.161-2.246
									c0.367-0.131,0.385-0.39-0.426-0.747c-0.234-0.104-0.455-0.179-0.661-0.229c-0.497-0.124-0.898-0.107-1.152-0.013
									l-4.773,1.738l-5.365-2.369l2.042-0.744c0.365-0.131,0.384-0.39-0.427-0.747c-0.234-0.104-0.455-0.179-0.658-0.229
									c-0.496-0.124-0.896-0.105-1.154-0.013l-2.04,0.741l-5.364-2.369l4.782-1.735c0.357-0.133,0.376-0.392-0.426-0.747
									C970.341,589.057,970.118,588.981,969.912,588.93"/>
								<path d="M982.592,590.826l-6.365-2.815l3.08-1.123c0.506-0.185,0.896-0.222,1.424-0.091c0.325,0.081,0.701,0.227,1.188,0.44
									l3.141,1.39c1.278,0.566,1.438,0.78,0.614,1.076L982.592,590.826 M981.081,585.918c-0.406-0.102-0.847-0.182-1.36-0.243
									c-1.261-0.156-1.877-0.06-2.52,0.171l-4.61,1.678l16.325,7.217c0.255,0.112,0.493,0.197,0.718,0.253
									c0.41,0.103,0.772,0.106,1.096-0.011c0.499-0.183,0.293-0.431-0.425-0.749l-5.474-2.418l3.049-1.105
									c0.746-0.274,1.224-0.52,0.778-1.151c-0.399-0.595-1.157-0.974-2.303-1.479l-3.05-1.347
									C982.511,586.381,981.858,586.111,981.081,585.918"/>
								<path d="M992.106,613.884c-0.041-0.011-0.083-0.021-0.124-0.031l-5.598-1.398c-0.645-0.165-1.128-0.31-1.712-0.57
									c-0.735-0.326-1.059-0.556-1.496-0.918l-2.808-2.249c-0.248-0.197-0.493-0.363-0.198-0.468
									c0.229-0.085,0.523-0.03,0.873,0.058c0.088,0.021,0.179,0.045,0.272,0.069l5.307,1.339c0.066,0.016,0.132,0.032,0.195,0.048
									c0.746,0.187,1.257,0.335,1.943,0.638c0.575,0.258,0.903,0.466,1.243,0.741l2.926,2.366
									c0.217,0.175,0.474,0.369,0.198,0.469C992.881,614.068,992.483,613.978,992.106,613.884 M981.443,607.459
									c-1.388-0.346-2.736-0.482-3.521-0.202c-0.776,0.283-0.561,0.838,0.164,1.425l3.065,2.477
									c0.612,0.483,1.172,0.807,2.133,1.23c1.077,0.478,1.93,0.709,3.123,1.014l5.403,1.359c0.012,0.003,0.022,0.006,0.035,0.009
									c1.4,0.349,2.723,0.487,3.521,0.195c0.806-0.29,0.581-0.839-0.161-1.436l-2.852-2.291c-0.645-0.507-1.137-0.87-2.207-1.344
									c-0.969-0.429-1.714-0.678-2.855-0.972L981.443,607.459"/>
								<path d="M991.758,602.614c-0.41-0.102-0.773-0.105-1.096,0.011c-0.501,0.184-0.294,0.432,0.425,0.75l12.507,5.529
									c1.263,0.556,1.336,0.78,0.715,1.006l-2.365,0.857c-0.389,0.143-0.75,0.176-1.269,0.046
									c-0.315-0.078-0.688-0.216-1.16-0.426l-12.508-5.526c-0.257-0.113-0.495-0.2-0.722-0.257
									c-0.408-0.102-0.77-0.104-1.092,0.014c-0.5,0.181-0.292,0.429,0.426,0.747l12.508,5.529c0.734,0.326,1.394,0.588,2.18,0.784
									c0.314,0.078,0.648,0.146,1.016,0.203c1.357,0.208,2.174,0.133,2.868-0.119l2.356-0.859
									c0.703-0.253,0.968-0.571,0.579-1.134c-0.368-0.533-1.108-0.915-2.135-1.37l-12.517-5.532
									C992.221,602.756,991.981,602.67,991.758,602.614"/>
								<path d="M1001.352,598.735l-6.855,2.498l3.05,1.347c0.253,0.113,0.492,0.199,0.718,0.256
									c0.408,0.102,0.773,0.105,1.095-0.013c0.5-0.181,0.293-0.429-0.426-0.747l-0.811-0.358l1.347-0.488l14.078,6.222
									c0.254,0.112,0.494,0.198,0.72,0.254c0.413,0.104,0.779,0.107,1.102-0.009c0.5-0.183,0.294-0.432-0.426-0.747l-14.086-6.228
									l1.355-0.487l0.802,0.355c0.256,0.113,0.495,0.2,0.721,0.257c0.409,0.102,0.77,0.104,1.092-0.015
									c0.5-0.183,0.293-0.431-0.426-0.746L1001.352,598.735"/>
							</g>
						</g>
					</g>
				</g>
			</g>
		</g>
	</g>
</g>
<g id="pig">
	<g id="tail">
		<g>
			<path d="M713.265,339.235c4.729-3.393,8.019-9.49,3.971-14.714c-3.644-4.704-8.408-2.648-7.958,3.321
				c0.44,5.846,8.392,5.478,12.201,3.924c6.108-2.492,5.479-11.161,5.44-16.509c-0.014-1.934-3.014-1.935-3,0
				c0.038,5.204,0.886,12.477-5.275,14.338c-1.352,0.408-2.765,0.337-4.123,0.05c-3.49-0.737-1.776-5.65,0.042-3.715
				c3.401,3.619,0.533,8.314-2.812,10.714C710.194,337.762,711.689,340.366,713.265,339.235L713.265,339.235z"/>
		</g>
	</g>
	<g id="eyes">
		<path id="eyeLeft" fill="none" stroke="#000000" stroke-width="2" stroke-miterlimit="10" d="M637.643,337.095
			c-0.831-0.298-1.917,0.256-2.424,1.237c-0.508,0.981-0.247,2.018,0.584,2.314c0.831,0.297,1.917-0.257,2.425-1.238
			C638.736,338.428,638.475,337.391,637.643,337.095z"/>
		<path id="eyeRight" fill="none" stroke="#000000" stroke-width="2" stroke-miterlimit="10" d="M648.417,336.991
			c-1.139-0.242-2.363,0.54-2.733,1.745c-0.371,1.206,0.253,2.379,1.392,2.62c1.139,0.241,2.362-0.541,2.732-1.746
			C650.179,338.405,649.555,337.232,648.417,336.991z"/>
	</g>
	<path id="snoutFront" fill="none" stroke="#000000" stroke-width="2" stroke-miterlimit="10" d="M644.695,359.836
		c0.994,7.229-3.685,13.61-10.45,14.251c-6.765,0.641-13.054-4.7-14.048-11.929s3.685-13.611,10.45-14.251
		C637.412,347.266,643.701,352.606,644.695,359.836z"/>
	<g id="nostrils">
		<path id="nostrilRight" fill="none" stroke="#000000" stroke-width="2" stroke-miterlimit="10" d="M636.354,356.006
			c-1.271-0.143-2.479,0.837-2.7,2.189c-0.222,1.352,0.629,2.564,1.899,2.708c1.271,0.143,2.479-0.837,2.7-2.189
			C638.475,357.362,637.625,356.149,636.354,356.006z"/>
		<path id="nostrilLeft" fill="none" stroke="#000000" stroke-width="2" stroke-miterlimit="10" d="M628.386,355.561
			c-1.279-0.07-2.402,0.979-2.508,2.34s0.845,2.521,2.125,2.589c1.28,0.068,2.402-0.979,2.508-2.342
			C630.617,356.787,629.666,355.628,628.386,355.561z"/>
	</g>
	<path id="coinSlot" fill="none" stroke="#000000" stroke-width="2" stroke-linecap="round" stroke-miterlimit="10" d="
		M649.247,324.693c8.429-5.118,9.011-5.223,19.783-6.963c-10.097,0.425-16.501,2.546-22.34,6.427L649.247,324.693z"/>
	<g id="bodyElements">
		<path id="pigBody" fill="none" stroke="#000000" stroke-width="2" stroke-miterlimit="10" d="M668.112,315.74
			c-25.186,3.541-45.948,17.171-46.095,37.573c1.865-2.983,4.931-5.056,8.63-5.406c6.765-0.642,13.054,4.699,14.048,11.929
			s-3.685,13.61-10.45,14.251c-1.813,0.172-3.588-0.098-5.241-0.707c1.553,2.018,3.353,3.895,5.335,5.633
			c7.161,0.108,13.039,3.712,13.995,8.396c0.355,0.146,0.714,0.293,1.089,0.444c2.139,0.786,4.367,1.438,6.66,1.962l-1.456-5.347
			c0-0.935,7.759-7.993,17.975-1.693l0.594,8.292c24.138-1.816,42.861-18.338,42.478-38.202
			C715.272,332.019,695.708,311.862,668.112,315.74z"/>
		<path id="legBack" fill="none" stroke="#000000" stroke-width="2" stroke-miterlimit="10" d="M691.224,386.636l3.02,8.506
			c12.27,0.663,16.319-5.901,16.319-5.901l-6.194-11.188C700.683,381.515,696.232,384.431,691.224,386.636z"/>
		<path id="legFrontRight" fill="none" stroke="#000000" stroke-width="2" stroke-linejoin="round" stroke-miterlimit="10" d="
			M656.933,392.932l-2.305-8.463c0-0.935,7.759-7.993,17.975-1.693l0.647,9.027C673.853,395.799,659.542,397.869,656.933,392.932z"
			/>
		
			<path id="legFrontLeft" fill="none" stroke="#000000" stroke-width="2" stroke-linecap="round" stroke-linejoin="round" stroke-miterlimit="10" d="
			M634.101,379.049l-9.29,13.087c0.555,1.746,7.777,3.83,16.571,2.35l7.105-5.68c0.048-5.393-6.391-9.752-14.342-9.801"/>
	</g>
	<g id="backElements">
		<path id="earBackLeft" fill="none" stroke="#000000" stroke-width="2" stroke-linejoin="round" stroke-miterlimit="10" d="
			M621.834,320.085c5.139-3.712,17.058,1.87,20.289,3.574l0.503,0.08c1.775-0.958,3.631-1.846,5.564-2.656
			C632.507,314.558,622.746,317.677,621.834,320.085z"/>
		<path id="snoutBack" fill="none" stroke="#000000" stroke-width="2" stroke-linejoin="round" stroke-miterlimit="10" d="
			M653.357,353.497c-4.309-7.291-12.823-11.149-19.015-8.623c-0.725,0.296-7.915,4.296-7.915,4.296l0.002,0.007
			c0.315-0.167,0.638-0.32,0.971-0.458c0.016-0.006,0.032-0.012,0.048-0.019c0.313-0.127,0.631-0.246,0.959-0.345
			c0.102-0.032,0.208-0.054,0.312-0.082c0.253-0.069,0.504-0.141,0.765-0.193c0.38-0.077,0.767-0.136,1.163-0.174
			c6.765-0.642,13.054,4.699,14.048,11.929c0.062,0.452,0.102,0.9,0.121,1.344c0.005,0.128-0.004,0.253-0.002,0.381
			c0.005,0.313,0.011,0.628-0.005,0.936c-0.009,0.161-0.034,0.316-0.048,0.475c-0.024,0.27-0.042,0.542-0.082,0.807
			c-0.035,0.233-0.089,0.458-0.136,0.687c-0.038,0.185-0.065,0.373-0.11,0.554c-0.063,0.255-0.147,0.501-0.225,0.75
			c-0.046,0.147-0.082,0.298-0.133,0.442c-0.098,0.276-0.215,0.542-0.33,0.809c-0.047,0.108-0.084,0.221-0.134,0.328
			c-0.134,0.287-0.286,0.561-0.439,0.835c-0.044,0.078-0.081,0.162-0.126,0.239c-0.188,0.317-0.392,0.623-0.606,0.919
			c-0.02,0.027-0.036,0.057-0.055,0.083c-1.887,2.578-4.742,4.333-8.118,4.66l0.008,0.026l14.307-2.402
			C654.774,369.188,657.666,360.783,653.357,353.497z"/>
		
			<path id="earBackRight" fill="none" stroke="#000000" stroke-width="2" stroke-linecap="round" stroke-linejoin="round" stroke-miterlimit="10" d="
			M667.903,319.57c1.139-0.125,16.689-1.34,8.085,26.926c0,0,17.329-5.639,10.212-18.942
			C686.2,327.554,679.616,317.354,667.903,319.57z"/>
	</g>
	<g id="earInner">
		<path id="earInnerLeft" fill="none" stroke="#000000" stroke-width="2" stroke-linejoin="round" stroke-miterlimit="10" d="
			M642.879,324.079c-1.697-1.063-35.537-18.734-18.776,17.448C627.756,334.292,634.414,328.391,642.879,324.079z"/>
		<path id="earInnerRight" fill="none" stroke="#000000" stroke-width="2" stroke-linejoin="round" stroke-miterlimit="10" d="
			M667.832,319.578c-2.335,0.701-9.016,3.081-13.024,7.977c0,0,17.085-0.563,21.181,18.941
			C684.916,317.167,667.832,319.578,667.832,319.578z"/>
	</g>
</g>
<g id="car">
	<g id="carLights">
		<path id="lightBack" fill="#FFFFFF" stroke="#000000" stroke-width="2" stroke-miterlimit="10" d="M487,574.625
			c0,1.791-1.324,4.375-3.338,4.375h-4.403c-2.014,0-4.259-2.584-4.259-4.375v-5.996c0-1.792,2.245-2.629,4.259-2.629h4.403
			c2.014,0,3.338,0.837,3.338,2.629V574.625z"/>
		<path id="lightFront" fill="#FFFFFF" stroke="#000000" stroke-width="2" stroke-miterlimit="10" d="M329.972,574.722
			c0.01,1.797-1.474,4.276-3.485,4.278h-4.402c-2.015,0-4.085-2.47-4.085-4.261v-5.996c2-4.743,10-3.743,11.929-0.046
			L329.972,574.722z"/>
	</g>
	<path id="carBody" fill="#FFFFFF" stroke="#000000" stroke-width="2" stroke-miterlimit="10" d="M321.375,579.813
		C320.935,559.393,337,549,355,548c3,0,7-1,8-4c6-17,22-30,38.561-33.925c3.306-0.841,6.634-1.332,9.951-1.5
		c26.533-1.344,52.311,17.982,59.601,44.211c0,0,2.089,5.489,4.971,11.196s6.557,11.632,9.728,12.501l6.341,1.737
		c2.297,0,4.157,2.639,4.157,4.889s-1.86,4.891-4.157,4.891c0,0-48.074,0-93.143,0c-2.651,0-5.292,0-7.912,0
		c-18.097,0-35.097,0-53.564,0c-3.242,0-6.07,0-8.399,0c-4.658,0-7.319,0-7.319,0c-2.296,0-4.221-2.641-4.221-4.891
		s1.797-4.56,4.093-4.56"/>
	<g id="tires">
		
			<circle id="tireRight" fill="#FFFFFF" stroke="#000000" stroke-width="2" stroke-miterlimit="10" cx="452.965" cy="585.031" r="17.248"/>
		
			<circle id="tireLeft" fill="#FFFFFF" stroke="#000000" stroke-width="2" stroke-miterlimit="10" cx="365.965" cy="585.031" r="17.248"/>
	</g>
	<g id="hubs">
		
			<circle id="hubRight" fill="#FFFFFF" stroke="#000000" stroke-width="2" stroke-miterlimit="10" cx="452.854" cy="584.92" r="9.026"/>
		
			<circle id="hubLeft" fill="#FFFFFF" stroke="#000000" stroke-width="2" stroke-miterlimit="10" cx="365.854" cy="584.92" r="9.026"/>
	</g>
	<path id="handle" fill="#FFFFFF" stroke="#000000" stroke-width="2" stroke-miterlimit="10" d="M403,555.963
		C399,560,394.046,559,390.046,556c4-2,8.954-2,12.954-0.153V555.963z"/>
	<g id="carAntenna">
		<path id="carAntennaBottom" fill="none" stroke="#000000" stroke-width="2" stroke-linecap="round" stroke-miterlimit="10" d="
			M470,550v-40V550z"/>
		
			<circle id="carAntennaTop" fill="none" stroke="#000000" stroke-width="2" stroke-linecap="round" stroke-miterlimit="10" cx="470.408" cy="506.363" r="3.323"/>
	</g>
	<g id="carWindow">
		<path id="carWindowRight" fill="none" stroke="#000000" stroke-width="2" stroke-linejoin="round" stroke-miterlimit="10" d="
			M409,548h55c-18.749-37.066-53-34.044-55-33.907v0.146c0,0,0,2.173,0,5.433c0,3.259,0.004,7.605,0.002,11.949
			C409.004,537.681,409.008,541.828,409,548z"/>
		<path id="carWindowLeft" fill="#FFFFFF" stroke="#000000" stroke-width="2" stroke-linejoin="round" stroke-miterlimit="10" d="
			M404,515c-17,2-32,16-36,33c12,0,23.989-0.008,35.95-0.034C403.95,547.966,404,526,404,515z"/>
	</g>
</g>
<g id="clock">
	<circle id="clockBody" fill="none" stroke="#000000" stroke-width="2" stroke-miterlimit="10" cx="1318.8" cy="423.25" r="23.25"/>
	<path id="clockFace" fill="none" stroke="#000000" stroke-width="2" stroke-miterlimit="10" d="M1336.47,423.109
		c0,9.771-7.92,17.681-17.68,17.681c-9.771,0-17.69-7.91-17.69-17.681c0-9.77,7.92-17.689,17.69-17.689
		C1328.55,405.42,1336.47,413.34,1336.47,423.109z"/>
	<g id="clockHour">
		<path d="M1318.6,413c0.001,0,0.452,2.667,0.7,5.5c0.059,0.708,0.229,1.334,0.242,1.998c-0.002,0.664-0.104,1.242-0.242,1.773
			c-0.251,1.063-0.7,1.729-0.7,1.729h-0.199c0,0-0.449-0.708-0.7-1.771c-0.138-0.531-0.24-1.151-0.242-1.815
			c0.014-0.664,0.184-1.206,0.242-1.914c0.248-2.833,0.699-5.5,0.699-5.5H1318.6z"/>
	</g>
	<g id="clockMinute">
		<path d="M1329.205,433.522c0,0-0.803-0.574-1.977-1.467c-1.191-0.874-2.72-2.106-4.268-3.316c-0.767-0.613-1.594-1.16-2.282-1.768
			c-0.674-0.623-1.235-1.278-1.685-1.875c-0.913-1.179-1.33-2.172-1.33-2.172l0.135-0.146c0,0,1.025,0.331,2.277,1.14
			c0.632,0.397,1.333,0.901,2.012,1.52c0.663,0.635,1.279,1.412,1.955,2.124c1.337,1.439,2.694,2.856,3.667,3.97
			c0.989,1.094,1.63,1.845,1.63,1.845L1329.205,433.522z"/>
	</g>
	
		<path id="bellLeft" fill="none" stroke="#000000" stroke-width="2" stroke-linecap="round" stroke-linejoin="round" stroke-miterlimit="10" d="
		M1313.42,395.463c-13.096-5.517-21.227-0.011-20.935,14.167L1313.42,395.463z"/>
	
		<path id="bellRight" fill="none" stroke="#000000" stroke-width="2" stroke-linecap="round" stroke-linejoin="round" stroke-miterlimit="10" d="
		M1324.479,395.463c13.096-5.517,21.227-0.011,20.935,14.167L1324.479,395.463z"/>
	<g id="clockLegs">
		<path id="clockLegRight" fill="none" stroke="#000000" stroke-width="2" stroke-miterlimit="10" d="M1332.385,442.965l3.703,8.035
			h3l-4.354-9.978C1333.995,441.72,1333.211,442.368,1332.385,442.965z"/>
		<path id="clockLegLeft" fill="#FFFFFF" stroke="#000000" stroke-width="2" stroke-miterlimit="10" d="M1299,451h3l3.578-8.263
			c-0.831-0.575-1.625-0.95-2.373-1.626L1299,451z"/>
	</g>
</g>
<g id="remote">
	
		<rect id="remoteBottom" x="137" y="705" fill="#FFFFFF" stroke="#000000" stroke-width="2" stroke-linecap="round" stroke-linejoin="round" stroke-miterlimit="10" width="104" height="16"/>
	
		<polygon id="remoteBody" fill="none" stroke="#000000" stroke-width="2" stroke-linecap="round" stroke-linejoin="round" stroke-miterlimit="10" points="
		241,705 136.888,705.003 160.685,673 217.635,673 	"/>
	<g id="remoteButtons">
		
			<ellipse id="remoteButtonLeft" fill="#FFFFFF" stroke="#000000" stroke-width="2" stroke-linecap="round" stroke-miterlimit="10" cx="171.908" cy="690" rx="14.917" ry="5.667"/>
		
			<ellipse id="remoteButtonRight" fill="#FFFFFF" stroke="#000000" stroke-width="2" stroke-linecap="round" stroke-miterlimit="10" cx="206.908" cy="690" rx="14.917" ry="5.667"/>
	</g>
	<g id="remoteAntenna">
		
			<line id="remoteAntennaBottom" fill="none" stroke="#000000" stroke-width="2" stroke-miterlimit="10" x1="189" y1="673" x2="189" y2="650"/>
		
			<circle id="remoteAntennaTop" fill="none" stroke="#000000" stroke-width="2" stroke-linecap="round" stroke-miterlimit="10" cx="189.408" cy="647.363" r="3.323"/>
	</g>
	<g id="remoteStickBottoms">
		<polyline id="remoteStickBottomLeft" fill="#FFFFFF" stroke="#000000" stroke-width="2" stroke-miterlimit="10" points="168,691 
			168,678 174,678 174,691 		"/>
		<polyline id="remoteStickBottomRight" fill="#FFFFFF" stroke="#000000" stroke-width="2" stroke-miterlimit="10" points="203,691 
			203,678 209,678 209,691 		"/>
	</g>
	<g id="remoteStickTops">
		
			<ellipse id="remoteStickTopRight" fill="#FFFFFF" stroke="#000000" stroke-width="2" stroke-miterlimit="10" cx="206" cy="677.348" rx="3" ry="1.795"/>
		
			<ellipse id="remoteStickTopLeft" fill="#FFFFFF" stroke="#000000" stroke-width="2" stroke-miterlimit="10" cx="171" cy="677.348" rx="3" ry="1.795"/>
	</g>
</g>
<g id="lamp">
	<path id="lampBottom" fill="none" stroke="#000000" stroke-width="2" stroke-miterlimit="10" d="M815,362.54v-6.476
		c-6.582,0.571-13.99,0.646-22-0.17v6.605c-6,0-12,5.37-12,12v9c0,6.63,5.87,12.5,12.5,12.5h21c6.63,0,11.5-5.87,11.5-12.5v-9
		C826,368.21,822,363.05,815,362.54z"/>
	<path id="lampShade" fill="none" stroke="#000000" stroke-width="2" stroke-linejoin="round" stroke-miterlimit="10" d="
		M825.103,297.254c-0.011,2.345-8.76,4.246-19.551,4.246c-10.798,0-21.552-2.153-21.552-4.5l-20.88,51.82
		c45.63,17.305,82.76,0,82.76,0L825.103,297.254z"/>
	
		<ellipse id="lampTop" fill="none" stroke="#000000" stroke-width="2" stroke-miterlimit="10" cx="804.551" cy="297.333" rx="20.551" ry="3.594"/>
</g>
<g id="solarSystem">
	<circle id="sun_1_" fill="none" stroke="#000000" stroke-width="2" stroke-miterlimit="10" cx="1075.143" cy="172.23" r="42.148"/>
	
		<circle id="marsBody" fill="none" stroke="#000000" stroke-width="2" stroke-miterlimit="10" cx="935.371" cy="158.371" r="15.371"/>
	
		<circle id="mercuryBody" fill="none" stroke="#000000" stroke-width="2" stroke-miterlimit="10" cx="1013.688" cy="155.372" r="11.486"/>
	
		<circle id="venusBody" fill="none" stroke="#000000" stroke-width="2" stroke-miterlimit="10" cx="1141.094" cy="160.411" r="14.094"/>
	
		<circle id="plutoBody" fill="none" stroke="#000000" stroke-width="2" stroke-miterlimit="10" cx="1020.758" cy="103.554" r="8.275"/>
	<g id="uranus">
		
			<circle id="uranusBody" fill="none" stroke="#000000" stroke-width="2" stroke-miterlimit="10" cx="803.041" cy="186.839" r="23.063"/>
		<path id="uranusRing" fill="none" stroke="#000000" stroke-width="2" stroke-miterlimit="10" d="M805.551,210.099
			c-1.851,8.729-4.011,14.281-5.842,14.109c-3.102-0.29-4.086-16.872-2.201-37.037c1.884-20.165,5.925-36.277,9.027-35.986
			c1.768,0.165,2.848,5.627,3.101,14.029"/>
	</g>
	<g id="saturn">
		<path id="saturnBody" fill="#FFFFFF" stroke="#000000" stroke-width="2" stroke-miterlimit="10" d="M1297.282,175.754
			c0,11.116-9.01,20.127-20.125,20.127c-11.118,0-20.126-9.011-20.126-20.127c0-11.114,9.008-20.125,20.126-20.125
			C1288.272,155.629,1297.282,164.64,1297.282,175.754z"/>
		<path id="saturnRingOuter" fill="none" stroke="#000000" stroke-width="2" stroke-miterlimit="10" d="M1294.506,165.694
			c15.178,1.862,25.828,6.22,25.828,11.3c0,6.772-18.934,12.263-42.291,12.263c-23.356,0-42.292-5.491-42.292-12.263
			c0-4.854,9.722-9.049,23.826-11.037"/>
		<path id="saturnRingInner" fill="none" stroke="#000000" stroke-width="2" stroke-miterlimit="10" d="M1258.081,170.099
			c-6.429,1.245-10.507,3.098-10.507,5.167c0,3.75,13.387,6.79,29.898,6.79s29.9-3.04,29.9-6.79c0-2.164-4.459-4.092-11.404-5.335"
			/>
		<path id="saturnRingMiddle" fill="none" stroke="#000000" stroke-width="2" stroke-miterlimit="10" d="M1295.338,167.114
			c12.102,1.579,20.4,4.821,20.4,8.564c0,5.293-16.594,9.584-37.063,9.584s-37.062-4.291-37.062-9.584
			c0-3.398,6.836-6.384,17.145-8.085"/>
	</g>
	<g id="neptune">
		
			<circle id="neptuneBody" fill="none" stroke="#000000" stroke-width="2" stroke-miterlimit="10" cx="871.552" cy="181.937" r="25.309"/>
		<path id="neptuneRing" fill="none" stroke="#000000" stroke-width="2" stroke-miterlimit="10" d="M896.517,177.792
			c8.636,1.09,14.15,2.749,14.15,4.608c0,3.279-17.163,5.938-38.334,5.938c-21.17,0-38.333-2.659-38.333-5.938
			c0-1.64,4.291-3.125,11.228-4.2"/>
	</g>
	<g id="rocket">
		<path id="rocketBody" fill="none" stroke="#000000" stroke-width="2" stroke-linejoin="round" stroke-miterlimit="10" d="
			M1382.796,158.928c-9.112-8.012-54.728,19.45-54.728,19.45c9.158,7.65,11.175,11.137,15.09,22.862c0,0,43.174-31.137,39.39-42.666
			"/>
		<g id="boosters">
			
				<polyline id="boosterBottom" fill="none" stroke="#000000" stroke-width="2" stroke-linejoin="round" stroke-miterlimit="10" points="
				1336.103,197.635 1331.662,200.566 1324.235,189.315 1328.678,186.384 			"/>
			
				<path id="boosterTop" fill="none" stroke="#000000" stroke-width="2" stroke-linecap="round" stroke-linejoin="round" stroke-miterlimit="10" d="
				M1341.81,197.268l-4.736,3.127c-3.724-7.744-5.216-10.16-10.552-15.988l4.737-3.127"/>
		</g>
		<g id="wingSide">
			
				<polyline id="wingSideBottom" fill="none" stroke="#000000" stroke-width="2" stroke-linejoin="round" stroke-miterlimit="10" points="
				1366.135,182.544 1352.854,213.356 1344.647,200.921 			"/>
			
				<polyline id="wingSideTop" fill="none" stroke="#000000" stroke-width="2" stroke-linejoin="round" stroke-miterlimit="10" points="
				1354.691,164.727 1321.15,165.56 1329.628,177.811 			"/>
		</g>
		<polyline id="wingMiddle" fill="none" stroke="#000000" stroke-width="2" stroke-miterlimit="10" points="1358.994,174.383 
			1337.054,190.706 1335.427,188.238 1358.985,174.531 		"/>
		
			<ellipse id="window" transform="matrix(-0.5509 -0.8345 0.8345 -0.5509 1978.5442 1403.2324)" fill="none" stroke="#000000" stroke-width="2" stroke-miterlimit="10" cx="1366.804" cy="169.3" rx="3.902" ry="6.304"/>
	</g>
	<g id="jupiter">
		
			<circle id="jupiterBody" fill="none" stroke="#000000" stroke-width="2" stroke-miterlimit="10" cx="1127.075" cy="115.575" r="21.575"/>
		
			<ellipse id="jupiterSpot" transform="matrix(0.96 0.2801 -0.2801 0.96 79.7987 -313.48)" fill="none" stroke="#000000" stroke-width="2" stroke-linecap="round" stroke-miterlimit="10" cx="1136.584" cy="122.429" rx="5.25" ry="2.079"/>
	</g>
	<g id="earth">
		
			<circle id="earthBody" fill="none" stroke="#000000" stroke-width="2" stroke-miterlimit="10" cx="1215.02" cy="157.382" r="14.065"/>
		<path id="earthLandLeft" fill="none" stroke="#000000" stroke-width="2" stroke-linejoin="round" stroke-miterlimit="10" d="
			M1202.887,164.502c1.5,0,5.613-4.002,3.113-6.502c3.5-1.5,8-1.5,11-5c0-4.995-7.969-4.5-11.47-6.001
			c-2.812,2.572-4.575,6.272-4.575,10.383C1200.955,159.979,1201.659,162.413,1202.887,164.502z"/>
		
			<path id="earthLandRight" fill="none" stroke="#000000" stroke-width="2" stroke-linecap="round" stroke-linejoin="round" stroke-miterlimit="10" d="
			M1220.259,170.438c0-4,3.241-7.438,5.241-11.438c-1-0.5-1.5-1.5-2.5-2c-0.25-5.75,0.965-7.563,1.965-9.563
			c2.546,2.545,4.12,6.062,4.12,9.945C1229.085,163.297,1225.433,168.36,1220.259,170.438"/>
	</g>
	<g id="hangers">
		
			<line id="centralHanger" fill="none" stroke="#000000" stroke-width="2" stroke-miterlimit="10" x1="1075" y1="0" x2="1075" y2="130"/>
		
			<polyline id="uranusHanger" fill="none" stroke="#000000" stroke-width="2" stroke-linejoin="round" stroke-miterlimit="10" points="
			804,164 804.14,122.921 804.14,122.921 1076.004,92.834 		"/>
		
			<polyline id="earthHanger" fill="none" stroke="#000000" stroke-width="2" stroke-linejoin="round" stroke-miterlimit="10" points="
			1215,143 1215,132 1075.931,93.701 		"/>
		
			<polyline id="marsHanger" fill="none" stroke="#000000" stroke-width="2" stroke-linecap="round" stroke-linejoin="round" stroke-miterlimit="10" points="
			935,143 935,132 934.932,132.017 1074.968,93.701 		"/>
		
			<polyline id="mercuryHanger" fill="none" stroke="#000000" stroke-width="2" stroke-linejoin="round" stroke-miterlimit="10" points="
			1014,143 1014,132 1075.931,93.701 		"/>
		
			<polyline id="venusHanger" fill="none" stroke="#000000" stroke-width="2" stroke-linejoin="round" stroke-miterlimit="10" points="
			1141,147 1141,136 1074.968,93.701 		"/>
		
			<polyline id="plutoHanger" fill="none" stroke="#000000" stroke-width="2" stroke-linejoin="round" stroke-miterlimit="10" points="
			1021,95 1021,74 1075.931,93.701 		"/>
		
			<polyline id="jupiterHanger" fill="none" stroke="#000000" stroke-width="2" stroke-linejoin="round" stroke-miterlimit="10" points="
			1127,94 1127,75 1073.499,93.701 		"/>
		
			<polyline id="saturnHanger" fill="none" stroke="#000000" stroke-width="2" stroke-linejoin="round" stroke-miterlimit="10" points="
			1278,156 1278,93 1075,93 		"/>
		
			<polyline id="rocketHanger" fill="none" stroke="#000000" stroke-width="2" stroke-linejoin="round" stroke-miterlimit="10" points="
			1345,164 1345,123 1345,122.842 1073.854,92.834 		"/>
		
			<polyline id="neptuneHanger" fill="none" stroke="#000000" stroke-width="2" stroke-linejoin="round" stroke-miterlimit="10" points="
			872,157 872,93 1075,93 		"/>
	</g>
</g>
<rect id="buttonRemote" x="130" y="632" fill="none" width="118" height="97"/>
<rect id="buttonPig" x="613" y="310" fill="none" width="119" height="85"/>
<rect id="buttonDiary" x="875" y="558" fill="none" width="198" height="86"/>
</svg>
