<svg xmlns="http://www.w3.org/2000/svg" xmlns:xlink="http://www.w3.org/1999/xlink" width="1500" height="800">
  <g id="Static" stroke="#37474F" stroke-width="2" stroke-miterlimit="10">
    <path id="floor" fill="none" d="M1 570h1500"/>
    <g id="nightstand" fill="none">
      <path id="standSurface" d="M1398.926 451h-116.229c-4.971 0-9.697 3.942-9.697 9.629v35.178c0 5.687 4.727 10.193 9.697 10.193h116.229c4.969 0 8.074-4.507 8.074-10.193v-35.178c0-5.687-3.105-9.629-8.074-9.629zm-.926 39.515c0 3.772-3.334 7.485-7.649 7.485H1289.39c-4.316 0-8.39-3.713-8.39-7.485v-23.331c0-3.773 4.073-7.184 8.39-7.184h100.961c4.315 0 7.649 3.41 7.649 7.184v23.331z"/>
      <path id="standLegLeft" d="M1306.032 505.5l-17.428 64.5h-9.451l9.451-64H1307"/>
      <path id="standLegRight" d="M1374.205 505.5l17.664 64.5h9.449l-9.449-64H1373"/>
      <g id="bookLeft">
        <path id="pagesLeft" d="M1297 483h43v12h-43z"/>
        <path id="coverLeft" d="M1344.5 488.5c0 4.48-1.73 8.45-4 9.141-.24.069-.49.359-.75.359H1289v-3h51v-12h-51v-3h50.75c.26 0 .51-.21.75-.141 2.27.691 4 4.161 4 8.641z"/>
        <path id="pageLineLeftB" d="M1297 487h29"/>
        <path id="pageLineLeftA" d="M1297 491h29"/>
      </g>
      <g id="bookRight">
        <path id="pagesRight" transform="rotate(110.249 1362.642 477.593)" d="M1356.656 453.634h11.999v48.001h-11.999z"/>
        <path id="coverRight" d="M1336.386 467.941c1.552-4.203 4.641-7.029 7.24-6.805.274.026.548.085.817.185l52.286 19.294-1.038 2.814-53.477-19.732-4.152 11.258 53.475 19.732-1.039 2.815-52.285-19.295a3.195 3.195 0 0 1-.742-.39c-2.122-1.518-2.635-5.672-1.085-9.876z"/>
        <path id="pageLineRightB" d="M1384.947 487.992l-30.021-11.078"/>
        <path id="pageLineRightA" d="M1386.332 484.24l-30.02-11.078"/>
      </g>
    </g>
    <g id="bed">
      <path fill="#FFFFFF" stroke-linejoin="round" d="M1210.449 495.75L1315 644.363V645H835l-.051-.137L940 496h270"/>
      <path fill="#FFFFFF" d="M835.43 644.449c-12.309 35.701-.592 65.551 0 65.551H835h481l-.175-1c.593 0 12.308-29.35 0-65.051L1316 645H835"/>
      <path fill="none" d="M939 406h15v90h-15zM1194 406h15v90h-15zM954 406h240v15H954zM954 450h240v13H954zM829.942 683.868l-17.993 25.495"/>
      <path fill="#FFFFFF" d="M811 710h525v12H811zM811 722h17v53h-17zM1319 722h17v53h-17z"/>
      <path fill="#FFFFFF" stroke-linecap="round" d="M918.582 518.592c19.499-7.499 38.998-16.498 59.997-19.498 25.499-4.5 35.998 1.5 59.997 7.5 37.498 7.499 64.496-6 100.494-12 15-1.5 37.499-3 52.498 1.5 28.498 7.5 25.498 22.498 34.498 43.498 10.5 23.998 31.498 26.998 53.997 35.998 23.999 10.499 31.499 22.499 40.498 44.997 12 25.499 22.499 67.497 13.5 95.996-6 17.999-16.5 14.999-32.999 20.999-13.499 5.999-4.5 13.499-23.998 11.999-9-1.5-21-6-29.999-10.5-43.498-20.999-65.997-50.997-116.994-58.497-19.499-1.5-40.498-1.5-56.997-8.999-25.499-12-29.998-35.998-49.498-50.998-44.997-37.498-98.994-28.498-151.492-37.498 7.5-23.998 46.498-64.497 46.498-64.497z"/>
      <path fill="#FFFFFF" d="M1017.76 444.129c10.899-2.35 24.314 6.461 34.376 7.637 10.899 1.174 20.122-1.176 29.344-2.938 22.638-3.524 46.114 0 68.752 1.762-2.515 11.161-11.738 21.146-8.384 34.07 3.354 13.51 16.768 21.734 25.152 32.895-20.123-1.763-37.729-2.937-58.689-2.937-14.254 0-25.992-1.763-41.083.587-11.739 1.764-20.961 4.112-33.538 3.525-9.222-.588-18.445-1.762-27.668-2.938-22.637-1.762-14.254-2.937-5.03-14.097 10.062-11.161 14.253-31.133 13.414-44.056 0-5.287-2.516-9.986-.837-14.686 1.675.001 2.514.588 4.191 1.176"/>
    </g>
  </g>
  <g id="Objects">
    <g id="window_1_" fill="none" stroke="#37474F" stroke-width="2" stroke-miterlimit="10">
      <path id="windowSill" d="M528 391.086c0 2.412-1.364 4.914-3.521 4.914H49.28c-2.157 0-4.28-2.502-4.28-4.914v-.672c0-2.412 2.123-3.414 4.28-3.414h475.198c2.157 0 3.521 1.002 3.521 3.414v.672z"/>
      <path id="windowFrame" d="M85 98h403v289H85z"/>
    </g>
    <g id="dresser" fill="none" stroke="#37474F" stroke-width="2" stroke-miterlimit="10">
      <path id="dresserFrame" d="M867 401.908V570h-18v-19H615v19h-18V401.908c0-3.508 5.361-5.908 11.991-5.908h246c6.63 0 12.009 2.4 12.009 5.908z"/>
      <g id="drawers">
        <path id="drawerBottom" d="M617 483h230v56H617z"/>
        <path id="drawerTop" d="M617 412h230v59H617z"/>
      </g>
      <g id="knobs">
        <circle id="knobTop" cx="732.324" cy="440.72" r="7.94"/>
        <circle id="knobBottom" cx="732.324" cy="510.439" r="7.94"/>
      </g>
    </g>
    <g id="sleep">
      <path id="sleepMount" fill="none" stroke="#424242" stroke-width="2" stroke-linecap="round" stroke-linejoin="round" stroke-miterlimit="10" d="M1251 371c0 6.627-5.373 12-12 12h-33c-6.627 0-12-5.373-12-12v-25c0-6.627 5.373-12 12-12h33c6.627 0 12 5.373 12 12v25z"/>
      <circle id="sleepButton" fill="none" stroke="#424242" stroke-width="2" stroke-linecap="round" stroke-linejoin="round" stroke-miterlimit="10" cx="1222.125" cy="349.25" r="8.75"/>
      <g id="sleepText" fill="#424242">
        <path d="M1207.828 373.622c.238.312.42.587.42.995 0 .9-.684 1.355-1.512 1.355h-2.639c-.455 0-.852-.084-1.211-.384-.324-.264-.564-.696-.564-1.115 0-.384.217-.72.637-.72.348 0 .563.288.563.612 0 .36.191.408.527.408h2.604c.096 0 .396.036.396-.144 0-.096-.168-.276-.217-.348l-4.113-5.289c-.252-.324-.396-.564-.396-.984 0-.479.229-.887.637-1.151.336-.216.611-.216.994-.216h2.543c.455 0 .84.096 1.188.396.313.276.564.72.564 1.139 0 .384-.193.696-.625.696-.359 0-.574-.228-.574-.563 0-.408-.205-.468-.576-.468h-2.543c-.133 0-.408-.036-.408.167 0 .108.133.252.18.324l4.125 5.29zM1216.287 374.773c.313 0 .6.168.6.6s-.287.6-.6.6h-5.324v-8.731c0-.384.168-.6.6-.6s.6.216.6.6v7.532h4.124zM1224.928 374.773c.311 0 .6.168.6.6s-.289.6-.6.6h-5.326v-9.331h5.326c.311 0 .6.168.6.6 0 .432-.289.6-.6.6h-4.127v2.866h1.764c.313 0 .6.168.6.6s-.287.6-.6.6h-1.764v2.867h4.127zM1233.568 374.773c.311 0 .6.168.6.6s-.289.6-.6.6h-5.326v-9.331h5.326c.311 0 .6.168.6.6 0 .432-.289.6-.6.6h-4.127v2.866h1.764c.313 0 .6.168.6.6s-.287.6-.6.6h-1.764v2.867h4.127zM1238.082 375.373c0 .384-.168.6-.6.6s-.6-.216-.6-.6v-8.731h3.98c.553 0 .947.084 1.379.492.518.48.564.924.564 1.571v1.631c0 .611-.047 1.043-.492 1.535-.467.527-.959.576-1.607.576h-2.625v2.926zm0-4.126h2.662c.707 0 .863-.18.863-.863v-1.679c0-.684-.156-.863-.863-.863h-2.662v3.405z"/>
      </g>
    </g>
    <g id="nightLight" stroke="#424242" stroke-miterlimit="10">
      <path id="nightLightMount" fill="none" stroke-width="2" d="M104 458h34v51h-34z"/>
      <g id="prongs">
        <path id="ground" d="M123.5 500.5v-2.151c0-1.169-1.754-2.099-2.5-2.099-.744 0-2.5.963-2.5 2.131v2.119h5z"/>
        <path id="prongRight" d="M122.5 489.5h2v5h-2z"/>
        <path id="prongLeft" d="M117.5 489.5h2v5h-2z"/>
      </g>
      <g id="outlets" fill="none" stroke-width="2">
        <path id="outletBottom" d="M126.22 503c3.578 0 6.482-4.023 6.482-8.5s-2.904-8.5-6.482-8.5h-9.343c-3.582 0-6.482 4.023-6.482 8.5 0 4.478 2.9 8.5 6.482 8.5h9.343z"/>
        <path id="outletTop" d="M126.22 480c3.578 0 6.482-4.023 6.482-8.5s-2.904-8.5-6.482-8.5h-9.343c-3.582 0-6.482 4.023-6.482 8.5 0 4.478 2.9 8.5 6.482 8.5h9.343z"/>
      </g>
      <path id="moonLightBottom" fill="none" stroke-width="2" stroke-linecap="round" stroke-linejoin="round" d="M128.362 477c0-.387-4.118-.701-7.681-.701-3.563 0-7.682.314-7.682.701v-9h16v9"/>
      <path id="moonLightTop" fill="#FFFFFF" stroke-width="2" stroke-linecap="square" stroke-linejoin="round" d="M135.559 463.834a14.635 14.635 0 0 1-12.394 6.826c-8.095 0-14.666-6.56-14.666-14.654 0-8.107 6.57-14.666 14.666-14.666 1.674 0 3.295.288 4.799.811-4.97 1.163-8.692 5.813-8.692 11.359 0 6.432 4.991 11.646 11.146 11.646 1.856 0 3.605-.468 5.141-1.322z"/>
    </g>
    <g id="outside_1_">
      <path id="sky" fill="none" stroke="#424242" stroke-width="2" stroke-miterlimit="10" d="M97 98h379v289H97z"/>
      <path id="moonCutout" fill="none" d="M204.31 174.084c-7.865 10.351-21.908 14.695-34.621 9.739-15.366-5.991-22.966-23.304-16.975-38.671 4.235-10.86 14.125-17.84 24.986-18.885"/>
      <circle id="outsideSun" fill="none" stroke="#424242" stroke-width="2" stroke-miterlimit="10" cx="165.974" cy="164.096" r="39.609"/>
      <g id="clouds" fill="#FFFFFF" stroke="#424242" stroke-width="2" stroke-miterlimit="10">
        <path id="cloudRight" d="M369.476 161.938c-.931-.214-1.684.199-2.563.058-.542.02-1.133.032-1.762.041-6.916.083-18.284-.668-14.316-6.054 3.029-4.244 10.704-3.427 15.55-2.775-3.138-1.4-5-3.032-5.246-4.926a3.465 3.465 0 0 1 .051-1.166c.574-5.258 7.053-6.913 11.85-5.898.422.099.841.192 1.249.256.816.127 1.593.139 2.29-.141a2.96 2.96 0 0 0 1.159-.854c1.507-4.943 4.896-8.93 10.085-8.574 1.039.072 2.15.318 3.339.776.988.006 2.319.006 2.984-.712 1.663-2.874 4.99-3.592 8.649-4.072 1.664-.239 2.662 2.155 4.658 1.917 3.326-.241 3.992-3.113 5.146-4.92.526-.672 1.177-1.069 1.853-1.466a4.238 4.238 0 0 1 1.251-.354c.442-.021.892-.043 1.347-.058 2.601-.456 4.721 1.012 6.865 2.455.307.207.613.413.922.614 4.166-1.198 8.201-1.861 12.397-.274.293.019.594.038.896.075.3.04.602.098.895.198.326.132.626.299.897.496.271.196.512.424.709.68.086.286.347.552.477.819.129 1.858-.521 3.851.78 5.447 1.691 1.992 4.165 3.188 5.337 5.713.129.265.325.597.579.903.255.306.569.583.936.741.253.2.515.396.767.604.506.414.967.881 1.355 1.45.145.275.236.56.264.854.028.296-.008.601-.118.92a3.777 3.777 0 0 1-.238.62 5.332 5.332 0 0 1-.343.6c-.154.196-.62.097-1.083 0 .62.88 2.322.783 3.379 1.133.399.082.798.165 1.183.285.41.095.811.22 1.204.396a12.91 12.91 0 0 1 2.515 1.448c.464.341.895.708 1.282 1.094 2.608 2.336 2.91 6.476.046 8.82-1.406 1.103-3.146.92-4.847.86a10.975 10.975 0 0 0-1.258.009c-4.743 2.581-9.867 2.442-15.047 1.618l-1.761.026c-.565.008-1.13.013-1.694.021l-1.694.019c-5.792.758-11.217.758-16.919.061l-1.689-.004-1.583-.005c-.529-.001-1.057-.004-1.583-.006a3.755 3.755 0 0 0-2.099.299c-3.271 1.545-6.392 1.062-9.559.398-.453-.095-.907-.193-1.36-.286-.683-.25-1.437-.25-2.039-.112-3.823.846-7.301.529-10.979-.088a145.65 145.65 0 0 1-1.591-.28c-1.895.229-3.704 1.195-5.512 1.886-2.713.827-4.972-.828-7.583-1.466-.428-.087-.68-.119-.68-.119z"/>
        <path id="cloudCenter" d="M404.092 178.587c1.287-.345 2.33.32 3.545.091.749.032 1.567.053 2.437.067 9.566.134 25.292-1.077 19.803-9.752-4.19-6.835-14.806-5.521-21.51-4.47 4.341-2.256 6.916-4.885 7.256-7.936a6.454 6.454 0 0 0-.07-1.875c-.794-8.471-9.756-11.138-16.391-9.502-.584.159-1.163.31-1.727.412-1.13.204-2.204.221-3.167-.227-.578-.271-1.116-.71-1.603-1.375-2.085-7.965-6.773-14.386-13.951-13.812-1.437.116-2.973.511-4.618 1.25-1.367.011-3.208.011-4.128-1.147-2.3-4.629-6.901-5.787-11.963-6.56-2.301-.386-3.682 3.472-6.443 3.087-4.601-.386-5.522-5.014-7.118-7.925-.728-1.083-1.627-1.724-2.563-2.362a5.282 5.282 0 0 0-1.731-.57c-.612-.034-1.234-.071-1.863-.095-3.598-.735-6.53 1.63-9.496 3.954a95.07 95.07 0 0 1-1.276.988c-5.762-1.929-11.344-2.998-17.147-.44-.406.031-.822.061-1.239.121a5.537 5.537 0 0 0-1.238.317c-.45.213-.866.483-1.24.798a5.22 5.22 0 0 0-.981 1.095c-.12.46-.479.889-.66 1.319-.179 2.995.721 6.206-1.079 8.773-2.34 3.21-5.762 5.138-7.382 9.204-.179.428-.45.961-.801 1.456-.353.492-.788.939-1.295 1.193-.351.321-.712.637-1.061.972a10.64 10.64 0 0 0-1.875 2.336c-.199.443-.326.9-.365 1.375-.038.477.011.969.163 1.483.08.333.192.667.329.999.135.326.296.649.474.964.214.315.857.157 1.499 0-.857 1.418-3.211 1.262-4.674 1.825-.552.132-1.104.266-1.636.46a8.14 8.14 0 0 0-1.666.636 17.196 17.196 0 0 0-3.479 2.334 16.488 16.488 0 0 0-1.773 1.762c-3.608 3.765-4.025 10.432-.064 14.209 1.945 1.777 4.352 1.482 6.704 1.386a12.763 12.763 0 0 1 1.74.014c6.561 4.157 13.648 3.935 20.814 2.607.813.013 1.625.029 2.436.042.782.013 1.563.02 2.344.033l2.343.03c8.012 1.222 15.517 1.222 23.404.099.78-.001 1.559-.004 2.337-.006.73-.004 1.46-.006 2.19-.008l2.189-.01c1.027-.185 2.071.037 2.904.48 4.524 2.489 8.841 1.712 13.223.643.626-.155 1.254-.313 1.882-.461.944-.404 1.987-.404 2.82-.181 5.289 1.362 10.099.853 15.187-.141.727-.143 1.458-.295 2.2-.451 2.622.369 5.123 1.926 7.625 3.038 3.752 1.333 6.877-1.334 10.489-2.362.588-.132.936-.184.936-.184z"/>
        <path id="cloudLeft" d="M251.803 166.803c-.931-.199-1.684.185-2.563.053-.542.018-1.133.03-1.762.038-6.916.078-18.284-.621-14.316-5.626 3.029-3.944 10.704-3.186 15.55-2.579-3.138-1.301-5-2.818-5.246-4.578a2.992 2.992 0 0 1 .051-1.083c.574-4.887 7.053-6.426 11.85-5.482.422.092.841.179 1.249.238.816.118 1.593.129 2.29-.131.418-.156.807-.41 1.159-.793 1.507-4.595 4.896-8.3 10.085-7.969 1.039.067 2.15.295 3.339.721.988.006 2.319.006 2.984-.662 1.663-2.671 4.99-3.339 8.649-3.785 1.664-.223 2.662 2.003 4.658 1.781 3.326-.223 3.992-2.893 5.146-4.572.526-.625 1.177-.994 1.853-1.363a4.5 4.5 0 0 1 1.251-.329c.442-.02.892-.041 1.347-.054 2.601-.424 4.721.94 6.865 2.281.307.192.613.383.922.57 4.166-1.114 8.201-1.73 12.397-.255.293.018.594.035.896.069.3.037.602.091.895.184.326.123.626.278.897.46.271.183.512.395.709.632.086.265.347.513.477.76.129 1.728-.521 3.58.78 5.063 1.691 1.852 4.165 2.963 5.337 5.31.129.247.325.555.579.839.255.284.569.542.936.688.253.186.515.368.767.562.506.385.967.819 1.355 1.347.145.256.236.52.264.793.028.275-.008.559-.118.855a3.389 3.389 0 0 1-.238.576 4.931 4.931 0 0 1-.343.558c-.154.182-.62.09-1.083 0 .62.818 2.322.728 3.379 1.053.399.076.798.153 1.183.265.41.088.811.204 1.204.368a13.175 13.175 0 0 1 2.515 1.346c.464.317.895.658 1.282 1.017 2.608 2.172 2.91 6.019.046 8.198-1.406 1.025-3.146.855-4.847.799a11.703 11.703 0 0 0-1.258.009c-4.743 2.398-9.867 2.27-15.047 1.504l-1.761.024c-.565.007-1.13.012-1.694.02l-1.694.017c-5.792.705-11.217.705-16.919.057a267681.376 267681.376 0 0 1-3.272-.008c-.529-.001-1.057-.004-1.583-.006a4.026 4.026 0 0 0-2.099.277c-3.271 1.437-6.392.988-9.559.371-.453-.089-.907-.18-1.36-.266-.683-.233-1.437-.233-2.039-.104-3.823.786-7.301.492-10.979-.082-.526-.083-1.054-.17-1.591-.26-1.895.213-3.704 1.111-5.512 1.753-2.713.768-4.972-.77-7.583-1.363-.428-.076-.68-.106-.68-.106z"/>
      </g>
    </g>
    <g id="pail" stroke="#37474F" stroke-width="2" stroke-miterlimit="10">
      <g id="pailBody_1_">
        <path id="pailSpout" fill="none" stroke-linecap="round" stroke-linejoin="round" d="M379.974 363.354l-17.689-10.422 4.885-5.847 12.804 7.544"/>
        <path id="pailHandle" fill="none" stroke-linecap="round" stroke-linejoin="round" d="M434.648 350.378c-.488 0-8.231 1.622-8.231 1.622l-.238 3.514s5.396-.763 5.758-.745c2.784.145 4.539 1.511 4.457 3.078l-.803 15.461c-.082 1.569-1.969 2.747-4.753 2.601-.362-.019-5.863-2.602-5.863-2.602l-.314 4.644s9.5 3.44 9.987 3.44c3.753 0 6.352-1.865 6.352-4.167v-22.68c0-2.301-2.598-4.166-6.352-4.166z"/>
        <path id="pailNozzle" fill="none" stroke-linecap="round" stroke-linejoin="round" d="M364.374 338.258c3.391 2.427 3.909 7.51 1.158 11.354-2.751 3.842-7.73 4.99-11.121 2.562l9.963-13.916z"/>
        <path id="pailBody" fill="#FFFFFF" d="M426 346v21.61c0 11.303-6.351 21.39-14.536 21.39h-16.671C386.609 389 380 378.913 380 367.61V346"/>
      </g>
      <ellipse id="pailTop" fill="none" stroke-linecap="round" stroke-linejoin="round" cx="402.974" cy="345.96" rx="23" ry="1.734"/>
    </g>
    <g id="flowers" stroke="#37474F" stroke-width="2" stroke-linecap="round" stroke-miterlimit="10">
      <path id="flowerPotBottom" fill="#FFFFFF" stroke-linejoin="round" d="M252.647 341.072l-5.438 46.195c-24.646 7.509-46.638 0-46.638 0l-5.438-46.195 57.514-.103"/>
      <path id="flowerPotLip" fill="#FFFFFF" stroke-linejoin="round" d="M253 348v-12.421c-29.53 5.778-59 .005-59-.051v11.71l.565.389s27.216 7.882 58.435.373"/>
      <path id="flowerPotTop" fill="#FFFFFF" stroke-linejoin="round" d="M252.824 335.631c-33.979-7.241-58.47-.046-58.47-.103 0 .056 29.617 5.881 58.47.103z"/>
      <g id="stems" fill="none">
        <path id="stemCenter" d="M223.362 338.243c0-33.348-4.155-60.332-9.29-60.332"/>
        <path id="stemLeft" d="M220.369 337.471c0-15.096-10.304-27.313-23.038-27.313"/>
        <path id="stemRight" d="M220.981 338.243c0-20.399 9.535-36.905 21.318-36.905"/>
      </g>
      <g id="leaves">
        <g id="leafRight">
          <path fill="#FFFFFF" d="M220.494 321.887c10.97-2.106 23.341 10.161 29.352 29.442l-.052.052c-19.282-6.01-31.637-18.468-29.53-29.438"/>
          <path fill="none" d="M220.494 321.887c9.434 7.373 19.064 18.379 29.352 29.442"/>
        </g>
        <g id="leafCenter">
          <path fill="#FFFFFF" d="M219.961 323.9c10.784 4.935 13.926 23.162 7.25 43.538l-.078.014c-12.972-17.074-15.984-35.455-7.406-43.644"/>
          <path fill="none" d="M219.961 323.9c3.618 12.186 5.167 27.634 7.25 43.538"/>
        </g>
        <g id="leafLeft">
          <path fill="#FFFFFF" d="M220.729 321.743c.924 9.182-10.081 18.456-26.388 21.981l-.039-.048c6.367-15.421 17.527-24.667 26.398-22.125"/>
          <path fill="none" d="M220.729 321.743c-6.761 7.22-16.526 14.331-26.388 21.981"/>
        </g>
      </g>
      <g id="petals" fill="#FFFFFF">
        <g id="petalsRight">
          <path d="M258.608 316.63c-5.018 1.639-11.372-3.958-15.092-13.451l.021-.029c9.281 2.058 15.637 7.752 15.175 13.439"/>
          <path d="M264.127 310.976c-4.534 2.861-11.905-.979-17.541-9.275l.015-.034c9.466-.341 16.859 3.595 17.618 9.244"/>
          <path d="M266.053 300.054c-3.256 4.472-11.405 3.843-19.438-1.625l.002-.038c8.693-4.098 16.895-3.389 19.5 1.564"/>
          <path d="M263.342 290.152c-1.474 5.478-9.243 8.234-18.573 6.459l-.01-.035c6.641-7.36 14.486-10.064 18.608-6.542"/>
          <path d="M257.21 282.067c1.284 5.534-4.124 12.209-12.988 15.845l-.025-.025c2.291-10.015 7.789-16.687 12.98-15.935"/>
          <path d="M245.393 278.587c4.317 3.233 4.301 12.413-.152 21.413h-.034c-4.348-9-4.263-18.22.092-21.392"/>
          <path d="M231.343 283.679c5.186-.795 10.693 5.782 13.057 15.778l-.026.024c-8.889-3.559-14.383-10.235-13.139-15.78"/>
          <path d="M227.616 291.708c4.832-2.206 11.691 2.629 16.308 11.643l-.02.031c-9.426-.979-16.298-5.913-16.388-11.621"/>
          <path d="M226.323 305.992c2.326-5.115 10.415-6.358 19.321-2.843l.003.038c-7.711 5.988-15.869 7.165-19.367 2.916"/>
          <path d="M230.062 316.161c.106-5.708 6.941-10.584 16.374-11.534l.017.032c-4.64 8.997-11.562 13.846-16.387 11.623"/>
          <path d="M240.366 322.842c-3.548-4.199-1.713-12.875 4.49-20.676l.033.01c2.366 9.993.45 18.715-4.443 20.751"/>
          <path d="M249.453 324.087c-4.728-2.457-5.99-11.253-2.899-21.011l.034-.004c5.61 8.314 6.813 17.186 2.968 21.061"/>
        </g>
        <g id="petalsLeft">
          <path d="M205.896 324.968c-3.584 1.639-8.122-3.958-10.779-13.451l.015-.029c6.629 2.058 11.168 7.752 10.838 13.439"/>
          <path d="M209.835 319.314c-3.237 2.861-8.5-.979-12.525-9.275l.01-.034c6.761-.341 12.04 3.595 12.583 9.244"/>
          <path d="M211.212 308.393c-2.326 4.472-8.145 3.843-13.882-1.625l.002-.037c6.208-4.099 12.065-3.389 13.926 1.564"/>
          <path d="M209.275 298.491c-1.052 5.478-6.6 8.234-13.264 6.459l-.007-.035c4.742-7.359 10.345-10.063 13.29-6.542"/>
          <path d="M204.897 290.405c.916 5.534-2.946 12.209-9.276 15.845l-.017-.025c1.635-10.015 5.562-16.687 9.27-15.936"/>
          <path d="M196.457 287.257c3.083 3.232 3.072 11.743-.109 21.743h-.024c-3.105-10-3.044-18.385.065-21.557"/>
          <path d="M186.423 292.017c3.703-.795 7.636 5.782 9.325 15.778l-.019.024c-6.348-3.559-10.272-10.235-9.384-15.78"/>
          <path d="M183.762 300.046c3.45-2.206 8.348 2.629 11.646 11.643l-.014.031c-6.732-.979-11.64-5.913-11.704-11.621"/>
          <path d="M182.838 314.331c1.661-5.115 7.438-6.358 13.798-2.842l.002.037c-5.507 5.989-11.334 7.165-13.832 2.917"/>
          <path d="M185.508 324.499c.076-5.707 4.957-10.584 11.693-11.534l.013.032c-3.314 8.996-8.258 13.845-11.703 11.623"/>
          <path d="M192.867 331.18c-2.534-4.199-1.223-12.875 3.207-20.676l.023.01c1.689 9.993.321 18.715-3.173 20.751"/>
          <path d="M199.356 332.426c-3.376-2.457-4.278-11.253-2.07-21.012l.024-.004c4.007 8.314 4.865 17.186 2.119 21.062"/>
        </g>
        <g id="petalsCenter">
          <path d="M228.637 291.614c-5.728 1.639-12.98-3.957-17.227-13.45l.024-.029c10.595 2.058 17.85 7.752 17.322 13.439"/>
          <path d="M234.937 285.96c-5.175 2.861-13.589-.979-20.022-9.275l.018-.034c10.805-.341 19.244 3.594 20.109 9.243"/>
          <path d="M237.136 275.039c-3.717 4.472-13.019 3.843-22.188-1.625l.002-.037c9.923-4.098 19.286-3.389 22.26 1.564"/>
          <path d="M234.041 265.137c-1.683 5.478-10.55 8.234-21.2 6.46l-.012-.036c7.581-7.359 16.536-10.063 21.242-6.542"/>
          <path d="M227.041 257.051c1.465 5.535-4.707 12.209-14.825 15.845l-.029-.025c2.615-10.015 8.891-16.687 14.817-15.935"/>
          <path d="M213.552 253.579c4.928 3.233 4.909 12.421-.174 21.421h-.039c-4.963-9-4.866-18.223.106-21.396"/>
          <path d="M197.515 258.663c5.919-.795 12.206 5.782 14.904 15.778l-.029.024c-10.147-3.559-16.419-10.234-14.999-15.779"/>
          <path d="M193.26 266.693c5.515-2.206 13.345 2.629 18.616 11.642l-.022.031c-10.761-.979-18.604-5.913-18.707-11.621"/>
          <path d="M191.785 280.977c2.654-5.115 11.888-6.358 22.054-2.842l.003.037c-8.803 5.989-18.114 7.166-22.107 2.917"/>
          <path d="M196.052 291.145c.122-5.707 7.922-10.584 18.69-11.534l.019.032c-5.296 8.996-13.197 13.846-18.705 11.623"/>
          <path d="M207.814 297.827c-4.05-4.199-1.956-12.875 5.125-20.676l.038.01c2.701 9.993.514 18.715-5.072 20.75"/>
          <path d="M218.187 299.072c-5.396-2.457-6.837-11.253-3.31-21.011l.039-.004c6.405 8.314 7.778 17.186 3.388 21.062"/>
        </g>
      </g>
      <g id="stamens" fill="#FFFFFF">
        <ellipse id="stamenRight" cx="245.458" cy="301.239" rx="5.556" ry="6.056"/>
        <ellipse id="stamenLeft" cx="196.504" cy="309.578" rx="3.968" ry="6.055"/>
        <ellipse id="stamenCenter" cx="213.627" cy="276.224" rx="6.342" ry="6.056"/>
      </g>
    </g>
    <g id="blinds" fill="none" stroke="#37474F" stroke-width="2" stroke-miterlimit="10">
      <path id="blindsBottom" d="M60 94h453v4H60z"/>
      <path id="blindsMiddle" d="M68 77h438v17H68z"/>
      <path id="blindsTop" d="M505.625 77c4.418 0 8-6.054 8-14.063S510.043 49 505.625 49h-437c-4.418 0-8 5.929-8 13.938S64.207 77 68.625 77h437z"/>
    </g>
    <g id="cactus">
      <path id="cactusPotBody" fill="#FFFFFF" stroke="#37474F" stroke-width="2" stroke-linecap="round" stroke-linejoin="round" stroke-miterlimit="10" d="M167.128 348.553l-4.713 40.053c-21.371 6.512-40.439 0-40.439 0l-4.715-40.053 49.867-.09"/>
      <path id="cactusPotLip" fill="#FFFFFF" stroke="#37474F" stroke-width="2" stroke-linecap="round" stroke-linejoin="round" stroke-miterlimit="10" d="M168 355l-.184-11.004c-26.338 5.011-51.816-.202-51.816-.25v10.153l.647.337S140.156 361.51 168 355"/>
      <path id="cactusPotTop" fill="none" stroke="#37474F" stroke-width="2" stroke-linecap="round" stroke-linejoin="round" stroke-miterlimit="10" d="M167.474 343.834c-29.914-6.278-51.474-.04-51.474-.088 0 .048 26.073 5.099 51.474.088z"/>
      <path id="cactusBody" fill="#FFFFFF" stroke="#37474F" stroke-width="2" stroke-miterlimit="10" d="M149.85 344.399s0-4.334.199-5.443c.2-1.109 2.094-3.226 3.49-3.126 1.397.103 5.285-2.116 7.378-3.225 2.094-1.108 5.483-7.055 7.179-10.079 1.695-3.024-.997-5.745-.997-5.745s-2.592-.403-4.586.604c-1.995 1.008-4.761 6.731-4.761 6.731s-4.112 6.879-6.805 6.201c-2.692-.677-1.826-5.735-1.826-5.735S150.017 284 142.24 284h.331c-8.45 0-7.475 25.363-7.475 25.363s.221 4.386-3.817 4.717c-4.037.329-4.486-2.452-4.86-3.662-.374-1.209-1.72-6.833-1.944-6.91-.224-.075-1.271-4.324-3.589-2.963-2.318 1.361-1.646 3.318-1.496 4.604.15 1.285 1.645 8.313 1.645 8.313s2.618 10.506 3.889 11.035c1.271.529 2.692 1.51 6.655 1.813 3.963.302 3.665 2.419 4.038 3.251.375.831 1.122 7.558 1.196 8.012.075.453.075 6.826.075 6.826"/>
      <g id="thorns">
        <path fill="#37474F" d="M134.083 292.191s1.307-.32 2.593-.438c.321-.026.654-.163.951-.146.295.031.561.162.783.323.448.298.717.777.717.777l-.021.199s-.361.415-.859.616c-.25.113-.537.187-.833.158-.294-.043-.592-.245-.901-.335-1.236-.376-2.451-.954-2.451-.954l.021-.2zM132.803 335.709s1.307-.32 2.594-.438c.321-.026.654-.163.951-.146.295.032.561.162.783.323.448.298.717.777.717.777l-.021.199s-.361.414-.859.616c-.25.113-.537.187-.833.158-.294-.044-.592-.245-.902-.335-1.236-.375-2.451-.954-2.451-.954l.021-.2zM136.643 296.031s1.307-.32 2.593-.438c.321-.026.654-.163.951-.146.295.031.561.162.783.323.448.298.717.777.717.777l-.021.199s-.361.415-.859.616c-.25.113-.537.187-.833.158-.294-.043-.592-.245-.901-.335-1.236-.376-2.451-.954-2.451-.954l.021-.2zM160.242 321.646s1.281.413 2.438.986c.287.146.642.205.886.375.235.182.393.432.498.686.225.489.203 1.038.204 1.038l-.122.159s-.524.164-1.055.074a1.656 1.656 0 0 1-.792-.302c-.228-.191-.376-.519-.592-.758-.856-.968-1.588-2.098-1.588-2.098l.123-.16zM154.563 324.19s1.307-.32 2.594-.438c.321-.026.654-.163.951-.146.295.032.561.162.783.323.448.298.717.777.717.777l-.021.199s-.361.414-.859.616c-.25.113-.537.187-.833.158-.294-.044-.592-.245-.902-.335-1.236-.375-2.451-.954-2.451-.954l.021-.2zM150.44 294.841s-1.345-.039-2.617-.267c-.316-.061-.673-.017-.955-.112a1.651 1.651 0 0 1-.669-.52c-.352-.406-.484-.939-.484-.939l.072-.187s.458-.304.992-.365c.271-.042.567-.037.845.069.272.12.505.394.78.563a20.297 20.297 0 0 1 2.109 1.571l-.073.187zM171.105 322.345s-1.307.32-2.593.438c-.321.026-.654.163-.951.146a1.66 1.66 0 0 1-.784-.323c-.447-.298-.717-.777-.717-.777l.021-.199s.361-.415.859-.616c.25-.113.537-.187.833-.158.294.043.592.245.901.335 1.236.375 2.451.954 2.451.954l-.02.2zM147.823 300.084s-1.341-.111-2.599-.407c-.313-.078-.672-.053-.948-.164a1.659 1.659 0 0 1-.641-.555c-.33-.425-.433-.965-.433-.965l.082-.182s.474-.278 1.011-.311c.273-.027.568-.007.839.114.265.135.484.42.749.604a20.396 20.396 0 0 1 2.022 1.683l-.082.183zM150.383 343.604s-1.342-.111-2.599-.408c-.313-.078-.672-.054-.948-.164a1.652 1.652 0 0 1-.641-.555c-.33-.425-.433-.965-.433-.964l.082-.183s.474-.278 1.011-.311a1.66 1.66 0 0 1 .84.115c.265.135.484.42.749.604a20.396 20.396 0 0 1 2.022 1.683l-.083.183zM146.777 315.25s-1.042-.853-1.908-1.811c-.214-.241-.523-.425-.688-.673a1.64 1.64 0 0 1-.212-.82c-.03-.537.191-1.04.191-1.04l.171-.104s.548.04 1.009.318c.24.132.471.317.626.571.142.262.16.621.273.922.442 1.214.709 2.533.709 2.533l-.171.104zM144.217 342.13s-1.042-.853-1.908-1.812c-.213-.241-.522-.425-.688-.673a1.653 1.653 0 0 1-.212-.82 2.567 2.567 0 0 1 .191-1.04l.171-.104s.548.04 1.009.318c.241.133.472.317.626.571.142.261.16.621.273.922.441 1.214.709 2.533.708 2.533l-.17.105zM151.896 337.011s-1.042-.854-1.908-1.812c-.213-.241-.522-.425-.687-.673a1.642 1.642 0 0 1-.212-.82c-.03-.537.191-1.04.191-1.04l.171-.104s.548.04 1.009.318c.24.133.472.317.626.571.142.261.16.621.273.922.441 1.214.708 2.533.708 2.533l-.171.105zM145.497 335.73s-1.042-.853-1.908-1.812c-.213-.241-.522-.425-.688-.673a1.653 1.653 0 0 1-.212-.82c-.03-.537.191-1.04.191-1.04l.171-.104s.548.04 1.009.318c.241.133.472.317.626.571.142.261.16.621.273.922.441 1.214.709 2.533.708 2.533l-.17.105zM144.217 324.21s-1.042-.853-1.908-1.811c-.213-.242-.522-.425-.688-.673a1.653 1.653 0 0 1-.212-.82c-.03-.537.191-1.04.191-1.04l.171-.104s.548.04 1.009.318c.241.132.472.317.626.571.142.262.16.621.273.922.441 1.214.709 2.533.708 2.533l-.17.104zM167.765 332.673s-1.895-.604-3.685-1.382c-.446-.198-.949-.299-1.345-.521a3.537 3.537 0 0 1-.942-.843 3.761 3.761 0 0 1-.681-1.221l.103-.172s.646-.138 1.398.019c.382.067.799.196 1.189.427.383.244.712.638 1.098.936a44.624 44.624 0 0 1 2.968 2.584l-.103.173zM117.236 314.988s1.723-.992 3.504-1.79c.447-.196.861-.499 1.292-.643.435-.129.87-.154 1.257-.127.768.03 1.361.32 1.361.32l.058.191s-.333.57-.956 1.02a3.536 3.536 0 0 1-1.118.59c-.438.118-.951.096-1.431.18-1.925.322-3.91.45-3.91.45l-.057-.191zM147.823 307.764s-1.341-.111-2.599-.408c-.313-.078-.672-.053-.948-.164a1.656 1.656 0 0 1-.64-.555c-.33-.425-.433-.965-.433-.965l.082-.182s.474-.278 1.011-.311c.273-.027.568-.006.839.115.265.135.484.42.749.604a20.396 20.396 0 0 1 2.022 1.683l-.083.183zM147.823 329.524s-1.341-.111-2.599-.408c-.313-.078-.672-.054-.948-.164a1.656 1.656 0 0 1-.64-.555c-.33-.425-.433-.965-.433-.965l.082-.182s.474-.278 1.011-.311c.273-.027.568-.006.839.115.265.135.484.42.749.604a20.396 20.396 0 0 1 2.022 1.683l-.083.183zM140.256 315.559s-.412-1.282-.621-2.557c-.048-.319-.208-.641-.213-.938.011-.297.122-.571.267-.805.266-.467.725-.77.724-.77l.2.006s.439.331.675.814c.13.242.224.522.216.819-.022.297-.202.608-.271.923-.288 1.26-.778 2.513-.778 2.513l-.199-.005zM132.464 316.725s-1.342-.111-2.599-.408c-.313-.078-.672-.054-.948-.164a1.666 1.666 0 0 1-.641-.555c-.33-.425-.433-.965-.433-.965l.082-.182s.474-.278 1.011-.311a1.66 1.66 0 0 1 .84.115c.265.135.484.42.749.604a20.396 20.396 0 0 1 2.022 1.683l-.083.183zM159.343 335.924s-1.342-.111-2.599-.408c-.313-.078-.672-.054-.948-.164a1.666 1.666 0 0 1-.641-.555c-.33-.425-.433-.965-.433-.965l.082-.182s.474-.278 1.011-.311a1.66 1.66 0 0 1 .84.115c.265.135.484.42.749.604a20.396 20.396 0 0 1 2.022 1.683l-.083.183zM142.59 294.117s-.476-1.242-.748-2.488c-.064-.312-.24-.621-.259-.914a1.616 1.616 0 0 1 .226-.806c.242-.474.685-.795.685-.795l.2-.004s.455.304.715.768c.142.232.25.503.257.796-.008.293-.172.609-.224.923-.224 1.255-.651 2.515-.651 2.515l-.201.005zM137.803 325.212s-2.173-.97-4.229-2.107c-.512-.287-1.088-.483-1.544-.786a5.007 5.007 0 0 1-1.087-1.057c-.574-.708-.794-1.411-.794-1.411l.114-.164s.736-.033 1.598.264c.438.139.915.348 1.365.661.44.325.822.799 1.267 1.182a64.026 64.026 0 0 1 3.427 3.253l-.117.165zM156.593 320.613s-2.25.775-4.528 1.35c-.57.14-1.125.39-1.665.48a5.04 5.04 0 0 1-1.516-.029c-.903-.125-1.544-.488-1.544-.488l-.028-.198s.515-.526 1.348-.898a5.052 5.052 0 0 1 1.448-.45c.544-.064 1.146.022 1.733-.002a63.554 63.554 0 0 1 4.725.036l.027.199zM130.134 337.854s2.553.927 5.006 2.031c.612.28 1.278.461 1.831.759a6.608 6.608 0 0 1 1.374 1.056 5.829 5.829 0 0 1 1.112 1.434l-.099.174s-.804.061-1.802-.216a6.594 6.594 0 0 1-1.612-.635c-.54-.321-1.039-.799-1.592-1.18-2.208-1.536-4.316-3.249-4.316-3.249l.098-.174zM128.829 330.88s.515-1.917 1.208-3.737c.177-.453.255-.959.457-1.365.215-.398.505-.723.798-.977.563-.52 1.188-.734 1.187-.734l.177.095s.167.638.046 1.395c-.05.384-.159.805-.372 1.205-.226.393-.604.738-.883 1.137a44.199 44.199 0 0 1-2.442 3.076l-.176-.095zM139.428 309.389s-.162-1.32-.125-2.595c.013-.318-.083-.661-.031-.949.067-.286.228-.529.414-.728.349-.401.857-.606.856-.606l.195.045s.368.405.508.918c.082.259.121.549.057.835-.078.283-.313.55-.44.842-.521 1.164-1.239 2.283-1.239 2.283l-.195-.045zM139.428 336.269s-.162-1.32-.125-2.595c.013-.318-.083-.66-.031-.949.067-.286.228-.529.414-.728.349-.401.857-.606.857-.606l.195.045s.368.405.508.918c.082.259.121.549.057.835-.078.283-.313.55-.44.842-.521 1.164-1.239 2.283-1.239 2.283l-.196-.045zM138.148 331.149s-.162-1.32-.125-2.595c.013-.318-.083-.66-.031-.949.066-.286.228-.529.414-.728.349-.401.857-.606.856-.606l.195.045s.368.405.508.917c.082.26.121.549.058.835-.079.283-.314.55-.44.842-.52 1.164-1.239 2.283-1.239 2.283l-.196-.044zM135.595 321.372s.627-1.173 1.391-2.194c.194-.252.313-.588.521-.794a1.62 1.62 0 0 1 .757-.357c.517-.127 1.049-.002 1.049-.002l.134.148s.068.543-.113 1.043a1.62 1.62 0 0 1-.434.716c-.227.186-.573.269-.844.435a19.737 19.737 0 0 1-2.328 1.153l-.133-.148zM154.794 331.611s.628-1.173 1.392-2.194c.193-.252.312-.588.521-.794.219-.195.491-.302.758-.356.517-.127 1.049-.002 1.049-.002l.134.148s.068.543-.113 1.043a1.61 1.61 0 0 1-.434.716c-.227.186-.573.269-.845.435a19.737 19.737 0 0 1-2.328 1.153l-.134-.149zM126.628 322.188s-.162-1.32-.125-2.594c.013-.318-.083-.661-.031-.95a1.62 1.62 0 0 1 .414-.727c.349-.401.857-.606.856-.606l.195.045s.368.405.508.918c.082.259.121.549.057.835-.079.283-.314.55-.44.841-.521 1.164-1.239 2.283-1.239 2.283l-.195-.045zM158.416 318.63s1.076-.143 2.091-.091c.253.017.539-.074.763-.019.221.069.397.23.534.417.28.348.384.85.384.85l-.059.191s-.367.357-.794.489c-.217.077-.454.112-.675.046-.217-.081-.403-.315-.622-.443-.871-.526-1.681-1.247-1.681-1.247l.059-.193zM122.111 310.756s-.476-1.242-.748-2.488c-.064-.312-.24-.621-.259-.914a1.606 1.606 0 0 1 .227-.806c.242-.474.685-.795.685-.795l.2-.004s.455.304.715.768c.142.232.25.503.257.797-.008.293-.171.609-.224.923a19.871 19.871 0 0 1-.652 2.515l-.201.004zM136.626 301.813s.822-1.045 1.752-1.918c.234-.215.41-.524.651-.691a1.61 1.61 0 0 1 .808-.219c.531-.035 1.034.181 1.034.181l.105.169s-.027.546-.292 1.007a1.607 1.607 0 0 1-.552.629c-.256.144-.611.165-.907.281-1.192.451-2.493.73-2.493.73l-.106-.169zM116.147 309.492s.822-1.045 1.751-1.917c.235-.215.41-.525.651-.691a1.62 1.62 0 0 1 .808-.219 2.556 2.556 0 0 1 1.034.18l.105.17s-.027.546-.292 1.007a1.607 1.607 0 0 1-.552.629c-.256.144-.611.165-.907.281a19.97 19.97 0 0 1-2.493.73l-.105-.17zM132.401 288.007s2.064-.272 4.111-.341c.511-.014 1.032-.138 1.508-.11.474.043.908.184 1.276.355a3.992 3.992 0 0 1 1.204.809l-.018.199s-.545.403-1.327.586a3.861 3.861 0 0 1-1.318.126c-.473-.055-.964-.269-1.466-.372a48 48 0 0 1-3.988-1.054l.018-.198zM117.245 323.087s1.741-1.142 3.554-2.093c.455-.234.87-.573 1.311-.754a3.888 3.888 0 0 1 1.303-.235 3.976 3.976 0 0 1 1.436.206l.07.187s-.316.6-.94 1.104a3.895 3.895 0 0 1-1.132.687c-.451.156-.986.177-1.482.302a48.87 48.87 0 0 1-4.049.784l-.071-.188zM131.121 304.647s2.064-.272 4.111-.341c.511-.013 1.032-.138 1.508-.11.475.043.909.185 1.276.355a3.992 3.992 0 0 1 1.204.809l-.018.199s-.545.403-1.327.586a3.888 3.888 0 0 1-1.318.127c-.474-.055-.965-.269-1.466-.372a48 48 0 0 1-3.988-1.054l.018-.199zM129.841 332.806s2.064-.272 4.111-.341c.511-.014 1.032-.138 1.508-.11.474.043.908.185 1.276.355a3.992 3.992 0 0 1 1.204.809l-.018.199s-.545.403-1.327.586a3.888 3.888 0 0 1-1.318.127c-.473-.055-.965-.269-1.466-.372-2.003-.425-3.988-1.053-3.988-1.053l.018-.2zM130.554 309.166s1.942.75 3.771 1.671c.455.233.972.374 1.376.626.396.265.708.597.95.923.495.631.669 1.287.669 1.287l-.111.166s-.672.092-1.445-.122a3.895 3.895 0 0 1-1.218-.521c-.389-.275-.718-.699-1.108-1.029-1.554-1.333-2.996-2.836-2.996-2.836l.112-.165zM162.813 312.97s1.339 1.594 2.499 3.283c.287.424.672.796.904 1.212.219.423.333.865.387 1.267a3.998 3.998 0 0 1-.034 1.45l-.178.093s-.633-.244-1.208-.804a3.873 3.873 0 0 1-.816-1.043c-.208-.429-.292-.958-.475-1.436-.719-1.917-1.257-3.929-1.257-3.929l.178-.093zM150.749 285.898s-2.021.503-4.046.804c-.506.071-1.01.254-1.486.28a3.906 3.906 0 0 1-1.308-.208 3.975 3.975 0 0 1-1.288-.667l-.005-.2s.497-.462 1.252-.732a3.875 3.875 0 0 1 1.295-.275c.477.001.989.159 1.499.204 2.039.196 4.082.596 4.082.596l.005.198zM155.868 339.58s-2.01.542-4.03.88c-.505.081-1.005.273-1.48.308a3.898 3.898 0 0 1-1.312-.183 3.996 3.996 0 0 1-1.3-.643l-.009-.2s.488-.471 1.238-.756a3.883 3.883 0 0 1 1.29-.299c.477-.008.992.139 1.502.175a48.61 48.61 0 0 1 4.093.518l.008.2zM127.324 302.924s-1.209.486-2.425.77c-.304.067-.605.246-.891.267a1.55 1.55 0 0 1-.79-.219c-.465-.238-.784-.678-.784-.678l-.006-.2s.293-.458.744-.721c.225-.145.49-.254.776-.264.287.005.597.167.904.216 1.229.213 2.465.63 2.465.63l.007.199zM153.181 301.533s-1.833.987-3.722 1.779c-.473.194-.916.496-1.371.639-.459.128-.915.15-1.319.121a3.983 3.983 0 0 1-1.413-.328l-.055-.192s.367-.57 1.032-1.019c.33-.236.729-.456 1.188-.586.462-.117.997-.091 1.502-.173 2.023-.314 4.102-.432 4.102-.432l.056.191zM153.71 314.298s-1.631.992-3.323 1.79c-.424.196-.815.498-1.225.642-.415.13-.832.155-1.205.129-.739-.029-1.316-.317-1.316-.317l-.061-.19s.306-.568.893-1.018c.29-.236.646-.457 1.059-.59.418-.119.912-.097 1.371-.182 1.843-.324 3.747-.455 3.747-.455l.06.191z"/>
      </g>
    </g>
    <g id="thermometer">
      <path id="thermoMount" fill="#FFFFFF" stroke="#424242" stroke-width="2" stroke-miterlimit="10" d="M452 318h29v71h-29z"/>
      <path id="mercury" fill="#FFFFFF" stroke="#424242" stroke-width="2" stroke-miterlimit="10" d="M468 378c1.221.516 1.831 1.342 1.831 2.751a3.396 3.396 0 0 1-3.394 3.402c-1.879 0-3.426-1.523-3.426-3.402 0-1.384.99-2.22 1.99-2.751v-52.173c0-1.286.671-2.327 1.5-2.327s1.5 1.042 1.5 2.327V378z"/>
      <g id="thermoText" fill="#424242">
        <path d="M471.98 336.641h5.325c.312 0 .6.168.6.6 0 .432-.288.6-.6.6h-4.125v1.847h2.95c.312 0 .6.168.6.6 0 .432-.288.6-.6.6h-2.95v4.486c0 .384-.168.6-.6.6-.432 0-.6-.216-.6-.6v-8.733zM459.456 345.972c-.899 0-1.415-.36-1.799-1.139l-1.104-2.231c-.204-.408-.324-.792-.324-1.259 0-.528.096-.852.335-1.332l1.104-2.219c.408-.827.923-1.151 1.847-1.151h2.039c.264 0 .6.144.6.6 0 .432-.324.6-.6.6h-2.003c-.516 0-.6.048-.827.503l-1.043 2.087c-.156.324-.252.54-.252.912 0 .336.108.54.252.828l1.019 2.075c.24.492.36.528.9.528h1.955c.264 0 .6.144.6.6 0 .432-.324.6-.6.6h-2.099z"/>
      </g>
    </g>
    <g id="diary">
      <path id="diaryBottom" fill="#FFFFFF" stroke="#424242" stroke-width="2" stroke-linecap="round" stroke-linejoin="round" stroke-miterlimit="10" d="M1060.343 617.123l-109.711-40.794-62.887 20.672 110.492 44.568z"/>
      <path id="diaryPages" fill="#FFFFFF" stroke="#424242" stroke-width="2" stroke-linecap="round" stroke-miterlimit="10" d="M1054.849 607.951L998.9 629.975l-.059-.023-2.307 8.536 58.344-22.937c.001 0-.368-4.165-.029-7.6z"/>
      <path id="diaryCover" fill="#FFFFFF" stroke="#424242" stroke-width="2" stroke-linecap="round" stroke-linejoin="round" stroke-miterlimit="10" d="M1065.528 605.941l-115.369-42.612-66.131 21.594 116.194 46.556z"/>
      <path id="diarySpine" fill="#FFFFFF" stroke="#424242" stroke-width="2" stroke-linecap="round" stroke-miterlimit="10" d="M997.131 628.576c2.711 1.08 4.664 3.092 4.399 4.297l-1.44 6.539c-.268 1.207-2.714 1.461-5.423.378l-109.251-43.608c-2.71-1.08-4.663-3.091-4.396-4.297l1.435-6.543c.27-1.206 2.716-1.457 5.425-.381l109.251 43.615z"/>
      <g id="diaryText">
        <defs>
          <path id="SVGID_1_" d="M909.724 594.297l8.154-32.728 102.609 25.581-8.154 32.728z"/>
        </defs>
        <clipPath id="SVGID_2_">
          <use xlink:href="#SVGID_1_" overflow="visible"/>
        </clipPath>
        <g fill="#424242" clip-path="url(#SVGID_2_)">
          <path d="M928.644 594.08l-12.958-5.73.172-.059c.611-.225.732-.284 1.871 0l.125.031 4.937 1.256c.846.217 1.426.349 2.194.689.56.248.823.453 1.189.737l2.77 2.211c.581.456.556.558-.034.769l-.266.096m-10.529-6.639c-1.972-.491-3.219-.606-4.292-.216l-2.324.842c-.429.156-.488.434.322.791.218.096.423.165.616.214.556.139 1.01.097 1.351-.028l.51-.187 12.958 5.728-.663.243c-.366.131-.384.39.427.747.236.104.458.18.664.231.498.124.896.105 1.148.012l2.306-.841c1.09-.392 1.194-.847.088-1.729l-2.813-2.262a8.699 8.699 0 0 0-2.066-1.235c-1.026-.456-1.82-.695-3.016-.999l-5.168-1.298a.854.854 0 0 0-.048-.013M928.021 582.496c-.502-.125-.902-.106-1.162-.016l-5.469 1.993c-.366.131-.384.39.427.747.234.104.455.179.661.23.497.123.898.106 1.151.012l2.041-.744 12.958 5.73-2.04.741c-.357.134-.375.392.426.747.236.104.459.181.665.231.498.124.897.106 1.157.014l5.468-1.99c.366-.131.385-.39-.426-.747a4.172 4.172 0 0 0-.665-.231c-.498-.124-.896-.105-1.148-.012l-2.04.742-12.967-5.729 2.049-.743c.357-.13.376-.392-.426-.747a4.127 4.127 0 0 0-.66-.228M944.417 585.274l-4.993-3.079.031-.011 7.144 2.298-2.182.792m-9.063-5.377c-.47-.117-.916-.172-1.231-.058-.44.163-.059.455.439.766l12.458 7.697c.139.088.334.16.546.213.447.111.975.137 1.236.041.429-.156.068-.497-.374-.769l-2.159-1.383 2.957-1.074 3.21 1.003c.156.05.321.098.49.141.517.128 1.052.198 1.375.08.396-.139.188-.533-.447-.736l-17.863-5.735a10.61 10.61 0 0 0-.637-.186M947.825 579.486l-3.501-1.548 3.101-1.125a2.44 2.44 0 0 1 1.489-.087c.16.04.327.097.502.175l1.546.681c.902.398.331.641-.056.782l-3.081 1.122m1.384-3.634c-1.534-.382-3.033-.39-3.849-.095l-4.671 1.694 16.326 7.217c.254.111.493.197.718.253.41.103.772.106 1.095-.01.5-.184.293-.432-.426-.751l-8.338-3.684.316-.118 12.666 2.511c.512.103.962.157 1.238.055.397-.139.287-.445-.339-.722a4.226 4.226 0 0 0-.668-.217c-.293-.073-.599-.131-.865-.182l-10.349-2.057 1.275-.466c1.111-.401 1.123-1.271-.991-2.204l-1.546-.684a9.855 9.855 0 0 0-1.592-.54M957.953 571.561c-.41-.103-.775-.105-1.098.013-.5.183-.284.433.427.747l1.528.676 2.237 2.633-6.327-1.149-1.52-.674a4.572 4.572 0 0 0-.718-.253c-.41-.103-.772-.106-1.095.011-.501.183-.294.431.425.75l2.281 1.007 8.481 1.546 7.17 3.168c.255.113.496.2.723.257.411.103.776.105 1.098-.013.5-.18.293-.429-.426-.747l-7.176-3.172-3.007-3.532-2.28-1.01a4.196 4.196 0 0 0-.723-.258M949.978 596.235c-.452-.113-.896-.144-1.166-.046-.225.08-.174.248-.12.404l1.573 4.11-5.155-2.281a4.604 4.604 0 0 0-.718-.253c-.413-.103-.78-.107-1.104.012-.5.18-.283.431.426.747l15.206 6.719c.256.114.496.2.722.257.408.102.77.104 1.092-.014.5-.184.293-.432-.427-.747l-5.18-2.291 9.683 1.012c.49.039 1.135.134 1.422.024.407-.143.128-.479-.498-.756a2.996 2.996 0 0 0-.5-.168 5.912 5.912 0 0 0-.808-.133l-11.354-1.181-1.809-4.657c-.077-.169-.233-.363-.618-.532a4.29 4.29 0 0 0-.667-.226M959.919 592.567c-.497-.124-.898-.105-1.159-.015l-6.161 2.245 17.438 7.707 6.169-2.24c.358-.133.385-.39-.426-.747a4.024 4.024 0 0 0-.664-.23c-.498-.125-.896-.106-1.148-.012l-4.783 1.735-5.354-2.369 2.039-.741c.358-.133.376-.392-.425-.747a4.147 4.147 0 0 0-.666-.231c-.497-.124-.896-.105-1.148-.012l-2.039.742-5.365-2.369 4.774-1.738c.366-.131.386-.393-.425-.75a4.1 4.1 0 0 0-.657-.228M969.912 588.93c-.497-.124-.895-.104-1.147-.01l-6.169 2.241 17.444 7.712 6.161-2.246c.367-.131.385-.39-.426-.747a3.896 3.896 0 0 0-.661-.229c-.497-.124-.898-.107-1.152-.013l-4.773 1.738-5.365-2.369 2.042-.744c.365-.131.384-.39-.427-.747a3.962 3.962 0 0 0-.658-.229c-.496-.124-.896-.105-1.154-.013l-2.04.741-5.364-2.369 4.782-1.735c.357-.133.376-.392-.426-.747a3.94 3.94 0 0 0-.667-.234M982.592 590.826l-6.365-2.815 3.08-1.123c.506-.185.896-.222 1.424-.091.325.081.701.227 1.188.44l3.141 1.39c1.278.566 1.438.78.614 1.076l-3.082 1.123m-1.511-4.908a10.731 10.731 0 0 0-1.36-.243c-1.261-.156-1.877-.06-2.52.171l-4.61 1.678 16.325 7.217c.255.112.493.197.718.253.41.103.772.106 1.096-.011.499-.183.293-.431-.425-.749l-5.474-2.418 3.049-1.105c.746-.274 1.224-.52.778-1.151-.399-.595-1.157-.974-2.303-1.479l-3.05-1.347c-.794-.353-1.447-.623-2.224-.816M992.106 613.884l-.124-.031-5.598-1.398c-.645-.165-1.128-.31-1.712-.57-.735-.326-1.059-.556-1.496-.918l-2.808-2.249c-.248-.197-.493-.363-.198-.468.229-.085.523-.03.873.058.088.021.179.045.272.069l5.307 1.339.195.048c.746.187 1.257.335 1.943.638.575.258.903.466 1.243.741l2.926 2.366c.217.175.474.369.198.469-.246.09-.644 0-1.021-.094m-10.663-6.425c-1.388-.346-2.736-.482-3.521-.202-.776.283-.561.838.164 1.425l3.065 2.477c.612.483 1.172.807 2.133 1.23 1.077.478 1.93.709 3.123 1.014l5.403 1.359.035.009c1.4.349 2.723.487 3.521.195.806-.29.581-.839-.161-1.436l-2.852-2.291c-.645-.507-1.137-.87-2.207-1.344-.969-.429-1.714-.678-2.855-.972l-5.848-1.464M991.758 602.614c-.41-.102-.773-.105-1.096.011-.501.184-.294.432.425.75l12.507 5.529c1.263.556 1.336.78.715 1.006l-2.365.857c-.389.143-.75.176-1.269.046-.315-.078-.688-.216-1.16-.426l-12.508-5.526a4.584 4.584 0 0 0-.722-.257c-.408-.102-.77-.104-1.092.014-.5.181-.292.429.426.747l12.508 5.529c.734.326 1.394.588 2.18.784.314.078.648.146 1.016.203 1.357.208 2.174.133 2.868-.119l2.356-.859c.703-.253.968-.571.579-1.134-.368-.533-1.108-.915-2.135-1.37l-12.517-5.532a4.59 4.59 0 0 0-.716-.253M1001.352 598.735l-6.855 2.498 3.05 1.347c.253.113.492.199.718.256.408.102.773.105 1.095-.013.5-.181.293-.429-.426-.747l-.811-.358 1.347-.488 14.078 6.222c.254.112.494.198.72.254.413.104.779.107 1.102-.009.5-.183.294-.432-.426-.747l-14.086-6.228 1.355-.487.802.355c.256.113.495.2.721.257.409.102.77.104 1.092-.015.5-.183.293-.431-.426-.746l-3.05-1.351"/>
        </g>
      </g>
    </g>
    <g id="pig">
      <path fill="#37474F" d="M713.265 339.235c4.729-3.393 8.019-9.49 3.971-14.714-3.644-4.704-8.408-2.648-7.958 3.321.44 5.846 8.392 5.478 12.201 3.924 6.108-2.492 5.479-11.161 5.44-16.509-.014-1.934-3.014-1.935-3 0 .038 5.204.886 12.477-5.275 14.338-1.352.408-2.765.337-4.123.05-3.49-.737-1.776-5.65.042-3.715 3.401 3.619.533 8.314-2.812 10.714-1.557 1.118-.062 3.722 1.514 2.591z" id="tail"/>
      <g id="eyes" fill="none" stroke="#37474F" stroke-width="2" stroke-miterlimit="10">
        <path id="eyeLeft" d="M637.643 337.095c-.831-.298-1.917.256-2.424 1.237-.508.981-.247 2.018.584 2.314.831.297 1.917-.257 2.425-1.238.508-.98.247-2.017-.585-2.313z"/>
        <path id="eyeRight" d="M648.417 336.991c-1.139-.242-2.363.54-2.733 1.745-.371 1.206.253 2.379 1.392 2.62 1.139.241 2.362-.541 2.732-1.746.371-1.205-.253-2.378-1.391-2.619z"/>
      </g>
      <path id="snoutFront" fill="none" stroke="#37474F" stroke-width="2" stroke-miterlimit="10" d="M644.695 359.836c.994 7.229-3.685 13.61-10.45 14.251-6.765.641-13.054-4.7-14.048-11.929s3.685-13.611 10.45-14.251c6.765-.641 13.054 4.699 14.048 11.929z"/>
      <g id="nostrils" fill="none" stroke="#37474F" stroke-width="2" stroke-miterlimit="10">
        <path id="nostrilRight" d="M636.354 356.006c-1.271-.143-2.479.837-2.7 2.189-.222 1.352.629 2.564 1.899 2.708 1.271.143 2.479-.837 2.7-2.189.222-1.352-.628-2.565-1.899-2.708z"/>
        <path id="nostrilLeft" d="M628.386 355.561c-1.279-.07-2.402.979-2.508 2.34s.845 2.521 2.125 2.589c1.28.068 2.402-.979 2.508-2.342.106-1.361-.845-2.52-2.125-2.587z"/>
      </g>
      <path id="coinSlot" fill="none" stroke="#37474F" stroke-width="2" stroke-linecap="round" stroke-miterlimit="10" d="M649.247 324.693c8.429-5.118 9.011-5.223 19.783-6.963-10.097.425-16.501 2.546-22.34 6.427l2.557.536z"/>
      <g id="bodyElements" fill="none" stroke="#37474F" stroke-width="2" stroke-miterlimit="10">
        <path id="pigBody" d="M668.112 315.74c-25.186 3.541-45.948 17.171-46.095 37.573 1.865-2.983 4.931-5.056 8.63-5.406 6.765-.642 13.054 4.699 14.048 11.929s-3.685 13.61-10.45 14.251c-1.813.172-3.588-.098-5.241-.707 1.553 2.018 3.353 3.895 5.335 5.633 7.161.108 13.039 3.712 13.995 8.396.355.146.714.293 1.089.444a54.55 54.55 0 0 0 6.66 1.962l-1.456-5.347c0-.935 7.759-7.993 17.975-1.693l.594 8.292c24.138-1.816 42.861-18.338 42.478-38.202-.402-20.846-19.966-41.003-47.562-37.125z"/>
        <path id="legBack" d="M691.224 386.636l3.02 8.506c12.27.663 16.319-5.901 16.319-5.901l-6.194-11.188c-3.686 3.462-8.137 6.378-13.145 8.583z"/>
        <path id="legFrontRight" stroke-linejoin="round" d="M656.933 392.932l-2.305-8.463c0-.935 7.759-7.993 17.975-1.693l.647 9.027c.603 3.996-13.708 6.066-16.317 1.129z"/>
        <path id="legFrontLeft" stroke-linecap="round" stroke-linejoin="round" d="M634.101 379.049l-9.29 13.087c.555 1.746 7.777 3.83 16.571 2.35l7.105-5.68c.048-5.393-6.391-9.752-14.342-9.801"/>
      </g>
      <g id="backElements" fill="none" stroke="#37474F" stroke-width="2" stroke-linejoin="round" stroke-miterlimit="10">
        <path id="earBackLeft" d="M621.834 320.085c5.139-3.712 17.058 1.87 20.289 3.574l.503.08a62.875 62.875 0 0 1 5.564-2.656c-15.683-6.525-25.444-3.406-26.356-.998z"/>
        <path id="snoutBack" d="M653.357 353.497c-4.309-7.291-12.823-11.149-19.015-8.623-.725.296-7.915 4.296-7.915 4.296l.002.007a11.337 11.337 0 0 1 1.978-.822c.102-.032.208-.054.312-.082.253-.069.504-.141.765-.193.38-.077.767-.136 1.163-.174 6.765-.642 13.054 4.699 14.048 11.929.062.452.102.9.121 1.344.005.128-.004.253-.002.381.005.313.011.628-.005.936-.009.161-.034.316-.048.475-.024.27-.042.542-.082.807-.035.233-.089.458-.136.687-.038.185-.065.373-.11.554-.063.255-.147.501-.225.75-.046.147-.082.298-.133.442-.098.276-.215.542-.33.809-.047.108-.084.221-.134.328-.134.287-.286.561-.439.835-.044.078-.081.162-.126.239-.188.317-.392.623-.606.919-.02.027-.036.057-.055.083-1.887 2.578-4.742 4.333-8.118 4.66l.008.026 14.307-2.402c6.192-2.52 9.084-10.925 4.775-18.211z"/>
        <path id="earBackRight" stroke-linecap="round" d="M667.903 319.57c1.139-.125 16.689-1.34 8.085 26.926 0 0 17.329-5.639 10.212-18.942 0 0-6.584-10.2-18.297-7.984z"/>
      </g>
      <g id="earInner" fill="none" stroke="#37474F" stroke-width="2" stroke-linejoin="round" stroke-miterlimit="10">
        <path id="earInnerLeft" d="M642.879 324.079c-1.697-1.063-35.537-18.734-18.776 17.448 3.653-7.235 10.311-13.136 18.776-17.448z"/>
        <path id="earInnerRight" d="M667.832 319.578c-2.335.701-9.016 3.081-13.024 7.977 0 0 17.085-.563 21.181 18.941 8.927-29.329-8.157-26.918-8.157-26.918z"/>
      </g>
    </g>
    <g id="car" stroke="#37474F" stroke-width="2" stroke-miterlimit="10">
      <g id="carLights" fill="#FFFFFF">
        <path id="lightBack" d="M487 574.625c0 1.791-1.324 4.375-3.338 4.375h-4.403c-2.014 0-4.259-2.584-4.259-4.375v-5.996c0-1.792 2.245-2.629 4.259-2.629h4.403c2.014 0 3.338.837 3.338 2.629v5.996z"/>
        <path id="lightFront" d="M329.972 574.722c.01 1.797-1.474 4.276-3.485 4.278h-4.402c-2.015 0-4.085-2.47-4.085-4.261v-5.996c2-4.743 10-3.743 11.929-.046l.043 6.025z"/>
      </g>
      <path id="carBody" fill="#FFFFFF" d="M321.375 579.813C320.935 559.393 337 549 355 548c3 0 7-1 8-4 6-17 22-30 38.561-33.925a50.725 50.725 0 0 1 9.951-1.5c26.533-1.344 52.311 17.982 59.601 44.211 0 0 2.089 5.489 4.971 11.196s6.557 11.632 9.728 12.501l6.341 1.737c2.297 0 4.157 2.639 4.157 4.889S494.45 588 492.153 588H321.816c-2.296 0-4.221-2.641-4.221-4.891s1.797-4.56 4.093-4.56"/>
      <g id="tires" fill="#FFFFFF">
        <circle id="tireRight" cx="452.965" cy="585.031" r="17.248"/>
        <circle id="tireLeft" cx="365.965" cy="585.031" r="17.248"/>
      </g>
      <g id="hubs" fill="#FFFFFF">
        <circle id="hubRight" cx="452.854" cy="584.92" r="9.026"/>
        <circle id="hubLeft" cx="365.854" cy="584.92" r="9.026"/>
      </g>
      <path id="handle" fill="#FFFFFF" d="M403 555.963c-4 4.037-8.954 3.037-12.954.037 4-2 8.954-2 12.954-.153v.116z"/>
      <g id="carAntenna" fill="none" stroke-linecap="round">
        <path id="carAntennaBottom" d="M470 550v-40 40z"/>
        <circle id="carAntennaTop" cx="470.408" cy="506.363" r="3.323"/>
      </g>
      <g id="carWindow" stroke-linejoin="round">
        <path id="carWindowRight" fill="none" d="M409 548h55c-18.749-37.066-53-34.044-55-33.907v5.579c0 3.259.004 7.605.002 11.949.002 6.06.006 10.207-.002 16.379z"/>
        <path id="carWindowLeft" fill="#FFFFFF" d="M404 515c-17 2-32 16-36 33 12 0 23.989-.008 35.95-.034 0 0 .05-21.966.05-32.966z"/>
      </g>
    </g>
    <g id="clock">
      <circle id="clockBody" fill="none" stroke="#37474F" stroke-width="2" stroke-miterlimit="10" cx="1318.8" cy="423.25" r="23.25"/>
      <path id="clockFace" fill="none" stroke="#37474F" stroke-width="2" stroke-miterlimit="10" d="M1336.47 423.109c0 9.771-7.92 17.681-17.68 17.681-9.771 0-17.69-7.91-17.69-17.681 0-9.77 7.92-17.689 17.69-17.689 9.76 0 17.68 7.92 17.68 17.689z"/>
      <path fill="#37474F" d="M1318.6 413c.001 0 .452 2.667.7 5.5.059.708.229 1.334.242 1.998a7.001 7.001 0 0 1-.242 1.773c-.251 1.063-.7 1.729-.7 1.729h-.199s-.449-.708-.7-1.771a7.347 7.347 0 0 1-.242-1.815c.014-.664.184-1.206.242-1.914.248-2.833.699-5.5.699-5.5h.2z" id="clockHour"/>
      <path fill="#37474F" d="M1329.205 433.522s-.803-.574-1.977-1.467c-1.191-.874-2.72-2.106-4.268-3.316-.767-.613-1.594-1.16-2.282-1.768a14.187 14.187 0 0 1-1.685-1.875c-.913-1.179-1.33-2.172-1.33-2.172l.135-.146s1.025.331 2.277 1.14c.632.397 1.333.901 2.012 1.52.663.635 1.279 1.412 1.955 2.124 1.337 1.439 2.694 2.856 3.667 3.97a95.7 95.7 0 0 1 1.63 1.845l-.134.145z" id="clockMinute"/>
      <path id="bellLeft" fill="none" stroke="#37474F" stroke-width="2" stroke-linecap="round" stroke-linejoin="round" stroke-miterlimit="10" d="M1313.42 395.463c-13.096-5.517-21.227-.011-20.935 14.167l20.935-14.167z"/>
      <path id="bellRight" fill="none" stroke="#37474F" stroke-width="2" stroke-linecap="round" stroke-linejoin="round" stroke-miterlimit="10" d="M1324.479 395.463c13.096-5.517 21.227-.011 20.935 14.167l-20.935-14.167z"/>
      <g id="clockLegs" stroke="#37474F" stroke-width="2" stroke-miterlimit="10">
        <path id="clockLegRight" fill="none" d="M1332.385 442.965l3.703 8.035h3l-4.354-9.978a23.267 23.267 0 0 1-2.349 1.943z"/>
        <path id="clockLegLeft" fill="#FFFFFF" d="M1299 451h3l3.578-8.263c-.831-.575-1.625-.95-2.373-1.626L1299 451z"/>
      </g>
    </g>
    <g id="remote" stroke="#37474F" stroke-width="2" stroke-miterlimit="10">
      <path id="remoteBottom" fill="#FFFFFF" stroke-linecap="round" stroke-linejoin="round" d="M137 705h104v16H137z"/>
      <path id="remoteBody" fill="none" stroke-linecap="round" stroke-linejoin="round" d="M241 705l-104.112.003L160.685 673h56.95z"/>
      <g id="remoteButtons" fill="#FFFFFF" stroke-linecap="round">
        <ellipse id="remoteButtonLeft" cx="171.908" cy="690" rx="14.917" ry="5.667"/>
        <ellipse id="remoteButtonRight" cx="206.908" cy="690" rx="14.917" ry="5.667"/>
      </g>
      <g id="remoteAntenna" fill="none">
        <path id="remoteAntennaBottom" d="M189 673v-23"/>
        <circle id="remoteAntennaTop" stroke-linecap="round" cx="189.408" cy="647.363" r="3.323"/>
      </g>
      <g id="remoteStickBottoms" fill="#FFFFFF">
        <path id="remoteStickBottomLeft" d="M168 691v-13h6v13"/>
        <path id="remoteStickBottomRight" d="M203 691v-13h6v13"/>
      </g>
      <g id="remoteStickTops" fill="#FFFFFF">
        <ellipse id="remoteStickTopRight" cx="206" cy="677.348" rx="3" ry="1.795"/>
        <ellipse id="remoteStickTopLeft" cx="171" cy="677.348" rx="3" ry="1.795"/>
      </g>
    </g>
    <g id="lamp" fill="none" stroke="#37474F" stroke-width="2" stroke-miterlimit="10">
      <path id="lampBottom" d="M815 362.54v-6.476c-6.582.571-13.99.646-22-.17v6.605c-6 0-12 5.37-12 12v9c0 6.63 5.87 12.5 12.5 12.5h21c6.63 0 11.5-5.87 11.5-12.5v-9c0-6.289-4-11.449-11-11.959z"/>
      <path id="lampShade" stroke-linejoin="round" d="M825.103 297.254c-.011 2.345-8.76 4.246-19.551 4.246-10.798 0-21.552-2.153-21.552-4.5l-20.88 51.82c45.63 17.305 82.76 0 82.76 0l-20.777-51.566z"/>
      <ellipse id="lampTop" cx="804.551" cy="297.333" rx="20.551" ry="3.594"/>
    </g>
    <g id="solarSystem" stroke="#37474F" stroke-width="2" stroke-miterlimit="10">
      <circle id="sun_1_" fill="none" cx="1075.143" cy="172.23" r="42.148"/>
      <circle id="marsBody" fill="none" cx="935.371" cy="158.371" r="15.371"/>
      <circle id="mercuryBody" fill="none" cx="1013.688" cy="155.372" r="11.486"/>
      <circle id="venusBody" fill="none" cx="1141.094" cy="160.411" r="14.094"/>
      <circle id="plutoBody" fill="none" cx="1020.758" cy="103.554" r="8.275"/>
      <g id="uranus" fill="none">
        <circle id="uranusBody" cx="803.041" cy="186.839" r="23.063"/>
        <path id="uranusRing" d="M805.551 210.099c-1.851 8.729-4.011 14.281-5.842 14.109-3.102-.29-4.086-16.872-2.201-37.037 1.884-20.165 5.925-36.277 9.027-35.986 1.768.165 2.848 5.627 3.101 14.029"/>
      </g>
      <g id="saturn">
        <path id="saturnBody" fill="#FFFFFF" d="M1297.282 175.754c0 11.116-9.01 20.127-20.125 20.127-11.118 0-20.126-9.011-20.126-20.127 0-11.114 9.008-20.125 20.126-20.125 11.115 0 20.125 9.011 20.125 20.125z"/>
        <path id="saturnRingOuter" fill="none" d="M1294.506 165.694c15.178 1.862 25.828 6.22 25.828 11.3 0 6.772-18.934 12.263-42.291 12.263-23.356 0-42.292-5.491-42.292-12.263 0-4.854 9.722-9.049 23.826-11.037"/>
        <path id="saturnRingInner" fill="none" d="M1258.081 170.099c-6.429 1.245-10.507 3.098-10.507 5.167 0 3.75 13.387 6.79 29.898 6.79s29.9-3.04 29.9-6.79c0-2.164-4.459-4.092-11.404-5.335"/>
        <path id="saturnRingMiddle" fill="none" d="M1295.338 167.114c12.102 1.579 20.4 4.821 20.4 8.564 0 5.293-16.594 9.584-37.063 9.584s-37.062-4.291-37.062-9.584c0-3.398 6.836-6.384 17.145-8.085"/>
      </g>
      <g id="neptune" fill="none">
        <circle id="neptuneBody" cx="871.552" cy="181.937" r="25.309"/>
        <path id="neptuneRing" d="M896.517 177.792c8.636 1.09 14.15 2.749 14.15 4.608 0 3.279-17.163 5.938-38.334 5.938-21.17 0-38.333-2.659-38.333-5.938 0-1.64 4.291-3.125 11.228-4.2"/>
      </g>
      <g id="rocket" fill="none">
        <path id="rocketBody" stroke-linejoin="round" d="M1382.796 158.928c-9.112-8.012-54.728 19.45-54.728 19.45 9.158 7.65 11.175 11.137 15.09 22.862 0 0 43.174-31.137 39.39-42.666"/>
        <g id="boosters" stroke-linejoin="round">
          <path id="boosterBottom" d="M1336.103 197.635l-4.441 2.931-7.427-11.251 4.443-2.931"/>
          <path id="boosterTop" stroke-linecap="round" d="M1341.81 197.268l-4.736 3.127c-3.724-7.744-5.216-10.16-10.552-15.988l4.737-3.127"/>
        </g>
        <g id="wingSide" stroke-linejoin="round">
          <path id="wingSideBottom" d="M1366.135 182.544l-13.281 30.812-8.207-12.435"/>
          <path id="wingSideTop" d="M1354.691 164.727l-33.541.833 8.478 12.251"/>
        </g>
        <path id="wingMiddle" d="M1358.994 174.383l-21.94 16.323-1.627-2.468 23.558-13.707"/>
        <ellipse id="window" transform="scale(-1) rotate(56.569 314.635 -2540.237)" cx="1366.804" cy="169.3" rx="3.902" ry="6.304"/>
      </g>
      <g id="jupiter" fill="none">
        <circle id="jupiterBody" cx="1127.075" cy="115.575" r="21.575"/>
        <ellipse id="jupiterSpot" transform="rotate(16.266 1136.671 122.456)" stroke-linecap="round" cx="1136.584" cy="122.429" rx="5.25" ry="2.079"/>
      </g>
      <g id="earth" fill="none">
        <circle id="earthBody" cx="1215.02" cy="157.382" r="14.065"/>
        <path id="earthLandLeft" stroke-linejoin="round" d="M1202.887 164.502c1.5 0 5.613-4.002 3.113-6.502 3.5-1.5 8-1.5 11-5 0-4.995-7.969-4.5-11.47-6.001a14.03 14.03 0 0 0-4.575 10.383c0 2.597.704 5.031 1.932 7.12z"/>
        <path id="earthLandRight" stroke-linecap="round" stroke-linejoin="round" d="M1220.259 170.438c0-4 3.241-7.438 5.241-11.438-1-.5-1.5-1.5-2.5-2-.25-5.75.965-7.563 1.965-9.563a14.018 14.018 0 0 1 4.12 9.945c0 5.915-3.652 10.978-8.826 13.056"/>
      </g>
      <g id="hangers" fill="none">
        <path id="centralHanger" d="M1075 0v130"/>
        <path id="uranusHanger" stroke-linejoin="round" d="M804 164l.14-41.079 271.864-30.087"/>
        <path id="earthHanger" stroke-linejoin="round" d="M1215 143v-11l-139.069-38.299"/>
        <path id="marsHanger" stroke-linecap="round" stroke-linejoin="round" d="M935 143v-11l-.068.017 140.036-38.316"/>
        <path id="mercuryHanger" stroke-linejoin="round" d="M1014 143v-11l61.931-38.299"/>
        <path id="venusHanger" stroke-linejoin="round" d="M1141 147v-11l-66.032-42.299"/>
        <path id="plutoHanger" stroke-linejoin="round" d="M1021 95V74l54.931 19.701"/>
        <path id="jupiterHanger" stroke-linejoin="round" d="M1127 94V75l-53.501 18.701"/>
        <path id="saturnHanger" stroke-linejoin="round" d="M1278 156V93h-203"/>
        <path id="rocketHanger" stroke-linejoin="round" d="M1345 164v-41.158l-271.146-30.008"/>
        <path id="neptuneHanger" stroke-linejoin="round" d="M872 157V93h203"/>
      </g>
    </g>
  </g>
  <g id="Buttons" fill="none">
    <path id="buttonRemote" d="M130 632h118v97H130z"/>
    <path id="buttonPig" d="M613 310h119v85H613z"/>
    <path id="buttonDiary" d="M875 558h198v86H875z"/>
    <path id="buttonSleep" d="M1187 327h70v60h-70z"/>
    <path id="buttonDresserTop" d="M613 408h240v65H613z"/>
    <path id="buttonDresserBottom" d="M612 479h240v64H612z"/>
    <path id="buttonCactus" d="M110 278h64v118h-64z"/>
    <path id="buttonFlower" d="M177 249h95v144h-95z"/>
    <path id="buttonPail" d="M350 330h94v62h-94z"/>
  </g>
</svg>
