<?xml version="1.0" encoding="utf-8"?>
<!-- Generator: Adobe Illustrator 16.0.0, SVG Export Plug-In . SVG Version: 6.00 Build 0)  -->
<!DOCTYPE svg PUBLIC "-//W3C//DTD SVG 1.1//EN" "http://www.w3.org/Graphics/SVG/1.1/DTD/svg11.dtd">
<svg version="1.1" id="Layer_1" xmlns="http://www.w3.org/2000/svg" xmlns:xlink="http://www.w3.org/1999/xlink" x="0px" y="0px"
	 width="500px" height="500px" viewBox="0 0 500 500" enable-background="new 0 0 500 500" xml:space="preserve">
<circle fill="#F2F2F2" cx="248" cy="247.927" r="244.625"/>
<g>
	<path fill="none" stroke="#4D4D4D" stroke-width="2" stroke-miterlimit="10" d="M351.334,203.333C354,210.667,352,218,354,225.333
		c2.667,10.667,10,23.333,18,29.333"/>
	<g>
		<path fill="none" stroke="#4D4D4D" stroke-width="2" stroke-miterlimit="10" d="M393,206c-5,7.5-8,20.5-10.5,29.5
			c-2.5,8-3.5,19-7,26"/>
		<path fill="none" stroke="#4D4D4D" stroke-width="2" stroke-miterlimit="10" d="M374.5,180.158c0.5,14.382,4.5,26.463,4.5,40.846
			c0,14.958-1.5,28.189-6,41.997"/>
		<g>
			<g>
				<g>
					<path fill="#19D881" stroke="#333333" stroke-width="3" stroke-miterlimit="10" d="M345.439,98.598
						c-0.271,3.031-0.27,6.013-0.019,8.916c0.248,2.902,0.748,5.726,1.473,8.438c7.514,17.385,14.81,43.812,31.649,44.457
						c15.964,1.426,27.751-22.439,38.226-38.218c1.195-2.541,2.186-5.232,2.945-8.044c0.76-2.813,1.29-5.748,1.561-8.778
						c2.164-24.245-13.059-45.415-33.998-47.284C366.336,56.216,347.604,74.354,345.439,98.598z"/>
					<path fill="#15AF66" d="M419.648,108.092c-0.257,2.88-0.755,5.673-1.482,8.349c-0.729,2.676-1.666,5.229-2.814,7.648
						c-8.763,13.153-18.493,32.219-31.028,35.809c-1.772,0.51-3.593,0.71-5.479,0.542c-0.898-0.033-1.77-0.148-2.609-0.329
						c-14.259-3.079-20.871-26.363-27.65-41.984c-0.691-2.583-1.171-5.262-1.413-8.025c-0.11-1.251-0.158-1.248-0.169-2.527
						c1.8-0.499,3.65-2.09,5.571-2.214c11.888-0.773,22.779,5.864,29.223,16.43c8.834-13.185,23.913-20.034,38.009-16.091
						C419.773,106.489,419.721,107.286,419.648,108.092z"/>
				</g>
				<path fill="#15AF66" d="M420.185,106.281c-0.271,3.028-0.793,5.963-1.556,8.776c-0.764,2.813-3.062,5.963-4.263,8.506
					c-7.667,11.544-14.716,26.947-24.899,34.069c-4.995-8.94-8.766-20.119-12.584-28.964c-0.722-2.715-1.224-5.53-1.476-8.435
					c-0.254-2.904-0.248-5.885,0.022-8.913c1.886-21.126,16.34-37.616,33.876-40.277C417.084,79.85,421.408,92.575,420.185,106.281z
					"/>
			</g>
			<g>
				<path fill="#F7E326" stroke="#333333" stroke-width="3" stroke-miterlimit="10" d="M314.708,152.998
					c0.182,2.733,0.597,5.386,1.222,7.934c0.626,2.547,1.464,4.99,2.482,7.301c9.102,14.422,19.265,36.917,34.335,35.149
					c14.4-0.951,21.567-23.818,28.692-39.311c0.71-2.427,1.215-4.957,1.503-7.564c0.285-2.608,0.349-5.292,0.167-8.026
					c-1.445-21.868-17.929-38.585-36.815-37.337C327.406,112.39,313.263,131.129,314.708,152.998z"/>
				<path fill="#FFF39F" d="M361.263,159.245c-0.271,2.479-0.76,4.893-1.444,7.202c-4.87,10.405-8.794,25.704-16.176,33.293
					c-9.421-5.937-17.632-22.021-24.309-32.367c-0.993-2.202-1.81-4.53-2.423-6.956c-0.612-2.435-1.021-4.957-1.197-7.563
					c-1.099-15.785,7.447-30.512,19.179-36.891c14.625,3.285,25.305,18.065,26.516,35.637
					C361.595,154.208,361.532,156.764,361.263,159.245z"/>
			</g>
			<g>
				<path fill="#0071BC" stroke="#333333" stroke-width="3" stroke-miterlimit="10" d="M371.049,140.645
					c-0.845,2.729-1.434,5.467-1.778,8.182c-0.344,2.714-0.441,5.405-0.313,8.038c3.465,17.445,4.946,43.15,20.279,47.065
					c14.378,4.461,29.91-15.121,42.643-27.539c1.598-2.098,3.037-4.372,4.292-6.804c1.253-2.432,2.32-5.022,3.166-7.751
					c6.773-21.832-3.021-44.273-21.876-50.125C398.604,105.859,377.825,118.813,371.049,140.645z"/>
				<path fill="#29ABE2" d="M428.552,158.982c-0.842,2.67-1.9,5.192-3.156,7.561c-1.245,2.377-2.679,4.593-4.276,6.637
					c-10.81,10.307-23.647,25.677-36.111,27.299c-10.454-7.727-12.009-28.656-15.062-43.485c-0.133-2.57-0.038-5.198,0.299-7.844
					c0.337-2.656,0.928-5.329,1.767-7.988c5.842-18.534,22.31-30.482,38.897-29.492C426.899,119.233,434.74,139.372,428.552,158.982
					z"/>
			</g>
		</g>
	</g>
</g>
<path fill="none" stroke="#1A1A1A" stroke-width="4" stroke-linecap="round" stroke-miterlimit="10" d="M250,325"/>
<path fill="none" stroke="#1A1A1A" stroke-width="4" stroke-miterlimit="10" d="M209.652,313.088
	c62.997,10.499,26.999-70.497,74.996-83.996"/>
<path fill="none" stroke="#333333" stroke-width="4" stroke-linecap="round" stroke-miterlimit="10" d="M286.5,365
	c-11-3.5-12,10-17.5,16.5c-5,6-13,10.5-20,14"/>
<path fill="none" stroke="#333333" stroke-width="4" stroke-linecap="round" stroke-miterlimit="10" d="M367,362.5
	c6-2.5,11.5-1.5,17.5-5.5c7.5-4.5,20-24.665,27.5-30.165"/>
<path fill="#FFFFFF" stroke="#333333" stroke-width="3" stroke-miterlimit="10" d="M328.049,195.396
	c42.385,0,76.745,34.304,76.745,76.62c0,17.477-5.86,33.514-15.728,46.404c0,0-22.809,28.924-22.809,46.08h-76.689
	c0-17.156-22.811-46.08-22.811-46.08c-9.867-12.891-15.727-28.965-15.727-46.441C251.031,229.663,285.664,195.396,328.049,195.396"
	/>
<path fill="#808080" stroke="#333333" stroke-width="3" stroke-miterlimit="10" d="M315.014,416.5c1.37,6.02,6.74,10.5,13.17,10.5
	s11.8-4.48,13.17-10.5H315.014z"/>
<path fill="#999999" stroke="#333333" stroke-width="3" stroke-miterlimit="10" d="M292.413,401.563
	c-4.525,0-7.913,2.624-7.913,5.783v3.434c0,3.159,2.93,5.721,7.456,5.721h72.126c4.527,0,8.418-2.562,8.418-5.721v-3.434
	c0-3.159-3.743-5.846-8.27-5.846h0.148h3.731c2.257,0,4.39-2.436,4.39-5.596v-18.309c0-3.159-2.133-6.096-4.39-6.096h-3.731h-0.148
	c4.526,0,8.27-2.186,8.27-5.346v-3.434c0-3.16-3.891-5.221-8.418-5.221h-72.126c-4.526,0-7.456,2.061-7.456,5.221v3.434
	c0,3.16,2.93,5.346,7.456,5.346h-0.253h-3.731c-2.258,0-3.472,2.937-3.472,6.096v18.309c0,3.16,1.214,5.596,3.472,5.596H292"/>
<g>
	<line fill="#999999" x1="365.09" y1="371.393" x2="348.737" y2="373.572"/>
	<polygon fill="#333333" points="365.288,372.88 348.737,373.572 364.892,369.905 	"/>
</g>
<g>
	<line fill="#999999" x1="365.09" y1="401.393" x2="348.737" y2="403.572"/>
	<polygon fill="#333333" points="365.288,402.88 348.737,403.572 364.892,399.905 	"/>
</g>
<g>
	<line fill="#999999" x1="291.795" y1="371.532" x2="308.277" y2="371.145"/>
	<polygon fill="#333333" points="291.76,370.032 308.277,371.145 291.83,373.032 	"/>
</g>
<g>
	<line fill="#999999" x1="291.795" y1="401.532" x2="308.277" y2="401.145"/>
	<polygon fill="#333333" points="291.76,400.032 308.277,401.145 291.83,403.032 	"/>
</g>
<path fill="#CCCCCC" stroke="#4D4D4D" stroke-width="2" stroke-miterlimit="10" d="M351.939,270.69
	c1.447,1.235,6.695-3.242,5.244-4.479c-9.271-7.914-20.08-8.316-30.06-1.264c-7.032-5.095-13.102-5.84-18.195-5.84
	c-5.093,0-11.163,0.745-18.194,5.84c-9.979-7.056-20.787-6.652-30.06,1.264c-1.45,1.237,3.796,5.715,5.245,4.479
	c3.193-2.726,6.496-4.188,9.82-4.353c3.147-0.15,6.422,0.895,9.742,3.126c-8.959,9.125-9.231,18.594-6.482,24.256
	c2.286,4.716,6.803,7.53,12.08,7.53c5.213,0,9.654-2.732,11.875-7.314c2.731-5.625,2.334-15.148-6.945-24.494
	c5.767-4,10.154-4,12.919-4s7.153,0,12.919,4c-9.277,9.346-9.676,18.869-6.945,24.494c2.223,4.582,6.66,7.314,11.877,7.314
	c5.276,0,9.793-2.814,12.081-7.53c2.747-5.662,2.475-15.131-6.485-24.256c3.318-2.231,6.582-3.28,9.744-3.126
	C345.441,266.502,348.744,267.965,351.939,270.69 M285.854,291.296c-2.023-4.173-1.13-10.884,4.908-17.327
	c6.313,6.635,7.344,13.408,5.34,17.545c-0.619,1.27-2.09,3.403-5.021,3.403C287.948,294.917,286.381,292.385,285.854,291.296
	 M327.098,273.969c6.035,6.443,6.932,13.154,4.907,17.327c-0.529,1.089-2.097,3.621-5.226,3.621c-2.932,0-4.404-2.134-5.023-3.403
	C319.751,287.377,320.781,280.604,327.098,273.969"/>
<ellipse cx="326.553" cy="289.633" rx="5.697" ry="5.055"/>
<ellipse cx="291.281" cy="289.633" rx="5.697" ry="5.055"/>
<path fill="#4D4D4D" stroke="#000000" stroke-width="2" stroke-miterlimit="10" d="M288.174,318.623
	c0.103,0.344,0.222,0.684,0.354,1.023c2.694,6.953,11.084,12.021,21.018,12.021c9.935,0,18.327-5.067,21.022-12.021
	c0.13-0.34,0.25-0.68,0.353-1.023c0-3.107-9.57-5.623-21.375-5.623S288.174,315.516,288.174,318.623z"/>
<path fill="#999999" stroke="#000000" stroke-width="2" stroke-miterlimit="10" d="M292.903,325.79
	c4.021,3.601,9.98,5.88,16.641,5.88c7.34,0,13.829-2.76,17.81-7.01c-3.699-1.62-9.57-2.66-16.17-2.66
	C303.124,322,296.153,323.55,292.903,325.79z"/>
<path fill="none" stroke="#1A1A1A" stroke-width="4" stroke-miterlimit="10" d="M303,417.334c0,19.552,0,36.311-5.333,54.746"/>
<ellipse fill="#1A1A1A" stroke="#1A1A1A" stroke-miterlimit="10" cx="289.489" cy="474" rx="12.489" ry="5"/>
<path fill="none" stroke="#1A1A1A" stroke-width="4" stroke-miterlimit="10" d="M357,416.334c0,19.603,0.813,31.651-4.688,50.666"/>
<path fill="#1A1A1A" stroke="#1A1A1A" stroke-miterlimit="10" d="M356.85,466.69c-5.6,2.619-11.31,5.029-17.129,7.22
	C336.84,473,335,471.58,335,470c0-2.76,5.59-5,12.49-5C351.221,465,354.57,465.65,356.85,466.69z"/>
<path fill="none" stroke="#1A1A1A" stroke-width="4" stroke-linecap="round" stroke-miterlimit="10" d="M310,366"/>
<ellipse fill="#1A1A1A" cx="184.476" cy="476.25" rx="11.824" ry="5.25"/>
<path fill="none" stroke="#1A1A1A" stroke-width="4" stroke-miterlimit="10" d="M86.648,308.088
	C23.651,318.587,77.997,261.394,30,247.895"/>
<g>
	<path fill="none" stroke="#1A1A1A" stroke-width="4" stroke-miterlimit="10" d="M116.149,419.582
		c3,17.999,7.588,20.438,1.589,35.437"/>
	<path fill="none" stroke="#1A1A1A" stroke-width="4" stroke-miterlimit="10" d="M174.151,419.582
		c-3,17.999-1.5,37.498,4.499,52.497"/>
</g>
<g>
	<path fill="#808080" stroke="#333333" stroke-width="3" stroke-miterlimit="10" d="M210.5,414.479c0,2.129-1.033,4.021-2.695,4.021
		H83.707c-1.66,0-3.207-1.892-3.207-4.021V206.354c0-2.128,1.547-3.854,3.207-3.854h124.098c1.662,0,2.695,1.726,2.695,3.854
		V414.479z"/>
</g>
<g>
	<path fill="#FFFFFF" stroke="#333333" stroke-width="3" stroke-miterlimit="10" d="M165.626,302.628
		c15.717,0,28.457-18.606,28.457-41.567c0-22.964-12.74-41.561-28.457-41.561H124.61c-15.715,0-28.456,18.597-28.456,41.561
		c0,22.961,12.741,41.558,28.456,41.558L165.626,302.628z"/>
</g>
<path fill="#4D4D4D" stroke="#333333" stroke-width="2" stroke-miterlimit="10" d="M131,274v6.05c0,4.703,6.119,8.45,13.5,8.45
	s13.5-3.875,13.5-8.578V274H131z"/>
<circle fill="#FFFFFF" stroke="#333333" stroke-width="3" stroke-miterlimit="10" cx="145" cy="386" r="12"/>
<circle fill="#FFFFFF" stroke="#333333" stroke-width="3" stroke-miterlimit="10" cx="145" cy="336" r="12"/>
<polygon fill="#4D4D4D" points="150.187,329.924 152.062,331.799 147.374,336.486 151.593,340.705 149.718,342.58 145.499,338.361 
	141.28,342.58 139.405,340.705 143.624,336.486 138.937,331.799 140.812,329.924 145.5,334.611 "/>
<polygon fill="#4D4D4D" points="150.187,379.924 152.062,381.799 147.374,386.486 151.593,390.705 149.718,392.58 145.499,388.361 
	141.28,392.58 139.405,390.705 143.624,386.486 138.937,381.799 140.812,379.924 145.5,384.611 "/>
<g>
	<path fill="none" stroke="#333333" stroke-width="3" stroke-miterlimit="10" d="M114.93,257.583c0-5.352,4.048-9.688,9.039-9.688
		s9.038,4.337,9.038,9.688"/>
	<path fill="none" stroke="#333333" stroke-width="3" stroke-miterlimit="10" d="M157.229,257.583c0-5.352,4.048-9.688,9.039-9.688
		s9.038,4.337,9.038,9.688"/>
</g>
<path fill="#B3B3B3" stroke="#000000" stroke-miterlimit="10" d="M156.89,282.95c-2.29,2.7-6.79,4.55-11.89,4.55
	c-5.51,0-10.32-2.09-12.4-5.109c2.011-1.961,6.58-3.341,11.9-3.341C150.31,279.05,155.23,280.689,156.89,282.95z"/>
<g>
	<path fill="#19D881" stroke="#333333" stroke-width="3" stroke-miterlimit="10" d="M112.619,198.447l46.197-77.415l22.245,87.091
		l0,0c-0.757,5.065-16.556,6.903-35.505,4.07c-18.952-2.833-33.613-9.223-32.855-14.289"/>
	
		<ellipse transform="matrix(0.989 0.1479 -0.1479 0.989 28.1627 -18.4032)" fill="#2E3192" cx="137.866" cy="180.229" rx="5.343" ry="7.417"/>
	<path fill="#2E3192" d="M148.769,143.433c-0.578,3.868-3.199,6.711-5.971,6.58l5.918-9.864
		C148.909,141.169,148.94,142.286,148.769,143.433z"/>
	<path fill="#2E3192" d="M136.215,163.801c-0.554,3.709-2.991,6.479-5.634,6.581l5.654-9.429
		C136.36,161.851,136.363,162.812,136.215,163.801z"/>
	<path fill="#2E3192" d="M124.951,181.328c-0.497,3.323-2.506,5.894-4.822,6.469l4.927-8.213
		C125.075,180.154,125.04,180.735,124.951,181.328z"/>
	<path fill="#2E3192" d="M131.591,200.521c-0.472,3.155-2.313,5.64-4.477,6.358c-1.779-0.59-3.432-1.211-4.926-1.858
		c-1.034-1.521-1.518-3.726-1.166-6.079c0.604-4.045,3.462-6.975,6.38-6.539C130.319,192.839,132.195,196.476,131.591,200.521z"/>
	
		<ellipse transform="matrix(0.989 0.1478 -0.1478 0.989 31.2853 -19.4453)" fill="#2E3192" cx="146.444" cy="200.723" rx="5.743" ry="7.417"/>
	
		<ellipse transform="matrix(0.989 0.1478 -0.1478 0.989 31.5164 -22.6172)" fill="#2E3192" cx="167.919" cy="200.724" rx="5.609" ry="7.243"/>
	
		<ellipse transform="matrix(0.989 0.1479 -0.1479 0.989 28.3853 -21.4024)" fill="#2E3192" cx="158.153" cy="180.229" rx="5.743" ry="7.417"/>
	<path fill="#2E3192" d="M175.44,189.271c-0.155-0.003-0.317-0.018-0.478-0.042c-3.137-0.469-5.191-4.132-4.585-8.187
		c0.252-1.682,0.925-3.179,1.862-4.303L175.44,189.271z"/>
	<path fill="#2E3192" d="M170.148,168.581c-0.804,0.344-1.661,0.469-2.524,0.34c-3.137-0.469-5.19-4.133-4.584-8.188
		c0.393-2.631,1.812-4.776,3.619-5.82L170.148,168.581z"/>
	
		<ellipse transform="matrix(0.989 0.1478 -0.1478 0.989 25.3989 -20.3219)" fill="#2E3192" cx="149.426" cy="160.724" rx="5.343" ry="7.416"/>
	<path fill="#2E3192" d="M165.001,146.86c-1.185,1.33-2.718,2.051-4.266,1.82c-2.917-0.436-4.794-4.074-4.188-8.128
		c0.521-3.481,2.717-6.146,5.177-6.526L165.001,146.86z"/>
	<path fill="#2E3192" d="M160.223,129.317c-0.62,0.355-1.29,0.5-1.969,0.398c-1.058-0.158-1.93-0.884-2.484-1.941l2.848-4.748
		L160.223,129.317z"/>
</g>
<g>
	<g>
		<path fill="#4D4D4D" d="M81.004,72.432c44.748-0.151,88.3-10.805,131.689-20.6c20.252-4.572,40.763-7.854,60.995-12.467
			c18.644-4.25,36.559-10.954,51.718-22.851c1.521-1.193-0.618-3.301-2.121-2.121c-15.673,12.3-34.419,18.543-53.643,22.81
			c-19.807,4.396-39.83,7.692-59.633,12.162c-42.513,9.597-85.165,19.919-129.005,20.067C79.07,69.438,79.069,72.438,81.004,72.432
			L81.004,72.432z"/>
	</g>
</g>
<g>
	<polygon fill="#19D881" stroke="#4D4D4D" stroke-width="3" stroke-miterlimit="10" points="180.187,58.498 189.847,106.954 
		171.843,97.451 158.756,112.607 149.201,64.675 	"/>
	<g>
		
			<line fill="none" stroke="#FFFFFF" stroke-width="4" stroke-linecap="round" stroke-linejoin="round" stroke-miterlimit="10" x1="175.295" y1="78.773" x2="162.687" y2="85.472"/>
		<path fill="none" stroke="#FFFFFF" stroke-width="4" stroke-linecap="round" stroke-linejoin="round" stroke-miterlimit="10" d="
			M176.183,83.902c-0.342,2.149-1.574,4.058-3.536,5.101c-3.482,1.849-7.942,0.268-9.959-3.531
			c-2.018-3.801-0.831-8.379,2.65-10.229c3.482-1.849,7.94-0.27,9.959,3.532"/>
	</g>
</g>
<polygon fill="#5A0BD6" stroke="#4D4D4D" stroke-width="3" stroke-linecap="round" stroke-linejoin="round" stroke-miterlimit="10" points="
	242.326,45.829 248.475,102.355 229.949,89.247 214.607,105.411 208.526,49.505 "/>
<g>
	
		<line fill="none" stroke="#FFFFFF" stroke-width="4" stroke-linecap="round" stroke-linejoin="round" stroke-miterlimit="10" x1="235.591" y1="67.851" x2="220.191" y2="74.361"/>
	<path fill="none" stroke="#FFFFFF" stroke-width="4" stroke-linecap="round" stroke-linejoin="round" stroke-miterlimit="10" d="
		M236.095,73.925c-0.621,2.472-2.256,4.571-4.652,5.584c-4.253,1.797-9.292-0.509-11.251-5.147
		c-1.961-4.643-0.104-9.86,4.148-11.657c4.253-1.797,9.291,0.506,11.252,5.149"/>
</g>
<g>
	
		<polygon fill="#C1272D" stroke="#4D4D4D" stroke-width="3" stroke-linecap="round" stroke-linejoin="round" stroke-miterlimit="10" points="
		299.351,33.761 306.895,83.742 288.953,73.166 274.852,88.026 267.39,38.585 	"/>
	<g>
		
			<ellipse transform="matrix(0.9888 -0.1493 0.1493 0.9888 -5.0829 43.3586)" fill="none" stroke="#FFFFFF" stroke-width="4" stroke-linecap="round" stroke-linejoin="round" stroke-miterlimit="10" cx="286.313" cy="55.542" rx="7.313" ry="7.97"/>
		
			<line fill="none" stroke="#FFFFFF" stroke-width="4" stroke-linecap="round" stroke-linejoin="round" stroke-miterlimit="10" x1="278.029" y1="49.665" x2="281.105" y2="70.04"/>
	</g>
</g>
<polygon fill="#0071BC" stroke="#4D4D4D" stroke-width="3" stroke-linecap="round" stroke-linejoin="round" stroke-miterlimit="10" points="
	125.828,68.93 131.018,125.554 111.223,112.269 94.115,128.309 88.982,72.307 "/>
<g>
	<path fill="none" stroke="#FFFFFF" stroke-width="4" stroke-linecap="round" stroke-linejoin="round" stroke-miterlimit="10" d="
		M103.223,95.673c-0.46-5.018,2.548-9.395,6.717-9.777c4.171-0.382,7.922,3.375,8.381,8.393l0.736,8.031"/>
	
		<line fill="none" stroke="#FFFFFF" stroke-width="4" stroke-linecap="round" stroke-linejoin="round" stroke-miterlimit="10" x1="103.959" y1="103.704" x2="101.806" y2="80.218"/>
</g>
</svg>
