<?xml version="1.0" encoding="utf-8"?>
<!-- Generator: Adobe Illustrator 16.0.0, SVG Export Plug-In . SVG Version: 6.00 Build 0)  -->
<!DOCTYPE svg PUBLIC "-//W3C//DTD SVG 1.1//EN" "http://www.w3.org/Graphics/SVG/1.1/DTD/svg11.dtd">
<svg version="1.1" id="Layer_1" xmlns="http://www.w3.org/2000/svg" xmlns:xlink="http://www.w3.org/1999/xlink" x="0px" y="0px"
	 width="500px" height="500px" viewBox="0 0 500 500" enable-background="new 0 0 500 500" xml:space="preserve">
<g>
	<circle fill="#F2F2F2" cx="250" cy="249.927" r="244.625"/>
	<path fill="none" stroke="#333333" stroke-width="3" stroke-linecap="round" stroke-miterlimit="10" d="M370.068,359.097"/>
	<path fill="none" stroke="#333333" stroke-width="3" stroke-linecap="round" stroke-miterlimit="10" d="M120.301,359.097"/>
	<path fill="none" stroke="#333333" stroke-width="3" stroke-linejoin="round" stroke-miterlimit="10" d="M439.49,384.271"/>
	<path fill="none" stroke="#333333" stroke-width="3" stroke-linejoin="round" stroke-miterlimit="10" d="M368.688,361.577"/>
	<path fill="#B3B3B3" stroke="#333333" stroke-miterlimit="10" d="M174.974,89.208l-68.965-33.241
		C87.195,70.175,70.5,87.077,56.5,106.079v254.99l0.256-1.489L175.5,317.208V90.069L174.974,89.208z"/>
	<g>
		<path fill="#333333" d="M125.194,259c-0.212,0-0.406,0.156-0.62,0.145l-1.574,0.07V259h-8V133h8v0.28l1.574-0.17
			c0.214-0.012,0.408-0.11,0.62-0.11c0.024,0,0.048,0,0.072,0c16.448,0,29.829,28.229,29.829,63c0,34.771-13.381,63-29.829,63
			C125.243,259,125.218,259,125.194,259z"/>
		<path fill="#333333" d="M125,135c0,0,0.224,0,0.267,0c15.356,0,28.329,28.131,28.329,61.5c0,33.369-12.973,61.5-28.329,61.5
			c-0.042,0-0.084,0-0.125,0c-0.165,0-0.567-0.094-0.734-0.103L121,257.645V258h-5V135h5v-0.12l3.407-0.022
			c0.167-0.009,0.569,0.142,0.734,0.142 M125.025,131.695c-0.267,0-0.025,0-1.025,0.015V132h-11v129h11v-0.2
			c1,0.015,0.758,0.015,1.025,0.015c17.309,0,31.329-28.906,31.329-64.559C156.354,160.601,142.333,131.695,125.025,131.695
			L125.025,131.695z"/>
	</g>
	
		<ellipse fill="#FFFFFF" stroke="#333333" stroke-width="3" stroke-miterlimit="10" cx="115.868" cy="196.59" rx="31.33" ry="62.658"/>
	<g>
		<g>
			<g enable-background="new    ">
				<defs>
					<rect id="SVGID_1_" x="108" y="176" enable-background="new    " width="19" height="49"/>
				</defs>
				<clipPath id="SVGID_2_">
					<use xlink:href="#SVGID_1_"  overflow="visible"/>
				</clipPath>
				<g clip-path="url(#SVGID_2_)">
					<g>
						<g>
							<g>
								<path fill="#333333" d="M109,176.292c-0.634,0-1,0.675-1,1.503v45.423c0,0.828,0.366,1.503,1,1.503c0.634,0,1-0.675,1-1.503
									v-45.423C110,176.967,109.634,176.292,109,176.292 M126.003,176.292c-0.634,0-1.003,0.675-1.003,1.503v45.423
									c0,0.828,0.369,1.503,1.003,1.503c0.635,0,0.997-0.675,0.997-1.503v-45.423C127,176.967,126.638,176.292,126.003,176.292"/>
							</g>
						</g>
					</g>
				</g>
			</g>
		</g>
	</g>
	<path fill="#333333" stroke="#333333" stroke-miterlimit="10" d="M7.644,250.082c0,39.569,9.614,77.418,26.422,110.418H54.5
		V106.079C24.5,146.274,7.644,196.382,7.644,250.082z"/>
	<path fill="#333333" d="M173.942,87.951l-69.993-33.811l-0.885,0.577C85.372,68.078,70,83.801,56,101.447v-0.145l-2.762,3.849
		L53,105.565v0.009C22,147.585,6.11,197.369,6.11,249.583c0,38.954,8.954,76.142,26.508,110.597l0.487,0.82h20.103l3.222-0.281
		l117.727-42.054l0.843-0.353V89.52L173.942,87.951z M35.028,358C17.986,324,9.244,287.749,9.244,249.615
		C9.244,199.519,24,151.656,53,110.936V358H35.028z M172,316.104L56,357.459V106.594c14-18.499,30-34.91,48.24-48.799l67.681,32.67
		L172,90.619V316.104z"/>
	<g>
		<path fill="#F7AA46" stroke="#333333" stroke-width="2" stroke-miterlimit="10" d="M244.161,153.5c0,5.733-3.051,10.5-6.813,10.5
			h-37.635c-3.764,0-6.813-4.766-6.813-10.5l0,0c0-5.733,3.05-10.5,6.813-10.5h37.635C241.11,143,244.161,147.767,244.161,153.5
			L244.161,153.5z"/>
		<path fill="#F99D23" stroke="#333333" stroke-width="2" stroke-miterlimit="10" d="M238.97,159c0,5.733-3.05,11-6.813,11h-37.635
			c-3.764,0-6.813-5.267-6.813-11l0,0c0-5.733,3.05-11,6.813-11h37.635C235.92,148,238.97,153.267,238.97,159L238.97,159z"/>
	</g>
	<g>
		<path fill="#4D4D4D" d="M235,201v0.273c0,0.016-0.166,0.016-0.229,0.016c-11.466,0-20.775-18.595-20.775-41.527
			c0-22.934,9.279-41.659,20.746-41.659c0.234,0,0.459-0.103,0.694-0.103h34.618c-7.408,1-13.832,8.89-17.292,20.982
			c-1.756,6.079-2.759,13.194-2.759,20.713c0,7.52,1.003,14.457,2.759,20.534c3.57,12.47,10.29,20.771,17.997,20.771H235z"/>
		<path fill="#333333" d="M254.387,179.974c-1.764-6.11-2.804-13.099-2.804-20.212c0-7.111,0.925-14.101,2.691-20.216
			c3.361-11.74,9.445-19.296,15.888-19.717l-0.105-3.13c0,0-35.056-0.03-35.324-0.03c-12.518,0-22.499,18.929-22.499,43.093
			c0,23.271,8.767,41.687,20.767,43.018V203h38v-3.277C265,199.723,257.877,192.156,254.387,179.974z M236.485,200h-1.816
			c-10.374,0-19.127-18.482-19.127-40.1c0-21.661,8.787-40.029,19.189-40.029c0.201,0,27.513-0.004,27.513-0.004
			c-4.617,3.602-8.493,10.121-10.988,18.832c-1.844,6.39-2.818,13.67-2.818,21.072s0.975,14.827,2.818,21.211
			c2.513,8.774,6.382,15.018,10.992,19.018H236.485z"/>
	</g>
	
		<ellipse fill="#E6E6E6" stroke="#333333" stroke-width="3" stroke-miterlimit="10" cx="269.199" cy="159.761" rx="20.764" ry="41.528"/>
	
		<line fill="none" stroke="#000000" stroke-width="2" stroke-miterlimit="10" x1="225.521" y1="188.757" x2="225.521" y2="188.757"/>
	<path fill="none" stroke="#333333" stroke-width="5" stroke-miterlimit="10" d="M270.948,158.347
		c21.931-3.813,159.78-20.967,120.618,43.836c-10.965,17.153-65.792,22.872-68.925,41.931c-4.699,20.965,32.896,5.718,17.231,34.308
		c-4.699,9.528-37.596,19.061-46.994,22.871"/>
	<path fill="#4D4D4D" stroke="#333333" stroke-width="3" stroke-miterlimit="10" d="M418.698,385.615
		c-4.84,29.324-39.382,48.06-77.166,41.825c-22.445-3.713-40.978-15.383-51.3-30.39l-69.349-11.42
		c-14.6,10.887-35.903,15.993-58.352,12.298c-37.783-6.235-64.491-35.058-59.651-64.383c4.841-29.324,39.382-48.06,77.165-41.824
		c3.133,0.516,6.203,1.19,9.163,2.02L349.726,320.2l18.406,3.038C401.013,332.215,423.146,358.704,418.698,385.615z"/>
	<path fill="#FFFFFF" stroke="#333333" stroke-width="3" stroke-miterlimit="10" d="M420.265,374.65
		c-4.84,29.323-39.382,48.059-77.166,41.825c-22.445-3.713-40.978-15.384-51.3-30.391l-69.349-11.42
		c-14.6,10.888-35.903,15.994-58.352,12.298c-37.783-6.235-64.491-35.058-59.651-64.383c4.841-29.323,39.382-48.059,77.165-41.823
		c3.133,0.516,6.203,1.19,9.163,2.02l160.517,26.458l18.406,3.038C402.579,321.249,424.713,347.738,420.265,374.65z"/>
	
		<ellipse transform="matrix(0.9867 0.1628 -0.1628 0.9867 62.6089 -49.9588)" fill="#006837" stroke="#333333" stroke-width="3" stroke-miterlimit="10" cx="336.193" cy="357.11" rx="11.403" ry="8.852"/>
	
		<ellipse transform="matrix(0.9867 0.1627 -0.1627 0.9867 64.9816 -57.1934)" fill="#C1272D" stroke="#333333" stroke-width="3" stroke-miterlimit="10" cx="381.621" cy="368.075" rx="11.402" ry="8.851"/>
	
		<ellipse transform="matrix(0.9867 0.1627 -0.1627 0.9867 60.9283 -54.7026)" fill="#0071BC" stroke="#333333" stroke-width="3" stroke-miterlimit="10" cx="364.389" cy="344.578" rx="11.402" ry="8.851"/>
	
		<ellipse transform="matrix(0.9867 0.1628 -0.1628 0.9867 66.6633 -52.4502)" fill="#FBB03B" stroke="#333333" stroke-width="3" stroke-miterlimit="10" cx="353.424" cy="380.607" rx="11.403" ry="8.852"/>
	
		<polygon fill="#4D4D4D" stroke="#333333" stroke-width="3" stroke-linecap="round" stroke-linejoin="round" stroke-miterlimit="10" points="
		197.089,329.479 194.336,342.106 172.387,337.319 167.211,361.021 154.57,358.265 159.746,334.548 137.316,329.658 140.07,317.017 
		162.515,321.924 167.033,301.248 179.658,304 175.142,324.678 	"/>
	<path fill="#4D4D4D" stroke="#333333" stroke-width="3" stroke-miterlimit="10" d="M267.163,336.088
		c0.652,2.01-0.266,4.107-2.045,4.686l-26.971,8.732c-1.78,0.575-3.753-0.588-4.404-2.598l0,0c-0.65-2.014,0.266-4.11,2.047-4.686
		l26.971-8.73C264.541,332.914,266.512,334.076,267.163,336.088L267.163,336.088z"/>
	<path fill="#4D4D4D" stroke="#333333" stroke-width="3" stroke-miterlimit="10" d="M300.06,343.92
		c0.651,2.011-0.267,4.107-2.046,4.687l-26.971,8.731c-1.78,0.575-3.753-0.588-4.402-2.598l0,0c-0.652-2.013,0.265-4.11,2.045-4.686
		l26.971-8.73C297.438,340.746,299.407,341.909,300.06,343.92L300.06,343.92z"/>
	<g>
		<path fill="#333333" d="M258.872,304.063l-0.651,4.488c0.884-0.774,1.85-1.085,2.898-0.932c0.539,0.078,1.01,0.248,1.414,0.511
			c0.403,0.262,0.694,0.566,0.868,0.907c0.175,0.343,0.274,0.71,0.299,1.099c0.025,0.389-0.019,0.98-0.132,1.774l-0.753,5.188
			l-2.34-0.34l0.676-4.672c0.135-0.926,0.176-1.521,0.124-1.785c-0.054-0.26-0.181-0.483-0.386-0.662
			c-0.203-0.18-0.473-0.294-0.813-0.343c-0.388-0.057-0.749-0.013-1.079,0.131c-0.334,0.146-0.601,0.396-0.796,0.758
			c-0.197,0.357-0.351,0.912-0.459,1.655l-0.641,4.429l-2.339-0.338l1.77-12.208L258.872,304.063z"/>
		<path fill="#333333" d="M270.717,315.37l2.275,0.729c-0.424,0.812-0.991,1.393-1.703,1.746c-0.711,0.354-1.553,0.46-2.524,0.318
			c-1.538-0.223-2.602-0.891-3.195-2.003c-0.465-0.889-0.608-1.945-0.432-3.173c0.213-1.465,0.761-2.559,1.646-3.278
			c0.887-0.719,1.915-0.992,3.087-0.822c1.315,0.19,2.292,0.776,2.927,1.756c0.633,0.979,0.805,2.361,0.512,4.148l-5.861-0.849
			c-0.086,0.695,0.024,1.264,0.33,1.702c0.305,0.438,0.727,0.694,1.264,0.772c0.367,0.054,0.689-0.001,0.97-0.165
			C270.29,316.089,270.525,315.796,270.717,315.37z M271.192,313.023c0.083-0.679-0.018-1.219-0.3-1.62
			c-0.282-0.4-0.66-0.635-1.138-0.705c-0.513-0.073-0.961,0.051-1.347,0.375c-0.388,0.324-0.627,0.805-0.713,1.444L271.192,313.023z
			"/>
		<path fill="#333333" d="M280.2,316.744l2.276,0.729c-0.426,0.813-0.993,1.394-1.704,1.747c-0.712,0.354-1.553,0.459-2.524,0.318
			c-1.539-0.222-2.603-0.891-3.195-2.003c-0.467-0.889-0.61-1.947-0.432-3.173c0.213-1.465,0.76-2.559,1.647-3.277
			c0.886-0.72,1.915-0.993,3.087-0.823c1.315,0.191,2.29,0.775,2.925,1.755c0.634,0.979,0.807,2.363,0.513,4.149l-5.862-0.849
			c-0.085,0.696,0.026,1.264,0.332,1.701c0.303,0.438,0.726,0.696,1.264,0.774c0.365,0.053,0.688-0.002,0.967-0.166
			C279.773,317.465,280.009,317.169,280.2,316.744z M280.678,314.399c0.081-0.68-0.021-1.22-0.304-1.62
			c-0.281-0.401-0.66-0.637-1.136-0.706c-0.513-0.073-0.96,0.051-1.347,0.375s-0.626,0.805-0.711,1.444L280.678,314.399z"/>
		<path fill="#333333" d="M285.371,311.338l2.181,0.316l-0.188,1.299c0.346-0.402,0.783-0.708,1.305-0.915
			c0.524-0.206,1.078-0.269,1.667-0.184c1.026,0.148,1.841,0.678,2.441,1.585c0.599,0.91,0.793,2.084,0.585,3.521
			c-0.215,1.478-0.74,2.574-1.58,3.287c-0.84,0.715-1.775,0.997-2.802,0.848c-0.489-0.07-0.918-0.231-1.284-0.481
			c-0.371-0.255-0.739-0.647-1.111-1.183l-0.646,4.454l-2.34-0.34L285.371,311.338z M287.065,315.945
			c-0.144,0.994-0.052,1.758,0.272,2.289c0.324,0.532,0.771,0.84,1.337,0.922c0.545,0.078,1.028-0.075,1.452-0.457
			c0.424-0.384,0.708-1.072,0.852-2.065c0.135-0.929,0.049-1.645-0.259-2.146c-0.307-0.505-0.735-0.795-1.283-0.875
			c-0.572-0.084-1.08,0.069-1.521,0.455C287.476,314.454,287.191,315.08,287.065,315.945z"/>
	</g>
</g>
</svg>
